{
	"asset":{
		"generator":"Khronos glTF Blender I/O v4.1.63",
		"version":"2.0"
	},
	"scene":0,
	"scenes":[
		{
			"name":"Scene",
			"nodes":[
				22
			]
		}
	],
	"nodes":[
		{
			"name":"\u30dc\u30fc\u30f3.004",
			"rotation":[
				0.006038724910467863,
				-1.1920712239543718e-07,
				7.198724394363865e-10,
				0.9999817609786987
			],
			"scale":[
				1,
				0.9999999403953552,
				0.9999999403953552
			],
			"translation":[
				-7.115161793080915e-10,
				0.38708338141441345,
				-1.1451936288153775e-08
			]
		},
		{
			"children":[
				0
			],
			"name":"\u30dc\u30fc\u30f3.003",
			"rotation":[
				0.040634941309690475,
				1.944496214622459e-16,
				9.68812141621811e-09,
				0.9991740584373474
			],
			"scale":[
				1,
				0.9999999403953552,
				1
			],
			"translation":[
				-4.795417396508128e-10,
				0.5976460576057434,
				-3.38036798552821e-08
			]
		},
		{
			"name":"\u30dc\u30fc\u30f3.008",
			"rotation":[
				-0.022597750648856163,
				3.411265424801968e-05,
				-0.0072010476142168045,
				0.9997187256813049
			],
			"scale":[
				0.9999998807907104,
				0.9999999403953552,
				1
			],
			"translation":[
				1.8004996604759071e-07,
				1.0081794261932373,
				6.868503987789154e-09
			]
		},
		{
			"children":[
				2
			],
			"name":"\u30dc\u30fc\u30f3.007",
			"rotation":[
				0.018302081152796745,
				-1.2143016647314653e-05,
				0.029609225690364838,
				0.9993939995765686
			],
			"scale":[
				1.0000001192092896,
				1,
				1.0000001192092896
			],
			"translation":[
				3.1937486255628755e-07,
				0.9836687445640564,
				-7.450580596923828e-09
			]
		},
		{
			"children":[
				3
			],
			"name":"\u30dc\u30fc\u30f3.006",
			"rotation":[
				-0.029531609266996384,
				2.840633214873378e-06,
				0.00028268794994801283,
				0.9995638132095337
			],
			"scale":[
				1,
				0.9999998807907104,
				0.9999999403953552
			],
			"translation":[
				-2.2581527048259886e-07,
				0.7158802151679993,
				1.3969838619232178e-08
			]
		},
		{
			"children":[
				4
			],
			"name":"\u30dc\u30fc\u30f3.005",
			"rotation":[
				-0.0028846904169768095,
				-0.03256959840655327,
				-0.7302281856536865,
				0.6824204921722412
			],
			"scale":[
				0.9999999403953552,
				0.9999998807907104,
				0.9999999403953552
			],
			"translation":[
				-4.795417396508128e-10,
				0.5976460576057434,
				-3.38036798552821e-08
			]
		},
		{
			"name":"\u30dc\u30fc\u30f3.016",
			"rotation":[
				0.023671476170420647,
				0.9184456467628479,
				-0.0014745705993846059,
				0.394835501909256
			],
			"scale":[
				0.9999998807907104,
				0.9999994039535522,
				0.9999999403953552
			],
			"translation":[
				-3.46451997756958e-07,
				1.0081795454025269,
				-2.2351741790771484e-08
			]
		},
		{
			"children":[
				6
			],
			"name":"\u30dc\u30fc\u30f3.015",
			"rotation":[
				0.034285277128219604,
				0.9811772704124451,
				-0.00601482717320323,
				0.1899460256099701
			],
			"scale":[
				1,
				0.9999995231628418,
				1
			],
			"translation":[
				-2.3096799850463867e-07,
				0.9836685061454773,
				-1.4901161193847656e-07
			]
		},
		{
			"children":[
				7
			],
			"name":"\u30dc\u30fc\u30f3.014",
			"rotation":[
				-0.02844623103737831,
				-0.7160709500312805,
				-0.00793775636702776,
				0.6974024772644043
			],
			"scale":[
				1.0000001192092896,
				1.000000238418579,
				1.0000001192092896
			],
			"translation":[
				-4.3213367462158203e-07,
				0.7158801555633545,
				-4.507601261138916e-07
			]
		},
		{
			"children":[
				8
			],
			"name":"\u30dc\u30fc\u30f3.013",
			"rotation":[
				-0.37199991941452026,
				0.3734114468097687,
				0.6283772587776184,
				0.5721206665039062
			],
			"scale":[
				0.9999998807907104,
				0.9999998211860657,
				1
			],
			"translation":[
				0.03356581926345825,
				0.5976460576057434,
				-1.089980372626087e-08
			]
		},
		{
			"children":[
				1,
				5,
				9
			],
			"name":"\u30dc\u30fc\u30f3.002",
			"rotation":[
				0.12984412908554077,
				-7.613972386605328e-15,
				3.095724565582714e-08,
				0.9915344715118408
			],
			"scale":[
				1,
				0.9999998211860657,
				0.9999999403953552
			],
			"translation":[
				-4.4654768771579256e-10,
				0.7844403982162476,
				7.05044485016515e-08
			]
		},
		{
			"children":[
				10
			],
			"name":"\u30dc\u30fc\u30f3.001",
			"rotation":[
				-0.10222537815570831,
				3.571423281352633e-14,
				-2.4372420526219685e-08,
				0.9947612881660461
			],
			"scale":[
				1,
				0.9999999403953552,
				1
			],
			"translation":[
				2.681514565949783e-09,
				0.644597589969635,
				-1.207387523294301e-09
			]
		},
		{
			"name":"\u30dc\u30fc\u30f3.012",
			"rotation":[
				0.00015788896416779608,
				-2.654995341799804e-06,
				-0.7513062953948975,
				0.6599537134170532
			],
			"scale":[
				0.9999998807907104,
				1,
				0.9999999403953552
			],
			"translation":[
				-5.675246939063072e-09,
				1.8829799890518188,
				-2.184587799547444e-08
			]
		},
		{
			"children":[
				12
			],
			"name":"\u30dc\u30fc\u30f3.011",
			"rotation":[
				0.023020435124635696,
				-0.0005564289749599993,
				0.1469569057226181,
				0.9888748526573181
			],
			"scale":[
				0.9999999403953552,
				0.9999998807907104,
				0.9999999403953552
			],
			"translation":[
				1.7462298274040222e-08,
				1.4062820672988892,
				2.9129237688607645e-08
			]
		},
		{
			"children":[
				13
			],
			"name":"\u30dc\u30fc\u30f3.010",
			"rotation":[
				-0.6490646004676819,
				-0.04008655250072479,
				-0.046828847378492355,
				0.7582316994667053
			],
			"scale":[
				1,
				1,
				0.9999999403953552
			],
			"translation":[
				-2.523297126799662e-10,
				0.4999300241470337,
				-2.2528670484689428e-08
			]
		},
		{
			"children":[
				14
			],
			"name":"\u30dc\u30fc\u30f3.009",
			"rotation":[
				-0.5472142100334167,
				-0.4440959692001343,
				-0.5502534508705139,
				0.44783538579940796
			],
			"scale":[
				0.9999998211860657,
				0.9999998807907104,
				0.9999998807907104
			],
			"translation":[
				2.681514121860573e-09,
				-4.924186214338988e-08,
				-9.745568796404314e-10
			]
		},
		{
			"name":"\u30dc\u30fc\u30f3.020",
			"rotation":[
				-0.003098628018051386,
				-0.0037098790053278208,
				-0.7512999773025513,
				0.6599432229995728
			],
			"scale":[
				1.0000001192092896,
				1,
				1.0000001192092896
			],
			"translation":[
				3.4924596548080444e-10,
				1.8829798698425293,
				5.180481821298599e-09
			]
		},
		{
			"children":[
				16
			],
			"name":"\u30dc\u30fc\u30f3.019",
			"rotation":[
				-0.022221583873033524,
				0.007621804717928171,
				0.14707982540130615,
				0.9888456463813782
			],
			"scale":[
				1,
				0.9999999403953552,
				1
			],
			"translation":[
				2.537854015827179e-08,
				1.4062823057174683,
				7.683411240577698e-09
			]
		},
		{
			"children":[
				17
			],
			"name":"\u30dc\u30fc\u30f3.018",
			"rotation":[
				0.6487574577331543,
				0.03531714528799057,
				-0.05091001093387604,
				0.7584686279296875
			],
			"scale":[
				1,
				1,
				0.9999999403953552
			],
			"translation":[
				-6.392841811475591e-11,
				0.4999299943447113,
				7.97389976270324e-09
			]
		},
		{
			"children":[
				18
			],
			"name":"\u30dc\u30fc\u30f3.017",
			"rotation":[
				0.5502532720565796,
				-0.44783562421798706,
				0.547214150428772,
				0.44409599900245667
			],
			"scale":[
				0.9999998807907104,
				1,
				0.9999999403953552
			],
			"translation":[
				0.03356582298874855,
				-4.9240043153986335e-08,
				6.795323859165592e-09
			]
		},
		{
			"children":[
				11,
				15,
				19
			],
			"name":"\u30dc\u30fc\u30f3",
			"rotation":[
				-0.0034073323477059603,
				1.1920855058633606e-07,
				-4.061833924762226e-10,
				0.9999942183494568
			],
			"scale":[
				1,
				0.9999999403953552,
				0.9999999403953552
			],
			"translation":[
				-0.016782907769083977,
				3.4938414096832275,
				-0.0038062632083892822
			]
		},
		{
			"mesh":0,
			"name":"\u7acb\u65b9\u4f53.001",
			"skin":0
		},
		{
			"children":[
				21,
				20
			],
			"name":"\u30a2\u30fc\u30de\u30c1\u30e5\u30a2"
		}
	],
	"animations":[
		{
			"channels":[
				{
					"sampler":0,
					"target":{
						"node":20,
						"path":"translation"
					}
				},
				{
					"sampler":1,
					"target":{
						"node":20,
						"path":"rotation"
					}
				},
				{
					"sampler":2,
					"target":{
						"node":20,
						"path":"scale"
					}
				},
				{
					"sampler":3,
					"target":{
						"node":11,
						"path":"translation"
					}
				},
				{
					"sampler":4,
					"target":{
						"node":11,
						"path":"rotation"
					}
				},
				{
					"sampler":5,
					"target":{
						"node":11,
						"path":"scale"
					}
				},
				{
					"sampler":6,
					"target":{
						"node":10,
						"path":"translation"
					}
				},
				{
					"sampler":7,
					"target":{
						"node":10,
						"path":"rotation"
					}
				},
				{
					"sampler":8,
					"target":{
						"node":10,
						"path":"scale"
					}
				},
				{
					"sampler":9,
					"target":{
						"node":1,
						"path":"translation"
					}
				},
				{
					"sampler":10,
					"target":{
						"node":1,
						"path":"rotation"
					}
				},
				{
					"sampler":11,
					"target":{
						"node":1,
						"path":"scale"
					}
				},
				{
					"sampler":12,
					"target":{
						"node":0,
						"path":"translation"
					}
				},
				{
					"sampler":13,
					"target":{
						"node":0,
						"path":"rotation"
					}
				},
				{
					"sampler":14,
					"target":{
						"node":0,
						"path":"scale"
					}
				},
				{
					"sampler":15,
					"target":{
						"node":5,
						"path":"translation"
					}
				},
				{
					"sampler":16,
					"target":{
						"node":5,
						"path":"rotation"
					}
				},
				{
					"sampler":17,
					"target":{
						"node":5,
						"path":"scale"
					}
				},
				{
					"sampler":18,
					"target":{
						"node":4,
						"path":"translation"
					}
				},
				{
					"sampler":19,
					"target":{
						"node":4,
						"path":"rotation"
					}
				},
				{
					"sampler":20,
					"target":{
						"node":4,
						"path":"scale"
					}
				},
				{
					"sampler":21,
					"target":{
						"node":3,
						"path":"translation"
					}
				},
				{
					"sampler":22,
					"target":{
						"node":3,
						"path":"rotation"
					}
				},
				{
					"sampler":23,
					"target":{
						"node":3,
						"path":"scale"
					}
				},
				{
					"sampler":24,
					"target":{
						"node":2,
						"path":"translation"
					}
				},
				{
					"sampler":25,
					"target":{
						"node":2,
						"path":"rotation"
					}
				},
				{
					"sampler":26,
					"target":{
						"node":2,
						"path":"scale"
					}
				},
				{
					"sampler":27,
					"target":{
						"node":9,
						"path":"translation"
					}
				},
				{
					"sampler":28,
					"target":{
						"node":9,
						"path":"rotation"
					}
				},
				{
					"sampler":29,
					"target":{
						"node":9,
						"path":"scale"
					}
				},
				{
					"sampler":30,
					"target":{
						"node":8,
						"path":"translation"
					}
				},
				{
					"sampler":31,
					"target":{
						"node":8,
						"path":"rotation"
					}
				},
				{
					"sampler":32,
					"target":{
						"node":8,
						"path":"scale"
					}
				},
				{
					"sampler":33,
					"target":{
						"node":7,
						"path":"translation"
					}
				},
				{
					"sampler":34,
					"target":{
						"node":7,
						"path":"rotation"
					}
				},
				{
					"sampler":35,
					"target":{
						"node":7,
						"path":"scale"
					}
				},
				{
					"sampler":36,
					"target":{
						"node":6,
						"path":"translation"
					}
				},
				{
					"sampler":37,
					"target":{
						"node":6,
						"path":"rotation"
					}
				},
				{
					"sampler":38,
					"target":{
						"node":6,
						"path":"scale"
					}
				},
				{
					"sampler":39,
					"target":{
						"node":15,
						"path":"translation"
					}
				},
				{
					"sampler":40,
					"target":{
						"node":15,
						"path":"rotation"
					}
				},
				{
					"sampler":41,
					"target":{
						"node":15,
						"path":"scale"
					}
				},
				{
					"sampler":42,
					"target":{
						"node":14,
						"path":"translation"
					}
				},
				{
					"sampler":43,
					"target":{
						"node":14,
						"path":"rotation"
					}
				},
				{
					"sampler":44,
					"target":{
						"node":14,
						"path":"scale"
					}
				},
				{
					"sampler":45,
					"target":{
						"node":13,
						"path":"translation"
					}
				},
				{
					"sampler":46,
					"target":{
						"node":13,
						"path":"rotation"
					}
				},
				{
					"sampler":47,
					"target":{
						"node":13,
						"path":"scale"
					}
				},
				{
					"sampler":48,
					"target":{
						"node":12,
						"path":"translation"
					}
				},
				{
					"sampler":49,
					"target":{
						"node":12,
						"path":"rotation"
					}
				},
				{
					"sampler":50,
					"target":{
						"node":12,
						"path":"scale"
					}
				},
				{
					"sampler":51,
					"target":{
						"node":19,
						"path":"translation"
					}
				},
				{
					"sampler":52,
					"target":{
						"node":19,
						"path":"rotation"
					}
				},
				{
					"sampler":53,
					"target":{
						"node":19,
						"path":"scale"
					}
				},
				{
					"sampler":54,
					"target":{
						"node":18,
						"path":"translation"
					}
				},
				{
					"sampler":55,
					"target":{
						"node":18,
						"path":"rotation"
					}
				},
				{
					"sampler":56,
					"target":{
						"node":18,
						"path":"scale"
					}
				},
				{
					"sampler":57,
					"target":{
						"node":17,
						"path":"translation"
					}
				},
				{
					"sampler":58,
					"target":{
						"node":17,
						"path":"rotation"
					}
				},
				{
					"sampler":59,
					"target":{
						"node":17,
						"path":"scale"
					}
				},
				{
					"sampler":60,
					"target":{
						"node":16,
						"path":"translation"
					}
				},
				{
					"sampler":61,
					"target":{
						"node":16,
						"path":"rotation"
					}
				},
				{
					"sampler":62,
					"target":{
						"node":16,
						"path":"scale"
					}
				}
			],
			"name":"move_Shoot",
			"samplers":[
				{
					"input":8,
					"interpolation":"LINEAR",
					"output":9
				},
				{
					"input":8,
					"interpolation":"LINEAR",
					"output":10
				},
				{
					"input":11,
					"interpolation":"STEP",
					"output":12
				},
				{
					"input":11,
					"interpolation":"LINEAR",
					"output":13
				},
				{
					"input":8,
					"interpolation":"LINEAR",
					"output":14
				},
				{
					"input":11,
					"interpolation":"LINEAR",
					"output":15
				},
				{
					"input":11,
					"interpolation":"LINEAR",
					"output":16
				},
				{
					"input":8,
					"interpolation":"LINEAR",
					"output":17
				},
				{
					"input":11,
					"interpolation":"LINEAR",
					"output":18
				},
				{
					"input":11,
					"interpolation":"LINEAR",
					"output":19
				},
				{
					"input":11,
					"interpolation":"LINEAR",
					"output":20
				},
				{
					"input":11,
					"interpolation":"STEP",
					"output":21
				},
				{
					"input":11,
					"interpolation":"LINEAR",
					"output":22
				},
				{
					"input":8,
					"interpolation":"LINEAR",
					"output":23
				},
				{
					"input":11,
					"interpolation":"STEP",
					"output":24
				},
				{
					"input":11,
					"interpolation":"LINEAR",
					"output":25
				},
				{
					"input":11,
					"interpolation":"LINEAR",
					"output":26
				},
				{
					"input":11,
					"interpolation":"STEP",
					"output":27
				},
				{
					"input":11,
					"interpolation":"LINEAR",
					"output":28
				},
				{
					"input":8,
					"interpolation":"LINEAR",
					"output":29
				},
				{
					"input":11,
					"interpolation":"LINEAR",
					"output":30
				},
				{
					"input":11,
					"interpolation":"LINEAR",
					"output":31
				},
				{
					"input":8,
					"interpolation":"LINEAR",
					"output":32
				},
				{
					"input":11,
					"interpolation":"LINEAR",
					"output":33
				},
				{
					"input":11,
					"interpolation":"LINEAR",
					"output":34
				},
				{
					"input":8,
					"interpolation":"LINEAR",
					"output":35
				},
				{
					"input":11,
					"interpolation":"LINEAR",
					"output":36
				},
				{
					"input":11,
					"interpolation":"LINEAR",
					"output":37
				},
				{
					"input":11,
					"interpolation":"LINEAR",
					"output":38
				},
				{
					"input":11,
					"interpolation":"STEP",
					"output":39
				},
				{
					"input":11,
					"interpolation":"LINEAR",
					"output":40
				},
				{
					"input":8,
					"interpolation":"LINEAR",
					"output":41
				},
				{
					"input":11,
					"interpolation":"LINEAR",
					"output":42
				},
				{
					"input":11,
					"interpolation":"LINEAR",
					"output":43
				},
				{
					"input":8,
					"interpolation":"LINEAR",
					"output":44
				},
				{
					"input":11,
					"interpolation":"LINEAR",
					"output":45
				},
				{
					"input":11,
					"interpolation":"LINEAR",
					"output":46
				},
				{
					"input":11,
					"interpolation":"LINEAR",
					"output":47
				},
				{
					"input":11,
					"interpolation":"STEP",
					"output":48
				},
				{
					"input":11,
					"interpolation":"LINEAR",
					"output":49
				},
				{
					"input":11,
					"interpolation":"LINEAR",
					"output":50
				},
				{
					"input":11,
					"interpolation":"STEP",
					"output":51
				},
				{
					"input":11,
					"interpolation":"LINEAR",
					"output":52
				},
				{
					"input":8,
					"interpolation":"LINEAR",
					"output":53
				},
				{
					"input":11,
					"interpolation":"STEP",
					"output":54
				},
				{
					"input":11,
					"interpolation":"LINEAR",
					"output":55
				},
				{
					"input":8,
					"interpolation":"LINEAR",
					"output":56
				},
				{
					"input":11,
					"interpolation":"LINEAR",
					"output":57
				},
				{
					"input":11,
					"interpolation":"LINEAR",
					"output":58
				},
				{
					"input":8,
					"interpolation":"LINEAR",
					"output":59
				},
				{
					"input":11,
					"interpolation":"STEP",
					"output":60
				},
				{
					"input":11,
					"interpolation":"LINEAR",
					"output":61
				},
				{
					"input":11,
					"interpolation":"LINEAR",
					"output":62
				},
				{
					"input":11,
					"interpolation":"STEP",
					"output":63
				},
				{
					"input":11,
					"interpolation":"LINEAR",
					"output":64
				},
				{
					"input":11,
					"interpolation":"LINEAR",
					"output":65
				},
				{
					"input":11,
					"interpolation":"LINEAR",
					"output":66
				},
				{
					"input":11,
					"interpolation":"LINEAR",
					"output":67
				},
				{
					"input":8,
					"interpolation":"LINEAR",
					"output":68
				},
				{
					"input":11,
					"interpolation":"STEP",
					"output":69
				},
				{
					"input":11,
					"interpolation":"LINEAR",
					"output":70
				},
				{
					"input":8,
					"interpolation":"LINEAR",
					"output":71
				},
				{
					"input":11,
					"interpolation":"LINEAR",
					"output":72
				}
			]
		}
	],
	"materials":[
		{
			"doubleSided":true,
			"name":"Material.002",
			"pbrMetallicRoughness":{
				"baseColorTexture":{
					"index":0
				},
				"metallicFactor":0,
				"roughnessFactor":0.5
			}
		}
	],
	"meshes":[
		{
			"name":"\u7acb\u65b9\u4f53.001",
			"primitives":[
				{
					"attributes":{
						"POSITION":0,
						"NORMAL":1,
						"TEXCOORD_0":2,
						"TEXCOORD_1":3,
						"JOINTS_0":4,
						"WEIGHTS_0":5
					},
					"indices":6,
					"material":0
				}
			]
		}
	],
	"textures":[
		{
			"sampler":0,
			"source":0
		}
	],
	"images":[
		{
			"mimeType":"image/png",
			"name":"Uncle",
			"uri":"Uncle.png"
		}
	],
	"skins":[
		{
			"inverseBindMatrices":7,
			"joints":[
				20,
				11,
				10,
				1,
				0,
				5,
				4,
				3,
				2,
				9,
				8,
				7,
				6,
				15,
				14,
				13,
				12,
				19,
				18,
				17,
				16
			],
			"name":"\u30a2\u30fc\u30de\u30c1\u30e5\u30a2"
		}
	],
	"accessors":[
		{
			"bufferView":0,
			"componentType":5126,
			"count":1222,
			"max":[
				3.0927793979644775,
				7.35990571975708,
				1.0978432893753052
			],
			"min":[
				-3.0927793979644775,
				-0.0007243156433105469,
				-0.839506208896637
			],
			"type":"VEC3"
		},
		{
			"bufferView":1,
			"componentType":5126,
			"count":1222,
			"type":"VEC3"
		},
		{
			"bufferView":2,
			"componentType":5126,
			"count":1222,
			"type":"VEC2"
		},
		{
			"bufferView":3,
			"componentType":5126,
			"count":1222,
			"type":"VEC2"
		},
		{
			"bufferView":4,
			"componentType":5121,
			"count":1222,
			"type":"VEC4"
		},
		{
			"bufferView":5,
			"componentType":5126,
			"count":1222,
			"type":"VEC4"
		},
		{
			"bufferView":6,
			"componentType":5123,
			"count":1716,
			"type":"SCALAR"
		},
		{
			"bufferView":7,
			"componentType":5126,
			"count":21,
			"type":"MAT4"
		},
		{
			"bufferView":8,
			"componentType":5126,
			"count":91,
			"max":[
				3.75
			],
			"min":[
				0
			],
			"type":"SCALAR"
		},
		{
			"bufferView":9,
			"componentType":5126,
			"count":91,
			"type":"VEC3"
		},
		{
			"bufferView":10,
			"componentType":5126,
			"count":91,
			"type":"VEC4"
		},
		{
			"bufferView":11,
			"componentType":5126,
			"count":2,
			"max":[
				3.75
			],
			"min":[
				0
			],
			"type":"SCALAR"
		},
		{
			"bufferView":12,
			"componentType":5126,
			"count":2,
			"type":"VEC3"
		},
		{
			"bufferView":13,
			"componentType":5126,
			"count":2,
			"type":"VEC3"
		},
		{
			"bufferView":14,
			"componentType":5126,
			"count":91,
			"type":"VEC4"
		},
		{
			"bufferView":15,
			"componentType":5126,
			"count":2,
			"type":"VEC3"
		},
		{
			"bufferView":16,
			"componentType":5126,
			"count":2,
			"type":"VEC3"
		},
		{
			"bufferView":17,
			"componentType":5126,
			"count":91,
			"type":"VEC4"
		},
		{
			"bufferView":18,
			"componentType":5126,
			"count":2,
			"type":"VEC3"
		},
		{
			"bufferView":19,
			"componentType":5126,
			"count":2,
			"type":"VEC3"
		},
		{
			"bufferView":20,
			"componentType":5126,
			"count":2,
			"type":"VEC4"
		},
		{
			"bufferView":21,
			"componentType":5126,
			"count":2,
			"type":"VEC3"
		},
		{
			"bufferView":22,
			"componentType":5126,
			"count":2,
			"type":"VEC3"
		},
		{
			"bufferView":23,
			"componentType":5126,
			"count":91,
			"type":"VEC4"
		},
		{
			"bufferView":24,
			"componentType":5126,
			"count":2,
			"type":"VEC3"
		},
		{
			"bufferView":25,
			"componentType":5126,
			"count":2,
			"type":"VEC3"
		},
		{
			"bufferView":26,
			"componentType":5126,
			"count":2,
			"type":"VEC4"
		},
		{
			"bufferView":27,
			"componentType":5126,
			"count":2,
			"type":"VEC3"
		},
		{
			"bufferView":28,
			"componentType":5126,
			"count":2,
			"type":"VEC3"
		},
		{
			"bufferView":29,
			"componentType":5126,
			"count":91,
			"type":"VEC4"
		},
		{
			"bufferView":30,
			"componentType":5126,
			"count":2,
			"type":"VEC3"
		},
		{
			"bufferView":31,
			"componentType":5126,
			"count":2,
			"type":"VEC3"
		},
		{
			"bufferView":32,
			"componentType":5126,
			"count":91,
			"type":"VEC4"
		},
		{
			"bufferView":33,
			"componentType":5126,
			"count":2,
			"type":"VEC3"
		},
		{
			"bufferView":34,
			"componentType":5126,
			"count":2,
			"type":"VEC3"
		},
		{
			"bufferView":35,
			"componentType":5126,
			"count":91,
			"type":"VEC4"
		},
		{
			"bufferView":36,
			"componentType":5126,
			"count":2,
			"type":"VEC3"
		},
		{
			"bufferView":37,
			"componentType":5126,
			"count":2,
			"type":"VEC3"
		},
		{
			"bufferView":38,
			"componentType":5126,
			"count":2,
			"type":"VEC4"
		},
		{
			"bufferView":39,
			"componentType":5126,
			"count":2,
			"type":"VEC3"
		},
		{
			"bufferView":40,
			"componentType":5126,
			"count":2,
			"type":"VEC3"
		},
		{
			"bufferView":41,
			"componentType":5126,
			"count":91,
			"type":"VEC4"
		},
		{
			"bufferView":42,
			"componentType":5126,
			"count":2,
			"type":"VEC3"
		},
		{
			"bufferView":43,
			"componentType":5126,
			"count":2,
			"type":"VEC3"
		},
		{
			"bufferView":44,
			"componentType":5126,
			"count":91,
			"type":"VEC4"
		},
		{
			"bufferView":45,
			"componentType":5126,
			"count":2,
			"type":"VEC3"
		},
		{
			"bufferView":46,
			"componentType":5126,
			"count":2,
			"type":"VEC3"
		},
		{
			"bufferView":47,
			"componentType":5126,
			"count":2,
			"type":"VEC4"
		},
		{
			"bufferView":48,
			"componentType":5126,
			"count":2,
			"type":"VEC3"
		},
		{
			"bufferView":49,
			"componentType":5126,
			"count":2,
			"type":"VEC3"
		},
		{
			"bufferView":50,
			"componentType":5126,
			"count":2,
			"type":"VEC4"
		},
		{
			"bufferView":51,
			"componentType":5126,
			"count":2,
			"type":"VEC3"
		},
		{
			"bufferView":52,
			"componentType":5126,
			"count":2,
			"type":"VEC3"
		},
		{
			"bufferView":53,
			"componentType":5126,
			"count":91,
			"type":"VEC4"
		},
		{
			"bufferView":54,
			"componentType":5126,
			"count":2,
			"type":"VEC3"
		},
		{
			"bufferView":55,
			"componentType":5126,
			"count":2,
			"type":"VEC3"
		},
		{
			"bufferView":56,
			"componentType":5126,
			"count":91,
			"type":"VEC4"
		},
		{
			"bufferView":57,
			"componentType":5126,
			"count":2,
			"type":"VEC3"
		},
		{
			"bufferView":58,
			"componentType":5126,
			"count":2,
			"type":"VEC3"
		},
		{
			"bufferView":59,
			"componentType":5126,
			"count":91,
			"type":"VEC4"
		},
		{
			"bufferView":60,
			"componentType":5126,
			"count":2,
			"type":"VEC3"
		},
		{
			"bufferView":61,
			"componentType":5126,
			"count":2,
			"type":"VEC3"
		},
		{
			"bufferView":62,
			"componentType":5126,
			"count":2,
			"type":"VEC4"
		},
		{
			"bufferView":63,
			"componentType":5126,
			"count":2,
			"type":"VEC3"
		},
		{
			"bufferView":64,
			"componentType":5126,
			"count":2,
			"type":"VEC3"
		},
		{
			"bufferView":65,
			"componentType":5126,
			"count":2,
			"type":"VEC4"
		},
		{
			"bufferView":66,
			"componentType":5126,
			"count":2,
			"type":"VEC3"
		},
		{
			"bufferView":67,
			"componentType":5126,
			"count":2,
			"type":"VEC3"
		},
		{
			"bufferView":68,
			"componentType":5126,
			"count":91,
			"type":"VEC4"
		},
		{
			"bufferView":69,
			"componentType":5126,
			"count":2,
			"type":"VEC3"
		},
		{
			"bufferView":70,
			"componentType":5126,
			"count":2,
			"type":"VEC3"
		},
		{
			"bufferView":71,
			"componentType":5126,
			"count":91,
			"type":"VEC4"
		},
		{
			"bufferView":72,
			"componentType":5126,
			"count":2,
			"type":"VEC3"
		}
	],
	"bufferViews":[
		{
			"buffer":0,
			"byteLength":14664,
			"byteOffset":0,
			"target":34962
		},
		{
			"buffer":0,
			"byteLength":14664,
			"byteOffset":14664,
			"target":34962
		},
		{
			"buffer":0,
			"byteLength":9776,
			"byteOffset":29328,
			"target":34962
		},
		{
			"buffer":0,
			"byteLength":9776,
			"byteOffset":39104,
			"target":34962
		},
		{
			"buffer":0,
			"byteLength":4888,
			"byteOffset":48880,
			"target":34962
		},
		{
			"buffer":0,
			"byteLength":19552,
			"byteOffset":53768,
			"target":34962
		},
		{
			"buffer":0,
			"byteLength":3432,
			"byteOffset":73320,
			"target":34963
		},
		{
			"buffer":0,
			"byteLength":1344,
			"byteOffset":76752
		},
		{
			"buffer":0,
			"byteLength":364,
			"byteOffset":78096
		},
		{
			"buffer":0,
			"byteLength":1092,
			"byteOffset":78460
		},
		{
			"buffer":0,
			"byteLength":1456,
			"byteOffset":79552
		},
		{
			"buffer":0,
			"byteLength":8,
			"byteOffset":81008
		},
		{
			"buffer":0,
			"byteLength":24,
			"byteOffset":81016
		},
		{
			"buffer":0,
			"byteLength":24,
			"byteOffset":81040
		},
		{
			"buffer":0,
			"byteLength":1456,
			"byteOffset":81064
		},
		{
			"buffer":0,
			"byteLength":24,
			"byteOffset":82520
		},
		{
			"buffer":0,
			"byteLength":24,
			"byteOffset":82544
		},
		{
			"buffer":0,
			"byteLength":1456,
			"byteOffset":82568
		},
		{
			"buffer":0,
			"byteLength":24,
			"byteOffset":84024
		},
		{
			"buffer":0,
			"byteLength":24,
			"byteOffset":84048
		},
		{
			"buffer":0,
			"byteLength":32,
			"byteOffset":84072
		},
		{
			"buffer":0,
			"byteLength":24,
			"byteOffset":84104
		},
		{
			"buffer":0,
			"byteLength":24,
			"byteOffset":84128
		},
		{
			"buffer":0,
			"byteLength":1456,
			"byteOffset":84152
		},
		{
			"buffer":0,
			"byteLength":24,
			"byteOffset":85608
		},
		{
			"buffer":0,
			"byteLength":24,
			"byteOffset":85632
		},
		{
			"buffer":0,
			"byteLength":32,
			"byteOffset":85656
		},
		{
			"buffer":0,
			"byteLength":24,
			"byteOffset":85688
		},
		{
			"buffer":0,
			"byteLength":24,
			"byteOffset":85712
		},
		{
			"buffer":0,
			"byteLength":1456,
			"byteOffset":85736
		},
		{
			"buffer":0,
			"byteLength":24,
			"byteOffset":87192
		},
		{
			"buffer":0,
			"byteLength":24,
			"byteOffset":87216
		},
		{
			"buffer":0,
			"byteLength":1456,
			"byteOffset":87240
		},
		{
			"buffer":0,
			"byteLength":24,
			"byteOffset":88696
		},
		{
			"buffer":0,
			"byteLength":24,
			"byteOffset":88720
		},
		{
			"buffer":0,
			"byteLength":1456,
			"byteOffset":88744
		},
		{
			"buffer":0,
			"byteLength":24,
			"byteOffset":90200
		},
		{
			"buffer":0,
			"byteLength":24,
			"byteOffset":90224
		},
		{
			"buffer":0,
			"byteLength":32,
			"byteOffset":90248
		},
		{
			"buffer":0,
			"byteLength":24,
			"byteOffset":90280
		},
		{
			"buffer":0,
			"byteLength":24,
			"byteOffset":90304
		},
		{
			"buffer":0,
			"byteLength":1456,
			"byteOffset":90328
		},
		{
			"buffer":0,
			"byteLength":24,
			"byteOffset":91784
		},
		{
			"buffer":0,
			"byteLength":24,
			"byteOffset":91808
		},
		{
			"buffer":0,
			"byteLength":1456,
			"byteOffset":91832
		},
		{
			"buffer":0,
			"byteLength":24,
			"byteOffset":93288
		},
		{
			"buffer":0,
			"byteLength":24,
			"byteOffset":93312
		},
		{
			"buffer":0,
			"byteLength":32,
			"byteOffset":93336
		},
		{
			"buffer":0,
			"byteLength":24,
			"byteOffset":93368
		},
		{
			"buffer":0,
			"byteLength":24,
			"byteOffset":93392
		},
		{
			"buffer":0,
			"byteLength":32,
			"byteOffset":93416
		},
		{
			"buffer":0,
			"byteLength":24,
			"byteOffset":93448
		},
		{
			"buffer":0,
			"byteLength":24,
			"byteOffset":93472
		},
		{
			"buffer":0,
			"byteLength":1456,
			"byteOffset":93496
		},
		{
			"buffer":0,
			"byteLength":24,
			"byteOffset":94952
		},
		{
			"buffer":0,
			"byteLength":24,
			"byteOffset":94976
		},
		{
			"buffer":0,
			"byteLength":1456,
			"byteOffset":95000
		},
		{
			"buffer":0,
			"byteLength":24,
			"byteOffset":96456
		},
		{
			"buffer":0,
			"byteLength":24,
			"byteOffset":96480
		},
		{
			"buffer":0,
			"byteLength":1456,
			"byteOffset":96504
		},
		{
			"buffer":0,
			"byteLength":24,
			"byteOffset":97960
		},
		{
			"buffer":0,
			"byteLength":24,
			"byteOffset":97984
		},
		{
			"buffer":0,
			"byteLength":32,
			"byteOffset":98008
		},
		{
			"buffer":0,
			"byteLength":24,
			"byteOffset":98040
		},
		{
			"buffer":0,
			"byteLength":24,
			"byteOffset":98064
		},
		{
			"buffer":0,
			"byteLength":32,
			"byteOffset":98088
		},
		{
			"buffer":0,
			"byteLength":24,
			"byteOffset":98120
		},
		{
			"buffer":0,
			"byteLength":24,
			"byteOffset":98144
		},
		{
			"buffer":0,
			"byteLength":1456,
			"byteOffset":98168
		},
		{
			"buffer":0,
			"byteLength":24,
			"byteOffset":99624
		},
		{
			"buffer":0,
			"byteLength":24,
			"byteOffset":99648
		},
		{
			"buffer":0,
			"byteLength":1456,
			"byteOffset":99672
		},
		{
			"buffer":0,
			"byteLength":24,
			"byteOffset":101128
		}
	],
	"samplers":[
		{
			"magFilter":9729,
			"minFilter":9987
		}
	],
	"buffers":[
		{
			"byteLength":101152,
			"uri":"Uncle.bin"
		}
	]
}
