# Blender 4.1.1
# www.blender.org
mtllib Bomb.mtl
o 球
v 0.000000 1.666281 -0.388951
v 0.000000 1.390382 -0.831470
v 0.000000 1.029902 -0.980785
v 0.000000 0.834812 -1.000000
v 0.000000 0.639722 -0.980785
v 0.000000 0.279242 -0.831470
v 0.038060 1.815597 -0.191342
v 0.074658 1.814079 -0.375330
v 0.075881 1.666281 -0.381478
v 0.128236 1.541919 -0.644688
v 0.162212 1.390382 -0.815493
v 0.180240 1.217495 -0.906127
v 0.191342 1.029902 -0.961940
v 0.195090 0.834812 -0.980785
v 0.191342 0.639722 -0.961940
v 0.180240 0.452128 -0.906127
v 0.162212 0.279242 -0.815493
v 0.137950 0.127705 -0.693520
v 0.108386 0.003342 -0.544895
v 0.074658 -0.089068 -0.375330
v 0.038060 -0.145973 -0.191342
v 0.074658 1.815597 -0.180240
v 0.146447 1.814079 -0.353553
v 0.148845 1.666281 -0.359344
v 0.251545 1.541919 -0.607283
v 0.318190 1.390382 -0.768178
v 0.353553 1.217495 -0.853553
v 0.375330 1.029902 -0.906127
v 0.382683 0.834812 -0.923879
v 0.375330 0.639722 -0.906127
v 0.353553 0.452128 -0.853553
v 0.318190 0.279242 -0.768178
v 0.270598 0.127705 -0.653281
v 0.212608 0.003342 -0.513280
v 0.146447 -0.089068 -0.353553
v 0.074658 -0.145973 -0.180240
v 0.108386 1.815597 -0.162212
v 0.212608 1.814079 -0.318190
v 0.216090 1.666281 -0.323401
v 0.365186 1.541919 -0.546540
v 0.461940 1.390382 -0.691342
v 0.513280 1.217495 -0.768178
v 0.544895 1.029902 -0.815493
v 0.555570 0.834812 -0.831469
v 0.544895 0.639722 -0.815493
v 0.513280 0.452128 -0.768178
v 0.461940 0.279242 -0.691342
v 0.392847 0.127705 -0.587938
v 0.308658 0.003342 -0.461940
v 0.212608 -0.089068 -0.318190
v 0.108386 -0.145973 -0.162212
v 0.137950 1.815597 -0.137950
v 0.270598 1.814079 -0.270598
v 0.275030 1.666281 -0.275030
v 0.464794 1.541919 -0.464794
v 0.587938 1.390382 -0.587938
v 0.653281 1.217495 -0.653281
v 0.693520 1.029902 -0.693520
v 0.707107 0.834812 -0.707107
v 0.693520 0.639722 -0.693520
v 0.653281 0.452128 -0.653281
v 0.587938 0.279242 -0.587938
v 0.500000 0.127705 -0.500000
v 0.392847 0.003342 -0.392847
v 0.270598 -0.089068 -0.270598
v 0.137950 -0.145973 -0.137950
v 0.162212 1.815597 -0.108386
v 0.318190 1.814079 -0.212608
v 0.323401 1.666281 -0.216090
v 0.546540 1.541919 -0.365186
v 0.691342 1.390382 -0.461940
v 0.768178 1.217495 -0.513280
v 0.815493 1.029902 -0.544895
v 0.831470 0.834812 -0.555570
v 0.815493 0.639722 -0.544895
v 0.768178 0.452128 -0.513280
v 0.691342 0.279242 -0.461940
v 0.587938 0.127705 -0.392847
v 0.461940 0.003342 -0.308658
v 0.318190 -0.089068 -0.212608
v 0.162212 -0.145973 -0.108386
v 0.038060 2.120628 -0.191342
v 0.180240 1.815597 -0.074658
v 0.353553 1.814079 -0.146447
v 0.359344 1.666281 -0.148845
v 0.607283 1.541919 -0.251545
v 0.768178 1.390382 -0.318190
v 0.853553 1.217495 -0.353553
v 0.906127 1.029902 -0.375330
v 0.923879 0.834812 -0.382683
v 0.906127 0.639722 -0.375330
v 0.853553 0.452128 -0.353553
v 0.768178 0.279242 -0.318190
v 0.653281 0.127705 -0.270598
v 0.513280 0.003342 -0.212607
v 0.353553 -0.089068 -0.146447
v 0.180240 -0.145973 -0.074658
v 0.191342 1.815597 -0.038060
v 0.375330 1.814079 -0.074658
v 0.381478 1.666281 -0.075881
v 0.644688 1.541919 -0.128236
v 0.815493 1.390382 -0.162212
v 0.906127 1.217495 -0.180240
v 0.961940 1.029902 -0.191342
v 0.980785 0.834812 -0.195090
v 0.961940 0.639722 -0.191342
v 0.906127 0.452128 -0.180240
v 0.815493 0.279242 -0.162212
v 0.693520 0.127705 -0.137950
v 0.544895 0.003342 -0.108386
v 0.375330 -0.089068 -0.074658
v 0.191342 -0.145973 -0.038060
v 0.195090 1.815597 0.000000
v 0.382683 1.814079 0.000000
v 0.388951 1.666281 0.000000
v 0.657318 1.541919 -0.000000
v 0.831469 1.390382 0.000000
v 0.923879 1.217495 -0.000000
v 0.980785 1.029902 0.000000
v 1.000000 0.834812 0.000000
v 0.980785 0.639722 0.000000
v 0.923879 0.452128 -0.000000
v 0.831469 0.279242 0.000000
v 0.707107 0.127705 -0.000000
v 0.555570 0.003342 0.000000
v 0.382683 -0.089068 0.000000
v 0.195090 -0.145973 0.000000
v 0.191342 1.815597 0.038060
v 0.375330 1.814079 0.074658
v 0.381478 1.666281 0.075881
v 0.644688 1.541919 0.128236
v 0.815493 1.390382 0.162212
v 0.906127 1.217495 0.180240
v 0.961940 1.029902 0.191342
v 0.980785 0.834812 0.195090
v 0.961940 0.639722 0.191342
v 0.906127 0.452128 0.180240
v 0.815493 0.279242 0.162212
v 0.693520 0.127705 0.137950
v 0.544895 0.003342 0.108386
v 0.375330 -0.089068 0.074658
v 0.191342 -0.145973 0.038060
v 0.180240 1.815597 0.074658
v 0.353553 1.814079 0.146447
v 0.359344 1.666281 0.148845
v 0.607283 1.541919 0.251545
v 0.768178 1.390382 0.318190
v 0.853553 1.217495 0.353553
v 0.906127 1.029902 0.375330
v 0.923879 0.834812 0.382683
v 0.906127 0.639722 0.375330
v 0.853553 0.452128 0.353553
v 0.768178 0.279242 0.318190
v 0.653281 0.127705 0.270598
v 0.513280 0.003342 0.212608
v 0.353553 -0.089068 0.146447
v 0.180240 -0.145973 0.074658
v 0.162212 1.815597 0.108386
v 0.318190 1.814079 0.212608
v 0.323401 1.666281 0.216090
v 0.546540 1.541919 0.365186
v 0.691341 1.390382 0.461940
v 0.768178 1.217495 0.513280
v 0.815493 1.029902 0.544895
v 0.831469 0.834812 0.555570
v 0.815493 0.639722 0.544895
v 0.768178 0.452128 0.513280
v 0.691341 0.279242 0.461940
v 0.587938 0.127705 0.392847
v 0.461940 0.003342 0.308658
v 0.318190 -0.089068 0.212608
v 0.162212 -0.145973 0.108386
v 0.137950 1.815597 0.137950
v 0.270598 1.814079 0.270598
v 0.275030 1.666281 0.275030
v 0.464794 1.541919 0.464794
v 0.587938 1.390382 0.587938
v 0.653281 1.217495 0.653281
v 0.693520 1.029902 0.693520
v 0.707106 0.834812 0.707107
v 0.693520 0.639722 0.693520
v 0.653281 0.452128 0.653281
v 0.587938 0.279242 0.587938
v 0.500000 0.127705 0.500000
v 0.392847 0.003342 0.392847
v 0.270598 -0.089068 0.270598
v 0.137950 -0.145973 0.137950
v 0.108386 1.815597 0.162212
v 0.212607 1.814079 0.318190
v 0.216090 1.666281 0.323401
v 0.365186 1.541919 0.546540
v 0.461940 1.390382 0.691342
v 0.513280 1.217495 0.768178
v 0.544895 1.029902 0.815493
v 0.555570 0.834812 0.831469
v 0.544895 0.639722 0.815493
v 0.513280 0.452128 0.768178
v 0.461940 0.279242 0.691342
v 0.392847 0.127705 0.587938
v 0.308658 0.003342 0.461940
v 0.212607 -0.089068 0.318190
v 0.108386 -0.145973 0.162212
v 0.074658 1.815597 0.180240
v 0.146447 1.814079 0.353553
v 0.148845 1.666281 0.359344
v 0.251545 1.541919 0.607283
v 0.318189 1.390382 0.768178
v 0.353553 1.217495 0.853553
v 0.375330 1.029902 0.906127
v 0.382683 0.834812 0.923879
v 0.375330 0.639722 0.906127
v 0.353553 0.452128 0.853553
v 0.318189 0.279242 0.768178
v 0.270598 0.127705 0.653281
v 0.212607 0.003342 0.513280
v 0.146447 -0.089068 0.353553
v 0.074658 -0.145973 0.180240
v 0.038060 1.815597 0.191342
v 0.074658 1.814079 0.375330
v 0.075881 1.666281 0.381478
v 0.128236 1.541919 0.644688
v 0.162212 1.390382 0.815493
v 0.180240 1.217495 0.906127
v 0.191342 1.029902 0.961939
v 0.195090 0.834812 0.980785
v 0.191342 0.639722 0.961939
v 0.180240 0.452128 0.906127
v 0.162212 0.279242 0.815493
v 0.137950 0.127705 0.693520
v 0.108386 0.003342 0.544895
v 0.074658 -0.089068 0.375330
v 0.038060 -0.145973 0.191342
v -0.000000 1.815597 0.195090
v -0.000000 1.814079 0.382683
v -0.000000 1.666281 0.388951
v -0.000000 1.541919 0.657318
v -0.000000 1.390382 0.831469
v 0.000000 1.217495 0.923879
v -0.000000 1.029902 0.980785
v -0.000000 0.834812 0.999999
v -0.000000 0.639722 0.980785
v 0.000000 0.452128 0.923879
v -0.000000 0.279242 0.831469
v -0.000000 0.127705 0.707107
v -0.000000 0.003342 0.555570
v -0.000000 -0.089068 0.382683
v -0.000000 -0.145973 0.195090
v -0.038060 1.815597 0.191342
v -0.074658 1.814079 0.375330
v -0.075881 1.666281 0.381478
v -0.128236 1.541919 0.644688
v -0.162212 1.390382 0.815493
v -0.180240 1.217495 0.906127
v -0.191342 1.029902 0.961939
v -0.195091 0.834812 0.980785
v -0.191342 0.639722 0.961939
v -0.180240 0.452128 0.906127
v -0.162212 0.279242 0.815493
v -0.137950 0.127705 0.693520
v -0.108386 0.003342 0.544895
v -0.074658 -0.089068 0.375330
v -0.038060 -0.145973 0.191342
v -0.074658 1.815597 0.180240
v -0.146447 1.814079 0.353553
v -0.148845 1.666281 0.359344
v -0.251545 1.541919 0.607283
v -0.318190 1.390382 0.768177
v -0.353553 1.217495 0.853553
v -0.375330 1.029902 0.906127
v -0.382683 0.834812 0.923879
v -0.375330 0.639722 0.906127
v -0.353553 0.452128 0.853553
v -0.318190 0.279242 0.768177
v -0.270598 0.127705 0.653281
v -0.212608 0.003342 0.513280
v -0.146447 -0.089068 0.353553
v -0.074658 -0.145973 0.180240
v -0.108386 1.815597 0.162212
v -0.212608 1.814079 0.318190
v -0.216090 1.666281 0.323401
v -0.365186 1.541919 0.546540
v -0.461940 1.390382 0.691341
v -0.513280 1.217495 0.768178
v -0.544895 1.029902 0.815493
v -0.555570 0.834812 0.831469
v -0.544895 0.639722 0.815493
v -0.513280 0.452128 0.768178
v -0.461940 0.279242 0.691341
v -0.392847 0.127705 0.587938
v -0.308658 0.003342 0.461939
v -0.212608 -0.089068 0.318190
v -0.108386 -0.145973 0.162212
v -0.137950 1.815597 0.137950
v -0.270598 1.814079 0.270598
v -0.275030 1.666281 0.275030
v -0.464794 1.541919 0.464794
v -0.587938 1.390382 0.587937
v -0.653281 1.217495 0.653281
v -0.693520 1.029902 0.693520
v -0.707106 0.834812 0.707106
v -0.693520 0.639722 0.693520
v -0.653281 0.452128 0.653281
v -0.587938 0.279242 0.587937
v -0.500000 0.127705 0.500000
v -0.392847 0.003342 0.392847
v -0.270598 -0.089068 0.270598
v -0.137950 -0.145973 0.137950
v 0.000000 -0.165188 0.000000
v -0.162212 1.815597 0.108386
v -0.318190 1.814079 0.212607
v -0.323401 1.666281 0.216090
v -0.546540 1.541919 0.365186
v -0.691341 1.390382 0.461939
v -0.768177 1.217495 0.513280
v -0.815493 1.029902 0.544895
v -0.831469 0.834812 0.555569
v -0.815493 0.639722 0.544895
v -0.768177 0.452128 0.513280
v -0.691341 0.279242 0.461939
v -0.587938 0.127705 0.392847
v -0.461940 0.003342 0.308658
v -0.318190 -0.089068 0.212607
v -0.162212 -0.145973 0.108386
v -0.180240 1.815597 0.074658
v -0.353553 1.814079 0.146447
v -0.359344 1.666281 0.148845
v -0.607283 1.541919 0.251545
v -0.768177 1.390382 0.318189
v -0.853553 1.217495 0.353553
v -0.906127 1.029902 0.375330
v -0.923879 0.834812 0.382683
v -0.906127 0.639722 0.375330
v -0.853553 0.452128 0.353553
v -0.768177 0.279242 0.318189
v -0.653281 0.127705 0.270598
v -0.513280 0.003342 0.212607
v -0.353553 -0.089068 0.146447
v -0.180240 -0.145973 0.074658
v -0.191342 1.815597 0.038060
v -0.375330 1.814079 0.074658
v -0.381478 1.666281 0.075880
v -0.644688 1.541919 0.128236
v -0.815493 1.390382 0.162211
v -0.906127 1.217495 0.180240
v -0.961939 1.029902 0.191341
v -0.980784 0.834812 0.195090
v -0.961939 0.639722 0.191341
v -0.906127 0.452128 0.180240
v -0.815493 0.279242 0.162211
v -0.693520 0.127705 0.137950
v -0.544895 0.003342 0.108386
v -0.375330 -0.089068 0.074658
v -0.191342 -0.145973 0.038060
v -0.195090 1.815597 -0.000000
v -0.382683 1.814079 -0.000000
v -0.388951 1.666281 -0.000000
v -0.657318 1.541919 -0.000000
v -0.831469 1.390382 -0.000000
v -0.923879 1.217495 -0.000000
v -0.980785 1.029902 -0.000000
v -0.999999 0.834812 -0.000000
v -0.980785 0.639722 -0.000000
v -0.923879 0.452128 -0.000000
v -0.831469 0.279242 -0.000000
v -0.707107 0.127705 -0.000000
v -0.555570 0.003342 -0.000000
v -0.382683 -0.089068 -0.000000
v -0.195090 -0.145973 -0.000000
v -0.191342 1.815597 -0.038060
v -0.375330 1.814079 -0.074658
v -0.381477 1.666281 -0.075881
v -0.644688 1.541919 -0.128236
v -0.815493 1.390382 -0.162212
v -0.906127 1.217495 -0.180240
v -0.961939 1.029902 -0.191342
v -0.980784 0.834812 -0.195091
v -0.961939 0.639722 -0.191342
v -0.906127 0.452128 -0.180240
v -0.815493 0.279242 -0.162212
v -0.693520 0.127705 -0.137950
v -0.544895 0.003342 -0.108386
v -0.375330 -0.089068 -0.074658
v -0.191342 -0.145973 -0.038060
v -0.180240 1.815597 -0.074658
v -0.353553 1.814079 -0.146447
v -0.359344 1.666281 -0.148845
v -0.607282 1.541919 -0.251545
v -0.768177 1.390382 -0.318190
v -0.853553 1.217495 -0.353553
v -0.906127 1.029902 -0.375330
v -0.923878 0.834812 -0.382683
v -0.906127 0.639722 -0.375330
v -0.853553 0.452128 -0.353553
v -0.768177 0.279242 -0.318190
v -0.653281 0.127705 -0.270598
v -0.513279 0.003342 -0.212607
v -0.353553 -0.089068 -0.146447
v -0.180240 -0.145973 -0.074658
v -0.162212 1.815597 -0.108386
v -0.318189 1.814079 -0.212607
v -0.323401 1.666281 -0.216090
v -0.546540 1.541919 -0.365186
v -0.691341 1.390382 -0.461940
v -0.768177 1.217495 -0.513280
v -0.815493 1.029902 -0.544895
v -0.831468 0.834812 -0.555570
v -0.815493 0.639722 -0.544895
v -0.768177 0.452128 -0.513280
v -0.691341 0.279242 -0.461940
v -0.587938 0.127705 -0.392847
v -0.461939 0.003342 -0.308658
v -0.318189 -0.089068 -0.212607
v -0.162212 -0.145973 -0.108386
v -0.137950 1.815597 -0.137950
v -0.270598 1.814079 -0.270598
v -0.275030 1.666281 -0.275030
v -0.464794 1.541919 -0.464794
v -0.587937 1.390382 -0.587938
v -0.653281 1.217495 -0.653281
v -0.693519 1.029902 -0.693520
v -0.707106 0.834812 -0.707106
v -0.693519 0.639722 -0.693520
v -0.653281 0.452128 -0.653281
v -0.587937 0.279242 -0.587938
v -0.500000 0.127705 -0.500000
v -0.392847 0.003342 -0.392847
v -0.270598 -0.089068 -0.270598
v -0.137950 -0.145973 -0.137950
v -0.108386 1.815597 -0.162212
v -0.212607 1.814079 -0.318190
v -0.216089 1.666281 -0.323401
v -0.365186 1.541919 -0.546540
v -0.461939 1.390382 -0.691341
v -0.513280 1.217495 -0.768177
v -0.544895 1.029902 -0.815493
v -0.555569 0.834812 -0.831469
v -0.544895 0.639722 -0.815493
v -0.513280 0.452128 -0.768177
v -0.461939 0.279242 -0.691341
v -0.392847 0.127705 -0.587938
v -0.308658 0.003342 -0.461939
v -0.212607 -0.089068 -0.318190
v -0.108386 -0.145973 -0.162212
v -0.074658 1.815597 -0.180240
v -0.146446 1.814079 -0.353553
v -0.148845 1.666281 -0.359344
v -0.251545 1.541919 -0.607283
v -0.318189 1.390382 -0.768177
v -0.353553 1.217495 -0.853553
v -0.375330 1.029902 -0.906127
v -0.382683 0.834812 -0.923879
v -0.375330 0.639722 -0.906127
v -0.353553 0.452128 -0.853553
v -0.318189 0.279242 -0.768177
v -0.270598 0.127705 -0.653281
v -0.212607 0.003342 -0.513279
v -0.146446 -0.089068 -0.353553
v -0.074658 -0.145973 -0.180240
v -0.038060 1.815597 -0.191342
v -0.074658 1.814079 -0.375330
v -0.075880 1.666281 -0.381477
v -0.128236 1.541919 -0.644688
v -0.162211 1.390382 -0.815493
v -0.180240 1.217495 -0.906127
v -0.191341 1.029902 -0.961939
v -0.195090 0.834812 -0.980784
v -0.191341 0.639722 -0.961939
v -0.180240 0.452128 -0.906127
v -0.162211 0.279242 -0.815493
v -0.137950 0.127705 -0.693520
v -0.108386 0.003342 -0.544895
v -0.074658 -0.089068 -0.375330
v -0.038060 -0.145973 -0.191342
v 0.000000 1.815597 -0.195090
v 0.000000 1.814079 -0.382683
v 0.000000 1.541919 -0.657318
v 0.000000 1.217495 -0.923879
v 0.000000 0.452128 -0.923879
v 0.000000 0.127705 -0.707107
v 0.000000 0.003342 -0.555570
v 0.000000 -0.089068 -0.382683
v 0.000000 -0.145973 -0.195090
v 0.074658 2.120628 -0.180240
v 0.108386 2.120628 -0.162212
v 0.137950 2.120628 -0.137950
v 0.162212 2.120628 -0.108386
v 0.180240 2.120628 -0.074658
v 0.191342 2.120628 -0.038060
v 0.195090 2.120628 0.000000
v 0.191342 2.120628 0.038060
v 0.180240 2.120628 0.074658
v 0.162212 2.120628 0.108386
v 0.137950 2.120628 0.137950
v 0.108386 2.120628 0.162212
v 0.074658 2.120628 0.180240
v 0.038060 2.120628 0.191342
v -0.000000 2.120628 0.195090
v -0.038060 2.120628 0.191342
v -0.074658 2.120628 0.180240
v -0.108386 2.120628 0.162212
v -0.137950 2.120628 0.137950
v -0.162212 2.120628 0.108386
v -0.180240 2.120628 0.074658
v -0.191342 2.120628 0.038060
v -0.195090 2.120628 -0.000000
v -0.191342 2.120628 -0.038060
v -0.180240 2.120628 -0.074658
v -0.162212 2.120628 -0.108386
v -0.137950 2.120628 -0.137950
v -0.108386 2.120628 -0.162212
v -0.074658 2.120628 -0.180240
v -0.038060 2.120628 -0.191342
v 0.000000 2.120628 -0.195090
v 0.038060 2.332552 -0.234552
v 0.074658 2.337460 -0.224594
v 0.108386 2.345429 -0.208423
v 0.137950 2.356155 -0.186660
v 0.162212 2.369223 -0.160142
v 0.180240 2.384133 -0.129888
v 0.191342 2.400311 -0.097060
v 0.195090 2.417136 -0.062921
v 0.191342 2.433960 -0.028781
v 0.180240 2.450138 0.004046
v 0.162211 2.465048 0.034301
v 0.137950 2.478117 0.060819
v 0.108386 2.488842 0.082581
v 0.074658 2.496811 0.098752
v 0.038060 2.501719 0.108711
v -0.000000 2.503376 0.112073
v -0.038060 2.501719 0.108711
v -0.074658 2.496811 0.098752
v -0.108386 2.488842 0.082581
v -0.137950 2.478117 0.060818
v -0.162212 2.465048 0.034301
v -0.180240 2.450138 0.004046
v -0.191342 2.433960 -0.028781
v -0.195090 2.417136 -0.062921
v -0.191342 2.400311 -0.097060
v -0.180240 2.384133 -0.129888
v -0.162212 2.369223 -0.160142
v -0.137950 2.356155 -0.186660
v -0.108386 2.345430 -0.208423
v -0.074658 2.337460 -0.224594
v -0.038060 2.332553 -0.234552
v -0.000000 2.330895 -0.237915
v 0.038060 2.467159 -0.372171
v 0.074658 2.509667 -0.397626
v 0.108386 2.490586 -0.354858
v 0.137950 2.543678 -0.372492
v 0.162212 2.533874 -0.322869
v 0.180240 2.594579 -0.334877
v 0.191342 2.590433 -0.281073
v 0.195090 2.654621 -0.290506
v 0.191342 2.651651 -0.235833
v 0.180240 2.714664 -0.246136
v 0.162212 2.708210 -0.194037
v 0.137950 2.765565 -0.208521
v 0.108386 2.751498 -0.162048
v 0.074658 2.799576 -0.183387
v 0.038060 2.774925 -0.144736
v -0.000000 2.811519 -0.174561
v -0.038060 2.774925 -0.144736
v -0.074658 2.799576 -0.183387
v -0.108386 2.751498 -0.162048
v -0.137950 2.765565 -0.208521
v -0.162212 2.708210 -0.194037
v -0.180240 2.714664 -0.246136
v -0.191342 2.651651 -0.235833
v -0.195090 2.654621 -0.290506
v -0.191342 2.590433 -0.281073
v -0.180240 2.594579 -0.334877
v -0.162212 2.533874 -0.322869
v -0.137950 2.543678 -0.372492
v -0.108386 2.490586 -0.354858
v -0.074658 2.509667 -0.397626
v -0.038060 2.467159 -0.372171
v -0.000000 2.497724 -0.406452
vn 0.0624 -0.7715 -0.6332
vn 0.0865 0.4696 -0.8786
vn 0.0464 -0.8810 -0.4709
vn 0.0938 0.2890 -0.9527
vn 0.0286 -0.9565 -0.2902
vn 0.0975 0.0975 -0.9904
vn -0.0980 -0.0000 0.9952
vn 0.0097 -0.9951 -0.0980
vn 0.0975 -0.0976 -0.9904
vn 0.0008 1.0000 -0.0081
vn 0.0938 -0.2890 -0.9527
vn 0.0979 0.0422 -0.9943
vn 0.0865 -0.4696 -0.8786
vn 0.0414 0.9065 -0.4201
vn 0.0759 -0.6326 -0.7708
vn 0.0645 0.7528 -0.6551
vn 0.2248 -0.6326 -0.7412
vn 0.1911 0.7528 -0.6299
vn 0.1847 -0.7715 -0.6088
vn 0.2563 0.4696 -0.8448
vn 0.1374 -0.8810 -0.4528
vn 0.2779 0.2890 -0.9161
vn 0.0846 -0.9565 -0.2790
vn 0.2889 0.0976 -0.9524
vn 0.4714 -0.0000 0.8819
vn 0.0286 -0.9951 -0.0942
vn 0.2889 -0.0976 -0.9524
vn 0.0024 1.0000 -0.0078
vn 0.2779 -0.2890 -0.9161
vn 0.2900 0.0422 -0.9561
vn 0.2563 -0.4696 -0.8448
vn 0.1225 0.9065 -0.4040
vn -0.7730 -0.0000 -0.6344
vn 0.0464 -0.9951 -0.0869
vn 0.4691 -0.0975 -0.8777
vn 0.0038 1.0000 -0.0072
vn 0.4513 -0.2890 -0.8443
vn 0.4710 0.0422 -0.8811
vn 0.4162 -0.4696 -0.7786
vn 0.1990 0.9065 -0.3723
vn 0.3651 -0.6326 -0.6831
vn 0.3103 0.7528 -0.5805
vn 0.2999 -0.7715 -0.5611
vn 0.4162 0.4696 -0.7786
vn 0.2230 -0.8810 -0.4173
vn 0.4513 0.2890 -0.8443
vn 0.1374 -0.9565 -0.2571
vn 0.4691 0.0975 -0.8777
vn 0.4176 0.7528 -0.5088
vn 0.4036 -0.7715 -0.4918
vn 0.5601 0.4696 -0.6825
vn 0.3002 -0.8810 -0.3658
vn 0.6073 0.2890 -0.7400
vn 0.1850 -0.9565 -0.2254
vn 0.6314 0.0975 -0.7693
vn 0.4714 -0.0000 -0.8819
vn 0.0625 -0.9951 -0.0761
vn 0.6314 -0.0975 -0.7693
vn 0.0052 1.0000 -0.0063
vn 0.6073 -0.2890 -0.7400
vn 0.6338 0.0422 -0.7723
vn 0.5601 -0.4696 -0.6825
vn 0.2678 0.9065 -0.3263
vn 0.4913 -0.6326 -0.5987
vn 0.7693 -0.0975 -0.6314
vn 0.0063 1.0000 -0.0052
vn 0.7400 -0.2890 -0.6073
vn 0.7723 0.0422 -0.6338
vn 0.6825 -0.4696 -0.5601
vn 0.3263 0.9065 -0.2678
vn 0.5987 -0.6326 -0.4913
vn 0.5088 0.7528 -0.4176
vn 0.4918 -0.7715 -0.4036
vn 0.6825 0.4696 -0.5601
vn 0.3658 -0.8810 -0.3002
vn 0.7400 0.2890 -0.6073
vn 0.2254 -0.9566 -0.1850
vn 0.7693 0.0975 -0.6314
vn -0.6344 -0.0000 0.7730
vn 0.0761 -0.9951 -0.0625
vn 0.5611 -0.7715 -0.2999
vn 0.7786 0.4696 -0.4162
vn 0.4173 -0.8810 -0.2230
vn 0.8443 0.2890 -0.4513
vn 0.2571 -0.9565 -0.1374
vn 0.8777 0.0975 -0.4691
vn 0.7730 -0.0000 0.6344
vn 0.0869 -0.9951 -0.0464
vn 0.8777 -0.0975 -0.4691
vn 0.0072 1.0000 -0.0038
vn 0.8443 -0.2890 -0.4513
vn 0.8811 0.0422 -0.4710
vn 0.7786 -0.4696 -0.4162
vn 0.3723 0.9065 -0.1990
vn 0.6831 -0.6326 -0.3651
vn 0.5805 0.7528 -0.3103
vn 0.0078 1.0000 -0.0024
vn 0.9161 -0.2890 -0.2779
vn 0.9561 0.0422 -0.2900
vn 0.8448 -0.4696 -0.2563
vn 0.4040 0.9065 -0.1225
vn 0.7412 -0.6326 -0.2248
vn 0.6299 0.7528 -0.1911
vn 0.6088 -0.7715 -0.1847
vn 0.8448 0.4696 -0.2563
vn 0.4528 -0.8810 -0.1374
vn 0.9161 0.2890 -0.2779
vn 0.2790 -0.9565 -0.0846
vn 0.9524 0.0975 -0.2889
vn 0.6344 -0.0000 -0.7730
vn 0.0942 -0.9951 -0.0286
vn 0.9524 -0.0975 -0.2889
vn 0.8786 0.4696 -0.0865
vn 0.4709 -0.8810 -0.0464
vn 0.9527 0.2890 -0.0938
vn 0.2902 -0.9565 -0.0286
vn 0.9904 0.0975 -0.0975
vn -0.2903 -0.0000 -0.9569
vn 0.0980 -0.9951 -0.0097
vn 0.9904 -0.0975 -0.0975
vn 0.0081 1.0000 -0.0008
vn 0.9527 -0.2890 -0.0938
vn 0.9943 0.0422 -0.0979
vn 0.8786 -0.4696 -0.0865
vn 0.4201 0.9065 -0.0414
vn 0.7708 -0.6326 -0.0759
vn 0.6551 0.7528 -0.0645
vn 0.6332 -0.7715 -0.0624
vn 0.9527 -0.2890 0.0938
vn 0.9943 0.0422 0.0979
vn 0.8786 -0.4696 0.0865
vn 0.4201 0.9065 0.0414
vn 0.7708 -0.6326 0.0759
vn 0.6551 0.7528 0.0645
vn 0.6332 -0.7715 0.0624
vn 0.8786 0.4696 0.0865
vn 0.4709 -0.8810 0.0464
vn 0.9527 0.2890 0.0938
vn 0.2902 -0.9565 0.0286
vn 0.9904 0.0975 0.0976
vn 0.9569 -0.0000 -0.2903
vn 0.0980 -0.9951 0.0097
vn 0.9904 -0.0975 0.0976
vn 0.0081 1.0000 0.0008
vn 0.4528 -0.8810 0.1374
vn 0.9161 0.2890 0.2779
vn 0.2790 -0.9565 0.0846
vn 0.9524 0.0975 0.2889
vn -0.9569 -0.0000 0.2903
vn 0.0942 -0.9951 0.0286
vn 0.9524 -0.0975 0.2889
vn 0.0078 1.0000 0.0024
vn 0.9161 -0.2890 0.2779
vn 0.9561 0.0422 0.2900
vn 0.8448 -0.4696 0.2563
vn 0.4040 0.9065 0.1225
vn 0.7412 -0.6326 0.2248
vn 0.6299 0.7528 0.1911
vn 0.6088 -0.7715 0.1847
vn 0.8448 0.4696 0.2563
vn 0.7786 -0.4696 0.4162
vn 0.3723 0.9065 0.1990
vn 0.6831 -0.6326 0.3651
vn 0.5805 0.7528 0.3103
vn 0.5611 -0.7715 0.2999
vn 0.7786 0.4696 0.4162
vn 0.4173 -0.8810 0.2230
vn 0.8443 0.2890 0.4513
vn 0.2571 -0.9566 0.1374
vn 0.8777 0.0975 0.4691
vn 0.2903 -0.0000 0.9569
vn 0.0869 -0.9951 0.0464
vn 0.8777 -0.0975 0.4691
vn 0.0072 1.0000 0.0038
vn 0.8443 -0.2890 0.4513
vn 0.8811 0.0422 0.4710
vn 0.2254 -0.9565 0.1850
vn 0.7693 0.0975 0.6314
vn -0.2903 -0.0000 0.9569
vn 0.0761 -0.9951 0.0625
vn 0.7693 -0.0975 0.6314
vn 0.0063 1.0000 0.0052
vn 0.7400 -0.2890 0.6073
vn 0.7723 0.0422 0.6338
vn 0.6825 -0.4696 0.5601
vn 0.3263 0.9065 0.2678
vn 0.5987 -0.6326 0.4913
vn 0.5088 0.7528 0.4176
vn 0.4918 -0.7715 0.4036
vn 0.6825 0.4696 0.5601
vn 0.3658 -0.8810 0.3002
vn 0.7400 0.2890 0.6073
vn 0.2678 0.9065 0.3263
vn 0.4913 -0.6326 0.5987
vn 0.4176 0.7528 0.5088
vn 0.4036 -0.7715 0.4918
vn 0.5601 0.4696 0.6825
vn 0.3002 -0.8810 0.3658
vn 0.6073 0.2890 0.7400
vn 0.1850 -0.9565 0.2254
vn 0.6314 0.0975 0.7693
vn -0.9569 -0.0000 -0.2903
vn 0.0625 -0.9951 0.0761
vn 0.6314 -0.0975 0.7693
vn 0.0052 1.0000 0.0063
vn 0.6073 -0.2890 0.7400
vn 0.6338 0.0422 0.7723
vn 0.5601 -0.4696 0.6825
vn 0.4691 0.0975 0.8777
vn -0.6344 -0.0000 -0.7730
vn 0.0464 -0.9951 0.0869
vn 0.4691 -0.0975 0.8777
vn 0.0038 1.0000 0.0072
vn 0.4513 -0.2890 0.8443
vn 0.4710 0.0422 0.8811
vn 0.4162 -0.4696 0.7786
vn 0.1990 0.9065 0.3723
vn 0.3651 -0.6326 0.6831
vn 0.3103 0.7528 0.5805
vn 0.2999 -0.7715 0.5611
vn 0.4162 0.4696 0.7786
vn 0.2230 -0.8810 0.4173
vn 0.4513 0.2890 0.8443
vn 0.1374 -0.9565 0.2571
vn 0.2248 -0.6326 0.7412
vn 0.1911 0.7528 0.6299
vn 0.1847 -0.7715 0.6088
vn 0.2563 0.4696 0.8448
vn 0.1374 -0.8810 0.4528
vn 0.2779 0.2890 0.9161
vn 0.0846 -0.9565 0.2790
vn 0.2889 0.0975 0.9524
vn 0.9569 -0.0000 0.2903
vn 0.0286 -0.9951 0.0942
vn 0.2889 -0.0975 0.9524
vn 0.0024 1.0000 0.0078
vn 0.2779 -0.2890 0.9161
vn 0.2900 0.0422 0.9561
vn 0.2563 -0.4696 0.8448
vn 0.1225 0.9065 0.4040
vn 0.2903 -0.0000 -0.9569
vn 0.0097 -0.9951 0.0980
vn 0.0975 -0.0975 0.9904
vn 0.0008 1.0000 0.0081
vn 0.0938 -0.2890 0.9527
vn 0.0979 0.0422 0.9943
vn 0.0865 -0.4696 0.8786
vn 0.0414 0.9065 0.4201
vn 0.0759 -0.6326 0.7708
vn 0.0645 0.7528 0.6551
vn 0.0624 -0.7715 0.6332
vn 0.0865 0.4696 0.8786
vn 0.0464 -0.8810 0.4709
vn 0.0938 0.2890 0.9527
vn 0.0286 -0.9565 0.2902
vn 0.0975 0.0975 0.9904
vn -0.0645 0.7528 0.6551
vn -0.0624 -0.7715 0.6332
vn -0.0865 0.4696 0.8786
vn -0.0464 -0.8810 0.4709
vn -0.0938 0.2890 0.9527
vn -0.0286 -0.9565 0.2902
vn -0.0976 0.0975 0.9904
vn -0.7730 -0.0000 0.6344
vn -0.0097 -0.9951 0.0980
vn -0.0975 -0.0975 0.9904
vn -0.0008 1.0000 0.0081
vn -0.0938 -0.2890 0.9527
vn -0.0979 0.0422 0.9943
vn -0.0865 -0.4696 0.8786
vn -0.0414 0.9065 0.4201
vn -0.0759 -0.6326 0.7708
vn -0.2889 -0.0975 0.9524
vn -0.0024 1.0000 0.0078
vn -0.2779 -0.2890 0.9161
vn -0.2900 0.0422 0.9561
vn -0.2563 -0.4696 0.8448
vn -0.1225 0.9065 0.4040
vn -0.2248 -0.6326 0.7412
vn -0.1911 0.7528 0.6299
vn -0.1847 -0.7715 0.6088
vn -0.2563 0.4696 0.8448
vn -0.1374 -0.8810 0.4528
vn -0.2779 0.2890 0.9161
vn -0.0846 -0.9565 0.2790
vn -0.2889 0.0975 0.9524
vn 0.7730 -0.0000 -0.6344
vn -0.0286 -0.9951 0.0942
vn -0.2999 -0.7715 0.5611
vn -0.4162 0.4696 0.7786
vn -0.2230 -0.8810 0.4173
vn -0.4513 0.2890 0.8443
vn -0.1374 -0.9565 0.2571
vn -0.4691 0.0975 0.8777
vn 0.6344 -0.0000 0.7730
vn -0.0464 -0.9951 0.0869
vn -0.4691 -0.0975 0.8777
vn -0.0038 1.0000 0.0072
vn -0.4513 -0.2890 0.8443
vn -0.4710 0.0422 0.8811
vn -0.4162 -0.4696 0.7786
vn -0.1990 0.9065 0.3723
vn -0.3651 -0.6326 0.6831
vn -0.3103 0.7528 0.5805
vn -0.6073 -0.2890 0.7400
vn -0.6338 0.0422 0.7723
vn -0.5601 -0.4696 0.6825
vn -0.2678 0.9065 0.3263
vn -0.4913 -0.6326 0.5987
vn -0.4176 0.7528 0.5088
vn -0.4036 -0.7715 0.4918
vn -0.5601 0.4696 0.6825
vn -0.3002 -0.8810 0.3658
vn -0.6073 0.2890 0.7400
vn -0.1850 -0.9565 0.2254
vn -0.6314 0.0975 0.7693
vn -0.9952 -0.0000 0.0980
vn -0.0625 -0.9951 0.0761
vn -0.6314 -0.0975 0.7693
vn -0.0052 1.0000 0.0063
vn -0.3658 -0.8810 0.3002
vn -0.7400 0.2890 0.6073
vn -0.2254 -0.9566 0.1850
vn -0.7693 0.0975 0.6314
vn -0.0980 -0.0000 -0.9952
vn -0.0761 -0.9951 0.0625
vn -0.7693 -0.0975 0.6314
vn -0.0063 1.0000 0.0052
vn -0.7400 -0.2890 0.6073
vn -0.7723 0.0422 0.6338
vn -0.6825 -0.4696 0.5601
vn -0.3263 0.9065 0.2678
vn -0.5987 -0.6326 0.4913
vn -0.5088 0.7528 0.4176
vn -0.4918 -0.7715 0.4036
vn -0.6825 0.4696 0.5601
vn -0.8811 0.0422 0.4710
vn -0.7786 -0.4696 0.4162
vn -0.3723 0.9065 0.1990
vn -0.6831 -0.6326 0.3651
vn -0.5805 0.7528 0.3103
vn -0.5611 -0.7715 0.2999
vn -0.7786 0.4696 0.4162
vn -0.4173 -0.8810 0.2231
vn -0.8443 0.2890 0.4513
vn -0.2571 -0.9565 0.1374
vn -0.8777 0.0975 0.4691
vn 0.9952 -0.0000 -0.0980
vn -0.0869 -0.9951 0.0464
vn -0.8777 -0.0975 0.4691
vn -0.0072 1.0000 0.0038
vn -0.8443 -0.2890 0.4513
vn -0.9161 0.2890 0.2779
vn -0.2790 -0.9565 0.0846
vn -0.9524 0.0975 0.2889
vn -0.4714 -0.0000 0.8819
vn -0.0942 -0.9951 0.0286
vn -0.9524 -0.0975 0.2889
vn -0.0078 1.0000 0.0024
vn -0.9161 -0.2890 0.2779
vn -0.9561 0.0422 0.2900
vn -0.8448 -0.4696 0.2563
vn -0.4040 0.9065 0.1225
vn -0.7412 -0.6326 0.2248
vn -0.6299 0.7528 0.1911
vn -0.6088 -0.7715 0.1847
vn -0.8448 0.4696 0.2563
vn -0.4528 -0.8810 0.1374
vn -0.8786 -0.4696 0.0865
vn -0.4201 0.9065 0.0414
vn -0.7708 -0.6326 0.0759
vn -0.6551 0.7528 0.0645
vn -0.6332 -0.7715 0.0624
vn -0.8786 0.4696 0.0865
vn -0.4709 -0.8810 0.0464
vn -0.9527 0.2890 0.0938
vn -0.2902 -0.9565 0.0286
vn -0.9904 0.0975 0.0975
vn 0.8819 -0.0000 0.4714
vn -0.0980 -0.9951 0.0097
vn -0.9904 -0.0975 0.0976
vn -0.0081 1.0000 0.0008
vn -0.9527 -0.2890 0.0938
vn -0.9943 0.0422 0.0979
vn -0.2902 -0.9565 -0.0286
vn -0.9904 0.0975 -0.0975
vn -0.8819 -0.0000 0.4714
vn -0.0980 -0.9951 -0.0097
vn -0.9904 -0.0975 -0.0976
vn -0.0081 1.0000 -0.0008
vn -0.9527 -0.2890 -0.0938
vn -0.9943 0.0422 -0.0979
vn -0.8786 -0.4696 -0.0865
vn -0.4201 0.9065 -0.0414
vn -0.7708 -0.6326 -0.0759
vn -0.6551 0.7528 -0.0645
vn -0.6332 -0.7715 -0.0624
vn -0.8786 0.4696 -0.0865
vn -0.4709 -0.8810 -0.0464
vn -0.9527 0.2890 -0.0938
vn -0.4040 0.9065 -0.1225
vn -0.7412 -0.6326 -0.2248
vn -0.6299 0.7528 -0.1911
vn -0.6088 -0.7715 -0.1847
vn -0.8448 0.4696 -0.2563
vn -0.4528 -0.8810 -0.1374
vn -0.9161 0.2890 -0.2779
vn -0.2790 -0.9565 -0.0846
vn -0.9524 0.0975 -0.2889
vn -0.8819 -0.0000 -0.4714
vn -0.0942 -0.9951 -0.0286
vn -0.9524 -0.0975 -0.2889
vn -0.0078 1.0000 -0.0024
vn -0.9161 -0.2890 -0.2779
vn -0.9561 0.0422 -0.2900
vn -0.8448 -0.4696 -0.2563
vn -0.8777 0.0975 -0.4691
vn 0.0980 -0.0000 0.9952
vn -0.0869 -0.9951 -0.0464
vn -0.8777 -0.0975 -0.4691
vn -0.0072 1.0000 -0.0038
vn -0.8443 -0.2890 -0.4513
vn -0.8811 0.0422 -0.4710
vn -0.7786 -0.4696 -0.4162
vn -0.3723 0.9065 -0.1990
vn -0.6831 -0.6326 -0.3651
vn -0.5805 0.7528 -0.3103
vn -0.5611 -0.7715 -0.2999
vn -0.7786 0.4696 -0.4162
vn -0.4173 -0.8810 -0.2231
vn -0.8443 0.2890 -0.4513
vn -0.2571 -0.9565 -0.1374
vn -0.5987 -0.6326 -0.4913
vn -0.5088 0.7528 -0.4176
vn -0.4918 -0.7715 -0.4036
vn -0.6825 0.4696 -0.5601
vn -0.3658 -0.8810 -0.3002
vn -0.7400 0.2890 -0.6073
vn -0.2254 -0.9565 -0.1850
vn -0.7693 0.0975 -0.6314
vn -0.4714 -0.0000 -0.8819
vn -0.0761 -0.9951 -0.0625
vn -0.7693 -0.0975 -0.6314
vn -0.0063 1.0000 -0.0052
vn -0.7400 -0.2890 -0.6073
vn -0.7723 0.0422 -0.6338
vn -0.6825 -0.4696 -0.5601
vn -0.3263 0.9065 -0.2678
vn -0.0625 -0.9951 -0.0761
vn -0.6314 -0.0975 -0.7693
vn -0.0052 1.0000 -0.0063
vn -0.6073 -0.2890 -0.7400
vn -0.6338 0.0422 -0.7723
vn -0.5601 -0.4696 -0.6825
vn -0.2678 0.9065 -0.3263
vn -0.4913 -0.6326 -0.5987
vn -0.4176 0.7528 -0.5088
vn -0.4036 -0.7715 -0.4918
vn -0.5601 0.4696 -0.6825
vn -0.3002 -0.8810 -0.3658
vn -0.6073 0.2890 -0.7400
vn -0.1850 -0.9565 -0.2254
vn -0.6314 0.0975 -0.7693
vn 0.8819 -0.0000 -0.4714
vn -0.2999 -0.7715 -0.5611
vn -0.4162 0.4696 -0.7786
vn -0.2230 -0.8810 -0.4173
vn -0.4513 0.2890 -0.8443
vn -0.1374 -0.9565 -0.2571
vn -0.4691 0.0975 -0.8777
vn 0.9952 -0.0000 0.0980
vn -0.0464 -0.9951 -0.0869
vn -0.4691 -0.0975 -0.8777
vn -0.0038 1.0000 -0.0072
vn -0.4513 -0.2890 -0.8443
vn -0.4710 0.0422 -0.8811
vn -0.4162 -0.4696 -0.7786
vn -0.1990 0.9065 -0.3723
vn -0.3651 -0.6326 -0.6831
vn -0.3103 0.7528 -0.5805
vn -0.0024 1.0000 -0.0078
vn -0.2779 -0.2890 -0.9161
vn -0.2900 0.0422 -0.9561
vn -0.2563 -0.4696 -0.8448
vn -0.1225 0.9065 -0.4040
vn -0.2248 -0.6326 -0.7412
vn -0.1911 0.7528 -0.6299
vn -0.1847 -0.7715 -0.6088
vn -0.2563 0.4696 -0.8448
vn -0.1374 -0.8810 -0.4528
vn -0.2779 0.2890 -0.9161
vn -0.0846 -0.9565 -0.2790
vn -0.2889 0.0975 -0.9524
vn -0.4631 0.1873 0.8663
vn -0.0286 -0.9951 -0.0942
vn -0.2889 -0.0975 -0.9524
vn -0.0865 0.4696 -0.8786
vn -0.0464 -0.8810 -0.4709
vn -0.0938 0.2890 -0.9527
vn -0.0286 -0.9565 -0.2902
vn -0.0976 0.0975 -0.9904
vn 0.0980 -0.0000 -0.9952
vn -0.0097 -0.9951 -0.0980
vn -0.0976 -0.0975 -0.9904
vn -0.0008 1.0000 -0.0081
vn -0.0938 -0.2890 -0.9527
vn -0.0979 0.0422 -0.9943
vn -0.0865 -0.4696 -0.8786
vn -0.0414 0.9065 -0.4201
vn -0.0759 -0.6326 -0.7708
vn -0.0645 0.7528 -0.6551
vn -0.0624 -0.7715 -0.6332
vn -0.9952 -0.0000 -0.0980
vn 0.7631 0.4419 0.4716
vn 0.7628 -0.1318 -0.6330
vn -0.9950 -0.0207 -0.0980
vn 0.8758 0.1015 0.4719
vn -0.2842 0.2030 0.9370
vn 0.6220 -0.1586 -0.7668
vn -0.9950 0.0208 0.0980
vn 0.9544 0.0626 0.2919
vn -0.4639 -0.1775 -0.8679
vn -0.0958 0.2109 0.9728
vn 0.4594 -0.1788 -0.8700
vn 0.0948 -0.1989 -0.9754
vn -0.9551 0.0618 0.2897
vn 0.9949 0.0211 0.0988
vn -0.6265 -0.1569 -0.7634
vn 0.0951 0.2110 0.9728
vn 0.2816 -0.1923 -0.9401
vn -0.2849 -0.1915 -0.9392
vn -0.8775 0.1005 0.4690
vn 0.9949 -0.0210 -0.0989
vn -0.7664 -0.1301 -0.6290
vn 0.2824 0.2033 0.9375
vn -0.7659 0.1352 0.6286
vn 0.9543 -0.0617 -0.2923
vn -0.0961 -0.1986 -0.9754
vn -0.8777 -0.0977 -0.4691
vn 0.4604 0.1879 0.8676
vn -0.6257 0.1645 0.7625
vn 0.8755 -0.0991 -0.4729
vn 0.6229 0.1654 0.7646
vn -0.9552 -0.0607 -0.2897
vn 0.7634 0.1362 0.6314
vn -0.0000 -0.5943 0.8042
vn -0.9947 -0.0716 -0.0739
vn 0.8729 0.3339 0.3556
vn -0.9950 0.0690 0.0720
vn 0.9552 0.2035 0.2151
vn -0.9530 0.2087 0.2194
vn 0.9947 0.0707 0.0744
vn -0.8801 0.3263 0.3450
vn 0.9951 -0.0686 -0.0716
vn -0.7589 0.4458 0.4747
vn 0.9528 -0.2112 -0.2182
vn -0.6349 0.5283 0.5638
vn 0.0925 -0.7118 -0.6962
vn 0.8821 -0.3287 -0.3375
vn -0.4557 0.6067 0.6514
vn -0.0628 -0.7093 -0.7021
vn 0.7563 -0.4599 -0.4653
vn -0.2991 0.6505 0.6981
vn -0.2751 -0.6873 -0.6723
vn 0.6434 -0.5389 -0.5438
vn -0.0940 0.6771 0.7299
vn -0.4425 -0.6356 -0.6326
vn 0.4510 -0.6339 -0.6283
vn 0.0808 0.6789 0.7298
vn -0.6130 -0.5611 -0.5562
vn 0.3156 -0.6726 -0.6694
vn 0.2791 0.6531 0.7040
vn -0.7597 -0.4577 -0.4619
vn 0.4536 0.6076 0.6520
vn -0.8712 -0.3450 -0.3491
vn 0.6179 0.5359 0.5753
vn -0.9548 -0.2075 -0.2130
vn 0.0975 0.0976 -0.9904
vn 0.0975 -0.0975 -0.9904
vn 0.2231 -0.8810 -0.4173
vn 0.2254 -0.9565 -0.1850
vn 0.4173 -0.8810 0.2231
vn 0.2571 -0.9565 0.1374
vn -0.0975 0.0975 0.9904
vn -0.0976 -0.0975 0.9904
vn -0.2231 -0.8810 0.4173
vn -0.2254 -0.9565 0.1850
vn -0.4173 -0.8810 0.2230
vn -0.9904 0.0975 0.0976
vn -0.9904 -0.0975 0.0975
vn -0.9904 0.0975 -0.0976
vn -0.9904 -0.0975 -0.0975
vn -0.4604 0.1879 0.8676
vn 0.7589 0.4458 0.4747
vn 0.7664 -0.1301 -0.6290
vn -0.9949 -0.0210 -0.0989
vn 0.8775 0.1005 0.4690
vn -0.2824 0.2033 0.9375
vn 0.6265 -0.1569 -0.7634
vn -0.9949 0.0211 0.0988
vn 0.9551 0.0618 0.2897
vn -0.4594 -0.1788 -0.8700
vn -0.0951 0.2110 0.9728
vn 0.4639 -0.1775 -0.8679
vn 0.0961 -0.1986 -0.9754
vn -0.9544 0.0626 0.2919
vn 0.9950 0.0208 0.0980
vn -0.6220 -0.1586 -0.7668
vn 0.0958 0.2109 0.9728
vn 0.2849 -0.1915 -0.9392
vn -0.2816 -0.1923 -0.9401
vn -0.8758 0.1015 0.4719
vn 0.9950 -0.0207 -0.0980
vn -0.7628 -0.1318 -0.6330
vn 0.2842 0.2030 0.9370
vn -0.7634 0.1362 0.6314
vn 0.9552 -0.0607 -0.2897
vn -0.0948 -0.1989 -0.9754
vn -0.8755 -0.0991 -0.4729
vn 0.4631 0.1873 0.8663
vn -0.6229 0.1654 0.7646
vn 0.8777 -0.0977 -0.4691
vn 0.6258 0.1645 0.7625
vn -0.9543 -0.0617 -0.2923
vn 0.7659 0.1352 0.6286
vn -0.9951 -0.0686 -0.0716
vn 0.8801 0.3263 0.3450
vn -0.9947 0.0707 0.0744
vn 0.9530 0.2087 0.2194
vn -0.9552 0.2035 0.2151
vn 0.9950 0.0690 0.0720
vn -0.8729 0.3339 0.3556
vn 0.9947 -0.0716 -0.0739
vn -0.7631 0.4419 0.4716
vn 0.9548 -0.2075 -0.2130
vn -0.6179 0.5359 0.5753
vn 0.0628 -0.7093 -0.7021
vn 0.8712 -0.3450 -0.3491
vn -0.4536 0.6076 0.6520
vn -0.0925 -0.7118 -0.6962
vn 0.7597 -0.4577 -0.4619
vn -0.2791 0.6531 0.7040
vn -0.3156 -0.6726 -0.6694
vn 0.6130 -0.5611 -0.5562
vn -0.0808 0.6789 0.7298
vn -0.4510 -0.6339 -0.6283
vn 0.4425 -0.6356 -0.6326
vn 0.0940 0.6771 0.7299
vn -0.6434 -0.5389 -0.5438
vn 0.2751 -0.6873 -0.6723
vn 0.2991 0.6505 0.6981
vn -0.7563 -0.4599 -0.4653
vn 0.4557 0.6067 0.6514
vn -0.8821 -0.3287 -0.3375
vn 0.6349 0.5283 0.5638
vn -0.9528 -0.2111 -0.2182
vt 0.269802 0.730243
vt 0.260210 0.711058
vt 0.269802 0.711058
vt 0.269802 0.845355
vt 0.260210 0.864540
vt 0.260210 0.845355
vt 0.260210 0.691873
vt 0.269802 0.691873
vt 0.269802 0.826170
vt 0.260210 0.826170
vt 0.260210 0.672687
vt 0.269802 0.672687
vt 0.260210 0.806984
vt 0.269802 0.806984
vt 0.696093 0.190986
vt 0.686501 0.190986
vt 0.265006 0.653502
vt 0.260210 0.787799
vt 0.269802 0.787799
vt 0.272903 0.305118
vt 0.263310 0.324303
vt 0.263310 0.305118
vt 0.260210 0.768614
vt 0.269802 0.768614
vt 0.263310 0.285933
vt 0.272903 0.285933
vt 0.260210 0.749428
vt 0.269802 0.749428
vt 0.269802 0.883725
vt 0.260210 0.902911
vt 0.260210 0.883725
vt 0.260210 0.730243
vt 0.269802 0.864540
vt 0.250617 0.749428
vt 0.250617 0.730243
vt 0.250617 0.864540
vt 0.250617 0.711058
vt 0.250617 0.845355
vt 0.250617 0.691873
vt 0.250617 0.826170
vt 0.250617 0.672687
vt 0.250617 0.806984
vt 0.724871 0.190986
vt 0.715279 0.190986
vt 0.255413 0.653502
vt 0.250617 0.787799
vt 0.253717 0.305118
vt 0.250617 0.768614
vt 0.253717 0.285933
vt 0.250617 0.883725
vt 0.897539 0.190986
vt 0.887946 0.190986
vt 0.245821 0.653502
vt 0.241024 0.672687
vt 0.241024 0.787799
vt 0.253717 0.324303
vt 0.244125 0.305118
vt 0.241024 0.768614
vt 0.244125 0.285933
vt 0.241024 0.749428
vt 0.250617 0.902911
vt 0.241024 0.883725
vt 0.241024 0.730243
vt 0.241024 0.864540
vt 0.241024 0.711058
vt 0.241024 0.845355
vt 0.241024 0.691873
vt 0.241024 0.826170
vt 0.241024 0.806984
vt 0.231432 0.883725
vt 0.231432 0.864540
vt 0.231432 0.730243
vt 0.231432 0.711058
vt 0.231432 0.845355
vt 0.231432 0.691873
vt 0.231432 0.826170
vt 0.231432 0.672687
vt 0.231432 0.806984
vt 0.830390 0.190986
vt 0.820798 0.190986
vt 0.236228 0.653502
vt 0.231432 0.787799
vt 0.244125 0.324303
vt 0.234532 0.305118
vt 0.231432 0.768614
vt 0.234532 0.285933
vt 0.231432 0.749428
vt 0.241024 0.902911
vt 0.221839 0.787799
vt 0.224940 0.324303
vt 0.224940 0.305118
vt 0.221839 0.768614
vt 0.224940 0.285933
vt 0.221839 0.749428
vt 0.231432 0.902911
vt 0.221839 0.883725
vt 0.221839 0.730243
vt 0.221839 0.864540
vt 0.221839 0.711058
vt 0.221839 0.845355
vt 0.221839 0.691873
vt 0.221839 0.826170
vt 0.221839 0.672687
vt 0.221839 0.806984
vt 0.667315 0.190986
vt 0.657723 0.190986
vt 0.226635 0.653502
vt 0.212246 0.730243
vt 0.212246 0.711058
vt 0.212246 0.845355
vt 0.212246 0.691873
vt 0.212246 0.826170
vt 0.212246 0.672687
vt 0.212246 0.806984
vt 0.744057 0.190986
vt 0.734464 0.190986
vt 0.217043 0.653502
vt 0.212246 0.787799
vt 0.215347 0.305118
vt 0.212246 0.768614
vt 0.215347 0.285933
vt 0.212246 0.749428
vt 0.221839 0.902911
vt 0.212246 0.883725
vt 0.212246 0.864540
vt 0.215347 0.324303
vt 0.205754 0.305118
vt 0.202654 0.768614
vt 0.205754 0.285933
vt 0.202654 0.749428
vt 0.212246 0.902911
vt 0.202654 0.883725
vt 0.202654 0.730243
vt 0.202654 0.864540
vt 0.202654 0.711058
vt 0.202654 0.845355
vt 0.202654 0.691873
vt 0.202654 0.826170
vt 0.202654 0.672687
vt 0.202654 0.806984
vt 0.811205 0.190986
vt 0.207450 0.653502
vt 0.202654 0.787799
vt 0.193061 0.845355
vt 0.193061 0.711058
vt 0.193061 0.691873
vt 0.193061 0.826170
vt 0.193061 0.672687
vt 0.193061 0.806984
vt 0.868761 0.190986
vt 0.859168 0.190986
vt 0.197857 0.653502
vt 0.193061 0.787799
vt 0.205754 0.324303
vt 0.196162 0.305118
vt 0.193061 0.768614
vt 0.196162 0.285933
vt 0.193061 0.749428
vt 0.202654 0.902911
vt 0.193061 0.883725
vt 0.193061 0.730243
vt 0.193061 0.864540
vt 0.183469 0.768614
vt 0.186569 0.285933
vt 0.183469 0.749428
vt 0.193061 0.902911
vt 0.183469 0.883725
vt 0.183469 0.730243
vt 0.183469 0.864540
vt 0.183469 0.711058
vt 0.183469 0.845355
vt 0.183469 0.691873
vt 0.183469 0.826170
vt 0.183469 0.672687
vt 0.183469 0.806984
vt 0.792020 0.190986
vt 0.782427 0.190986
vt 0.188265 0.653502
vt 0.183469 0.787799
vt 0.186569 0.324303
vt 0.186569 0.305118
vt 0.173876 0.711058
vt 0.173876 0.691873
vt 0.173876 0.845355
vt 0.173876 0.826170
vt 0.173876 0.672687
vt 0.173876 0.806984
vt 0.638538 0.190986
vt 0.628945 0.190986
vt 0.178672 0.653502
vt 0.173876 0.787799
vt 0.176976 0.305118
vt 0.173876 0.768614
vt 0.176976 0.285933
vt 0.173876 0.749428
vt 0.183469 0.902911
vt 0.173876 0.883725
vt 0.173876 0.730243
vt 0.173876 0.864540
vt 0.164283 0.768614
vt 0.164283 0.749428
vt 0.173876 0.902911
vt 0.164283 0.883725
vt 0.164283 0.730243
vt 0.164283 0.864540
vt 0.164283 0.711058
vt 0.164283 0.845355
vt 0.164283 0.691873
vt 0.164283 0.826170
vt 0.164283 0.672687
vt 0.164283 0.806984
vt 0.705686 0.190986
vt 0.169080 0.653502
vt 0.164283 0.787799
vt 0.176976 0.324303
vt 0.167384 0.305118
vt 0.167384 0.285933
vt 0.154691 0.691873
vt 0.154691 0.672687
vt 0.154691 0.826170
vt 0.154691 0.806984
vt 0.676908 0.190986
vt 0.159487 0.653502
vt 0.154691 0.787799
vt 0.167384 0.324303
vt 0.157791 0.305118
vt 0.154691 0.768614
vt 0.157791 0.285933
vt 0.154691 0.749428
vt 0.164283 0.902911
vt 0.154691 0.883725
vt 0.154691 0.730243
vt 0.154691 0.864540
vt 0.154691 0.711058
vt 0.154691 0.845355
vt 0.154691 0.902911
vt 0.145098 0.883725
vt 0.145098 0.730243
vt 0.145098 0.864540
vt 0.145098 0.711058
vt 0.145098 0.845355
vt 0.145098 0.691873
vt 0.145098 0.826170
vt 0.145098 0.672687
vt 0.145098 0.806984
vt 0.916724 0.190986
vt 0.907131 0.190986
vt 0.149894 0.653502
vt 0.145098 0.787799
vt 0.148198 0.324303
vt 0.148198 0.305118
vt 0.145098 0.768614
vt 0.148198 0.285933
vt 0.145098 0.749428
vt 0.135505 0.826170
vt 0.135505 0.806984
vt 0.878354 0.190986
vt 0.140302 0.653502
vt 0.135505 0.672687
vt 0.135505 0.787799
vt 0.138606 0.305118
vt 0.135505 0.768614
vt 0.138606 0.285933
vt 0.135505 0.749428
vt 0.145098 0.902911
vt 0.135505 0.883725
vt 0.135505 0.730243
vt 0.135505 0.864540
vt 0.135505 0.711058
vt 0.135505 0.845355
vt 0.135505 0.691873
vt 0.125913 0.730243
vt 0.125913 0.883725
vt 0.125913 0.864540
vt 0.125913 0.711058
vt 0.125913 0.845355
vt 0.125913 0.691873
vt 0.125913 0.826170
vt 0.125913 0.672687
vt 0.125913 0.806984
vt 0.763242 0.190986
vt 0.753649 0.190986
vt 0.130709 0.653502
vt 0.125913 0.787799
vt 0.138606 0.324303
vt 0.129013 0.305118
vt 0.125913 0.768614
vt 0.129013 0.285933
vt 0.125913 0.749428
vt 0.135505 0.902911
vt 0.839983 0.190986
vt 0.121116 0.653502
vt 0.116320 0.672687
vt 0.116320 0.787799
vt 0.119420 0.324303
vt 0.119420 0.305118
vt 0.116320 0.768614
vt 0.119420 0.285933
vt 0.116320 0.749428
vt 0.125913 0.902911
vt 0.116320 0.883725
vt 0.116320 0.730243
vt 0.116320 0.864540
vt 0.116320 0.711058
vt 0.116320 0.845355
vt 0.116320 0.691873
vt 0.116320 0.826170
vt 0.116320 0.806984
vt 0.106727 0.883725
vt 0.106727 0.864540
vt 0.106727 0.730243
vt 0.106727 0.711058
vt 0.106727 0.845355
vt 0.106727 0.691873
vt 0.106727 0.826170
vt 0.106727 0.672687
vt 0.106727 0.806984
vt 0.648130 0.190986
vt 0.111524 0.653502
vt 0.106727 0.787799
vt 0.109828 0.324303
vt 0.109828 0.305118
vt 0.106727 0.768614
vt 0.109828 0.285933
vt 0.106727 0.749428
vt 0.116320 0.902911
vt 0.097135 0.787799
vt 0.100235 0.324303
vt 0.100235 0.305118
vt 0.097135 0.768614
vt 0.100235 0.285933
vt 0.097135 0.749428
vt 0.106727 0.902911
vt 0.097135 0.883725
vt 0.097135 0.730243
vt 0.097135 0.864540
vt 0.097135 0.711058
vt 0.097135 0.845355
vt 0.097135 0.691873
vt 0.097135 0.826170
vt 0.097135 0.672687
vt 0.097135 0.806984
vt 0.801612 0.190986
vt 0.101931 0.653502
vt 0.087542 0.730243
vt 0.087542 0.711058
vt 0.087542 0.845355
vt 0.087542 0.691873
vt 0.087542 0.826170
vt 0.087542 0.672687
vt 0.087542 0.806984
vt 0.092338 0.653502
vt 0.087542 0.787799
vt 0.090643 0.305118
vt 0.087542 0.768614
vt 0.090643 0.285933
vt 0.087542 0.749428
vt 0.097135 0.902911
vt 0.087542 0.883725
vt 0.087542 0.864540
vt 0.077949 0.768614
vt 0.081050 0.305118
vt 0.081050 0.285933
vt 0.077949 0.749428
vt 0.087542 0.902911
vt 0.077949 0.883725
vt 0.077949 0.730243
vt 0.077949 0.864540
vt 0.077949 0.711058
vt 0.077949 0.845355
vt 0.077949 0.691873
vt 0.077949 0.826170
vt 0.077949 0.672687
vt 0.077949 0.806984
vt 0.619352 0.190986
vt 0.082746 0.653502
vt 0.077949 0.787799
vt 0.090643 0.324303
vt 0.068357 0.691873
vt 0.068357 0.845355
vt 0.068357 0.826170
vt 0.068357 0.672687
vt 0.068357 0.806984
vt 0.849576 0.190986
vt 0.073153 0.653502
vt 0.068357 0.787799
vt 0.071457 0.324303
vt 0.071457 0.305118
vt 0.068357 0.768614
vt 0.071457 0.285933
vt 0.068357 0.749428
vt 0.077949 0.902911
vt 0.068357 0.883725
vt 0.068357 0.730243
vt 0.068357 0.864540
vt 0.068357 0.711058
vt 0.061865 0.305118
vt 0.061865 0.285933
vt 0.058764 0.768614
vt 0.058764 0.749428
vt 0.068357 0.902911
vt 0.058764 0.883725
vt 0.058764 0.730243
vt 0.058764 0.864540
vt 0.058764 0.711058
vt 0.058764 0.845355
vt 0.058764 0.691873
vt 0.058764 0.826170
vt 0.058764 0.672687
vt 0.058764 0.806984
vt 0.772834 0.190986
vt 0.063560 0.653502
vt 0.058764 0.787799
vt 0.049172 0.845355
vt 0.049172 0.826170
vt 0.049172 0.691873
vt 0.049172 0.672687
vt 0.049172 0.806984
vt 0.053968 0.653502
vt 0.049172 0.787799
vt 0.061865 0.324303
vt 0.052272 0.305118
vt 0.049172 0.768614
vt 0.052272 0.285933
vt 0.049172 0.749428
vt 0.058764 0.902911
vt 0.049172 0.883725
vt 0.049172 0.730243
vt 0.049172 0.864540
vt 0.049172 0.711058
vt 0.039579 0.768614
vt 0.039579 0.749428
vt 0.049172 0.902911
vt 0.039579 0.883725
vt 0.039579 0.730243
vt 0.039579 0.864540
vt 0.039579 0.711058
vt 0.039579 0.845355
vt 0.039579 0.691873
vt 0.039579 0.826170
vt 0.039579 0.672687
vt 0.039579 0.806984
vt 0.044375 0.653502
vt 0.039579 0.787799
vt 0.052272 0.324303
vt 0.042679 0.305118
vt 0.042679 0.285933
vt 0.346543 0.691873
vt 0.336951 0.672687
vt 0.346543 0.672687
vt 0.346543 0.806984
vt 0.336951 0.826170
vt 0.336951 0.806984
vt 0.341747 0.653502
vt 0.336951 0.787799
vt 0.346543 0.787799
vt 0.349644 0.305118
vt 0.340051 0.324303
vt 0.340051 0.305118
vt 0.336951 0.768614
vt 0.346543 0.768614
vt 0.349644 0.285933
vt 0.340051 0.285933
vt 0.346543 0.749428
vt 0.336951 0.749428
vt 0.346543 0.902911
vt 0.336951 0.883725
vt 0.346543 0.883725
vt 0.336951 0.730243
vt 0.346543 0.730243
vt 0.346543 0.864540
vt 0.336951 0.864540
vt 0.346543 0.711058
vt 0.336951 0.711058
vt 0.336951 0.845355
vt 0.346543 0.845355
vt 0.336951 0.691873
vt 0.346543 0.826170
vt 0.336951 0.902911
vt 0.327358 0.883725
vt 0.327358 0.730243
vt 0.327358 0.864540
vt 0.327358 0.711058
vt 0.327358 0.845355
vt 0.327358 0.691873
vt 0.327358 0.826170
vt 0.327358 0.672687
vt 0.327358 0.806984
vt 0.332154 0.653502
vt 0.327358 0.787799
vt 0.330459 0.324303
vt 0.330459 0.305118
vt 0.327358 0.768614
vt 0.330459 0.285933
vt 0.327358 0.749428
vt 0.317766 0.826170
vt 0.317766 0.806984
vt 0.322562 0.653502
vt 0.317766 0.672687
vt 0.317766 0.787799
vt 0.320866 0.305118
vt 0.317766 0.768614
vt 0.320866 0.285933
vt 0.317766 0.749428
vt 0.327358 0.902911
vt 0.317766 0.883725
vt 0.317766 0.730243
vt 0.317766 0.864540
vt 0.317766 0.711058
vt 0.317766 0.845355
vt 0.317766 0.691873
vt 0.308173 0.730243
vt 0.308173 0.883725
vt 0.308173 0.864540
vt 0.308173 0.711058
vt 0.308173 0.845355
vt 0.308173 0.691873
vt 0.308173 0.826170
vt 0.308173 0.672687
vt 0.308173 0.806984
vt 0.312969 0.653502
vt 0.308173 0.787799
vt 0.320866 0.324303
vt 0.311273 0.305118
vt 0.308173 0.768614
vt 0.311273 0.285933
vt 0.308173 0.749428
vt 0.317766 0.902911
vt 0.303377 0.653502
vt 0.298580 0.672687
vt 0.298580 0.787799
vt 0.311273 0.324303
vt 0.301681 0.305118
vt 0.298580 0.768614
vt 0.301681 0.285933
vt 0.298580 0.749428
vt 0.308173 0.902911
vt 0.298580 0.883725
vt 0.298580 0.730243
vt 0.298580 0.864540
vt 0.298580 0.711058
vt 0.298580 0.845355
vt 0.298580 0.691873
vt 0.298580 0.826170
vt 0.298580 0.806984
vt 0.288988 0.730243
vt 0.288988 0.711058
vt 0.288988 0.845355
vt 0.288988 0.691873
vt 0.288988 0.826170
vt 0.288988 0.672687
vt 0.288988 0.806984
vt 0.293784 0.653502
vt 0.288988 0.787799
vt 0.292088 0.324303
vt 0.292088 0.305118
vt 0.288988 0.768614
vt 0.292088 0.285933
vt 0.288988 0.749428
vt 0.298580 0.902911
vt 0.288988 0.883725
vt 0.288988 0.864540
vt 0.282495 0.305118
vt 0.279395 0.768614
vt 0.282495 0.285933
vt 0.279395 0.749428
vt 0.288988 0.902911
vt 0.279395 0.883725
vt 0.279395 0.730243
vt 0.279395 0.864540
vt 0.279395 0.711058
vt 0.279395 0.845355
vt 0.279395 0.691873
vt 0.279395 0.826170
vt 0.279395 0.672687
vt 0.279395 0.806984
vt 0.284191 0.653502
vt 0.279395 0.787799
vt 0.274599 0.653502
vt 0.282495 0.324303
vt 0.269802 0.902911
vt 0.926317 0.190986
vt 0.765625 0.404297
vt 0.272903 0.324303
vt 0.234532 0.324303
vt 0.196162 0.324303
vt 0.157791 0.324303
vt 0.129013 0.324303
vt 0.081050 0.324303
vt 0.039579 0.902911
vt 0.042679 0.324303
vt 0.349644 0.324303
vt 0.301681 0.324303
vt 0.279395 0.902911
s 0
usemtl マテリアル
f 479/1/1 19/2/1 480/3/1
f 477/4/2 11/5/2 12/6/2
f 480/3/3 20/7/3 481/8/3
f 3/9/4 12/6/4 13/10/4
f 481/8/5 21/11/5 482/12/5
f 3/9/6 14/13/6 4/14/6
f 233/15/7 498/16/7 248/16/7
f 308/17/8 482/12/8 21/11/8
f 4/14/9 15/18/9 5/19/9
f 475/20/10 7/21/10 8/22/10
f 5/19/11 16/23/11 478/24/11
f 475/20/12 9/25/12 1/26/12
f 478/24/13 17/27/13 6/28/13
f 476/29/14 9/30/14 10/31/14
f 479/1/15 17/27/15 18/32/15
f 2/33/16 10/31/16 11/5/16
f 18/32/17 32/34/17 33/35/17
f 10/31/18 26/36/18 11/5/18
f 19/2/19 33/35/19 34/37/19
f 11/5/20 27/38/20 12/6/20
f 20/7/21 34/37/21 35/39/21
f 13/10/22 27/38/22 28/40/22
f 20/7/23 36/41/23 21/11/23
f 13/10/24 29/42/24 14/13/24
f 188/43/25 495/44/25 203/44/25
f 308/45/26 21/11/26 36/41/26
f 14/13/27 30/46/27 15/18/27
f 7/21/28 23/47/28 8/22/28
f 15/18/29 31/48/29 16/23/29
f 9/25/30 23/47/30 24/49/30
f 17/27/31 31/48/31 32/34/31
f 9/30/32 25/50/32 10/31/32
f 399/51/33 509/52/33 414/52/33
f 308/53/34 36/41/34 51/54/34
f 29/42/35 45/55/35 30/46/35
f 22/56/36 38/57/36 23/47/36
f 30/46/37 46/58/37 31/48/37
f 24/49/38 38/57/38 39/59/38
f 32/34/39 46/58/39 47/60/39
f 24/61/40 40/62/40 25/50/40
f 33/35/41 47/60/41 48/63/41
f 25/50/42 41/64/42 26/36/42
f 34/37/43 48/63/43 49/65/43
f 26/36/44 42/66/44 27/38/44
f 35/39/45 49/65/45 50/67/45
f 28/40/46 42/66/46 43/68/46
f 36/41/47 50/67/47 51/54/47
f 29/42/48 43/68/48 44/69/48
f 41/64/49 55/70/49 56/71/49
f 49/65/50 63/72/50 64/73/50
f 41/64/51 57/74/51 42/66/51
f 50/67/52 64/73/52 65/75/52
f 43/68/53 57/74/53 58/76/53
f 51/54/54 65/75/54 66/77/54
f 44/69/55 58/76/55 59/78/55
f 22/79/56 484/80/56 37/80/56
f 308/81/57 51/54/57 66/77/57
f 44/69/58 60/82/58 45/55/58
f 37/83/59 53/84/59 38/57/59
f 45/55/60 61/85/60 46/58/60
f 39/59/61 53/84/61 54/86/61
f 47/60/62 61/85/62 62/87/62
f 39/88/63 55/70/63 40/62/63
f 47/60/64 63/72/64 48/63/64
f 59/78/65 75/89/65 60/82/65
f 53/84/66 67/90/66 68/91/66
f 60/82/67 76/92/67 61/85/67
f 54/86/68 68/91/68 69/93/68
f 62/87/69 76/92/69 77/94/69
f 54/95/70 70/96/70 55/70/70
f 62/87/71 78/97/71 63/72/71
f 56/71/72 70/96/72 71/98/72
f 64/73/73 78/97/73 79/99/73
f 56/71/74 72/100/74 57/74/74
f 64/73/75 80/101/75 65/75/75
f 58/76/76 72/100/76 73/102/76
f 65/75/77 81/103/77 66/77/77
f 59/78/78 73/102/78 74/104/78
f 278/105/79 501/106/79 293/106/79
f 308/107/80 66/77/80 81/103/80
f 79/99/81 94/108/81 95/109/81
f 71/98/82 88/110/82 72/100/82
f 80/101/83 95/109/83 96/111/83
f 73/102/84 88/110/84 89/112/84
f 81/103/85 96/111/85 97/113/85
f 74/104/86 89/112/86 90/114/86
f 158/115/87 493/116/87 173/116/87
f 308/117/88 81/103/88 97/113/88
f 74/104/89 91/118/89 75/89/89
f 67/90/90 84/119/90 68/91/90
f 75/89/91 92/120/91 76/92/91
f 69/93/92 84/119/92 85/121/92
f 77/94/93 92/120/93 93/122/93
f 69/123/94 86/124/94 70/96/94
f 77/94/95 94/108/95 78/97/95
f 71/98/96 86/124/96 87/125/96
f 83/126/97 99/127/97 84/119/97
f 91/118/98 107/128/98 92/120/98
f 85/121/99 99/127/99 100/129/99
f 93/122/100 107/128/100 108/130/100
f 85/131/101 101/132/101 86/124/101
f 93/122/102 109/133/102 94/108/102
f 87/125/103 101/132/103 102/134/103
f 95/109/104 109/133/104 110/135/104
f 87/125/105 103/136/105 88/110/105
f 95/109/106 111/137/106 96/111/106
f 89/112/107 103/136/107 104/138/107
f 96/111/108 112/139/108 97/113/108
f 90/114/109 104/138/109 105/140/109
f 37/80/110 485/141/110 52/141/110
f 308/142/111 97/113/111 112/139/111
f 90/114/112 106/143/112 91/118/112
f 102/134/113 118/144/113 103/136/113
f 111/137/114 125/145/114 126/146/114
f 104/138/115 118/144/115 119/147/115
f 111/137/116 127/148/116 112/139/116
f 105/140/117 119/147/117 120/149/117
f 444/150/118 512/151/118 459/151/118
f 308/152/119 112/139/119 127/148/119
f 105/140/120 121/153/120 106/143/120
f 98/154/121 114/155/121 99/127/121
f 106/143/122 122/156/122 107/128/122
f 100/129/123 114/155/123 115/157/123
f 108/130/124 122/156/124 123/158/124
f 100/159/125 116/160/125 101/132/125
f 108/130/126 124/161/126 109/133/126
f 102/134/127 116/160/127 117/162/127
f 110/135/128 124/161/128 125/145/128
f 121/153/129 137/163/129 122/156/129
f 114/155/130 130/164/130 115/157/130
f 123/158/131 137/163/131 138/165/131
f 115/166/132 131/167/132 116/160/132
f 123/158/133 139/168/133 124/161/133
f 117/162/134 131/167/134 132/169/134
f 125/145/135 139/168/135 140/170/135
f 117/162/136 133/171/136 118/144/136
f 125/145/137 141/172/137 126/146/137
f 119/147/138 133/171/138 134/173/138
f 126/146/139 142/174/139 127/148/139
f 120/149/140 134/173/140 135/175/140
f 83/176/141 488/177/141 98/177/141
f 308/178/142 127/148/142 142/174/142
f 120/149/143 136/179/143 121/153/143
f 114/155/144 128/180/144 129/181/144
f 141/172/145 155/182/145 156/183/145
f 134/173/146 148/184/146 149/185/146
f 141/172/147 157/186/147 142/174/147
f 135/175/148 149/185/148 150/187/148
f 324/188/149 504/189/149 339/189/149
f 308/190/150 142/174/150 157/186/150
f 135/175/151 151/191/151 136/179/151
f 128/180/152 144/192/152 129/181/152
f 136/179/153 152/193/153 137/163/153
f 129/181/154 145/194/154 130/164/154
f 138/165/155 152/193/155 153/195/155
f 130/196/156 146/197/156 131/167/156
f 138/165/157 154/198/157 139/168/157
f 132/169/158 146/197/158 147/199/158
f 140/170/159 154/198/159 155/182/159
f 132/169/160 148/184/160 133/171/160
f 153/195/161 167/200/161 168/201/161
f 145/202/162 161/203/162 146/197/162
f 153/195/163 169/204/163 154/198/163
f 147/199/164 161/203/164 162/205/164
f 155/182/165 169/204/165 170/206/165
f 147/199/166 163/207/166 148/184/166
f 156/183/167 170/206/167 171/208/167
f 149/185/168 163/207/168 164/209/168
f 157/186/169 171/208/169 172/210/169
f 150/187/170 164/209/170 165/211/170
f 203/44/171 496/212/171 218/212/171
f 308/213/172 157/186/172 172/210/172
f 150/187/173 166/214/173 151/191/173
f 143/215/174 159/216/174 144/192/174
f 151/191/175 167/200/175 152/193/175
f 144/192/176 160/217/176 145/194/176
f 172/210/177 186/218/177 187/219/177
f 165/211/178 179/220/178 180/221/178
f 248/16/179 499/222/179 263/222/179
f 308/223/180 172/210/180 187/219/180
f 165/211/181 181/224/181 166/214/181
f 158/225/182 174/226/182 159/216/182
f 166/214/183 182/227/183 167/200/183
f 159/216/184 175/228/184 160/217/184
f 168/201/185 182/227/185 183/229/185
f 160/230/186 176/231/186 161/203/186
f 168/201/187 184/232/187 169/204/187
f 162/205/188 176/231/188 177/233/188
f 170/206/189 184/232/189 185/234/189
f 162/205/190 178/235/190 163/207/190
f 171/208/191 185/234/191 186/218/191
f 164/209/192 178/235/192 179/220/192
f 175/236/193 191/237/193 176/231/193
f 183/229/194 199/238/194 184/232/194
f 177/233/195 191/237/195 192/239/195
f 185/234/196 199/238/196 200/240/196
f 177/233/197 193/241/197 178/235/197
f 185/234/198 201/242/198 186/218/198
f 179/220/199 193/241/199 194/243/199
f 186/218/200 202/244/200 187/219/200
f 180/221/201 194/243/201 195/245/201
f 369/246/202 507/247/202 384/247/202
f 308/248/203 187/219/203 202/244/203
f 180/221/204 196/249/204 181/224/204
f 174/226/205 188/250/205 189/251/205
f 181/224/206 197/252/206 182/227/206
f 174/226/207 190/253/207 175/228/207
f 183/229/208 197/252/208 198/254/208
f 195/245/209 209/255/209 210/256/209
f 414/52/210 510/257/210 429/257/210
f 308/258/211 202/244/211 217/259/211
f 195/245/212 211/260/212 196/249/212
f 188/250/213 204/261/213 189/251/213
f 196/249/214 212/262/214 197/252/214
f 189/251/215 205/263/215 190/253/215
f 198/254/216 212/262/216 213/264/216
f 190/265/217 206/266/217 191/237/217
f 198/254/218 214/267/218 199/238/218
f 192/239/219 206/266/219 207/268/219
f 200/240/220 214/267/220 215/269/220
f 192/239/221 208/270/221 193/241/221
f 201/242/222 215/269/222 216/271/222
f 194/243/223 208/270/223 209/255/223
f 202/244/224 216/271/224 217/259/224
f 213/264/225 229/272/225 214/267/225
f 207/268/226 221/273/226 222/274/226
f 215/269/227 229/272/227 230/275/227
f 207/268/228 223/276/228 208/270/228
f 216/271/229 230/275/229 231/277/229
f 209/255/230 223/276/230 224/278/230
f 217/259/231 231/277/231 232/279/231
f 210/256/232 224/278/232 225/280/232
f 128/281/233 491/282/233 143/282/233
f 308/283/234 217/259/234 232/279/234
f 210/256/235 226/284/235 211/260/235
f 203/285/236 219/286/236 204/261/236
f 211/260/237 227/287/237 212/262/237
f 204/261/238 220/288/238 205/263/238
f 213/264/239 227/287/239 228/289/239
f 205/290/240 221/273/240 206/266/240
f 7/291/241 483/79/241 22/79/241
f 308/292/242 232/279/242 247/293/242
f 225/280/243 241/294/243 226/284/243
f 219/286/244 233/295/244 234/296/244
f 226/284/245 242/297/245 227/287/245
f 219/286/246 235/298/246 220/288/246
f 228/289/247 242/297/247 243/299/247
f 220/300/248 236/301/248 221/273/248
f 228/289/249 244/302/249 229/272/249
f 222/274/250 236/301/250 237/303/250
f 230/275/251 244/302/251 245/304/251
f 222/274/252 238/305/252 223/276/252
f 231/277/253 245/304/253 246/306/253
f 224/278/254 238/305/254 239/307/254
f 231/277/255 247/293/255 232/279/255
f 225/280/256 239/307/256 240/308/256
f 237/303/257 251/309/257 252/310/257
f 245/304/258 259/311/258 260/312/258
f 237/303/259 253/313/259 238/305/259
f 245/304/260 261/314/260 246/306/260
f 239/307/261 253/313/261 254/315/261
f 246/306/262 262/316/262 247/293/262
f 240/308/263 254/315/263 255/317/263
f 293/106/264 502/318/264 309/318/264
f 308/319/265 247/293/265 262/316/265
f 240/308/266 256/320/266 241/294/266
f 234/296/267 248/321/267 249/322/267
f 241/294/268 257/323/268 242/297/268
f 234/296/269 250/324/269 235/298/269
f 243/299/270 257/323/270 258/325/270
f 235/326/271 251/309/271 236/301/271
f 243/299/272 259/311/272 244/302/272
f 255/317/273 271/327/273 256/320/273
f 249/322/274 263/328/274 264/329/274
f 256/320/275 272/330/275 257/323/275
f 249/322/276 265/331/276 250/324/276
f 258/325/277 272/330/277 273/332/277
f 250/333/278 266/334/278 251/309/278
f 258/325/279 274/335/279 259/311/279
f 252/310/280 266/334/280 267/336/280
f 260/312/281 274/335/281 275/337/281
f 252/310/282 268/338/282 253/313/282
f 261/314/283 275/337/283 276/339/283
f 254/315/284 268/338/284 269/340/284
f 261/314/285 277/341/285 262/316/285
f 255/317/286 269/340/286 270/342/286
f 52/141/287 486/343/287 67/343/287
f 308/344/288 262/316/288 277/341/288
f 275/337/289 289/345/289 290/346/289
f 267/336/290 283/347/290 268/338/290
f 275/337/291 291/348/291 276/339/291
f 269/340/292 283/347/292 284/349/292
f 276/339/293 292/350/293 277/341/293
f 270/342/294 284/349/294 285/351/294
f 173/116/295 494/43/295 188/43/295
f 308/352/296 277/341/296 292/350/296
f 270/342/297 286/353/297 271/327/297
f 263/328/298 279/354/298 264/329/298
f 271/327/299 287/355/299 272/330/299
f 265/331/300 279/354/300 280/356/300
f 273/332/301 287/355/301 288/357/301
f 265/358/302 281/359/302 266/334/302
f 273/332/303 289/345/303 274/335/303
f 267/336/304 281/359/304 282/360/304
f 286/353/305 302/361/305 287/355/305
f 280/356/306 294/362/306 295/363/306
f 288/357/307 302/361/307 303/364/307
f 280/365/308 296/366/308 281/359/308
f 288/357/309 304/367/309 289/345/309
f 282/360/310 296/366/310 297/368/310
f 290/346/311 304/367/311 305/369/311
f 282/360/312 298/370/312 283/347/312
f 290/346/313 306/371/313 291/348/313
f 284/349/314 298/370/314 299/372/314
f 292/350/315 306/371/315 307/373/315
f 285/351/316 299/372/316 300/374/316
f 339/189/317 505/375/317 354/375/317
f 308/376/318 292/350/318 307/373/318
f 285/351/319 301/377/319 286/353/319
f 278/378/320 294/362/320 279/354/320
f 305/369/321 322/379/321 306/371/321
f 299/372/322 314/380/322 315/381/322
f 306/371/323 323/382/323 307/373/323
f 300/374/324 315/381/324 316/383/324
f 459/151/325 513/384/325 474/384/325
f 308/385/326 307/373/326 323/382/326
f 300/374/327 317/386/327 301/377/327
f 294/362/328 309/387/328 310/388/328
f 301/377/329 318/389/329 302/361/329
f 295/363/330 310/388/330 311/390/330
f 303/364/331 318/389/331 319/391/331
f 295/392/332 312/393/332 296/366/332
f 303/364/333 320/394/333 304/367/333
f 297/368/334 312/393/334 313/395/334
f 305/369/335 320/394/335 321/396/335
f 297/368/336 314/380/336 298/370/336
f 311/390/337 325/397/337 326/398/337
f 319/391/338 333/399/338 334/400/338
f 311/401/339 327/402/339 312/393/339
f 319/391/340 335/403/340 320/394/340
f 313/395/341 327/402/341 328/404/341
f 321/396/342 335/403/342 336/405/342
f 313/395/343 329/406/343 314/380/343
f 321/396/344 337/407/344 322/379/344
f 315/381/345 329/406/345 330/408/345
f 323/382/346 337/407/346 338/409/346
f 316/383/347 330/408/347 331/410/347
f 98/177/348 489/411/348 113/411/348
f 308/412/349 323/382/349 338/409/349
f 316/383/350 332/413/350 317/386/350
f 309/387/351 325/397/351 310/388/351
f 317/386/352 333/399/352 318/389/352
f 330/408/353 344/414/353 345/415/353
f 338/409/354 352/416/354 353/417/354
f 331/410/355 345/415/355 346/418/355
f 263/222/356 500/105/356 278/105/356
f 308/419/357 338/409/357 353/417/357
f 331/410/358 347/420/358 332/413/358
f 324/421/359 340/422/359 325/397/359
f 332/413/360 348/423/360 333/399/360
f 326/398/361 340/422/361 341/424/361
f 334/400/362 348/423/362 349/425/362
f 326/426/363 342/427/363 327/402/363
f 334/400/364 350/428/364 335/403/364
f 328/404/365 342/427/365 343/429/365
f 336/405/366 350/428/366 351/430/366
f 328/404/367 344/414/367 329/406/367
f 336/405/368 352/416/368 337/407/368
f 349/425/369 363/431/369 364/432/369
f 341/433/370 357/434/370 342/427/370
f 349/425/371 365/435/371 350/428/371
f 343/429/372 357/434/372 358/436/372
f 351/430/373 365/435/373 366/437/373
f 343/429/374 359/438/374 344/414/374
f 351/430/375 367/439/375 352/416/375
f 345/415/376 359/438/376 360/440/376
f 353/417/377 367/439/377 368/441/377
f 346/418/378 360/440/378 361/442/378
f 143/282/379 492/115/379 158/115/379
f 308/443/380 353/417/380 368/441/380
f 346/418/381 362/444/381 347/420/381
f 339/445/382 355/446/382 340/422/382
f 347/420/383 363/431/383 348/423/383
f 341/424/384 355/446/384 356/447/384
f 367/448/385 383/449/385 368/450/385
f 361/451/386 375/452/386 376/453/386
f 309/318/387 503/188/387 324/188/387
f 308/454/388 368/450/388 383/449/388
f 361/451/389 377/455/389 362/456/389
f 355/457/390 369/458/390 370/459/390
f 362/456/391 378/460/391 363/461/391
f 356/462/392 370/459/392 371/463/392
f 364/464/393 378/460/393 379/465/393
f 356/466/394 372/467/394 357/468/394
f 364/464/395 380/469/395 365/470/395
f 358/471/396 372/467/396 373/472/396
f 366/473/397 380/469/397 381/474/397
f 358/471/398 374/475/398 359/476/398
f 366/473/399 382/477/399 367/448/399
f 360/478/400 374/475/400 375/452/400
f 371/479/401 387/480/401 372/467/401
f 379/465/402 395/481/402 380/469/402
f 373/472/403 387/480/403 388/482/403
f 381/474/404 395/481/404 396/483/404
f 373/472/405 389/484/405 374/475/405
f 381/474/406 397/485/406 382/477/406
f 375/452/407 389/484/407 390/486/407
f 382/477/408 398/487/408 383/449/408
f 376/453/409 390/486/409 391/488/409
f 384/247/410 508/51/410 399/51/410
f 308/489/411 383/449/411 398/487/411
f 376/453/412 392/490/412 377/455/412
f 370/459/413 384/491/413 385/492/413
f 377/455/414 393/493/414 378/460/414
f 371/463/415 385/492/415 386/494/415
f 379/465/416 393/493/416 394/495/416
f 391/488/417 405/496/417 406/497/417
f 218/212/418 497/15/418 233/15/418
f 308/498/419 398/487/419 413/499/419
f 391/488/420 407/500/420 392/490/420
f 384/491/421 400/501/421 385/492/421
f 392/490/422 408/502/422 393/493/422
f 386/494/423 400/501/423 401/503/423
f 394/495/424 408/502/424 409/504/424
f 386/505/425 402/506/425 387/480/425
f 394/495/426 410/507/426 395/481/426
f 388/482/427 402/506/427 403/508/427
f 396/483/428 410/507/428 411/509/428
f 388/482/429 404/510/429 389/484/429
f 396/483/430 412/511/430 397/485/430
f 390/486/431 404/510/431 405/496/431
f 398/487/432 412/511/432 413/499/432
f 409/504/433 425/512/433 410/507/433
f 403/508/434 417/513/434 418/514/434
f 411/509/435 425/512/435 426/515/435
f 403/508/436 419/516/436 404/510/436
f 411/509/437 427/517/437 412/511/437
f 405/496/438 419/516/438 420/518/438
f 412/511/439 428/519/439 413/499/439
f 406/497/440 420/518/440 421/520/440
f 429/257/441 511/150/441 444/150/441
f 308/521/442 413/499/442 428/519/442
f 406/497/443 422/522/443 407/500/443
f 399/523/444 415/524/444 400/501/444
f 407/500/445 423/525/445 408/502/445
f 401/503/446 415/524/446 416/526/446
f 409/504/447 423/525/447 424/527/447
f 401/528/448 417/513/448 402/506/448
f 308/529/449 428/519/449 443/530/449
f 421/520/450 437/531/450 422/522/450
f 414/532/451 430/533/451 415/524/451
f 422/522/452 438/534/452 423/525/452
f 416/526/453 430/533/453 431/535/453
f 424/527/454 438/534/454 439/536/454
f 416/537/455 432/538/455 417/513/455
f 424/527/456 440/539/456 425/512/456
f 418/514/457 432/538/457 433/540/457
f 426/515/458 440/539/458 441/541/458
f 418/514/459 434/542/459 419/516/459
f 426/515/460 442/543/460 427/517/460
f 420/518/461 434/542/461 435/544/461
f 428/519/462 442/543/462 443/530/462
f 421/520/463 435/544/463 436/545/463
f 67/343/464 487/176/464 83/176/464
f 441/541/465 455/546/465 456/547/465
f 433/540/466 449/548/466 434/542/466
f 441/541/467 457/549/467 442/543/467
f 435/544/468 449/548/468 450/550/468
f 442/543/469 458/551/469 443/530/469
f 436/545/470 450/550/470 451/552/470
f 113/411/471 490/281/471 128/281/471
f 308/553/472 443/530/472 458/551/472
f 436/545/473 452/554/473 437/531/473
f 430/533/474 444/555/474 445/556/474
f 437/531/475 453/557/475 438/534/475
f 431/535/476 445/556/476 446/558/476
f 439/536/477 453/557/477 454/559/477
f 431/560/478 447/561/478 432/538/478
f 439/536/479 455/546/479 440/539/479
f 433/540/480 447/561/480 448/562/480
f 444/555/481 460/563/481 445/556/481
f 452/554/482 468/564/482 453/557/482
f 446/558/483 460/563/483 461/565/483
f 454/559/484 468/564/484 469/566/484
f 446/567/485 462/568/485 447/561/485
f 454/559/486 470/569/486 455/546/486
f 448/562/487 462/568/487 463/570/487
f 456/547/488 470/569/488 471/571/488
f 448/562/489 464/572/489 449/548/489
f 456/547/490 472/573/490 457/549/490
f 450/550/491 464/572/491 465/574/491
f 458/551/492 472/573/492 473/575/492
f 451/552/493 465/574/493 466/576/493
f 499/222/494 532/105/494 500/105/494
f 308/577/495 458/551/495 473/575/495
f 451/552/496 467/578/496 452/554/496
f 464/572/497 2/33/497 477/4/497
f 471/571/498 481/8/498 472/573/498
f 465/574/499 477/4/499 3/9/499
f 472/573/500 482/12/500 473/575/500
f 466/576/501 3/9/501 4/14/501
f 474/384/502 82/291/502 7/291/502
f 308/579/503 473/575/503 482/12/503
f 466/576/504 5/19/504 467/578/504
f 459/580/505 475/20/505 460/563/505
f 467/578/506 478/24/506 468/564/506
f 461/565/507 475/20/507 1/26/507
f 468/564/508 6/28/508 469/566/508
f 462/568/509 1/581/509 476/29/509
f 469/566/510 479/1/510 470/569/510
f 463/570/511 476/29/511 2/33/511
f 471/571/512 479/1/512 480/3/512
f 354/582/513 506/246/513 369/246/513
f 525/116/514 556/115/514 557/116/514
f 486/343/515 517/141/515 518/343/515
f 505/582/516 538/246/516 506/246/516
f 492/115/517 523/282/517 524/115/517
f 498/16/518 531/222/518 499/222/518
f 485/141/519 516/80/519 517/141/519
f 504/189/520 537/375/520 505/375/520
f 491/282/521 522/281/521 523/282/521
f 510/257/522 543/150/522 511/150/522
f 497/15/523 530/16/523 498/16/523
f 484/80/524 515/79/524 516/80/524
f 82/291/525 545/384/525 514/291/525
f 503/188/526 536/189/526 504/189/526
f 490/281/527 521/411/527 522/281/527
f 509/52/528 542/257/528 510/257/528
f 497/15/529 528/212/529 529/15/529
f 483/79/530 514/291/530 515/79/530
f 511/150/531 544/151/531 512/151/531
f 502/318/532 535/188/532 503/188/532
f 489/411/533 520/177/533 521/411/533
f 508/51/534 541/52/534 509/52/534
f 496/212/535 527/44/535 528/212/535
f 501/106/536 534/318/536 502/318/536
f 488/177/537 519/176/537 520/177/537
f 512/151/538 545/384/538 513/384/538
f 507/247/539 540/51/539 508/51/539
f 495/44/540 526/43/540 527/44/540
f 500/105/541 533/106/541 501/106/541
f 487/176/542 518/343/542 519/176/542
f 494/43/543 525/116/543 526/43/543
f 506/246/544 539/247/544 507/247/544
f 493/116/545 524/115/545 525/116/545
f 576/583/546 552/583/546 560/583/546
f 537/582/547 570/246/547 538/246/547
f 523/282/548 556/115/548 524/115/548
f 537/375/549 568/189/549 569/375/549
f 523/282/550 554/281/550 555/282/550
f 535/188/551 568/189/551 536/189/551
f 521/411/552 554/281/552 522/281/552
f 535/188/553 566/318/553 567/188/553
f 521/411/554 552/177/554 553/411/554
f 533/106/555 566/318/555 534/318/555
f 519/176/556 552/177/556 520/177/556
f 533/106/557 564/105/557 565/106/557
f 545/384/558 546/291/558 514/291/558
f 519/176/559 550/343/559 551/176/559
f 531/222/560 564/105/560 532/105/560
f 545/384/561 576/151/561 577/384/561
f 517/141/562 550/343/562 518/343/562
f 531/222/563 562/16/563 563/222/563
f 543/150/564 576/151/564 544/151/564
f 517/141/565 548/80/565 549/141/565
f 529/15/566 562/16/566 530/16/566
f 543/150/567 574/257/567 575/150/567
f 515/79/568 548/80/568 516/80/568
f 529/15/569 560/212/569 561/15/569
f 541/52/570 574/257/570 542/257/570
f 515/79/571 546/291/571 547/79/571
f 527/44/572 560/212/572 528/212/572
f 541/52/573 572/51/573 573/52/573
f 527/44/574 558/43/574 559/44/574
f 539/247/575 572/51/575 540/51/575
f 525/116/576 558/43/576 526/43/576
f 539/247/577 570/246/577 571/247/577
f 479/1/1 18/32/1 19/2/1
f 477/4/2 2/33/2 11/5/2
f 480/3/3 19/2/3 20/7/3
f 3/9/4 477/4/4 12/6/4
f 481/8/5 20/7/5 21/11/5
f 3/9/578 13/10/578 14/13/578
f 233/15/7 497/15/7 498/16/7
f 4/14/579 14/13/579 15/18/579
f 475/20/10 474/584/10 7/21/10
f 5/19/11 15/18/11 16/23/11
f 475/20/12 8/22/12 9/25/12
f 478/24/13 16/23/13 17/27/13
f 476/29/14 1/581/14 9/30/14
f 479/1/15 6/28/15 17/27/15
f 2/33/16 476/29/16 10/31/16
f 18/32/17 17/27/17 32/34/17
f 10/31/18 25/50/18 26/36/18
f 19/2/19 18/32/19 33/35/19
f 11/5/20 26/36/20 27/38/20
f 20/7/21 19/2/21 34/37/21
f 13/10/22 12/6/22 27/38/22
f 20/7/23 35/39/23 36/41/23
f 13/10/24 28/40/24 29/42/24
f 188/43/25 494/43/25 495/44/25
f 14/13/27 29/42/27 30/46/27
f 7/21/28 22/56/28 23/47/28
f 15/18/29 30/46/29 31/48/29
f 9/25/30 8/22/30 23/47/30
f 17/27/31 16/23/31 31/48/31
f 9/30/32 24/61/32 25/50/32
f 399/51/33 508/51/33 509/52/33
f 29/42/35 44/69/35 45/55/35
f 22/56/36 37/83/36 38/57/36
f 30/46/37 45/55/37 46/58/37
f 24/49/38 23/47/38 38/57/38
f 32/34/39 31/48/39 46/58/39
f 24/61/40 39/88/40 40/62/40
f 33/35/41 32/34/41 47/60/41
f 25/50/42 40/62/42 41/64/42
f 34/37/43 33/35/43 48/63/43
f 26/36/44 41/64/44 42/66/44
f 35/39/580 34/37/580 49/65/580
f 28/40/46 27/38/46 42/66/46
f 36/41/47 35/39/47 50/67/47
f 29/42/48 28/40/48 43/68/48
f 41/64/49 40/62/49 55/70/49
f 49/65/50 48/63/50 63/72/50
f 41/64/51 56/71/51 57/74/51
f 50/67/52 49/65/52 64/73/52
f 43/68/53 42/66/53 57/74/53
f 51/54/54 50/67/54 65/75/54
f 44/69/55 43/68/55 58/76/55
f 22/79/56 483/79/56 484/80/56
f 44/69/58 59/78/58 60/82/58
f 37/83/59 52/585/59 53/84/59
f 45/55/60 60/82/60 61/85/60
f 39/59/61 38/57/61 53/84/61
f 47/60/62 46/58/62 61/85/62
f 39/88/63 54/95/63 55/70/63
f 47/60/64 62/87/64 63/72/64
f 59/78/65 74/104/65 75/89/65
f 53/84/66 52/585/66 67/90/66
f 60/82/67 75/89/67 76/92/67
f 54/86/68 53/84/68 68/91/68
f 62/87/69 61/85/69 76/92/69
f 54/95/70 69/123/70 70/96/70
f 62/87/71 77/94/71 78/97/71
f 56/71/72 55/70/72 70/96/72
f 64/73/73 63/72/73 78/97/73
f 56/71/74 71/98/74 72/100/74
f 64/73/75 79/99/75 80/101/75
f 58/76/76 57/74/76 72/100/76
f 65/75/581 80/101/581 81/103/581
f 59/78/78 58/76/78 73/102/78
f 278/105/79 500/105/79 501/106/79
f 79/99/81 78/97/81 94/108/81
f 71/98/82 87/125/82 88/110/82
f 80/101/83 79/99/83 95/109/83
f 73/102/84 72/100/84 88/110/84
f 81/103/85 80/101/85 96/111/85
f 74/104/86 73/102/86 89/112/86
f 158/115/87 492/115/87 493/116/87
f 74/104/89 90/114/89 91/118/89
f 67/90/90 83/126/90 84/119/90
f 75/89/91 91/118/91 92/120/91
f 69/93/92 68/91/92 84/119/92
f 77/94/93 76/92/93 92/120/93
f 69/123/94 85/131/94 86/124/94
f 77/94/95 93/122/95 94/108/95
f 71/98/96 70/96/96 86/124/96
f 83/126/97 98/154/97 99/127/97
f 91/118/98 106/143/98 107/128/98
f 85/121/99 84/119/99 99/127/99
f 93/122/100 92/120/100 107/128/100
f 85/131/101 100/159/101 101/132/101
f 93/122/102 108/130/102 109/133/102
f 87/125/103 86/124/103 101/132/103
f 95/109/104 94/108/104 109/133/104
f 87/125/105 102/134/105 103/136/105
f 95/109/106 110/135/106 111/137/106
f 89/112/107 88/110/107 103/136/107
f 96/111/108 111/137/108 112/139/108
f 90/114/109 89/112/109 104/138/109
f 37/80/110 484/80/110 485/141/110
f 90/114/112 105/140/112 106/143/112
f 102/134/113 117/162/113 118/144/113
f 111/137/114 110/135/114 125/145/114
f 104/138/115 103/136/115 118/144/115
f 111/137/116 126/146/116 127/148/116
f 105/140/117 104/138/117 119/147/117
f 444/150/118 511/150/118 512/151/118
f 105/140/120 120/149/120 121/153/120
f 98/154/121 113/586/121 114/155/121
f 106/143/122 121/153/122 122/156/122
f 100/129/123 99/127/123 114/155/123
f 108/130/124 107/128/124 122/156/124
f 100/159/125 115/166/125 116/160/125
f 108/130/126 123/158/126 124/161/126
f 102/134/127 101/132/127 116/160/127
f 110/135/128 109/133/128 124/161/128
f 121/153/129 136/179/129 137/163/129
f 114/155/130 129/181/130 130/164/130
f 123/158/131 122/156/131 137/163/131
f 115/166/132 130/196/132 131/167/132
f 123/158/133 138/165/133 139/168/133
f 117/162/134 116/160/134 131/167/134
f 125/145/135 124/161/135 139/168/135
f 117/162/136 132/169/136 133/171/136
f 125/145/137 140/170/137 141/172/137
f 119/147/138 118/144/138 133/171/138
f 126/146/139 141/172/139 142/174/139
f 120/149/140 119/147/140 134/173/140
f 83/176/141 487/176/141 488/177/141
f 120/149/143 135/175/143 136/179/143
f 114/155/144 113/586/144 128/180/144
f 141/172/145 140/170/145 155/182/145
f 134/173/146 133/171/146 148/184/146
f 141/172/147 156/183/147 157/186/147
f 135/175/148 134/173/148 149/185/148
f 324/188/149 503/188/149 504/189/149
f 135/175/151 150/187/151 151/191/151
f 128/180/152 143/215/152 144/192/152
f 136/179/153 151/191/153 152/193/153
f 129/181/154 144/192/154 145/194/154
f 138/165/155 137/163/155 152/193/155
f 130/196/156 145/202/156 146/197/156
f 138/165/157 153/195/157 154/198/157
f 132/169/158 131/167/158 146/197/158
f 140/170/159 139/168/159 154/198/159
f 132/169/160 147/199/160 148/184/160
f 153/195/161 152/193/161 167/200/161
f 145/202/162 160/230/162 161/203/162
f 153/195/163 168/201/163 169/204/163
f 147/199/164 146/197/164 161/203/164
f 155/182/165 154/198/165 169/204/165
f 147/199/166 162/205/166 163/207/166
f 156/183/582 155/182/582 170/206/582
f 149/185/168 148/184/168 163/207/168
f 157/186/583 156/183/583 171/208/583
f 150/187/170 149/185/170 164/209/170
f 203/44/171 495/44/171 496/212/171
f 150/187/173 165/211/173 166/214/173
f 143/215/174 158/225/174 159/216/174
f 151/191/175 166/214/175 167/200/175
f 144/192/176 159/216/176 160/217/176
f 172/210/177 171/208/177 186/218/177
f 165/211/178 164/209/178 179/220/178
f 248/16/179 498/16/179 499/222/179
f 165/211/181 180/221/181 181/224/181
f 158/225/182 173/587/182 174/226/182
f 166/214/183 181/224/183 182/227/183
f 159/216/184 174/226/184 175/228/184
f 168/201/185 167/200/185 182/227/185
f 160/230/186 175/236/186 176/231/186
f 168/201/187 183/229/187 184/232/187
f 162/205/188 161/203/188 176/231/188
f 170/206/189 169/204/189 184/232/189
f 162/205/190 177/233/190 178/235/190
f 171/208/191 170/206/191 185/234/191
f 164/209/192 163/207/192 178/235/192
f 175/236/193 190/265/193 191/237/193
f 183/229/194 198/254/194 199/238/194
f 177/233/195 176/231/195 191/237/195
f 185/234/196 184/232/196 199/238/196
f 177/233/197 192/239/197 193/241/197
f 185/234/198 200/240/198 201/242/198
f 179/220/199 178/235/199 193/241/199
f 186/218/200 201/242/200 202/244/200
f 180/221/201 179/220/201 194/243/201
f 369/246/202 506/246/202 507/247/202
f 180/221/204 195/245/204 196/249/204
f 174/226/205 173/587/205 188/250/205
f 181/224/206 196/249/206 197/252/206
f 174/226/207 189/251/207 190/253/207
f 183/229/208 182/227/208 197/252/208
f 195/245/209 194/243/209 209/255/209
f 414/52/210 509/52/210 510/257/210
f 195/245/212 210/256/212 211/260/212
f 188/250/213 203/285/213 204/261/213
f 196/249/214 211/260/214 212/262/214
f 189/251/215 204/261/215 205/263/215
f 198/254/216 197/252/216 212/262/216
f 190/265/217 205/290/217 206/266/217
f 198/254/218 213/264/218 214/267/218
f 192/239/219 191/237/219 206/266/219
f 200/240/220 199/238/220 214/267/220
f 192/239/221 207/268/221 208/270/221
f 201/242/222 200/240/222 215/269/222
f 194/243/223 193/241/223 208/270/223
f 202/244/224 201/242/224 216/271/224
f 213/264/225 228/289/225 229/272/225
f 207/268/226 206/266/226 221/273/226
f 215/269/227 214/267/227 229/272/227
f 207/268/228 222/274/228 223/276/228
f 216/271/229 215/269/229 230/275/229
f 209/255/230 208/270/230 223/276/230
f 217/259/231 216/271/231 231/277/231
f 210/256/232 209/255/232 224/278/232
f 128/281/233 490/281/233 491/282/233
f 210/256/235 225/280/235 226/284/235
f 203/285/236 218/588/236 219/286/236
f 211/260/237 226/284/237 227/287/237
f 204/261/238 219/286/238 220/288/238
f 213/264/239 212/262/239 227/287/239
f 205/290/240 220/300/240 221/273/240
f 7/291/241 82/291/241 483/79/241
f 225/280/243 240/308/243 241/294/243
f 219/286/244 218/588/244 233/295/244
f 226/284/245 241/294/245 242/297/245
f 219/286/246 234/296/246 235/298/246
f 228/289/247 227/287/247 242/297/247
f 220/300/248 235/326/248 236/301/248
f 228/289/249 243/299/249 244/302/249
f 222/274/250 221/273/250 236/301/250
f 230/275/251 229/272/251 244/302/251
f 222/274/252 237/303/252 238/305/252
f 231/277/253 230/275/253 245/304/253
f 224/278/254 223/276/254 238/305/254
f 231/277/255 246/306/255 247/293/255
f 225/280/256 224/278/256 239/307/256
f 237/303/257 236/301/257 251/309/257
f 245/304/258 244/302/258 259/311/258
f 237/303/259 252/310/259 253/313/259
f 245/304/260 260/312/260 261/314/260
f 239/307/261 238/305/261 253/313/261
f 246/306/262 261/314/262 262/316/262
f 240/308/584 239/307/584 254/315/584
f 293/106/264 501/106/264 502/318/264
f 240/308/585 255/317/585 256/320/585
f 234/296/267 233/295/267 248/321/267
f 241/294/268 256/320/268 257/323/268
f 234/296/269 249/322/269 250/324/269
f 243/299/270 242/297/270 257/323/270
f 235/326/271 250/333/271 251/309/271
f 243/299/272 258/325/272 259/311/272
f 255/317/273 270/342/273 271/327/273
f 249/322/274 248/321/274 263/328/274
f 256/320/275 271/327/275 272/330/275
f 249/322/276 264/329/276 265/331/276
f 258/325/277 257/323/277 272/330/277
f 250/333/278 265/358/278 266/334/278
f 258/325/279 273/332/279 274/335/279
f 252/310/280 251/309/280 266/334/280
f 260/312/281 259/311/281 274/335/281
f 252/310/282 267/336/282 268/338/282
f 261/314/283 260/312/283 275/337/283
f 254/315/284 253/313/284 268/338/284
f 261/314/285 276/339/285 277/341/285
f 255/317/286 254/315/286 269/340/286
f 52/141/287 485/141/287 486/343/287
f 275/337/289 274/335/289 289/345/289
f 267/336/290 282/360/290 283/347/290
f 275/337/586 290/346/586 291/348/586
f 269/340/292 268/338/292 283/347/292
f 276/339/293 291/348/293 292/350/293
f 270/342/294 269/340/294 284/349/294
f 173/116/295 493/116/295 494/43/295
f 270/342/297 285/351/297 286/353/297
f 263/328/298 278/378/298 279/354/298
f 271/327/299 286/353/299 287/355/299
f 265/331/300 264/329/300 279/354/300
f 273/332/301 272/330/301 287/355/301
f 265/358/302 280/365/302 281/359/302
f 273/332/303 288/357/303 289/345/303
f 267/336/304 266/334/304 281/359/304
f 286/353/305 301/377/305 302/361/305
f 280/356/306 279/354/306 294/362/306
f 288/357/307 287/355/307 302/361/307
f 280/365/308 295/392/308 296/366/308
f 288/357/309 303/364/309 304/367/309
f 282/360/310 281/359/310 296/366/310
f 290/346/311 289/345/311 304/367/311
f 282/360/312 297/368/312 298/370/312
f 290/346/313 305/369/313 306/371/313
f 284/349/314 283/347/314 298/370/314
f 292/350/315 291/348/315 306/371/315
f 285/351/316 284/349/316 299/372/316
f 339/189/317 504/189/317 505/375/317
f 285/351/319 300/374/319 301/377/319
f 278/378/320 293/589/320 294/362/320
f 305/369/321 321/396/321 322/379/321
f 299/372/322 298/370/322 314/380/322
f 306/371/587 322/379/587 323/382/587
f 300/374/324 299/372/324 315/381/324
f 459/151/325 512/151/325 513/384/325
f 300/374/327 316/383/327 317/386/327
f 294/362/328 293/589/328 309/387/328
f 301/377/329 317/386/329 318/389/329
f 295/363/330 294/362/330 310/388/330
f 303/364/331 302/361/331 318/389/331
f 295/392/332 311/401/332 312/393/332
f 303/364/333 319/391/333 320/394/333
f 297/368/334 296/366/334 312/393/334
f 305/369/335 304/367/335 320/394/335
f 297/368/336 313/395/336 314/380/336
f 311/390/337 310/388/337 325/397/337
f 319/391/338 318/389/338 333/399/338
f 311/401/339 326/426/339 327/402/339
f 319/391/340 334/400/340 335/403/340
f 313/395/341 312/393/341 327/402/341
f 321/396/342 320/394/342 335/403/342
f 313/395/343 328/404/343 329/406/343
f 321/396/588 336/405/588 337/407/588
f 315/381/345 314/380/345 329/406/345
f 323/382/346 322/379/346 337/407/346
f 316/383/347 315/381/347 330/408/347
f 98/177/348 488/177/348 489/411/348
f 316/383/350 331/410/350 332/413/350
f 309/387/351 324/421/351 325/397/351
f 317/386/352 332/413/352 333/399/352
f 330/408/353 329/406/353 344/414/353
f 338/409/354 337/407/354 352/416/354
f 331/410/355 330/408/355 345/415/355
f 263/222/356 499/222/356 500/105/356
f 331/410/358 346/418/358 347/420/358
f 324/421/359 339/445/359 340/422/359
f 332/413/360 347/420/360 348/423/360
f 326/398/361 325/397/361 340/422/361
f 334/400/362 333/399/362 348/423/362
f 326/426/363 341/433/363 342/427/363
f 334/400/364 349/425/364 350/428/364
f 328/404/365 327/402/365 342/427/365
f 336/405/366 335/403/366 350/428/366
f 328/404/367 343/429/367 344/414/367
f 336/405/368 351/430/368 352/416/368
f 349/425/369 348/423/369 363/431/369
f 341/433/370 356/590/370 357/434/370
f 349/425/371 364/432/371 365/435/371
f 343/429/372 342/427/372 357/434/372
f 351/430/373 350/428/373 365/435/373
f 343/429/374 358/436/374 359/438/374
f 351/430/375 366/437/375 367/439/375
f 345/415/376 344/414/376 359/438/376
f 353/417/377 352/416/377 367/439/377
f 346/418/589 345/415/589 360/440/589
f 143/282/379 491/282/379 492/115/379
f 346/418/590 361/442/590 362/444/590
f 339/445/382 354/591/382 355/446/382
f 347/420/383 362/444/383 363/431/383
f 341/424/384 340/422/384 355/446/384
f 367/448/385 382/477/385 383/449/385
f 361/451/591 360/478/591 375/452/591
f 309/318/387 502/318/387 503/188/387
f 361/451/592 376/453/592 377/455/592
f 355/457/390 354/592/390 369/458/390
f 362/456/391 377/455/391 378/460/391
f 356/462/392 355/457/392 370/459/392
f 364/464/393 363/461/393 378/460/393
f 356/466/394 371/479/394 372/467/394
f 364/464/395 379/465/395 380/469/395
f 358/471/396 357/468/396 372/467/396
f 366/473/397 365/470/397 380/469/397
f 358/471/398 373/472/398 374/475/398
f 366/473/399 381/474/399 382/477/399
f 360/478/400 359/476/400 374/475/400
f 371/479/401 386/505/401 387/480/401
f 379/465/402 394/495/402 395/481/402
f 373/472/403 372/467/403 387/480/403
f 381/474/404 380/469/404 395/481/404
f 373/472/405 388/482/405 389/484/405
f 381/474/406 396/483/406 397/485/406
f 375/452/407 374/475/407 389/484/407
f 382/477/408 397/485/408 398/487/408
f 376/453/409 375/452/409 390/486/409
f 384/247/410 507/247/410 508/51/410
f 376/453/412 391/488/412 392/490/412
f 370/459/413 369/458/413 384/491/413
f 377/455/414 392/490/414 393/493/414
f 371/463/415 370/459/415 385/492/415
f 379/465/416 378/460/416 393/493/416
f 391/488/417 390/486/417 405/496/417
f 218/212/418 496/212/418 497/15/418
f 391/488/420 406/497/420 407/500/420
f 384/491/421 399/523/421 400/501/421
f 392/490/422 407/500/422 408/502/422
f 386/494/423 385/492/423 400/501/423
f 394/495/424 393/493/424 408/502/424
f 386/505/425 401/528/425 402/506/425
f 394/495/426 409/504/426 410/507/426
f 388/482/427 387/480/427 402/506/427
f 396/483/428 395/481/428 410/507/428
f 388/482/429 403/508/429 404/510/429
f 396/483/430 411/509/430 412/511/430
f 390/486/431 389/484/431 404/510/431
f 398/487/432 397/485/432 412/511/432
f 409/504/433 424/527/433 425/512/433
f 403/508/434 402/506/434 417/513/434
f 411/509/435 410/507/435 425/512/435
f 403/508/436 418/514/436 419/516/436
f 411/509/437 426/515/437 427/517/437
f 405/496/438 404/510/438 419/516/438
f 412/511/439 427/517/439 428/519/439
f 406/497/440 405/496/440 420/518/440
f 429/257/441 510/257/441 511/150/441
f 406/497/443 421/520/443 422/522/443
f 399/523/444 414/532/444 415/524/444
f 407/500/445 422/522/445 423/525/445
f 401/503/446 400/501/446 415/524/446
f 409/504/447 408/502/447 423/525/447
f 401/528/448 416/537/448 417/513/448
f 421/520/450 436/545/450 437/531/450
f 414/532/451 429/593/451 430/533/451
f 422/522/452 437/531/452 438/534/452
f 416/526/453 415/524/453 430/533/453
f 424/527/454 423/525/454 438/534/454
f 416/537/455 431/560/455 432/538/455
f 424/527/456 439/536/456 440/539/456
f 418/514/457 417/513/457 432/538/457
f 426/515/458 425/512/458 440/539/458
f 418/514/459 433/540/459 434/542/459
f 426/515/460 441/541/460 442/543/460
f 420/518/461 419/516/461 434/542/461
f 428/519/462 427/517/462 442/543/462
f 421/520/463 420/518/463 435/544/463
f 67/343/464 486/343/464 487/176/464
f 441/541/465 440/539/465 455/546/465
f 433/540/466 448/562/466 449/548/466
f 441/541/467 456/547/467 457/549/467
f 435/544/468 434/542/468 449/548/468
f 442/543/469 457/549/469 458/551/469
f 436/545/470 435/544/470 450/550/470
f 113/411/471 489/411/471 490/281/471
f 436/545/473 451/552/473 452/554/473
f 430/533/474 429/593/474 444/555/474
f 437/531/475 452/554/475 453/557/475
f 431/535/476 430/533/476 445/556/476
f 439/536/477 438/534/477 453/557/477
f 431/560/478 446/567/478 447/561/478
f 439/536/479 454/559/479 455/546/479
f 433/540/480 432/538/480 447/561/480
f 444/555/481 459/580/481 460/563/481
f 452/554/482 467/578/482 468/564/482
f 446/558/483 445/556/483 460/563/483
f 454/559/484 453/557/484 468/564/484
f 446/567/485 461/594/485 462/568/485
f 454/559/486 469/566/486 470/569/486
f 448/562/487 447/561/487 462/568/487
f 456/547/488 455/546/488 470/569/488
f 448/562/489 463/570/489 464/572/489
f 456/547/490 471/571/490 472/573/490
f 450/550/491 449/548/491 464/572/491
f 458/551/492 457/549/492 472/573/492
f 451/552/493 450/550/493 465/574/493
f 499/222/593 531/222/593 532/105/593
f 451/552/496 466/576/496 467/578/496
f 464/572/497 463/570/497 2/33/497
f 471/571/498 480/3/498 481/8/498
f 465/574/499 464/572/499 477/4/499
f 472/573/500 481/8/500 482/12/500
f 466/576/501 465/574/501 3/9/501
f 474/384/502 513/384/502 82/291/502
f 466/576/504 4/14/504 5/19/504
f 459/580/505 474/584/505 475/20/505
f 467/578/506 5/19/506 478/24/506
f 461/565/507 460/563/507 475/20/507
f 468/564/508 478/24/508 6/28/508
f 462/568/509 461/594/509 1/581/509
f 469/566/510 6/28/510 479/1/510
f 463/570/511 462/568/511 476/29/511
f 471/571/512 470/569/512 479/1/512
f 354/582/513 505/582/513 506/246/513
f 525/116/594 524/115/594 556/115/594
f 486/343/595 485/141/595 517/141/595
f 505/582/596 537/582/596 538/246/596
f 492/115/597 491/282/597 523/282/597
f 498/16/598 530/16/598 531/222/598
f 485/141/599 484/80/599 516/80/599
f 504/189/600 536/189/600 537/375/600
f 491/282/601 490/281/601 522/281/601
f 510/257/602 542/257/602 543/150/602
f 497/15/603 529/15/603 530/16/603
f 484/80/604 483/79/604 515/79/604
f 82/291/605 513/384/605 545/384/605
f 503/188/606 535/188/606 536/189/606
f 490/281/607 489/411/607 521/411/607
f 509/52/608 541/52/608 542/257/608
f 497/15/609 496/212/609 528/212/609
f 483/79/610 82/291/610 514/291/610
f 511/150/611 543/150/611 544/151/611
f 502/318/612 534/318/612 535/188/612
f 489/411/613 488/177/613 520/177/613
f 508/51/614 540/51/614 541/52/614
f 496/212/615 495/44/615 527/44/615
f 501/106/616 533/106/616 534/318/616
f 488/177/617 487/176/617 519/176/617
f 512/151/618 544/151/618 545/384/618
f 507/247/619 539/247/619 540/51/619
f 495/44/620 494/43/620 526/43/620
f 500/105/621 532/105/621 533/106/621
f 487/176/622 486/343/622 518/343/622
f 494/43/623 493/116/623 525/116/623
f 506/246/624 538/246/624 539/247/624
f 493/116/625 492/115/625 524/115/625
f 560/583/546 562/583/546 564/583/546
f 564/583/546 566/583/546 560/583/546
f 566/583/546 568/583/546 560/583/546
f 568/583/546 570/583/546 572/583/546
f 572/583/546 574/583/546 576/583/546
f 576/583/546 546/583/546 548/583/546
f 548/583/546 550/583/546 576/583/546
f 550/583/546 552/583/546 576/583/546
f 552/583/546 554/583/546 556/583/546
f 556/583/546 558/583/546 560/583/546
f 568/583/546 572/583/546 576/583/546
f 552/583/546 556/583/546 560/583/546
f 560/583/546 568/583/546 576/583/546
f 537/582/626 569/582/626 570/246/626
f 523/282/627 555/282/627 556/115/627
f 537/375/628 536/189/628 568/189/628
f 523/282/629 522/281/629 554/281/629
f 535/188/630 567/188/630 568/189/630
f 521/411/631 553/411/631 554/281/631
f 535/188/632 534/318/632 566/318/632
f 521/411/633 520/177/633 552/177/633
f 533/106/634 565/106/634 566/318/634
f 519/176/635 551/176/635 552/177/635
f 533/106/636 532/105/636 564/105/636
f 545/384/637 577/384/637 546/291/637
f 519/176/638 518/343/638 550/343/638
f 531/222/639 563/222/639 564/105/639
f 545/384/640 544/151/640 576/151/640
f 517/141/641 549/141/641 550/343/641
f 531/222/642 530/16/642 562/16/642
f 543/150/643 575/150/643 576/151/643
f 517/141/644 516/80/644 548/80/644
f 529/15/645 561/15/645 562/16/645
f 543/150/646 542/257/646 574/257/646
f 515/79/647 547/79/647 548/80/647
f 529/15/648 528/212/648 560/212/648
f 541/52/649 573/52/649 574/257/649
f 515/79/650 514/291/650 546/291/650
f 527/44/651 559/44/651 560/212/651
f 541/52/652 540/51/652 572/51/652
f 527/44/653 526/43/653 558/43/653
f 539/247/654 571/247/654 572/51/654
f 525/116/655 557/116/655 558/43/655
f 539/247/656 538/246/656 570/246/656
