# Made in Blockbench 4.12.4
mtllib Jet.mtl

o cylinder
v 0.228553125 0.28124999999999983 1.1875
v 0.228553125 0.2656250000000003 -0.8125
v 1.625 0.25490187499999983 1.3125
v 1.625 0.2524506249999999 0.9375
v 1.625 0.2450981249999998 1.3125
v 1.625 0.24754937499999988 0.9375
v 0.228553125 0.21874999999999983 1.1875
v 0.228553125 0.23437500000000028 -0.8125
vt 0.015610234375 1
vt 0.000007734375 0.828125
vt 0.046884296875 0.828125
vt 0.265617265625 1
vt 0.15954375 0.5859375
vt 0.16076875 0.5859375
vt 0.1604625 0.6328125
vt 0.15985 0.6328125
vt 0.171875 0.554705078125
vt 0.34375 0.5703046875
vt 0.34375 0.8203125
vt 0.171875 0.6015816406250001
vt 0.250000703125 0.5424953906250001
vt 0.250000703125 0.367210546875
vt 0.25122546875 0.3671875
vt 0.257811796875 0.54234859375
vt 0.574525 0.1171875
vt 0.576171875 0.3984375
vt 0.572265625 0.3984375
vt 0.5739125 0.1171875
vn 0.019448996092593002 0.9997894911066222 -0.006535290640200067
vn 1 0 0
vn 0.01956295301988775 -0.999778116781539 -0.007810766537355996
vn -0.08915642035666853 -2.2116034264963985e-16 0.9960176367460493
vn 0.781642362595822 1.3849518796740266e-16 -0.6237268769226014
usemtl m_c2899014-2688-6758-0592-4447343c9e57
f 1/1/1 3/2/1 4/3/1 2/4/1
f 3/5/2 5/6/2 6/7/2 4/8/2
f 5/9/3 7/10/3 8/11/3 6/12/3
f 7/13/4 5/14/4 3/15/4 1/16/4
f 6/17/5 8/18/5 2/19/5 4/20/5
o cylinder
v 0 0.21875000000000033 -2.625
v 0.103553125 0.5 -1.1875
v 0.077665 0.4062500000000002 -2.0925925
v 0.25 0.353553125 -1.1875
v 0.1875 0.2964150000000002 -2.0925925
v 0.25 0.14644687500000003 -1.1875
v 0.1875 0.1410850000000002 -2.0925925
v 0.103553125 0 -1.1875
v 0.077665 0.03125000000000022 -2.0925925
v -0.103553125 0 -1.1875
v -0.077665 0.03125000000000022 -2.0925925
v -0.25 0.14644687500000003 -1.1875
v -0.1875 0.1410850000000002 -2.0925925
v -0.25 0.353553125 -1.1875
v -0.1875 0.2964150000000002 -2.0925925
v -0.103553125 0.5 -1.1875
v -0.077665 0.4062500000000002 -2.0925925
v -0.064719375 0.06250312500000019 -1.95948875
v 0.06472125 0.062498750000000186 -1.9594925
v 0.15625125 0.1540287500000002 -1.9594925
v 0.15625125 0.2834712500000002 -1.9594925
v 0.06472125 0.3750012500000002 -1.9594925
v -0.06472125 0.3750012500000002 -1.9594925
v -0.15625125 0.2834712500000002 -1.9594925
v -0.15625125 0.1540287500000002 -1.9594925
vt 0.5131734375 0.5546875
vt 0.5390625 0.5546875
vt 0.53858828125 0.671875
vt 0.519171875 0.671875
vt 0.4040765625 0.71875
vt 0.42025703125 0.71875
vt 0.421875 0.734375
vt 0.40245859375 0.734375
vt 0.5089809375 0.546875
vt 0.510608359375 0.5210371093749999
vt 0.6238315625 0.5274978125
vt 0.62261109375 0.546875
vt 0.58175390625 0.5546875
vt 0.59793359375 0.5546875
vt 0.5995515625 0.5703125
vt 0.5801359375 0.5703125
vt 0.109375 0.3671875
vt 0.1352640625 0.3671875
vt 0.13478984375 0.4765625
vt 0.1153734375 0.4765625
vt 0.44693046875 0.8359375
vt 0.4631109375 0.8359375
vt 0.46472890625 0.8515625
vt 0.4453125 0.8515625
vt 0.51049296875 0.3984375
vt 0.53638203125 0.3984375
vt 0.5331453125 0.5078125
vt 0.5137296875 0.5078125
vt 0.40625 0.795256328125
vt 0.40625 0.779076640625
vt 0.421875 0.7774593750000001
vt 0.421875 0.796875
vt 0.546875 0.761934375
vt 0.5703125 0.760565078125
vt 0.5703125 0.873973046875
vt 0.55333859375 0.875
vt 0.3025140625 0.5390625
vt 0.31869453125 0.5390625
vt 0.3203125 0.5546875
vt 0.30089609375 0.5546875
vt 0.432702734375 0.7109375
vt 0.458591796875 0.7109375
vt 0.451448828125 0.828125
vt 0.432033203125 0.828125
vt 0.58175390625 0.578125
vt 0.59793359375 0.578125
vt 0.5995515625 0.59375
vt 0.5801359375 0.59375
vt 0.546875 0.88655328125
vt 0.5703125 0.885188515625
vt 0.5703125 0.998976484375
vt 0.553338671875 1
vt 0.15786796875 0.8828125
vt 0.1740484375 0.8828125
vt 0.17566640625 0.8984375
vt 0.15625 0.8984375
vt 0.51049296875 0.6796875
vt 0.53638203125 0.6796875
vt 0.5331453125 0.796875
vt 0.5137296875 0.796875
vt 0.58175390625 0.6015625
vt 0.59793359375 0.6015625
vt 0.5995515625 0.6171875
vt 0.5801359375 0.6171875
vt 0.56664796875 0.6641671874999999
vt 0.56664796875 0.75
vt 0.55053953125 0.665692109375
vt 0.5629834375 0.5704178906249999
vt 0.5629834375 0.65625
vt 0.546875 0.57194296875
vt 0.571889765625 0.46826734375
vt 0.65619765625 0.484375
vt 0.57036484375 0.484375
vt 0.5625 0.382917109375
vt 0.5625 0.46875
vt 0.5463915625 0.38444218750000003
vt 0.426022578125 0.35166789062500003
vt 0.426022578125 0.4375
vt 0.409914921875 0.35319289062500003
vt 0.0942334375 0.36729203125
vt 0.0942334375 0.453125
vt 0.078125 0.36881726562499995
vt 0.394772578125 0.351667109375
vt 0.394772578125 0.4375
vt 0.378664921875 0.353192109375
vt 0.54850453125 0.49170492187500003
vt 0.6328125 0.5078125
vt 0.54697890625 0.5078125
vn 0.7040381546355164 0.7040381546355164 -0.09306209558586896
vn -0.6883891662479382 -0.6883891662479383 -0.22856227069430526
vn 0.9976242851163794 1.5296578129603e-17 -0.06888966356452375
vn -0.9735294032102227 5.075091684838623e-17 -0.22856181020710326
vn 0.706403316039986 -0.706403316039986 -0.044594956838452826
vn -0.6883891662479384 0.6883891662479384 -0.22856227069430504
vn 0 -0.9994044804349205 -0.03450629633279634
vn 0.000026283061612427426 0.9735299716069974 -0.2285593876699878
vn -0.706403316039986 -0.706403316039986 -0.04459495683845284
vn 0.6883658655284141 0.6884035061011993 -0.22858925600931831
vn -0.9976242851163794 1.5296578129603e-17 -0.06888966356452375
vn 0.9735294032102227 5.075091684838623e-17 -0.22856181020710326
vn -0.7040381546355164 0.7040381546355164 -0.09306209558586898
vn 0.6883891662479382 -0.6883891662479383 -0.22856227069430524
vn 0 0.9946783163389501 -0.10302935021202406
vn 0 -0.9735294032102225 -0.22856181020710342
vn -0.00003952630535367426 -0.9735283896778173 -0.22856612375631505
vn 0.6883879440120028 -0.6883879440120028 -0.22856963288646995
vn 0.9735275350885622 5.075268362975685e-17 -0.22856976708302562
vn 0.6883879440120028 0.6883879440120029 -0.22856963288646964
vn 0 0.9735275350885622 -0.2285697670830254
vn -0.6883879440120028 0.6883879440120029 -0.22856963288646967
vn -0.9735275350885622 5.075268362975685e-17 -0.22856976708302562
vn -0.6883603679889775 -0.6884167388102127 -0.22856595876899705
usemtl m_c2899014-2688-6758-0592-4447343c9e57
f 10/21/6 12/22/6 13/23/6 11/24/6
f 29/25/7 30/26/7 11/27/7 13/28/7
f 12/29/8 14/30/8 15/31/8 13/32/8
f 28/33/9 29/34/9 13/35/9 15/36/9
f 14/37/10 16/38/10 17/39/10 15/40/10
f 27/41/11 28/42/11 15/43/11 17/44/11
f 16/45/12 18/46/12 19/47/12 17/48/12
f 26/49/13 27/50/13 17/51/13 19/52/13
f 18/53/14 20/54/14 21/55/14 19/56/14
f 33/57/15 26/58/15 19/59/15 21/60/15
f 20/61/16 22/62/16 23/63/16 21/64/16
f 32/65/17 33/66/17 21/67/17 23/68/17
f 22/69/18 24/70/18 25/71/18 23/72/18
f 31/73/19 32/74/19 23/75/19 25/76/19
f 24/77/20 10/78/20 11/79/20 25/80/20
f 30/81/21 31/82/21 25/83/21 11/84/21
f 26/85/22 9/86/22 27/87/22
f 27/88/23 9/89/23 28/90/23
f 28/91/24 9/92/24 29/93/24
f 29/94/25 9/95/25 30/96/25
f 30/97/26 9/98/26 31/99/26
f 31/100/27 9/101/27 32/102/27
f 32/103/28 9/104/28 33/105/28
f 33/106/29 9/107/29 26/108/29
o cylinder
v 0.103553125 0.4999999999999998 2
v 0.103553125 0.5000000000000004 -1.1875
v 0.25 0.35355312499999975 2
v 0.25 0.35355312500000047 -1.1875
v 0.25 0.14644687499999975 2
v 0.25 0.14644687500000048 -1.1875
v 0.103553125 -2.220446049250313e-16 2
v 0.103553125 4.718447854656915e-16 -1.1875
v -0.103553125 -2.220446049250313e-16 2
v -0.103553125 4.718447854656915e-16 -1.1875
v -0.25 0.14644687499999975 2
v -0.25 0.14644687500000048 -1.1875
v -0.25 0.35355312499999975 2
v -0.25 0.35355312500000047 -1.1875
v -0.103553125 0.4999999999999998 2
v -0.103553125 0.5000000000000004 -1.1875
vt 0.4765625 0.6015625
vt 0.5 0.6015625
vt 0.5 1
vt 0.4765625 1
vt 0 0.2109375
vt 0.0234375 0.2109375
vt 0.0234375 0.609375
vt 0 0.609375
vt 0.1875 0.1484375
vt 0.2109375 0.1484375
vt 0.2109375 0.546875
vt 0.1875 0.546875
vt 0.15625 0.1484375
vt 0.1796875 0.1484375
vt 0.1796875 0.546875
vt 0.15625 0.546875
vt 0.21875 0.1484375
vt 0.2421875 0.1484375
vt 0.2421875 0.546875
vt 0.21875 0.546875
vt 0.265625 0.15625
vt 0.2890625 0.15625
vt 0.2890625 0.5546875
vt 0.265625 0.5546875
vt 0.4765625 0.1953125
vt 0.5 0.1953125
vt 0.5 0.59375
vt 0.4765625 0.59375
vt 0.03125 0.1875
vt 0.0546875 0.1875
vt 0.0546875 0.5859375
vt 0.03125 0.5859375
vn 0.7071067811865476 0.7071067811865476 1.5700924586837752e-16
vn 1 0 0
vn 0.7071067811865476 -0.7071067811865476 -1.5700924586837752e-16
vn 0 -1 -2.220446049250313e-16
vn -0.7071067811865476 -0.7071067811865476 -1.5700924586837752e-16
vn -1 0 0
vn -0.7071067811865476 0.7071067811865476 1.5700924586837752e-16
vn 0 1 2.220446049250313e-16
usemtl m_c2899014-2688-6758-0592-4447343c9e57
f 34/109/30 36/110/30 37/111/30 35/112/30
f 36/113/31 38/114/31 39/115/31 37/116/31
f 38/117/32 40/118/32 41/119/32 39/120/32
f 40/121/33 42/122/33 43/123/33 41/124/33
f 42/125/34 44/126/34 45/127/34 43/128/34
f 44/129/35 46/130/35 47/131/35 45/132/35
f 46/133/36 48/134/36 49/135/36 47/136/36
f 48/137/37 34/138/37 35/139/37 49/140/37
o cylinder
v -0.228553125 0.21874999999999983 1.1875
v -0.228553125 0.23437500000000028 -0.8125
v -1.625 0.2450981249999998 1.3125
v -1.625 0.24754937499999988 0.9375
v -1.625 0.25490187499999983 1.3125
v -1.625 0.2524506249999999 0.9375
v -0.228553125 0.28124999999999983 1.1875
v -0.228553125 0.2656250000000003 -0.8125
vt 0.132797734375 0.875
vt 0.117195234375 0.703125
vt 0.164071796875 0.703125
vt 0.382804765625 0.875
vt 0.62048125 0.8359375
vt 0.62170625 0.8359375
vt 0.6214 0.8828125
vt 0.6207875 0.8828125
vt 0.296875 0.43751757812500003
vt 0.46875 0.45311718749999996
vt 0.46875 0.703125
vt 0.296875 0.48439414062499997
vt 0.0703125 0.4453125
vt 0.0625 0.4453125
vt 0.06579375 0.2734375
vt 0.06701875 0.2734375
vt 0.591796875 0.3984375
vt 0.587890625 0.3984375
vt 0.5895375 0.1171875
vt 0.59015 0.1171875
vn -0.019448996092593002 -0.9997894911066222 -0.006535290640200511
vn -1 0 0
vn -0.01956295301988775 0.999778116781539 -0.007810766537355552
vn 0.08915642035666853 -2.2116034264963985e-16 0.9960176367460493
vn -0.781642362595822 1.3849518796740266e-16 -0.6237268769226014
usemtl m_c2899014-2688-6758-0592-4447343c9e57
f 50/141/38 52/142/38 53/143/38 51/144/38
f 52/145/39 54/146/39 55/147/39 53/148/39
f 54/149/40 56/150/40 57/151/40 55/152/40
f 50/153/41 56/154/41 54/155/41 52/156/41
f 57/157/42 51/158/42 53/159/42 55/160/42
o cylinder
v 0 0.2499999999999999 0.875
v 0 0.25000000000000033 -1.3125
v 0.0828425 0.5625 0.5206493750000001
v 0.0828425 0.5625000000000002 -0.9581493750000001
v 0.2 0.37944187499999993 0.5206493750000001
v 0.2 0.37944187500000026 -0.9581493750000001
v -0.2 0.37944187499999993 0.5206493750000001
v -0.2 0.37944187500000026 -0.9581493750000001
v -0.0828425 0.5625 0.5206493750000001
v -0.0828425 0.5625000000000002 -0.9581493750000001
v 0.2 0.3794418750000002 -0.593749375
v 0.0828425 0.5625000000000002 -0.593749375
v -0.0828425 0.5625000000000002 -0.593749375
v -0.2 0.3794418750000002 -0.593749375
vt 0.53891015625 0.8607
vt 0.51174296875 0.8607
vt 0.5390625 0.8073265625
vt 0.578125 0.7265625
vt 0.578125 0.6796875
vt 0.6015625 0.6796875
vt 0.6015625 0.7265625
vt 0.43356953125 0.8607
vt 0.40640234375 0.8607
vt 0.40625 0.8073265625
vt 0.578125 0.671875
vt 0.578125 0.625
vt 0.6015625 0.625
vt 0.6015625 0.671875
vt 0.15640234375 0.6419390625
vt 0.18356953125 0.6419390625
vt 0.15625 0.6953125
vt 0.10785609375 0.689194375
vt 0.08745640625 0.692771328125
vt 0.08745640625 0.6328125
vt 0.578125 0.78125
vt 0.578125 0.734375
vt 0.6015625 0.734375
vt 0.6015625 0.78125
vt 0.53891015625 0.8607
vt 0.53891015625 1
vt 0.51174296875 1
vt 0.51174296875 0.8607
vt 0.46875 0.859375
vt 0.46875 1
vt 0.4453125 1
vt 0.4453125 0.859375
vt 0.43356953125 0.8607
vt 0.43356953125 1
vt 0.40640234375 1
vt 0.40640234375 0.8607
vt 0.354103515625 0.7109375
vt 0.366481875 0.68675421875
vt 0.4140625 0.7109375
vt 0.35308140625 0.615493125
vt 0.37348109375 0.611916171875
vt 0.37348109375 0.671875
vn 0.69898853587516 0.44735380847910483 0.5579333264417361
vn 0.8422707739488718 0.539054675660613 1.1969418249005171e-16
vn -0.69898853587516 0.44735380847910483 0.5579333264417361
vn -0.8422707739488718 0.539054675660613 1.1969418249005171e-16
vn -0.6989885358751597 0.44735380847910494 -0.557933326441736
vn 0 0.7500082705587114 0.6614284497158638
vn 0 1 2.220446049250313e-16
vn 0.8422707739488717 0.5390546756606129 1.196941824900517e-16
vn 0 1 2.220446049250313e-16
vn -0.8422707739488717 0.5390546756606129 1.196941824900517e-16
vn 0.6989885358751597 0.44735380847910494 -0.557933326441736
vn 0 0.7500082705587116 -0.6614284497158635
usemtl m_c2899014-2688-6758-0592-4447343c9e57
f 62/161/43 60/162/43 58/163/43
f 61/164/44 69/165/44 68/166/44 63/167/44
f 66/168/45 64/169/45 58/170/45
f 65/171/46 71/172/46 70/173/46 67/174/46
f 65/175/47 67/176/47 59/177/47
f 60/178/48 66/179/48 58/180/48
f 67/181/49 70/182/49 69/183/49 61/184/49
f 62/185/50 68/186/50 69/187/50 60/188/50
f 60/189/51 69/190/51 70/191/51 66/192/51
f 66/193/52 70/194/52 71/195/52 64/196/52
f 61/197/53 63/198/53 59/199/53
f 67/200/54 61/201/54 59/202/54
o cylinder
v -0.015624999999999894 0.4785531249999999 2.0625
v -0.015624999999999894 0.47855312500000025 0.6875000000000001
v -0.0024506249999997503 1.1249999999999998 2.578125
v -0.0024506249999997503 1.125 1.9453125000000002
v 0.00245062500000025 1.1249999999999998 2.578125
v 0.00245062500000025 1.125 1.9453125000000002
v 0.015625000000000108 0.4785531249999999 2.0625
v 0.015625000000000108 0.47855312500000025 0.6875000000000001
vt 0 0.6484375
vt 0.078125 0.583984375
vt 0.078125 0.6630859375
vt 0 0.8203125
vt 0.6051625 0.14255937500000004
vt 0.605775 0.14255937500000004
vt 0.605775 0.22166093750000004
vt 0.6051625 0.22166093750000004
vt 0.0703125 0.458984375
vt 0.1484375 0.5234375
vt 0.1484375 0.6953125
vt 0.0703125 0.5380859375
vt 0.439453359375 0.37682289062499996
vt 0.439453359375 0.273447265625
vt 0.44006578125 0.2734375
vt 0.443359140625 0.37676062499999996
vt 0.605775 0.22166093750000004
vt 0.607421875 0.3984375
vt 0.603515625 0.3984375
vt 0.6051625 0.22166093750000004
vn -0.9997923991584112 0.020375440733103923 4.524256687755451e-18
vn 2.220446049250313e-16 1 2.220446049250313e-16
vn 0.9997923991584113 0.020375440733103475 4.5242566877553515e-18
vn -1.3845909464873306e-16 -0.6235643270660904 0.7817720447871066
vn 1.9748889081766883e-16 0.8894108950962659 -0.45710858631627027
usemtl m_c2899014-2688-6758-0592-4447343c9e57
f 72/203/55 74/204/55 75/205/55 73/206/55
f 74/207/56 76/208/56 77/209/56 75/210/56
f 76/211/57 78/212/57 79/213/57 77/214/57
f 78/215/58 76/216/58 74/217/58 72/218/58
f 77/219/59 79/220/59 73/221/59 75/222/59
o cylinder
v 0.23927687500000006 0.28125 2.1875
v 0.23927687500000006 0.2656250000000001 1.6875
v 0.926776875 0.25490187499999994 2.5625
v 0.926776875 0.252450625 2.21875
v 0.926776875 0.24509812499999992 2.5625
v 0.926776875 0.247549375 2.21875
v 0.23927687500000006 0.21875 2.1875
v 0.23927687500000006 0.2343750000000001 1.6875
vt 0.0625 0.8055853125
vt 0.078004375 0.7088742968749999
vt 0.109375 0.7351428906249999
vt 0.109375 0.84375
vt 0.45641875 0.3359375
vt 0.45764375 0.3359375
vt 0.4573375 0.3828125
vt 0.456725 0.3828125
vt 0.198180625 0.903516640625
vt 0.294885859375 0.88798140625
vt 0.333069375 0.9375
vt 0.224456875 0.9375
vt 0.6093771875 0.6682996875
vt 0.6093771875 0.570353671875
vt 0.610601484375 0.5703125
vt 0.6171853125 0.66803703125
vt 0.512025 0.28125
vt 0.513671875 0.390625
vt 0.509765625 0.390625
vt 0.5114125 0.28125
vn 0.04217549855259603 0.9990848164639001 -0.007124383000311446
vn 1 0 0
vn 0.05525842433394132 -0.9979849076023355 -0.031187028362573206
vn -0.4788521306805733 -1.949319756532085e-16 0.8778955729143844
vn 0.6114475010757654 1.7570056551722658e-16 -0.7912850013921671
usemtl m_c2899014-2688-6758-0592-4447343c9e57
f 80/223/60 82/224/60 83/225/60 81/226/60
f 82/227/61 84/228/61 85/229/61 83/230/61
f 84/231/62 86/232/62 87/233/62 85/234/62
f 86/235/63 84/236/63 82/237/63 80/238/63
f 85/239/64 87/240/64 81/241/64 83/242/64
o cylinder
v -0.23927687500000006 0.21875 2.1875
v -0.23927687500000006 0.2343750000000001 1.6875
v -0.926776875 0.24509812499999992 2.5625
v -0.926776875 0.247549375 2.21875
v -0.926776875 0.25490187499999994 2.5625
v -0.926776875 0.252450625 2.21875
v -0.23927687500000006 0.28125 2.1875
v -0.23927687500000006 0.2656250000000001 1.6875
vt 0.3515625 0.8212103125
vt 0.367066875 0.7244992968749999
vt 0.3984375 0.7507678906249999
vt 0.3984375 0.859375
vt 0.62048125 0.3359375
vt 0.62170625 0.3359375
vt 0.6214 0.3828125
vt 0.6207875 0.3828125
vt 0.260680625 0.966016640625
vt 0.357385859375 0.95048140625
vt 0.395569375 1
vt 0.286956875 1
vt 0.6171875 0.78125
vt 0.609375 0.78125
vt 0.61266875 0.6796875
vt 0.61389375 0.6796875
vt 0.529296875 0.390625
vt 0.525390625 0.390625
vt 0.5270375 0.28125
vt 0.52765 0.28125
vn -0.04217549855259603 -0.9990848164639001 -0.00712438300031189
vn -1 0 0
vn -0.05525842433394132 0.9979849076023355 -0.031187028362572762
vn 0.4788521306805733 -1.949319756532085e-16 0.8778955729143844
vn -0.6114475010757654 1.7570056551722658e-16 -0.7912850013921671
usemtl m_c2899014-2688-6758-0592-4447343c9e57
f 88/243/65 90/244/65 91/245/65 89/246/65
f 90/247/66 92/248/66 93/249/66 91/250/66
f 92/251/67 94/252/67 95/253/67 93/254/67
f 88/255/68 94/256/68 92/257/68 90/258/68
f 95/259/69 89/260/69 91/261/69 93/262/69
o cylinder
v 8.419446744138054e-17 0.24999999999999983 2.1875
v -0.10355312499999994 0.4999999999999999 2
v -0.09708124999999988 0.4843749999999998 2.3541668749999998
v -0.24999999999999994 0.3535531249999999 2
v -0.2343749999999999 0.3470812499999998 2.3541668749999998
v -0.24999999999999994 0.1464468749999999 2
v -0.2343749999999999 0.15291874999999983 2.3541668749999998
v -0.10355312499999994 -1.1102230246251565e-16 2
v -0.09708124999999988 0.015624999999999806 2.3541668749999998
v 0.10355312500000005 -1.1102230246251565e-16 2
v 0.0970812500000001 0.015624999999999806 2.3541668749999998
v 0.25000000000000006 0.1464468749999999 2
v 0.2343750000000001 0.15291874999999983 2.3541668749999998
v 0.25000000000000006 0.3535531249999999 2
v 0.2343750000000001 0.3470812499999998 2.3541668749999998
v 0.10355312500000005 0.4999999999999999 2
v 0.0970812500000001 0.4843749999999998 2.3541668749999998
v 0.08089937500000006 0.05469187499999986 2.1145825
v -0.08090187499999993 0.05468562499999985 2.1145843749999997
v -0.19531437499999993 0.16909812499999988 2.1145843749999997
v -0.19531437499999993 0.33090187499999985 2.1145843749999997
v -0.08090187499999993 0.4453143749999999 2.1145843749999997
v 0.08090187500000007 0.4453143749999999 2.1145843749999997
v 0.1953143750000001 0.33090187499999985 2.1145843749999997
v 0.1953143750000001 0.16909812499999988 2.1145843749999997
vt 0.5834859375 0.7890625
vt 0.609375 0.7890625
vt 0.608565625 0.8359375
vt 0.5842953125 0.8359375
vt 0.03243984375 0.7890625
vt 0.05266484375 0.7890625
vt 0.0546875 0.8203125
vt 0.0304171875 0.8203125
vt 0.33861796875 0.3828125
vt 0.36450703125 0.3828125
vt 0.36369765625 0.4296875
vt 0.33942734375 0.4296875
vt 0.6227 0.9296875
vt 0.642925 0.9296875
vt 0.64494765625 0.9609375
vt 0.62067734375 0.9609375
vt 0.578125 0.84375
vt 0.6040140625 0.84375
vt 0.6032046875 0.890625
vt 0.578934375 0.890625
vt 0.19733515625 0.6796875
vt 0.21756015625 0.6796875
vt 0.2195828125 0.7109375
vt 0.1953125 0.7109375
vt 0.44018046875 0.390625
vt 0.46606953125 0.390625
vt 0.46526015625 0.4375
vt 0.44098984375 0.4375
vt 0.6227 0.96875
vt 0.642925 0.96875
vt 0.64494765625 1
vt 0.62067734375 1
vt 0.5834859375 0.8984375
vt 0.609375 0.8984375
vt 0.608565625 0.9453125
vt 0.5842953125 0.9453125
vt 0.61837734375 0.390625
vt 0.63860234375 0.390625
vt 0.640625 0.421875
vt 0.6163546875 0.421875
vt 0.57299296875 0.40625
vt 0.59888203125 0.40625
vt 0.59807265625 0.453125
vt 0.57380234375 0.453125
vt 0.6227 0.890625
vt 0.642925 0.890625
vt 0.64494765625 0.921875
vt 0.62067734375 0.921875
vt 0.578125 0.953125
vt 0.6040140625 0.953125
vt 0.6032046875 1
vt 0.578934375 1
vt 0.38483515625 0.6484375
vt 0.40506015625 0.6484375
vt 0.4070828125 0.6796875
vt 0.3828125 0.6796875
vt 0.29955546875 0.3828125
vt 0.32544453125 0.3828125
vt 0.32463515625 0.4296875
vt 0.30036484375 0.4296875
vt 0.6148875 0.4296875
vt 0.6351125 0.4296875
vt 0.63713515625 0.4609375
vt 0.61286484375 0.4609375
vt 0.36581921875 0.9375
vt 0.371093828125 0.910049296875
vt 0.385716328125 0.93387296875
vt 0.385716328125 0.93387296875
vt 0.37109375 0.910049140625
vt 0.39795859375 0.9177740625
vt 0.39795859375 0.9177740625
vt 0.37109375 0.910049140625
vt 0.3961375 0.897631171875
vt 0.3961375 0.897631171875
vt 0.37109375 0.910049140625
vt 0.38120625 0.883988984375
vt 0.38120625 0.883988984375
vt 0.37109375 0.910049140625
vt 0.36098125 0.883988984375
vt 0.36098125 0.883988984375
vt 0.37109375 0.910049140625
vt 0.34605 0.897631171875
vt 0.34605 0.897631171875
vt 0.37109375 0.910049140625
vt 0.34422890625 0.9177740625
vt 0.3442290625 0.917773984375
vt 0.37109375 0.910049140625
vt 0.35647171875 0.93387265625
vn -0.7064196534885582 0.7064196534885582 0.04407432733702176
vn 0.697892361479275 -0.697892361479275 0.16091147745814105
vn -0.9990282360791481 -9.786560272132751e-18 0.04407474919481596
vn 0.9869688123189577 -3.572956679064914e-17 0.1609116636844767
vn -0.7064196534885582 -0.7064196534885582 0.04407432733702144
vn 0.697892361479275 0.697892361479275 0.16091147745814138
vn 5.3976000524653574e-18 -0.9990282360791481 0.04407474919481561
vn -0.000036259624734888136 0.9869692005520074 0.16090927831225507
vn 0.7064196534885582 -0.7064196534885582 0.044074327337021275
vn -0.6978639996510361 0.6979147359726852 0.1609374390974206
vn 0.9990282360791481 -9.786560272132696e-18 0.04407474919481571
vn -0.9869688123189577 -3.572956679064919e-17 0.16091166368447693
vn 0.7064196534885582 0.7064196534885582 0.044074327337021595
vn -0.697892361479275 -0.697892361479275 0.16091147745814122
vn 5.397600052465362e-18 0.9990282360791481 0.044074749194816056
vn 1.970599538766699e-17 -0.9869688123189577 0.1609116636844766
vn 0.00002436662166573435 -0.34975569161630377 0.936840944658307
vn -0.2473083481722486 -0.2473083481722489 0.9368442569865216
vn -0.3497468333519793 -2.0802121181812343e-16 0.9368442520292597
vn -0.2473083481722486 0.2473083481722485 0.9368442569865216
vn 1.1473033145472292e-16 0.3497468333519792 0.9368442520292598
vn 0.2473083481722488 0.2473083481722485 0.9368442569865216
vn 0.3497468333519795 -2.0802121181812338e-16 0.9368442520292595
vn 0.24729744320345343 -0.24733171081945396 0.9368409680453543
usemtl m_c2899014-2688-6758-0592-4447343c9e57
f 97/263/70 99/264/70 100/265/70 98/266/70
f 116/267/71 117/268/71 98/269/71 100/270/71
f 99/271/72 101/272/72 102/273/72 100/274/72
f 115/275/73 116/276/73 100/277/73 102/278/73
f 101/279/74 103/280/74 104/281/74 102/282/74
f 114/283/75 115/284/75 102/285/75 104/286/75
f 103/287/76 105/288/76 106/289/76 104/290/76
f 113/291/77 114/292/77 104/293/77 106/294/77
f 105/295/78 107/296/78 108/297/78 106/298/78
f 120/299/79 113/300/79 106/301/79 108/302/79
f 107/303/80 109/304/80 110/305/80 108/306/80
f 119/307/81 120/308/81 108/309/81 110/310/81
f 109/311/82 111/312/82 112/313/82 110/314/82
f 118/315/83 119/316/83 110/317/83 112/318/83
f 111/319/84 97/320/84 98/321/84 112/322/84
f 117/323/85 118/324/85 112/325/85 98/326/85
f 113/327/86 96/328/86 114/329/86
f 114/330/87 96/331/87 115/332/87
f 115/333/88 96/334/88 116/335/88
f 116/336/89 96/337/89 117/338/89
f 117/339/90 96/340/90 118/341/90
f 118/342/91 96/343/91 119/344/91
f 119/345/92 96/346/92 120/347/92
f 120/348/93 96/349/93 113/350/93