# Blender 4.1.1
# www.blender.org
mtllib windmill.mtl
o 立方体
v -1.334883 -0.249852 3.222693
v -1.334883 1.400590 3.222693
v -3.222693 -0.249853 -1.334883
v -3.222693 1.400590 -1.334883
v 3.222693 -0.249852 1.334883
v 3.222693 1.400590 1.334883
v 1.334883 -0.249853 -3.222693
v 1.334883 1.400590 -3.222693
v -1.335986 -0.249853 -3.225352
v -1.335986 1.400590 -3.225352
v 1.335986 -0.249852 3.225352
v 1.335986 1.400590 3.225352
v -3.225352 -0.249852 1.335986
v -3.225352 1.400590 1.335985
v 3.225352 -0.249853 -1.335986
v 3.225352 1.400590 -1.335986
v 0.000000 1.400590 -0.000000
v 0.000000 -0.249852 0.000000
v -1.670722 1.250616 4.033481
v -0.757242 7.261318 1.828144
v -4.033481 1.250615 -1.670723
v -1.828145 7.261318 -0.757243
v 4.033481 1.250616 1.670722
v 1.828145 7.261318 0.757241
v 1.670722 1.250615 -4.033481
v 0.757242 7.261318 -1.828145
v -1.672101 1.250615 -4.036810
v -0.757867 7.261318 -1.829654
v 1.672101 1.250616 4.036810
v 0.757867 7.261318 1.829653
v -4.036810 1.250616 1.672101
v -1.829654 7.261318 0.757867
v 4.036810 1.250615 -1.672101
v 1.829654 7.261318 -0.757868
v 0.000000 7.261318 -0.000001
v 0.000000 1.250615 -0.000000
v -1.470888 1.579072 3.551038
v -1.343652 1.991679 3.243861
v -1.183141 2.873704 2.856354
v -0.903797 5.144337 2.181957
v -2.181957 5.144337 -0.903797
v -2.856354 2.873704 -1.183142
v -3.243861 1.991678 -1.343652
v -3.551038 1.579072 -1.470888
v 0.903797 5.144337 -2.181957
v 1.183141 2.873704 -2.856354
v 1.343652 1.991678 -3.243861
v 1.470888 1.579072 -3.551038
v 2.181957 5.144337 0.903796
v 2.856354 2.873704 1.183141
v 3.243861 1.991679 1.343652
v 3.551038 1.579072 1.470888
v 0.904542 5.144337 2.183758
v 1.184118 2.873704 2.858712
v 1.344761 1.991679 3.246538
v 1.472103 1.579072 3.553969
v -0.904542 5.144337 -2.183759
v -1.184118 2.873704 -2.858712
v -1.344761 1.991678 -3.246539
v -1.472103 1.579072 -3.553969
v 2.183758 5.144337 -0.904542
v 2.858712 2.873704 -1.184118
v 3.246539 1.991678 -1.344761
v 3.553969 1.579072 -1.472103
v -2.183758 5.144337 0.904542
v -2.858712 2.873704 1.184118
v -3.246539 1.991679 1.344760
v -3.553969 1.579072 1.472103
v 0.000000 9.288221 -1.149245
v 0.000000 8.717501 -1.161682
v 0.000000 7.971817 -2.028837
v 0.000000 7.568257 -2.068584
v 0.000000 7.164695 -2.452169
v 0.078731 9.597095 -0.395807
v 0.154436 9.479379 -0.776404
v 0.224207 9.288221 -1.127162
v 0.285360 9.030968 -1.145468
v 0.335549 8.717501 -1.145767
v 0.372841 8.359870 -1.144777
v 0.395807 7.971817 -1.989854
v 0.403562 7.568257 -2.028837
v 0.478393 7.164695 -2.405051
v 0.154436 9.597095 -0.372842
v 0.302937 9.479379 -0.731356
v 0.439797 9.288221 -1.061764
v 0.559755 9.030968 -1.137193
v 0.658201 8.717501 -1.120711
v 0.731355 8.359870 -1.125263
v 0.776403 7.971817 -1.874402
v 0.791613 7.568257 -1.911124
v 0.938405 7.164695 -2.265509
v 0.224207 9.597095 -0.335549
v 0.439797 9.479379 -0.658202
v 0.638485 9.288221 -0.955562
v 0.812639 9.030968 -1.216199
v 0.955561 8.717501 -1.430099
v 1.061763 8.359870 -1.589041
v 1.127162 7.971817 -1.686917
v 1.149245 7.568257 -1.719965
v 1.362351 7.164695 -2.038904
v 0.285360 9.597095 -0.285361
v 0.559755 9.479379 -0.559756
v 0.812639 9.288221 -0.812639
v 1.034292 9.030968 -1.034293
v 1.216198 8.717501 -1.216199
v 1.351368 8.359870 -1.351369
v 1.434605 7.971817 -1.434605
v 1.462710 7.568257 -1.462710
v 1.733944 7.164695 -1.733945
v 0.335549 9.597095 -0.224207
v 0.658201 9.479379 -0.439798
v 0.955561 9.288221 -0.638486
v 1.216198 9.030968 -0.812639
v 1.430099 8.717501 -0.955562
v 1.589040 8.359870 -1.061764
v 1.686917 7.971817 -1.127162
v 1.719965 7.568257 -1.149244
v 2.038903 7.164695 -1.362351
v 0.000000 9.636842 -0.000001
v 0.372841 9.597095 -0.154436
v 0.731355 9.479379 -0.302938
v 1.061763 9.288221 -0.439798
v 1.351368 9.030968 -0.559756
v 1.589040 8.717501 -0.658202
v 1.765647 8.359870 -0.731356
v 1.874402 7.971817 -0.776402
v 1.911123 7.568257 -0.791614
v 2.265507 7.164695 -0.938404
v 0.395807 9.597095 -0.078731
v 0.776403 9.479379 -0.154436
v 1.127162 9.288221 -0.224207
v 1.434605 9.030968 -0.285361
v 1.686917 8.717501 -0.335549
v 1.874402 8.359870 -0.372842
v 1.989853 7.971817 -0.395807
v 2.028837 7.568257 -0.403561
v 2.405051 7.164695 -0.478394
v 0.403560 9.597095 -0.000001
v 0.791613 9.479379 -0.000001
v 1.149245 9.288221 -0.000001
v 1.462710 9.030968 -0.000001
v 1.719965 8.717501 -0.000001
v 1.911123 8.359870 -0.000001
v 2.028837 7.971817 -0.000001
v 2.068584 7.568257 -0.000001
v 2.452168 7.164695 -0.000001
v 0.395807 9.597095 0.078730
v 0.776403 9.479379 0.154435
v 1.127162 9.288221 0.224206
v 1.434605 9.030968 0.285359
v 1.686917 8.717501 0.335548
v 1.874402 8.359870 0.372841
v 1.989853 7.971817 0.395806
v 2.028837 7.568257 0.403561
v 2.405051 7.164695 0.478394
v 0.372841 9.597095 0.154435
v 0.731355 9.479379 0.302936
v 1.061763 9.288221 0.439796
v 1.351368 9.030968 0.559754
v 1.589040 8.717501 0.658202
v 1.765647 8.359870 0.731354
v 1.874402 7.971817 0.776402
v 1.911121 7.568257 0.791613
v 2.265507 7.164695 0.938404
v 0.335549 9.597095 0.224206
v 0.658201 9.479379 0.439796
v 0.955561 9.288221 0.638485
v 1.216198 9.030968 0.812638
v 1.430099 8.717501 0.955561
v 1.589040 8.359870 1.061762
v 1.686917 7.971817 1.127161
v 1.719965 7.568257 1.149244
v 2.038902 7.164695 1.362350
v 0.285360 9.597095 0.285359
v 0.559755 9.479379 0.559754
v 0.812639 9.288221 0.812638
v 1.034292 9.030968 1.034291
v 1.216198 8.717501 1.216198
v 1.351368 8.359870 1.351367
v 1.434605 7.971817 1.434604
v 1.462708 7.568257 1.462709
v 1.733944 7.164695 1.733944
v 0.224207 9.597095 0.335548
v 0.439797 9.479379 0.658201
v 0.638485 9.288221 0.955561
v 0.812639 9.030968 1.216198
v 0.955561 8.717501 1.430098
v 1.061763 8.359870 1.589039
v 1.127162 7.971817 1.686916
v 1.149243 7.568257 1.719964
v 1.362351 7.164695 2.038903
v 0.154436 9.597095 0.372841
v 0.302937 9.479379 0.731354
v 0.439797 9.288221 1.061762
v 0.559755 9.030968 1.351367
v 0.658201 8.717501 1.589039
v 0.731355 8.359870 1.765646
v 0.776402 7.971817 1.874401
v 0.791612 7.568257 1.911121
v 0.938403 7.164695 2.265507
v 0.078731 9.597095 0.395806
v 0.154436 9.479379 0.776401
v 0.224207 9.288221 1.127161
v 0.285360 9.030968 1.434604
v 0.335549 8.717501 1.686916
v 0.372841 8.359870 1.874401
v 0.395807 7.971817 1.989853
v 0.403560 7.568257 2.028836
v 0.478393 7.164695 2.405049
v 0.000000 9.597095 0.403559
v 0.000000 9.479379 0.791612
v 0.000000 9.288221 1.149242
v 0.000000 9.030968 1.462709
v 0.000000 8.717501 1.719964
v 0.000000 8.359870 1.911122
v 0.000000 7.971817 2.028836
v -0.000002 7.568257 2.068583
v 0.000000 7.164695 2.452167
v -0.078731 9.597095 0.395806
v -0.154436 9.479379 0.776401
v -0.224207 9.288221 1.127161
v -0.285360 9.030968 1.434604
v -0.335549 8.717501 1.686916
v -0.372841 8.359870 1.874400
v -0.395807 7.971817 1.989853
v -0.403562 7.568257 2.028835
v -0.478395 7.164695 2.405049
v -0.154436 9.597095 0.372841
v -0.302937 9.479379 0.731354
v -0.439797 9.288221 1.061762
v -0.559755 9.030968 1.351367
v -0.658201 8.717501 1.589039
v -0.731355 8.359870 1.765646
v -0.776403 7.971817 1.874400
v -0.791613 7.568257 1.911121
v -0.938405 7.164695 2.265507
v -0.224207 9.597095 0.335548
v -0.439797 9.479379 0.658201
v -0.638485 9.288221 0.955559
v -0.812639 9.030968 1.216198
v -0.955561 8.717501 1.430098
v -1.061763 8.359870 1.589039
v -1.127162 7.971817 1.686914
v -1.149245 7.568257 1.719962
v -1.362351 7.164695 2.038901
v -0.285360 9.597095 0.285359
v -0.559755 9.479379 0.559754
v -0.812639 9.288221 0.812636
v -1.034292 9.030968 1.034291
v -1.216198 8.717501 1.216198
v -1.351368 8.359870 1.351367
v -1.434605 7.971817 1.434604
v -1.462710 7.568257 1.462708
v -1.733944 7.164695 1.733943
v -0.335549 9.597095 0.224206
v -0.658201 9.479379 0.439796
v -0.955561 9.288221 0.638485
v -1.216198 9.030968 0.812638
v -1.430099 8.717501 0.955559
v -1.589040 8.359870 1.061762
v -1.686917 7.971817 1.127159
v -1.719965 7.568257 1.149242
v -2.038902 7.164695 1.362350
v -0.372841 9.597095 0.154435
v -0.731355 9.479379 0.302936
v -1.061763 9.288221 0.439795
v -1.351368 9.030968 0.559754
v -1.589040 8.717501 0.658201
v -1.765647 8.359870 0.731354
v -1.874400 7.971817 0.776401
v -1.911121 7.568257 0.791611
v -2.265507 7.164695 0.938402
v -0.395807 9.597095 0.078730
v -0.776402 9.479379 0.154435
v -1.127162 9.288221 0.224206
v -1.434605 9.030968 0.285359
v -1.686915 8.717501 0.335548
v -1.874400 8.359870 0.372841
v -1.989853 7.971817 0.395804
v -2.028835 7.568257 0.403559
v -2.405049 7.164695 0.478393
v -0.403560 9.597095 -0.000001
v -0.791613 9.479379 -0.000001
v -1.149243 9.288221 -0.000001
v -1.462710 9.030968 -0.000001
v -1.719965 8.717501 -0.000001
v -1.911121 8.359870 -0.000001
v -2.028837 7.971817 -0.000001
v -2.068583 7.568257 -0.000002
v -2.452167 7.164695 -0.000001
v -0.395807 9.597095 -0.078731
v -0.776402 9.479379 -0.154436
v -1.127160 9.288221 -0.224207
v -1.434605 9.030968 -0.285361
v -1.686915 8.717501 -0.335549
v -1.874400 8.359870 -0.372842
v -1.989852 7.971817 -0.395807
v -2.028835 7.568257 -0.403562
v -2.405049 7.164695 -0.478395
v -0.372841 9.597095 -0.154436
v -0.731355 9.479379 -0.302938
v -1.061761 9.288221 -0.439798
v -1.351368 9.030968 -0.559756
v -1.589040 8.717501 -0.658202
v -1.765647 8.359870 -0.731356
v -1.874400 7.971817 -0.776404
v -1.911120 7.568257 -0.791614
v -2.265507 7.164695 -0.938405
v -0.335549 9.597095 -0.224207
v -0.658201 9.479379 -0.439798
v -0.955560 9.288221 -0.638486
v -1.216198 9.030968 -0.812639
v -1.430097 8.717501 -0.955562
v -1.589040 8.359870 -1.061764
v -1.686915 7.971817 -1.127162
v -1.719963 7.568257 -1.149244
v -2.038902 7.164695 -1.362351
v -0.285360 9.597095 -0.285361
v -0.559755 9.479379 -0.559756
v -0.812637 9.288221 -0.812639
v -1.034292 9.030968 -1.034293
v -1.216198 8.717501 -1.216199
v -1.351368 8.359870 -1.351369
v -1.434603 7.971817 -1.434605
v -1.462708 7.568257 -1.462710
v -1.733943 7.164695 -1.733945
v -0.224207 9.597095 -0.335549
v -0.439797 9.479379 -0.658202
v -0.638484 9.288221 -0.955561
v -0.812639 9.030968 -1.216199
v -0.955560 8.717501 -1.430099
v -1.061763 8.359870 -1.589041
v -1.127160 7.971817 -1.686917
v -1.149242 7.568257 -1.719965
v -1.362350 7.164695 -2.038902
v -0.154436 9.597095 -0.372842
v -0.302937 9.479379 -0.731356
v -0.439795 9.288221 -1.061762
v -0.559755 9.030968 -1.137193
v -0.658201 8.717501 -1.120709
v -0.731355 8.359870 -1.125263
v -0.776402 7.971817 -1.874401
v -0.791612 7.568257 -1.911122
v -0.938403 7.164695 -2.265507
v -0.078731 9.597095 -0.395807
v -0.154436 9.479379 -0.776402
v -0.224205 9.288221 -1.127161
v -0.285360 9.030968 -1.145468
v -0.335549 8.717501 -1.145767
v -0.372841 8.359870 -1.144777
v -0.395805 7.971817 -1.989853
v -0.403560 7.568257 -2.028836
v -0.478393 7.164695 -2.405050
v 0.000000 9.597095 -0.403561
v 0.000000 9.479379 -0.791614
v 0.000000 9.030968 -1.148587
v 0.000000 8.359870 -1.156943
v -5.647188 14.796727 -2.161555
v -5.647188 14.868926 -2.512356
v -5.900442 14.548674 -2.212608
v -5.900442 14.620873 -2.563408
v 5.900442 3.486167 -4.489442
v 5.900442 3.558366 -4.840243
v 5.647188 3.238114 -4.540494
v 5.647188 3.310313 -4.891294
v 0.508464 8.440294 -3.705251
v 5.718594 3.337127 -4.755561
v -0.648916 7.268910 -3.755093
v 4.561213 2.165744 -4.805403
v -0.468324 9.625356 -3.461348
v -5.678452 14.728522 -2.411038
v 0.689058 10.721212 -3.044557
v -4.521070 15.824381 -1.994247
v 5.900442 14.551074 -2.224266
v 5.900442 14.623273 -2.575066
v 5.647189 14.799128 -2.173213
v 5.647189 14.871327 -2.524014
v -5.647189 3.240512 -4.552154
v -5.647189 3.312711 -4.902954
v -5.900442 3.488566 -4.501100
v -5.900442 3.560765 -4.851902
v 0.573214 9.525018 -3.494152
v 5.783344 14.628184 -2.443842
v 1.730595 8.353635 -3.543992
v 6.940726 13.456800 -2.493682
v -0.636685 8.568283 -3.691063
v -5.846817 3.465115 -4.741372
v -1.794068 9.664142 -3.274271
v -7.004199 4.560974 -4.324580
v 0.000000 9.292551 -3.901636
v 0.000000 8.473388 0.078451
v 0.036300 9.289048 -3.902357
v 0.036300 8.469885 0.077729
v 0.071205 9.278677 -3.904492
v 0.071205 8.459514 0.075595
v 0.103374 9.261835 -3.907958
v 0.103374 8.442672 0.072128
v 0.131571 9.239170 -3.912622
v 0.131571 8.420007 0.067465
v 0.154711 9.211555 -3.918307
v 0.154711 8.392388 0.061780
v 0.171906 9.180045 -3.924791
v 0.171906 8.360881 0.055295
v 0.182494 9.145856 -3.931828
v 0.182494 8.326692 0.048259
v 0.186071 9.110301 -3.939146
v 0.186071 8.291136 0.040940
v 0.182494 9.074745 -3.946463
v 0.182494 8.255581 0.033623
v 0.171906 9.040556 -3.953501
v 0.171906 8.221392 0.026587
v 0.154711 9.009047 -3.959986
v 0.154711 8.189882 0.020101
v 0.131571 8.981428 -3.965669
v 0.131571 8.162267 0.014417
v 0.103375 8.958763 -3.970334
v 0.103374 8.139600 0.009752
v 0.071205 8.941922 -3.973801
v 0.071205 8.122760 0.006286
v 0.036300 8.931552 -3.975935
v 0.036300 8.112387 0.004151
v 0.000000 8.928050 -3.976657
v 0.000000 8.108884 0.003431
v -0.036302 8.931552 -3.975935
v -0.036302 8.112387 0.004151
v -0.071207 8.941922 -3.973801
v -0.071207 8.122760 0.006286
v -0.103375 8.958763 -3.970334
v -0.103375 8.139600 0.009752
v -0.131572 8.981428 -3.965669
v -0.131572 8.162267 0.014417
v -0.154713 9.009047 -3.959986
v -0.154713 8.189882 0.020101
v -0.171907 9.040556 -3.953500
v -0.171907 8.221392 0.026587
v -0.182496 9.074745 -3.946463
v -0.182496 8.255581 0.033623
v -0.186071 9.110301 -3.939146
v -0.186072 8.291136 0.040940
v -0.182496 9.145856 -3.931828
v -0.182496 8.326692 0.048259
v -0.171907 9.180045 -3.924791
v -0.171907 8.360881 0.055295
v -0.154713 9.211555 -3.918307
v -0.154713 8.392388 0.061780
v -0.131572 9.239170 -3.912622
v -0.131572 8.420007 0.067465
v -0.103375 9.261835 -3.907958
v -0.103375 8.442672 0.072128
v -0.071207 9.278677 -3.904492
v -0.071207 8.459514 0.075595
v -0.036302 9.289048 -3.902357
v -0.036302 8.469885 0.077729
vn -1.0000 -0.0000 -0.0010
vn 0.0010 -0.0000 -1.0000
vn 1.0000 -0.0000 0.0010
vn -0.0010 -0.0000 1.0000
vn -0.0000 -1.0000 -0.0000
vn -0.0000 1.0000 -0.0000
vn 0.7078 -0.0000 0.7064
vn -0.7078 -0.0000 -0.7064
vn 0.7064 -0.0000 -0.7078
vn -0.7064 -0.0000 0.7078
vn -0.9863 0.1649 -0.0010
vn 0.0010 0.1649 -0.9863
vn 0.9863 0.1649 0.0010
vn -0.0010 0.1649 0.9863
vn 0.6981 0.1649 0.6967
vn -0.6981 0.1649 -0.6967
vn 0.6967 0.1649 -0.6981
vn -0.6967 0.1649 0.6981
vn -0.3974 0.8267 0.3982
vn -0.5665 0.5973 0.5677
vn -0.6467 0.4024 0.6480
vn -0.6771 0.2848 0.6785
vn 0.3974 0.8267 -0.3982
vn 0.5665 0.5973 -0.5677
vn 0.6467 0.4024 -0.6480
vn 0.6771 0.2848 -0.6785
vn -0.3982 0.8267 -0.3974
vn -0.5677 0.5973 -0.5665
vn -0.6480 0.4024 -0.6467
vn -0.6785 0.2848 -0.6771
vn 0.3982 0.8267 0.3974
vn 0.5677 0.5973 0.5665
vn 0.6480 0.4024 0.6467
vn 0.6785 0.2848 0.6771
vn -0.0006 0.8267 0.5626
vn -0.0008 0.5973 0.8020
vn -0.0009 0.4024 0.9155
vn -0.0010 0.2848 0.9586
vn 0.5626 0.8267 0.0006
vn 0.8020 0.5973 0.0008
vn 0.9155 0.4024 0.0009
vn 0.9586 0.2848 0.0010
vn 0.0006 0.8267 -0.5626
vn 0.0008 0.5973 -0.8020
vn 0.0009 0.4024 -0.9155
vn 0.0010 0.2848 -0.9586
vn -0.5626 0.8267 -0.0006
vn -0.8020 0.5973 -0.0008
vn -0.9155 0.4024 -0.0009
vn -0.9586 0.2848 -0.0010
vn 0.0474 0.0085 -0.9988
vn 0.0326 0.0006 -0.9995
vn 0.0400 0.9129 -0.4063
vn 0.0975 0.0975 -0.9904
vn 0.0096 0.9951 -0.0980
vn 0.0712 0.6872 -0.7230
vn 0.0286 0.9565 -0.2902
vn 0.0464 0.8810 -0.4709
vn 0.0109 0.0736 -0.9972
vn 0.0288 0.2936 -0.9555
vn 0.0774 -0.0281 -0.9966
vn 0.0543 0.0238 -0.9982
vn 0.1247 0.9030 -0.4112
vn 0.2889 0.0975 -0.9524
vn 0.0286 0.9951 -0.0942
vn 0.2109 0.6872 -0.6952
vn 0.0846 0.9565 -0.2790
vn 0.1374 0.8810 -0.4528
vn 0.4691 0.0975 -0.8777
vn 0.0464 0.9951 -0.0869
vn 0.3425 0.6872 -0.6407
vn 0.1374 0.9565 -0.2571
vn 0.2231 0.8810 -0.4173
vn -0.2368 0.6077 -0.7580
vn -0.7136 0.1426 -0.6859
vn -0.8143 0.0160 -0.5802
vn 0.4513 0.2890 -0.8443
vn 0.4036 0.7715 -0.4918
vn 0.4913 0.6326 -0.5987
vn 0.5601 0.4696 -0.6825
vn 0.6073 0.2890 -0.7400
vn 0.6314 0.0975 -0.7693
vn 0.0625 0.9951 -0.0761
vn 0.4609 0.6872 -0.5616
vn 0.1850 0.9565 -0.2254
vn 0.3002 0.8810 -0.3658
vn 0.7693 0.0975 -0.6314
vn 0.0761 0.9951 -0.0625
vn 0.5616 0.6872 -0.4609
vn 0.2254 0.9565 -0.1850
vn 0.3658 0.8810 -0.3002
vn 0.4918 0.7715 -0.4036
vn 0.5987 0.6326 -0.4913
vn 0.6825 0.4696 -0.5601
vn 0.7400 0.2890 -0.6073
vn 0.6831 0.6326 -0.3651
vn 0.7786 0.4696 -0.4162
vn 0.8443 0.2890 -0.4513
vn 0.8777 0.0975 -0.4691
vn 0.0869 0.9951 -0.0464
vn 0.6407 0.6872 -0.3425
vn 0.2571 0.9565 -0.1374
vn 0.4173 0.8810 -0.2230
vn 0.5611 0.7715 -0.2999
vn 0.6952 0.6872 -0.2109
vn 0.2790 0.9565 -0.0846
vn 0.4528 0.8810 -0.1374
vn 0.6088 0.7715 -0.1847
vn 0.7412 0.6326 -0.2248
vn 0.8448 0.4696 -0.2563
vn 0.9161 0.2890 -0.2779
vn 0.9524 0.0975 -0.2889
vn 0.0943 0.9951 -0.0286
vn 0.8786 0.4696 -0.0865
vn 0.9527 0.2890 -0.0938
vn 0.9904 0.0975 -0.0975
vn 0.0980 0.9951 -0.0097
vn 0.7230 0.6872 -0.0712
vn 0.2902 0.9565 -0.0286
vn 0.4709 0.8810 -0.0464
vn 0.6332 0.7715 -0.0624
vn 0.7708 0.6326 -0.0759
vn 0.2902 0.9565 0.0286
vn 0.4709 0.8810 0.0464
vn 0.6332 0.7715 0.0624
vn 0.7708 0.6326 0.0759
vn 0.8786 0.4696 0.0865
vn 0.9527 0.2890 0.0938
vn 0.9904 0.0976 0.0975
vn 0.0980 0.9951 0.0097
vn 0.7230 0.6872 0.0712
vn 0.8448 0.4696 0.2563
vn 0.9161 0.2890 0.2779
vn 0.9524 0.0975 0.2889
vn 0.0942 0.9951 0.0286
vn 0.6952 0.6872 0.2109
vn 0.2790 0.9565 0.0846
vn 0.4528 0.8810 0.1374
vn 0.6088 0.7715 0.1847
vn 0.7412 0.6326 0.2248
vn 0.4173 0.8810 0.2230
vn 0.5611 0.7715 0.2999
vn 0.6831 0.6326 0.3651
vn 0.7786 0.4696 0.4162
vn 0.8443 0.2890 0.4513
vn 0.8777 0.0975 0.4691
vn 0.0869 0.9951 0.0464
vn 0.6407 0.6872 0.3425
vn 0.2571 0.9566 0.1374
vn 0.7400 0.2890 0.6073
vn 0.7693 0.0975 0.6314
vn 0.0761 0.9951 0.0625
vn 0.5616 0.6872 0.4609
vn 0.2254 0.9565 0.1850
vn 0.3658 0.8810 0.3002
vn 0.4918 0.7715 0.4036
vn 0.5987 0.6326 0.4913
vn 0.6825 0.4696 0.5601
vn 0.3002 0.8810 0.3658
vn 0.4036 0.7715 0.4918
vn 0.4913 0.6326 0.5987
vn 0.5601 0.4696 0.6825
vn 0.6073 0.2890 0.7400
vn 0.6314 0.0975 0.7693
vn 0.0625 0.9951 0.0761
vn 0.4609 0.6872 0.5616
vn 0.1850 0.9565 0.2254
vn 0.4513 0.2890 0.8443
vn 0.4691 0.0975 0.8777
vn 0.0464 0.9951 0.0869
vn 0.3425 0.6872 0.6407
vn 0.1374 0.9565 0.2571
vn 0.2231 0.8810 0.4173
vn 0.2999 0.7715 0.5611
vn 0.3651 0.6326 0.6831
vn 0.4162 0.4696 0.7786
vn 0.1847 0.7715 0.6088
vn 0.2248 0.6326 0.7412
vn 0.2563 0.4696 0.8448
vn 0.2779 0.2890 0.9161
vn 0.2889 0.0975 0.9524
vn 0.0286 0.9951 0.0942
vn 0.2109 0.6872 0.6952
vn 0.0846 0.9565 0.2790
vn 0.1374 0.8810 0.4528
vn 0.0975 0.0975 0.9904
vn 0.0096 0.9951 0.0980
vn 0.0712 0.6872 0.7230
vn 0.0286 0.9565 0.2902
vn 0.0464 0.8810 0.4709
vn 0.0624 0.7715 0.6332
vn 0.0759 0.6326 0.7708
vn 0.0865 0.4696 0.8786
vn 0.0938 0.2890 0.9527
vn -0.0759 0.6326 0.7708
vn -0.0865 0.4696 0.8786
vn -0.0938 0.2890 0.9527
vn -0.0976 0.0975 0.9904
vn -0.0096 0.9951 0.0980
vn -0.0712 0.6872 0.7230
vn -0.0286 0.9565 0.2902
vn -0.0464 0.8810 0.4709
vn -0.0624 0.7715 0.6332
vn -0.0286 0.9951 0.0942
vn -0.2109 0.6872 0.6952
vn -0.0846 0.9565 0.2790
vn -0.1374 0.8810 0.4528
vn -0.1847 0.7715 0.6088
vn -0.2248 0.6326 0.7412
vn -0.2563 0.4696 0.8448
vn -0.2779 0.2890 0.9161
vn -0.2889 0.0975 0.9524
vn -0.3651 0.6326 0.6831
vn -0.4162 0.4696 0.7786
vn -0.4513 0.2890 0.8443
vn -0.4691 0.0975 0.8777
vn -0.0464 0.9951 0.0869
vn -0.3425 0.6872 0.6407
vn -0.1374 0.9565 0.2571
vn -0.2231 0.8810 0.4173
vn -0.2999 0.7715 0.5611
vn -0.4609 0.6872 0.5616
vn -0.1850 0.9565 0.2254
vn -0.3002 0.8810 0.3658
vn -0.4036 0.7715 0.4918
vn -0.4913 0.6326 0.5987
vn -0.5601 0.4696 0.6825
vn -0.6073 0.2890 0.7400
vn -0.6314 0.0975 0.7693
vn -0.0625 0.9951 0.0761
vn -0.6825 0.4696 0.5601
vn -0.7400 0.2890 0.6073
vn -0.7693 0.0975 0.6314
vn -0.0761 0.9951 0.0625
vn -0.5616 0.6872 0.4609
vn -0.2254 0.9565 0.1850
vn -0.3658 0.8810 0.3002
vn -0.4918 0.7715 0.4036
vn -0.5987 0.6326 0.4913
vn -0.2571 0.9565 0.1374
vn -0.4173 0.8810 0.2230
vn -0.5611 0.7715 0.2999
vn -0.6831 0.6326 0.3651
vn -0.7786 0.4696 0.4162
vn -0.8443 0.2890 0.4513
vn -0.8777 0.0975 0.4691
vn -0.0869 0.9951 0.0464
vn -0.6407 0.6872 0.3425
vn -0.8448 0.4696 0.2563
vn -0.9161 0.2890 0.2779
vn -0.9524 0.0975 0.2889
vn -0.0942 0.9951 0.0286
vn -0.6952 0.6872 0.2109
vn -0.2790 0.9565 0.0846
vn -0.4528 0.8810 0.1374
vn -0.6088 0.7715 0.1847
vn -0.7412 0.6326 0.2248
vn -0.4709 0.8810 0.0464
vn -0.6332 0.7715 0.0624
vn -0.7708 0.6326 0.0759
vn -0.8786 0.4696 0.0865
vn -0.9527 0.2890 0.0938
vn -0.9904 0.0975 0.0975
vn -0.0980 0.9951 0.0097
vn -0.7230 0.6872 0.0712
vn -0.2902 0.9565 0.0286
vn -0.9527 0.2890 -0.0938
vn -0.9904 0.0975 -0.0975
vn -0.0980 0.9951 -0.0097
vn -0.7230 0.6872 -0.0712
vn -0.2902 0.9565 -0.0286
vn -0.4709 0.8810 -0.0464
vn -0.6332 0.7715 -0.0624
vn -0.7708 0.6326 -0.0759
vn -0.8786 0.4696 -0.0865
vn -0.6088 0.7715 -0.1847
vn -0.7412 0.6326 -0.2248
vn -0.8448 0.4696 -0.2563
vn -0.9161 0.2890 -0.2779
vn -0.9524 0.0975 -0.2889
vn -0.0942 0.9951 -0.0286
vn -0.6952 0.6872 -0.2109
vn -0.2790 0.9565 -0.0846
vn -0.4528 0.8810 -0.1374
vn -0.8777 0.0975 -0.4691
vn -0.0869 0.9951 -0.0464
vn -0.6407 0.6872 -0.3425
vn -0.2571 0.9565 -0.1374
vn -0.4173 0.8810 -0.2231
vn -0.5611 0.7715 -0.2999
vn -0.6831 0.6326 -0.3651
vn -0.7786 0.4696 -0.4162
vn -0.8443 0.2890 -0.4513
vn -0.4918 0.7715 -0.4036
vn -0.5987 0.6326 -0.4913
vn -0.6825 0.4696 -0.5601
vn -0.7400 0.2890 -0.6073
vn -0.7693 0.0975 -0.6314
vn -0.0761 0.9951 -0.0625
vn -0.5616 0.6872 -0.4609
vn -0.2254 0.9565 -0.1850
vn -0.3658 0.8810 -0.3002
vn -0.6314 0.0975 -0.7693
vn -0.0625 0.9951 -0.0761
vn -0.4609 0.6872 -0.5616
vn -0.1850 0.9565 -0.2254
vn -0.3002 0.8810 -0.3658
vn -0.4036 0.7715 -0.4918
vn -0.4913 0.6326 -0.5987
vn -0.5601 0.4696 -0.6825
vn -0.6073 0.2890 -0.7400
vn 0.7136 0.1426 -0.6859
vn 0.8143 0.0160 -0.5802
vn -0.4513 0.2890 -0.8443
vn -0.4691 0.0975 -0.8777
vn -0.0464 0.9951 -0.0869
vn -0.3425 0.6872 -0.6407
vn -0.1374 0.9565 -0.2571
vn -0.2231 0.8810 -0.4173
vn 0.2368 0.6077 -0.7580
vn -0.0286 0.9951 -0.0942
vn -0.2109 0.6872 -0.6952
vn -0.0846 0.9565 -0.2790
vn -0.1374 0.8810 -0.4528
vn -0.0288 0.2936 -0.9555
vn -0.0774 -0.0281 -0.9966
vn -0.0543 0.0238 -0.9982
vn -0.1247 0.9030 -0.4112
vn -0.2889 0.0975 -0.9524
vn -0.0474 0.0085 -0.9988
vn -0.0326 0.0006 -0.9995
vn -0.0400 0.9129 -0.4063
vn -0.0976 0.0975 -0.9904
vn -0.0096 0.9951 -0.0980
vn -0.0712 0.6872 -0.7230
vn -0.0286 0.9565 -0.2902
vn -0.0464 0.8810 -0.4709
vn -0.0109 0.0736 -0.9972
vn 0.0109 0.0417 -0.9991
vn 0.0474 -0.0132 -0.9988
vn 0.0136 0.9088 -0.4170
vn 0.0980 -0.0025 -0.9952
vn 0.2876 0.1358 -0.9481
vn 0.0301 0.0058 -0.9995
vn 0.0774 0.0053 -0.9970
vn 0.0250 0.8883 -0.4586
vn 0.2230 0.8810 -0.4173
vn 0.4252 0.4316 -0.7956
vn -0.2952 -0.1424 -0.9448
vn -0.7142 -0.1373 -0.6864
vn -0.5686 0.7160 -0.4051
vn 0.9904 0.0975 -0.0976
vn 0.9904 0.0975 0.0975
vn 0.9524 0.0976 0.2889
vn 0.4173 0.8810 0.2231
vn 0.2571 0.9565 0.1374
vn 0.2254 0.9566 0.1850
vn 0.2230 0.8810 0.4173
vn 0.1373 0.8810 0.4528
vn 0.0976 0.0976 0.9904
vn -0.0976 0.0976 0.9904
vn -0.1373 0.8810 0.4528
vn -0.4692 0.0975 0.8777
vn -0.6314 0.0976 0.7693
vn -0.2254 0.9566 0.1850
vn -0.9904 0.0975 0.0976
vn -0.9904 0.0975 -0.0976
vn -0.8777 0.0975 -0.4692
vn -0.2572 0.9565 -0.1374
vn 0.2952 -0.1424 -0.9448
vn 0.7142 -0.1373 -0.6864
vn 0.5686 0.7160 -0.4051
vn -0.2230 0.8810 -0.4173
vn -0.4252 0.4316 -0.7956
vn -0.2876 0.1358 -0.9481
vn -0.0301 0.0058 -0.9995
vn -0.0774 0.0053 -0.9970
vn -0.0250 0.8883 -0.4586
vn -0.0109 0.0417 -0.9991
vn -0.0474 -0.0132 -0.9988
vn -0.0136 0.9088 -0.4170
vn -0.0980 -0.0025 -0.9952
vn -0.7071 0.6926 0.1425
vn -0.7071 -0.6926 -0.1425
vn 0.7071 -0.6926 -0.1425
vn 0.7071 0.6926 0.1425
vn -0.0000 -0.2016 0.9795
vn -0.0000 0.2016 -0.9795
vn -0.0804 0.1215 -0.9893
vn 0.0804 0.2790 -0.9569
vn 0.0804 0.1215 -0.9893
vn -0.0804 0.2790 -0.9569
vn 0.0980 0.9748 0.2006
vn 0.2903 0.9373 0.1929
vn 0.4714 0.8638 0.1778
vn 0.6344 0.7571 0.1558
vn 0.7730 0.6214 0.1279
vn 0.8819 0.4617 0.0950
vn 0.9569 0.2843 0.0585
vn 0.9952 0.0960 0.0198
vn 0.9952 -0.0960 -0.0198
vn 0.9569 -0.2843 -0.0585
vn 0.8819 -0.4617 -0.0950
vn 0.7730 -0.6214 -0.1279
vn 0.6344 -0.7571 -0.1558
vn 0.4714 -0.8638 -0.1778
vn 0.2903 -0.9373 -0.1929
vn 0.0980 -0.9748 -0.2006
vn -0.0981 -0.9748 -0.2006
vn -0.2903 -0.9373 -0.1929
vn -0.4714 -0.8638 -0.1778
vn -0.6344 -0.7571 -0.1558
vn -0.7730 -0.6214 -0.1279
vn -0.8819 -0.4617 -0.0950
vn -0.9569 -0.2843 -0.0585
vn -0.9952 -0.0960 -0.0198
vn -0.9952 0.0960 0.0198
vn -0.9569 0.2843 0.0585
vn -0.8819 0.4617 0.0950
vn -0.7730 0.6214 0.1279
vn -0.6344 0.7571 0.1558
vn -0.4714 0.8638 0.1778
vn -0.2903 0.9373 0.1929
vn -0.0980 0.9748 0.2006
vn 0.0981 0.9747 0.2006
vn 0.6344 0.7572 0.1558
vn 0.4713 -0.8639 -0.1778
vn 0.2904 -0.9373 -0.1929
vn -0.0980 -0.9748 -0.2006
vn -0.2904 -0.9373 -0.1929
vn -0.6344 0.7572 0.1558
vn -0.0000 -0.2015 0.9795
vn -0.0000 -0.2017 0.9795
vn -0.0001 -0.2014 0.9795
vn 0.0001 -0.2017 0.9795
vn -0.0001 -0.2016 0.9795
vn -0.0003 -0.2016 0.9795
vn -0.0001 -0.2017 0.9795
vn 0.0001 -0.2015 0.9795
vn -0.0000 -0.2014 0.9795
vn -0.0001 -0.2015 0.9795
vn 0.0001 -0.2016 0.9795
vn 0.0001 -0.2014 0.9795
vn -0.2904 0.9373 0.1929
vn -0.0000 0.2017 -0.9795
vn -0.0000 0.2015 -0.9795
vn 0.0002 0.2019 -0.9794
vn 0.0001 0.2016 -0.9795
vn -0.0003 0.2016 -0.9795
vn 0.0002 0.2016 -0.9795
vn -0.0000 0.2017 -0.9794
vn -0.0000 0.2018 -0.9794
vn 0.0001 0.2017 -0.9795
vn 0.0002 0.2018 -0.9794
vn -0.0001 0.2016 -0.9795
vn -0.0002 0.2018 -0.9794
vt 0.058642 0.129978
vt 0.050590 0.134005
vt 0.050590 0.129978
vt 0.058642 0.138031
vt 0.050590 0.142057
vt 0.050590 0.138031
vt 0.058642 0.146083
vt 0.050590 0.150109
vt 0.050590 0.146083
vt 0.058642 0.154135
vt 0.050590 0.158161
vt 0.050590 0.154135
vt 0.046564 0.146083
vt 0.046564 0.150109
vt 0.062668 0.146083
vt 0.066695 0.150109
vt 0.062668 0.150109
vt 0.058642 0.150109
vt 0.042538 0.150109
vt 0.042538 0.146083
vt 0.058642 0.134005
vt 0.042538 0.142057
vt 0.058642 0.142057
vt 0.066695 0.142057
vt 0.062668 0.142057
vt 0.046564 0.142057
vt 0.058642 0.125952
vt 0.050590 0.125952
vt 0.058642 0.158161
vt 0.066695 0.146083
vt 0.845948 0.105874
vt 0.820500 0.175495
vt 0.820500 0.105874
vt 0.845948 0.245116
vt 0.820500 0.314737
vt 0.820500 0.245116
vt 0.845948 0.384358
vt 0.820500 0.453979
vt 0.820500 0.384358
vt 0.845948 0.523600
vt 0.820500 0.593221
vt 0.820500 0.523600
vt 0.637085 0.384358
vt 0.706706 0.453979
vt 0.637085 0.453979
vt 0.915569 0.384358
vt 0.985190 0.453979
vt 0.915569 0.453979
vt 0.845948 0.453979
vt 0.567464 0.453979
vt 0.567464 0.384358
vt 0.567464 0.314737
vt 0.845948 0.314737
vt 0.985190 0.314737
vt 0.915569 0.314737
vt 0.706706 0.314737
vt 0.637085 0.314737
vt 0.820500 0.036253
vt 0.706706 0.036253
vt 0.736955 0.105874
vt 0.706706 0.105874
vt 0.736955 0.036253
vt 0.764804 0.105874
vt 0.764804 0.036253
vt 0.792652 0.105874
vt 0.792652 0.036253
vt 0.736955 0.384358
vt 0.706706 0.384358
vt 0.736955 0.314737
vt 0.764804 0.384358
vt 0.764804 0.314737
vt 0.792652 0.384358
vt 0.792652 0.314737
vt 0.706706 0.175495
vt 0.736955 0.245116
vt 0.706706 0.245116
vt 0.736955 0.175495
vt 0.764804 0.245116
vt 0.764804 0.175495
vt 0.792652 0.245116
vt 0.792652 0.175495
vt 0.736955 0.523600
vt 0.706706 0.523600
vt 0.736955 0.453979
vt 0.764804 0.523600
vt 0.764804 0.453979
vt 0.792652 0.523600
vt 0.792652 0.453979
vt 0.706706 0.593221
vt 0.736955 0.593221
vt 0.764804 0.593221
vt 0.792652 0.593221
vt 0.845948 0.175495
vt 0.845948 0.593221
vt 0.985190 0.384358
vt 0.845948 0.036253
vt 0.554942 0.133095
vt 0.556955 0.134102
vt 0.554942 0.134102
vt 0.552929 0.133095
vt 0.552929 0.134102
vt 0.550916 0.134102
vt 0.550916 0.133095
vt 0.548903 0.134102
vt 0.548903 0.133095
vt 0.562994 0.133095
vt 0.565007 0.133598
vt 0.562994 0.134102
vt 0.546890 0.134102
vt 0.546890 0.133095
vt 0.560981 0.133095
vt 0.560981 0.134102
vt 0.558968 0.133095
vt 0.558968 0.134102
vt 0.556955 0.133095
vt 0.558968 0.135108
vt 0.556955 0.135108
vt 0.554942 0.135108
vt 0.552929 0.135108
vt 0.550916 0.135108
vt 0.548903 0.135108
vt 0.565007 0.134605
vt 0.562994 0.135108
vt 0.546890 0.135108
vt 0.560981 0.135108
vt 0.550916 0.136115
vt 0.548903 0.136115
vt 0.565007 0.135611
vt 0.562994 0.136115
vt 0.546890 0.136115
vt 0.560981 0.136115
vt 0.558968 0.136115
vt 0.556955 0.136115
vt 0.554942 0.136115
vt 0.552929 0.136115
vt 0.556955 0.137121
vt 0.554942 0.137121
vt 0.552929 0.137121
vt 0.550916 0.137121
vt 0.548903 0.137121
vt 0.565007 0.136618
vt 0.562994 0.137121
vt 0.546890 0.137121
vt 0.560981 0.137121
vt 0.558968 0.137121
vt 0.550916 0.138128
vt 0.548903 0.138128
vt 0.565007 0.137624
vt 0.562994 0.138128
vt 0.546890 0.138128
vt 0.560981 0.138128
vt 0.558968 0.138128
vt 0.556955 0.138128
vt 0.554942 0.138128
vt 0.552929 0.138128
vt 0.556955 0.139134
vt 0.554942 0.139134
vt 0.552929 0.139134
vt 0.550916 0.139134
vt 0.548903 0.139134
vt 0.565007 0.138631
vt 0.562994 0.139134
vt 0.546890 0.139134
vt 0.560981 0.139134
vt 0.558968 0.139134
vt 0.546890 0.140141
vt 0.560981 0.140141
vt 0.558968 0.140141
vt 0.556955 0.140141
vt 0.554942 0.140141
vt 0.552929 0.140141
vt 0.550916 0.140141
vt 0.548903 0.140141
vt 0.565007 0.139637
vt 0.562994 0.140141
vt 0.552929 0.141147
vt 0.550916 0.141147
vt 0.548903 0.141147
vt 0.565007 0.140644
vt 0.562994 0.141147
vt 0.546890 0.141147
vt 0.560981 0.141147
vt 0.558968 0.141147
vt 0.556955 0.141147
vt 0.554942 0.141147
vt 0.560981 0.142154
vt 0.558968 0.142154
vt 0.556955 0.142154
vt 0.554942 0.142154
vt 0.552929 0.142154
vt 0.550916 0.142154
vt 0.548903 0.142154
vt 0.565007 0.141651
vt 0.562994 0.142154
vt 0.546890 0.142154
vt 0.552929 0.143160
vt 0.550916 0.143160
vt 0.548903 0.143160
vt 0.565007 0.142657
vt 0.562994 0.143160
vt 0.546890 0.143160
vt 0.560981 0.143160
vt 0.558968 0.143160
vt 0.556955 0.143160
vt 0.554942 0.143160
vt 0.560981 0.144167
vt 0.558968 0.144167
vt 0.556955 0.144167
vt 0.554942 0.144167
vt 0.552929 0.144167
vt 0.550916 0.144167
vt 0.548903 0.144167
vt 0.565007 0.143664
vt 0.562994 0.144167
vt 0.546890 0.144167
vt 0.552929 0.145173
vt 0.550916 0.145173
vt 0.548903 0.145173
vt 0.565007 0.144670
vt 0.562994 0.145173
vt 0.546890 0.145173
vt 0.560981 0.145173
vt 0.558968 0.145173
vt 0.556955 0.145173
vt 0.554942 0.145173
vt 0.560981 0.146180
vt 0.558968 0.146180
vt 0.556955 0.146180
vt 0.554942 0.146180
vt 0.552929 0.146180
vt 0.550916 0.146180
vt 0.548903 0.146180
vt 0.565007 0.145677
vt 0.562994 0.146180
vt 0.546890 0.146180
vt 0.552929 0.147186
vt 0.550916 0.147186
vt 0.548903 0.147186
vt 0.565007 0.146683
vt 0.562994 0.147186
vt 0.546890 0.147186
vt 0.560981 0.147186
vt 0.558968 0.147186
vt 0.556955 0.147186
vt 0.554942 0.147186
vt 0.556955 0.148193
vt 0.554942 0.148193
vt 0.552929 0.148193
vt 0.550916 0.148193
vt 0.548903 0.148193
vt 0.565007 0.147690
vt 0.562994 0.148193
vt 0.546890 0.148193
vt 0.560981 0.148193
vt 0.558968 0.148193
vt 0.550916 0.149200
vt 0.548903 0.149200
vt 0.565007 0.148696
vt 0.562994 0.149200
vt 0.546890 0.149200
vt 0.560981 0.149200
vt 0.558968 0.149200
vt 0.556955 0.149200
vt 0.554942 0.149200
vt 0.552929 0.149200
vt 0.556955 0.150206
vt 0.554942 0.150206
vt 0.552929 0.150206
vt 0.550916 0.150206
vt 0.548903 0.150206
vt 0.565007 0.149703
vt 0.562994 0.150206
vt 0.546890 0.150206
vt 0.560981 0.150206
vt 0.558968 0.150206
vt 0.565007 0.150709
vt 0.562994 0.151213
vt 0.546890 0.151213
vt 0.560981 0.151213
vt 0.558968 0.151213
vt 0.556955 0.151213
vt 0.554942 0.151213
vt 0.552929 0.151213
vt 0.550916 0.151213
vt 0.548903 0.151213
vt 0.556955 0.152219
vt 0.554942 0.152219
vt 0.552929 0.152219
vt 0.550916 0.152219
vt 0.548903 0.152219
vt 0.565007 0.151716
vt 0.562994 0.152219
vt 0.546890 0.152219
vt 0.560981 0.152219
vt 0.558968 0.152219
vt 0.546890 0.153226
vt 0.560981 0.153226
vt 0.558968 0.153226
vt 0.556955 0.153226
vt 0.554942 0.153226
vt 0.552929 0.153226
vt 0.550916 0.153226
vt 0.548903 0.153226
vt 0.565007 0.152722
vt 0.562994 0.153226
vt 0.552929 0.154232
vt 0.550916 0.154232
vt 0.548903 0.154232
vt 0.565007 0.153729
vt 0.562994 0.154232
vt 0.546890 0.154232
vt 0.560981 0.154232
vt 0.558968 0.154232
vt 0.556955 0.154232
vt 0.554942 0.154232
vt 0.560981 0.155239
vt 0.558968 0.155239
vt 0.556955 0.155239
vt 0.554942 0.155239
vt 0.552929 0.155239
vt 0.550916 0.155239
vt 0.548903 0.155239
vt 0.565007 0.154735
vt 0.562994 0.155239
vt 0.546890 0.155239
vt 0.552929 0.156245
vt 0.550916 0.156245
vt 0.548903 0.156245
vt 0.565007 0.155742
vt 0.562994 0.156245
vt 0.546890 0.156245
vt 0.560981 0.156245
vt 0.558968 0.156245
vt 0.556955 0.156245
vt 0.554942 0.156245
vt 0.560981 0.157252
vt 0.558968 0.157252
vt 0.556955 0.157252
vt 0.554942 0.157252
vt 0.552929 0.157252
vt 0.550916 0.157252
vt 0.548903 0.157252
vt 0.565007 0.156749
vt 0.562994 0.157252
vt 0.546890 0.157252
vt 0.550916 0.125043
vt 0.552929 0.126049
vt 0.550916 0.126049
vt 0.548903 0.125043
vt 0.548903 0.126049
vt 0.562994 0.125043
vt 0.565007 0.125546
vt 0.562994 0.126049
vt 0.546890 0.126049
vt 0.546890 0.125043
vt 0.560981 0.125043
vt 0.560981 0.126049
vt 0.558968 0.125043
vt 0.558968 0.126049
vt 0.556955 0.126049
vt 0.556955 0.125043
vt 0.554942 0.125043
vt 0.554942 0.126049
vt 0.552929 0.125043
vt 0.556955 0.127056
vt 0.554942 0.127056
vt 0.552929 0.127056
vt 0.550916 0.127056
vt 0.548903 0.127056
vt 0.565007 0.126552
vt 0.562994 0.127056
vt 0.546890 0.127056
vt 0.560981 0.127056
vt 0.558968 0.127056
vt 0.550916 0.128062
vt 0.548903 0.128062
vt 0.565007 0.127559
vt 0.562994 0.128062
vt 0.546890 0.128062
vt 0.560981 0.128062
vt 0.558968 0.128062
vt 0.556955 0.128062
vt 0.554942 0.128062
vt 0.552929 0.128062
vt 0.556955 0.129069
vt 0.554942 0.129069
vt 0.552929 0.129069
vt 0.550916 0.129069
vt 0.548903 0.129069
vt 0.565007 0.128566
vt 0.562994 0.129069
vt 0.546890 0.129069
vt 0.560981 0.129069
vt 0.558968 0.129069
vt 0.550916 0.130075
vt 0.548903 0.130075
vt 0.565007 0.129572
vt 0.562994 0.130075
vt 0.546890 0.130075
vt 0.560981 0.130075
vt 0.558968 0.130075
vt 0.556955 0.130075
vt 0.554942 0.130075
vt 0.552929 0.130075
vt 0.554942 0.131082
vt 0.552929 0.131082
vt 0.550916 0.131082
vt 0.548903 0.131082
vt 0.565007 0.130579
vt 0.562994 0.131082
vt 0.546890 0.131082
vt 0.560981 0.131082
vt 0.558968 0.131082
vt 0.556955 0.131082
vt 0.565007 0.131585
vt 0.562994 0.132088
vt 0.546890 0.132088
vt 0.560981 0.132088
vt 0.558968 0.132088
vt 0.556955 0.132088
vt 0.554942 0.132088
vt 0.552929 0.132088
vt 0.550916 0.132088
vt 0.548903 0.132088
vt 0.565007 0.132592
vt 0.087841 0.012479
vt 0.095893 0.020531
vt 0.087841 0.020531
vt 0.095893 0.012479
vt 0.103946 0.020531
vt 0.111998 0.012479
vt 0.111998 0.020531
vt 0.120050 0.020531
vt 0.111998 0.028583
vt 0.103946 0.028583
vt 0.103946 0.004427
vt 0.103946 0.012479
vt 0.369208 0.301078
vt 0.398262 0.004874
vt 0.398262 0.301078
vt 0.005246 0.398262
vt 0.034300 0.102057
vt 0.034300 0.398262
vt 0.128718 0.017335
vt 0.136770 0.025388
vt 0.128718 0.025388
vt 0.128718 0.033440
vt 0.136770 0.041492
vt 0.128718 0.041492
vt 0.128718 0.049545
vt 0.120666 0.041492
vt 0.120666 0.033440
vt 0.144823 0.033440
vt 0.136770 0.033440
vt 0.940755 0.995994
vt 0.028254 0.034996
vt 0.965003 0.971746
vt 0.995995 0.940755
vt 0.034996 0.028253
vt 0.059245 0.004005
vt 0.120050 0.012479
vt 0.111998 0.004427
vt 0.369208 0.004874
vt 0.005246 0.102057
vt 0.136770 0.017335
vt 0.136770 0.049545
vt 0.144823 0.041492
vt 0.004005 0.059245
vt 0.971746 0.965003
vt 0.066880 0.166829
vt 0.067887 0.182934
vt 0.066880 0.182934
vt 0.068893 0.166829
vt 0.068893 0.182934
vt 0.069900 0.182934
vt 0.070906 0.166829
vt 0.070906 0.182934
vt 0.071913 0.182934
vt 0.072919 0.166829
vt 0.072919 0.182934
vt 0.073926 0.166829
vt 0.073926 0.182934
vt 0.074932 0.166829
vt 0.074932 0.182934
vt 0.075939 0.182934
vt 0.075939 0.166829
vt 0.076945 0.182934
vt 0.077952 0.166829
vt 0.077952 0.182934
vt 0.078958 0.166829
vt 0.078958 0.182934
vt 0.079965 0.166829
vt 0.079965 0.182934
vt 0.080971 0.166829
vt 0.080971 0.182934
vt 0.081978 0.182934
vt 0.081978 0.166829
vt 0.082985 0.182934
vt 0.083991 0.166829
vt 0.083991 0.182934
vt 0.084998 0.182934
vt 0.086004 0.166829
vt 0.086004 0.182934
vt 0.087011 0.182934
vt 0.087011 0.166829
vt 0.088017 0.182934
vt 0.088017 0.166829
vt 0.089024 0.182934
vt 0.089024 0.166829
vt 0.090030 0.182934
vt 0.090030 0.166829
vt 0.091037 0.182934
vt 0.091037 0.166829
vt 0.092043 0.182934
vt 0.093050 0.166829
vt 0.093050 0.182934
vt 0.094056 0.182934
vt 0.094056 0.166829
vt 0.095063 0.182934
vt 0.095063 0.166829
vt 0.096070 0.182934
vt 0.096070 0.166829
vt 0.097076 0.182934
vt 0.006451 0.018818
vt 0.005871 0.012930
vt 0.015512 0.007776
vt 0.097076 0.166829
vt 0.098083 0.182934
vt 0.099089 0.166829
vt 0.099089 0.182934
vt 0.168423 0.100757
vt 0.178885 0.103930
vt 0.182058 0.093469
vt 0.067887 0.166829
vt 0.069900 0.166829
vt 0.071913 0.166829
vt 0.076945 0.166829
vt 0.082985 0.166829
vt 0.084998 0.166829
vt 0.092043 0.166829
vt 0.016912 0.008356
vt 0.018172 0.009198
vt 0.019244 0.010270
vt 0.020086 0.011530
vt 0.020666 0.012930
vt 0.020961 0.014416
vt 0.020961 0.015931
vt 0.020666 0.017418
vt 0.020086 0.018818
vt 0.016912 0.021991
vt 0.019244 0.020078
vt 0.018172 0.021149
vt 0.015512 0.022571
vt 0.014026 0.022867
vt 0.012510 0.022867
vt 0.011024 0.022571
vt 0.009624 0.021991
vt 0.008364 0.021149
vt 0.007293 0.020078
vt 0.005871 0.017418
vt 0.005575 0.015931
vt 0.005575 0.014416
vt 0.006451 0.011530
vt 0.009624 0.008356
vt 0.007293 0.010270
vt 0.008364 0.009198
vt 0.011024 0.007776
vt 0.012511 0.007481
vt 0.014026 0.007481
vt 0.098083 0.166829
vt 0.169265 0.102017
vt 0.170337 0.103088
vt 0.171597 0.103930
vt 0.172997 0.104510
vt 0.174483 0.104806
vt 0.175998 0.104806
vt 0.177485 0.104510
vt 0.180145 0.103088
vt 0.181216 0.102017
vt 0.182058 0.100757
vt 0.182638 0.099357
vt 0.182934 0.097871
vt 0.182934 0.096355
vt 0.182638 0.094869
vt 0.181216 0.092209
vt 0.180145 0.091137
vt 0.178885 0.090295
vt 0.177485 0.089715
vt 0.175998 0.089420
vt 0.171597 0.090295
vt 0.174483 0.089420
vt 0.172997 0.089715
vt 0.170337 0.091137
vt 0.169265 0.092209
vt 0.168423 0.093469
vt 0.167843 0.094869
vt 0.167548 0.096355
vt 0.167548 0.097870
vt 0.167843 0.099357
s 0
usemtl マテリアル.008
f 14/1/1 3/2/1 13/3/1
f 10/4/2 7/5/2 9/6/2
f 16/7/3 5/8/3 15/9/3
f 12/10/4 1/11/4 11/12/4
f 18/13/5 5/8/5 11/14/5
f 17/15/6 2/16/6 12/17/6
f 17/15/6 6/18/6 16/7/6
f 18/13/5 1/19/5 13/20/5
f 6/18/7 11/12/7 5/8/7
f 4/21/8 9/6/8 3/2/8
f 3/22/5 18/13/5 13/20/5
f 8/23/6 17/15/6 16/7/6
f 4/24/6 17/15/6 10/25/6
f 7/5/5 18/13/5 9/26/5
f 8/23/9 15/9/9 7/5/9
f 2/27/10 13/3/10 1/28/10
f 14/1/1 4/21/1 3/2/1
f 10/4/2 8/23/2 7/5/2
f 16/7/3 6/18/3 5/8/3
f 12/10/4 2/29/4 1/11/4
f 18/13/5 15/9/5 5/8/5
f 17/15/6 14/30/6 2/16/6
f 17/15/6 12/17/6 6/18/6
f 18/13/5 11/14/5 1/19/5
f 6/18/7 12/10/7 11/12/7
f 4/21/8 10/4/8 9/6/8
f 3/22/5 9/26/5 18/13/5
f 8/23/6 10/25/6 17/15/6
f 4/24/6 14/30/6 17/15/6
f 7/5/5 15/9/5 18/13/5
f 8/23/9 16/7/9 15/9/9
f 2/27/10 14/1/10 13/3/10
f 32/31/11 41/32/11 65/33/11
f 28/34/12 45/35/12 57/36/12
f 34/37/13 49/38/13 61/39/13
f 30/40/14 40/41/14 53/42/14
f 36/43/5 23/44/5 29/45/5
f 35/46/6 20/47/6 30/48/6
f 35/46/6 24/49/6 34/37/6
f 36/43/5 19/50/5 31/51/5
f 49/38/15 30/40/15 53/42/15
f 41/32/16 28/34/16 57/36/16
f 21/52/5 36/43/5 31/51/5
f 26/53/6 35/46/6 34/37/6
f 22/54/6 35/46/6 28/55/6
f 25/56/5 36/43/5 27/57/5
f 45/35/17 34/37/17 61/39/17
f 40/58/18 32/31/18 65/33/18
f 19/59/19 68/60/19 31/61/19
f 37/62/20 67/63/20 68/60/20
f 38/64/21 66/65/21 67/63/21
f 39/66/22 65/33/22 66/65/22
f 25/56/23 64/67/23 33/68/23
f 48/69/24 63/70/24 64/67/24
f 47/71/25 62/72/25 63/70/25
f 46/73/26 61/39/26 62/72/26
f 21/74/27 60/75/27 27/76/27
f 44/77/28 59/78/28 60/75/28
f 43/79/29 58/80/29 59/78/29
f 42/81/30 57/36/30 58/80/30
f 23/44/31 56/82/31 29/83/31
f 52/84/32 55/85/32 56/82/32
f 51/86/33 54/87/33 55/85/33
f 50/88/34 53/42/34 54/87/34
f 56/82/35 19/89/35 29/83/35
f 55/85/36 37/90/36 56/82/36
f 54/87/37 38/91/37 55/85/37
f 53/42/38 39/92/38 54/87/38
f 64/67/39 23/44/39 33/68/39
f 63/70/40 52/84/40 64/67/40
f 62/72/41 51/86/41 63/70/41
f 61/39/42 50/88/42 62/72/42
f 60/75/43 25/56/43 27/76/43
f 59/78/44 48/69/44 60/75/44
f 58/80/45 47/71/45 59/78/45
f 57/36/46 46/73/46 58/80/46
f 68/60/47 21/74/47 31/61/47
f 67/63/48 44/77/48 68/60/48
f 66/65/49 43/79/49 67/63/49
f 65/33/50 42/81/50 66/65/50
f 32/31/11 22/93/11 41/32/11
f 28/34/12 26/53/12 45/35/12
f 34/37/13 24/49/13 49/38/13
f 30/40/14 20/94/14 40/41/14
f 36/43/5 33/68/5 23/44/5
f 35/46/6 32/95/6 20/47/6
f 35/46/6 30/48/6 24/49/6
f 36/43/5 29/45/5 19/50/5
f 49/38/15 24/49/15 30/40/15
f 41/32/16 22/93/16 28/34/16
f 21/52/5 27/57/5 36/43/5
f 26/53/6 28/55/6 35/46/6
f 22/54/6 32/95/6 35/46/6
f 25/56/5 33/68/5 36/43/5
f 45/35/17 26/53/17 34/37/17
f 40/58/18 20/96/18 32/31/18
f 19/59/19 37/62/19 68/60/19
f 37/62/20 38/64/20 67/63/20
f 38/64/21 39/66/21 66/65/21
f 39/66/22 40/58/22 65/33/22
f 25/56/23 48/69/23 64/67/23
f 48/69/24 47/71/24 63/70/24
f 47/71/25 46/73/25 62/72/25
f 46/73/26 45/35/26 61/39/26
f 21/74/27 44/77/27 60/75/27
f 44/77/28 43/79/28 59/78/28
f 43/79/29 42/81/29 58/80/29
f 42/81/30 41/32/30 57/36/30
f 23/44/31 52/84/31 56/82/31
f 52/84/32 51/86/32 55/85/32
f 51/86/33 50/88/33 54/87/33
f 50/88/34 49/38/34 53/42/34
f 56/82/35 37/90/35 19/89/35
f 55/85/36 38/91/36 37/90/36
f 54/87/37 39/92/37 38/91/37
f 53/42/38 40/41/38 39/92/38
f 64/67/39 52/84/39 23/44/39
f 63/70/40 51/86/40 52/84/40
f 62/72/41 50/88/41 51/86/41
f 61/39/42 49/38/42 50/88/42
f 60/75/43 48/69/43 25/56/43
f 59/78/44 47/71/44 48/69/44
f 58/80/45 46/73/45 47/71/45
f 57/36/46 45/35/46 46/73/46
f 68/60/47 44/77/47 21/74/47
f 67/63/48 43/79/48 44/77/48
f 66/65/49 42/81/49 43/79/49
f 65/33/50 41/32/50 42/81/50
f 70/97/51 77/98/51 78/99/51
f 357/100/52 78/99/52 79/101/52
f 357/100/53 80/102/53 71/103/53
f 71/103/54 81/104/54 72/105/54
f 354/106/55 119/107/55 74/108/55
f 72/105/56 82/109/56 73/110/56
f 355/111/57 74/108/57 75/112/57
f 69/113/58 75/112/58 76/114/58
f 356/115/59 76/114/59 77/98/59
f 77/98/60 85/116/60 86/117/60
f 78/99/61 86/117/61 87/118/61
f 79/101/62 87/118/62 88/119/62
f 79/101/63 89/120/63 80/102/63
f 80/102/64 90/121/64 81/104/64
f 74/108/65 119/122/65 83/123/65
f 81/104/66 91/124/66 82/109/66
f 75/112/67 83/123/67 84/125/67
f 75/112/68 85/116/68 76/114/68
f 90/121/69 98/126/69 99/127/69
f 83/123/70 119/128/70 92/129/70
f 90/121/71 100/130/71 91/124/71
f 83/123/72 93/131/72 84/125/72
f 85/116/73 93/131/73 94/132/73
f 86/117/74 94/132/74 95/133/74
f 87/118/75 95/133/75 96/134/75
f 88/119/76 96/134/76 97/135/76
f 89/120/77 97/135/77 98/126/77
f 94/132/78 104/136/78 95/133/78
f 95/133/79 105/137/79 96/134/79
f 96/134/80 106/138/80 97/135/80
f 98/126/81 106/138/81 107/139/81
f 99/127/82 107/139/82 108/140/82
f 92/129/83 119/141/83 101/142/83
f 99/127/84 109/143/84 100/130/84
f 92/129/85 102/144/85 93/131/85
f 93/131/86 103/145/86 94/132/86
f 108/140/87 116/146/87 117/147/87
f 101/142/88 119/148/88 110/149/88
f 108/140/89 118/150/89 109/143/89
f 102/144/90 110/149/90 111/151/90
f 103/145/91 111/151/91 112/152/91
f 103/145/92 113/153/92 104/136/92
f 105/137/93 113/153/93 114/154/93
f 105/137/94 115/155/94 106/138/94
f 107/139/95 115/155/95 116/146/95
f 114/154/96 123/156/96 124/157/96
f 114/154/97 125/158/97 115/155/97
f 116/146/98 125/158/98 126/159/98
f 117/147/99 126/159/99 127/160/99
f 110/149/100 119/161/100 120/162/100
f 117/147/101 128/163/101 118/150/101
f 110/149/102 121/164/102 111/151/102
f 112/152/103 121/164/103 122/165/103
f 112/152/104 123/156/104 113/153/104
f 127/160/105 137/166/105 128/163/105
f 120/162/106 130/167/106 121/164/106
f 121/164/107 131/168/107 122/165/107
f 122/165/108 132/169/108 123/156/108
f 124/157/109 132/169/109 133/170/109
f 124/157/110 134/171/110 125/158/110
f 126/159/111 134/171/111 135/172/111
f 127/160/112 135/172/112 136/173/112
f 120/162/113 119/174/113 129/175/113
f 133/170/114 143/176/114 134/171/114
f 135/172/115 143/176/115 144/177/115
f 136/173/116 144/177/116 145/178/116
f 129/175/117 119/179/117 138/180/117
f 136/173/118 146/181/118 137/166/118
f 130/167/119 138/180/119 139/182/119
f 131/168/120 139/182/120 140/183/120
f 131/168/121 141/184/121 132/169/121
f 133/170/122 141/184/122 142/185/122
f 138/180/123 148/186/123 139/182/123
f 139/182/124 149/187/124 140/183/124
f 140/183/125 150/188/125 141/184/125
f 142/185/126 150/188/126 151/189/126
f 142/185/127 152/190/127 143/176/127
f 144/177/128 152/190/128 153/191/128
f 145/178/129 153/191/129 154/192/129
f 138/180/130 119/193/130 147/194/130
f 145/178/131 155/195/131 146/181/131
f 151/189/132 161/196/132 152/190/132
f 153/191/133 161/196/133 162/197/133
f 154/192/134 162/197/134 163/198/134
f 147/194/135 119/199/135 156/200/135
f 154/192/136 164/201/136 155/195/136
f 147/194/137 157/202/137 148/186/137
f 148/186/138 158/203/138 149/187/138
f 149/187/139 159/204/139 150/188/139
f 151/189/140 159/204/140 160/205/140
f 158/203/141 166/206/141 167/207/141
f 158/203/142 168/208/142 159/204/142
f 160/205/143 168/208/143 169/209/143
f 160/205/144 170/210/144 161/196/144
f 162/197/145 170/210/145 171/211/145
f 163/198/146 171/211/146 172/212/146
f 156/200/147 119/213/147 165/214/147
f 163/198/148 173/215/148 164/201/148
f 156/200/149 166/206/149 157/202/149
f 171/211/150 179/216/150 180/217/150
f 172/212/151 180/217/151 181/218/151
f 165/214/152 119/219/152 174/220/152
f 172/212/153 182/221/153 173/215/153
f 165/214/154 175/222/154 166/206/154
f 166/206/155 176/223/155 167/207/155
f 167/207/156 177/224/156 168/208/156
f 169/209/157 177/224/157 178/225/157
f 169/209/158 179/216/158 170/210/158
f 176/223/159 184/226/159 185/227/159
f 176/223/160 186/228/160 177/224/160
f 178/225/161 186/228/161 187/229/161
f 178/225/162 188/230/162 179/216/162
f 180/217/163 188/230/163 189/231/163
f 181/218/164 189/231/164 190/232/164
f 174/220/165 119/233/165 183/234/165
f 181/218/166 191/235/166 182/221/166
f 175/222/167 183/234/167 184/226/167
f 189/231/168 197/236/168 198/237/168
f 190/232/169 198/237/169 199/238/169
f 183/234/170 119/239/170 192/240/170
f 190/232/171 200/241/171 191/235/171
f 183/234/172 193/242/172 184/226/172
f 184/226/173 194/243/173 185/227/173
f 185/227/174 195/244/174 186/228/174
f 187/229/175 195/244/175 196/245/175
f 187/229/176 197/236/176 188/230/176
f 194/243/177 204/246/177 195/244/177
f 196/245/178 204/246/178 205/247/178
f 196/245/179 206/248/179 197/236/179
f 198/237/180 206/248/180 207/249/180
f 199/238/181 207/249/181 208/250/181
f 192/240/182 119/251/182 201/252/182
f 199/238/183 209/253/183 200/241/183
f 192/240/184 202/254/184 193/242/184
f 193/242/185 203/255/185 194/243/185
f 208/250/186 216/256/186 217/257/186
f 201/252/187 119/258/187 210/259/187
f 208/250/188 218/260/188 209/253/188
f 202/254/189 210/259/189 211/261/189
f 203/255/190 211/261/190 212/262/190
f 203/255/191 213/263/191 204/246/191
f 205/247/192 213/263/192 214/264/192
f 205/247/193 215/265/193 206/248/193
f 207/249/194 215/265/194 216/256/194
f 214/264/195 222/266/195 223/267/195
f 214/264/196 224/268/196 215/265/196
f 216/256/197 224/268/197 225/269/197
f 217/257/198 225/269/198 226/270/198
f 210/259/199 119/271/199 219/272/199
f 217/257/200 227/273/200 218/260/200
f 210/259/201 220/274/201 211/261/201
f 212/262/202 220/274/202 221/275/202
f 212/262/203 222/266/203 213/263/203
f 219/272/204 119/276/204 228/277/204
f 226/270/205 236/278/205 227/273/205
f 220/274/206 228/277/206 229/279/206
f 221/275/207 229/279/207 230/280/207
f 221/275/208 231/281/208 222/266/208
f 223/267/209 231/281/209 232/282/209
f 223/267/210 233/283/210 224/268/210
f 225/269/211 233/283/211 234/284/211
f 226/270/212 234/284/212 235/285/212
f 232/282/213 240/286/213 241/287/213
f 232/282/214 242/288/214 233/283/214
f 234/284/215 242/288/215 243/289/215
f 235/285/216 243/289/216 244/290/216
f 228/277/217 119/291/217 237/292/217
f 235/285/218 245/293/218 236/278/218
f 228/277/219 238/294/219 229/279/219
f 229/279/220 239/295/220 230/280/220
f 230/280/221 240/286/221 231/281/221
f 244/290/222 254/296/222 245/293/222
f 237/292/223 247/297/223 238/294/223
f 239/295/224 247/297/224 248/298/224
f 239/295/225 249/299/225 240/286/225
f 241/287/226 249/299/226 250/300/226
f 241/287/227 251/301/227 242/288/227
f 243/289/228 251/301/228 252/302/228
f 244/290/229 252/302/229 253/303/229
f 237/292/230 119/304/230 246/305/230
f 250/300/231 260/306/231 251/301/231
f 252/302/232 260/306/232 261/307/232
f 253/303/233 261/307/233 262/308/233
f 246/305/234 119/309/234 255/310/234
f 253/303/235 263/311/235 254/296/235
f 247/297/236 255/310/236 256/312/236
f 248/298/237 256/312/237 257/313/237
f 248/298/238 258/314/238 249/299/238
f 250/300/239 258/314/239 259/315/239
f 255/310/240 265/316/240 256/312/240
f 257/313/241 265/316/241 266/317/241
f 257/313/242 267/318/242 258/314/242
f 259/315/243 267/318/243 268/319/243
f 259/315/244 269/320/244 260/306/244
f 261/307/245 269/320/245 270/321/245
f 262/308/246 270/321/246 271/322/246
f 255/310/247 119/323/247 264/324/247
f 262/308/248 272/325/248 263/311/248
f 268/319/249 278/326/249 269/320/249
f 270/321/250 278/326/250 279/327/250
f 271/322/251 279/327/251 280/328/251
f 264/324/252 119/329/252 273/330/252
f 271/322/253 281/331/253 272/325/253
f 264/324/254 274/332/254 265/316/254
f 266/317/255 274/332/255 275/333/255
f 266/317/256 276/334/256 267/318/256
f 268/319/257 276/334/257 277/335/257
f 275/333/258 283/336/258 284/337/258
f 275/333/259 285/338/259 276/334/259
f 277/335/260 285/338/260 286/339/260
f 277/335/261 287/340/261 278/326/261
f 279/327/262 287/340/262 288/341/262
f 280/328/263 288/341/263 289/342/263
f 273/330/264 119/343/264 282/344/264
f 280/328/265 290/345/265 281/331/265
f 273/330/266 283/336/266 274/332/266
f 288/346/267 296/347/267 297/348/267
f 289/349/268 297/348/268 298/350/268
f 282/351/269 119/352/269 291/353/269
f 289/349/270 299/354/270 290/355/270
f 283/356/271 291/353/271 292/357/271
f 284/358/272 292/357/272 293/359/272
f 284/358/273 294/360/273 285/361/273
f 286/362/274 294/360/274 295/363/274
f 286/362/275 296/347/275 287/364/275
f 293/359/276 303/365/276 294/360/276
f 295/363/277 303/365/277 304/366/277
f 295/363/278 305/367/278 296/347/278
f 297/348/279 305/367/279 306/368/279
f 298/350/280 306/368/280 307/369/280
f 291/353/281 119/370/281 300/371/281
f 298/350/282 308/372/282 299/354/282
f 292/357/283 300/371/283 301/373/283
f 293/359/284 301/373/284 302/374/284
f 307/369/285 315/375/285 316/376/285
f 300/371/286 119/377/286 309/378/286
f 307/369/287 317/379/287 308/372/287
f 300/371/288 310/380/288 301/373/288
f 302/374/289 310/380/289 311/381/289
f 302/374/290 312/382/290 303/365/290
f 304/366/291 312/382/291 313/383/291
f 304/366/292 314/384/292 305/367/292
f 306/368/293 314/384/293 315/375/293
f 311/381/294 321/385/294 312/382/294
f 313/383/295 321/385/295 322/386/295
f 313/383/296 323/387/296 314/384/296
f 315/375/297 323/387/297 324/388/297
f 316/376/298 324/388/298 325/389/298
f 309/378/299 119/390/299 318/391/299
f 316/376/300 326/392/300 317/379/300
f 309/378/301 319/393/301 310/380/301
f 311/381/302 319/393/302 320/394/302
f 325/389/303 333/395/303 334/396/303
f 318/391/304 119/397/304 327/398/304
f 325/389/305 335/399/305 326/392/305
f 318/391/306 328/400/306 319/393/306
f 320/394/307 328/400/307 329/401/307
f 320/394/308 330/402/308 321/385/308
f 322/386/309 330/402/309 331/403/309
f 322/386/310 332/404/310 323/387/310
f 324/388/311 332/404/311 333/395/311
f 330/402/312 340/405/312 331/403/312
f 331/403/313 341/406/313 332/404/313
f 332/404/314 342/407/314 333/395/314
f 334/396/315 342/407/315 343/408/315
f 327/398/316 119/409/316 336/410/316
f 334/396/317 344/411/317 335/399/317
f 328/400/318 336/410/318 337/412/318
f 329/401/319 337/412/319 338/413/319
f 329/401/320 339/414/320 330/402/320
f 336/410/321 119/415/321 345/416/321
f 343/408/322 353/417/322 344/411/322
f 336/410/323 346/418/323 337/412/323
f 338/413/324 346/418/324 347/419/324
f 338/413/325 348/420/325 339/414/325
f 339/414/326 349/421/326 340/405/326
f 340/405/327 350/422/327 341/406/327
f 342/407/328 350/422/328 351/423/328
f 343/408/329 351/423/329 352/424/329
f 348/420/330 70/97/330 349/421/330
f 349/421/331 357/100/331 350/422/331
f 351/423/332 357/100/332 71/103/332
f 218/260/5 290/345/5 73/110/5
f 352/424/333 71/103/333 72/105/333
f 345/416/334 119/425/334 354/106/334
f 353/417/335 72/105/335 73/110/335
f 345/416/336 355/111/336 346/418/336
f 347/419/337 355/111/337 69/113/337
f 347/419/338 356/115/338 348/420/338
f 70/97/339 356/115/339 77/98/339
f 357/100/340 70/97/340 78/99/340
f 357/100/341 79/101/341 80/102/341
f 71/103/54 80/102/54 81/104/54
f 72/105/56 81/104/56 82/109/56
f 355/111/57 354/106/57 74/108/57
f 69/113/58 355/111/58 75/112/58
f 356/115/342 69/113/342 76/114/342
f 77/98/343 76/114/343 85/116/343
f 78/99/344 77/98/344 86/117/344
f 79/101/345 78/99/345 87/118/345
f 79/101/346 88/119/346 89/120/346
f 80/102/64 89/120/64 90/121/64
f 81/104/66 90/121/66 91/124/66
f 75/112/67 74/108/67 83/123/67
f 75/112/68 84/125/68 85/116/68
f 90/121/69 89/120/69 98/126/69
f 90/121/71 99/127/71 100/130/71
f 83/123/72 92/129/72 93/131/72
f 85/116/347 84/125/347 93/131/347
f 86/117/348 85/116/348 94/132/348
f 87/118/349 86/117/349 95/133/349
f 88/119/350 87/118/350 96/134/350
f 89/120/351 88/119/351 97/135/351
f 94/132/78 103/145/78 104/136/78
f 95/133/79 104/136/79 105/137/79
f 96/134/80 105/137/80 106/138/80
f 98/126/81 97/135/81 106/138/81
f 99/127/82 98/126/82 107/139/82
f 99/127/84 108/140/84 109/143/84
f 92/129/85 101/142/85 102/144/85
f 93/131/86 102/144/86 103/145/86
f 108/140/87 107/139/87 116/146/87
f 108/140/89 117/147/89 118/150/89
f 102/144/90 101/142/90 110/149/90
f 103/145/91 102/144/91 111/151/91
f 103/145/92 112/152/92 113/153/92
f 105/137/93 104/136/93 113/153/93
f 105/137/94 114/154/94 115/155/94
f 107/139/95 106/138/95 115/155/95
f 114/154/96 113/153/96 123/156/96
f 114/154/97 124/157/97 125/158/97
f 116/146/98 115/155/98 125/158/98
f 117/147/99 116/146/99 126/159/99
f 117/147/101 127/160/101 128/163/101
f 110/149/102 120/162/102 121/164/102
f 112/152/103 111/151/103 121/164/103
f 112/152/104 122/165/104 123/156/104
f 127/160/105 136/173/105 137/166/105
f 120/162/106 129/175/106 130/167/106
f 121/164/107 130/167/107 131/168/107
f 122/165/108 131/168/108 132/169/108
f 124/157/109 123/156/109 132/169/109
f 124/157/110 133/170/110 134/171/110
f 126/159/111 125/158/111 134/171/111
f 127/160/112 126/159/112 135/172/112
f 133/170/114 142/185/114 143/176/114
f 135/172/115 134/171/115 143/176/115
f 136/173/352 135/172/352 144/177/352
f 136/173/118 145/178/118 146/181/118
f 130/167/119 129/175/119 138/180/119
f 131/168/120 130/167/120 139/182/120
f 131/168/121 140/183/121 141/184/121
f 133/170/122 132/169/122 141/184/122
f 138/180/123 147/194/123 148/186/123
f 139/182/124 148/186/124 149/187/124
f 140/183/125 149/187/125 150/188/125
f 142/185/126 141/184/126 150/188/126
f 142/185/127 151/189/127 152/190/127
f 144/177/128 143/176/128 152/190/128
f 145/178/353 144/177/353 153/191/353
f 145/178/131 154/192/131 155/195/131
f 151/189/132 160/205/132 161/196/132
f 153/191/133 152/190/133 161/196/133
f 154/192/354 153/191/354 162/197/354
f 154/192/136 163/198/136 164/201/136
f 147/194/137 156/200/137 157/202/137
f 148/186/138 157/202/138 158/203/138
f 149/187/139 158/203/139 159/204/139
f 151/189/140 150/188/140 159/204/140
f 158/203/355 157/202/355 166/206/355
f 158/203/142 167/207/142 168/208/142
f 160/205/143 159/204/143 168/208/143
f 160/205/144 169/209/144 170/210/144
f 162/197/145 161/196/145 170/210/145
f 163/198/146 162/197/146 171/211/146
f 163/198/148 172/212/148 173/215/148
f 156/200/356 165/214/356 166/206/356
f 171/211/150 170/210/150 179/216/150
f 172/212/151 171/211/151 180/217/151
f 172/212/153 181/218/153 182/221/153
f 165/214/357 174/220/357 175/222/357
f 166/206/155 175/222/155 176/223/155
f 167/207/156 176/223/156 177/224/156
f 169/209/157 168/208/157 177/224/157
f 169/209/158 178/225/158 179/216/158
f 176/223/159 175/222/159 184/226/159
f 176/223/160 185/227/160 186/228/160
f 178/225/161 177/224/161 186/228/161
f 178/225/162 187/229/162 188/230/162
f 180/217/163 179/216/163 188/230/163
f 181/218/164 180/217/164 189/231/164
f 181/218/166 190/232/166 191/235/166
f 175/222/167 174/220/167 183/234/167
f 189/231/168 188/230/168 197/236/168
f 190/232/169 189/231/169 198/237/169
f 190/232/171 199/238/171 200/241/171
f 183/234/172 192/240/172 193/242/172
f 184/226/358 193/242/358 194/243/358
f 185/227/174 194/243/174 195/244/174
f 187/229/175 186/228/175 195/244/175
f 187/229/176 196/245/176 197/236/176
f 194/243/177 203/255/177 204/246/177
f 196/245/178 195/244/178 204/246/178
f 196/245/179 205/247/179 206/248/179
f 198/237/180 197/236/180 206/248/180
f 199/238/181 198/237/181 207/249/181
f 199/238/183 208/250/183 209/253/183
f 192/240/184 201/252/184 202/254/184
f 193/242/359 202/254/359 203/255/359
f 208/250/360 207/249/360 216/256/360
f 208/250/188 217/257/188 218/260/188
f 202/254/189 201/252/189 210/259/189
f 203/255/190 202/254/190 211/261/190
f 203/255/191 212/262/191 213/263/191
f 205/247/192 204/246/192 213/263/192
f 205/247/193 214/264/193 215/265/193
f 207/249/194 206/248/194 215/265/194
f 214/264/195 213/263/195 222/266/195
f 214/264/196 223/267/196 224/268/196
f 216/256/197 215/265/197 224/268/197
f 217/257/361 216/256/361 225/269/361
f 217/257/200 226/270/200 227/273/200
f 210/259/201 219/272/201 220/274/201
f 212/262/202 211/261/202 220/274/202
f 212/262/203 221/275/203 222/266/203
f 226/270/205 235/285/205 236/278/205
f 220/274/206 219/272/206 228/277/206
f 221/275/362 220/274/362 229/279/362
f 221/275/208 230/280/208 231/281/208
f 223/267/209 222/266/209 231/281/209
f 223/267/210 232/282/210 233/283/210
f 225/269/211 224/268/211 233/283/211
f 226/270/212 225/269/212 234/284/212
f 232/282/213 231/281/213 240/286/213
f 232/282/214 241/287/214 242/288/214
f 234/284/215 233/283/215 242/288/215
f 235/285/363 234/284/363 243/289/363
f 235/285/218 244/290/218 245/293/218
f 228/277/219 237/292/219 238/294/219
f 229/279/220 238/294/220 239/295/220
f 230/280/221 239/295/221 240/286/221
f 244/290/222 253/303/222 254/296/222
f 237/292/223 246/305/223 247/297/223
f 239/295/224 238/294/224 247/297/224
f 239/295/225 248/298/225 249/299/225
f 241/287/226 240/286/226 249/299/226
f 241/287/227 250/300/227 251/301/227
f 243/289/228 242/288/228 251/301/228
f 244/290/364 243/289/364 252/302/364
f 250/300/231 259/315/231 260/306/231
f 252/302/232 251/301/232 260/306/232
f 253/303/233 252/302/233 261/307/233
f 253/303/235 262/308/235 263/311/235
f 247/297/365 246/305/365 255/310/365
f 248/298/237 247/297/237 256/312/237
f 248/298/238 257/313/238 258/314/238
f 250/300/239 249/299/239 258/314/239
f 255/310/240 264/324/240 265/316/240
f 257/313/241 256/312/241 265/316/241
f 257/313/242 266/317/242 267/318/242
f 259/315/243 258/314/243 267/318/243
f 259/315/244 268/319/244 269/320/244
f 261/307/245 260/306/245 269/320/245
f 262/308/246 261/307/246 270/321/246
f 262/308/248 271/322/248 272/325/248
f 268/319/249 277/335/249 278/326/249
f 270/321/250 269/320/250 278/326/250
f 271/322/251 270/321/251 279/327/251
f 271/322/253 280/328/253 281/331/253
f 264/324/254 273/330/254 274/332/254
f 266/317/255 265/316/255 274/332/255
f 266/317/256 275/333/256 276/334/256
f 268/319/257 267/318/257 276/334/257
f 275/333/258 274/332/258 283/336/258
f 275/333/259 284/337/259 285/338/259
f 277/335/260 276/334/260 285/338/260
f 277/335/261 286/339/261 287/340/261
f 279/327/262 278/326/262 287/340/262
f 280/328/366 279/327/366 288/341/366
f 280/328/265 289/342/265 290/345/265
f 273/330/266 282/344/266 283/336/266
f 288/346/267 287/364/267 296/347/267
f 289/349/367 288/346/367 297/348/367
f 289/349/270 298/350/270 299/354/270
f 283/356/271 282/351/271 291/353/271
f 284/358/272 283/356/272 292/357/272
f 284/358/273 293/359/273 294/360/273
f 286/362/274 285/361/274 294/360/274
f 286/362/275 295/363/275 296/347/275
f 293/359/276 302/374/276 303/365/276
f 295/363/277 294/360/277 303/365/277
f 295/363/278 304/366/278 305/367/278
f 297/348/279 296/347/279 305/367/279
f 298/350/280 297/348/280 306/368/280
f 298/350/282 307/369/282 308/372/282
f 292/357/283 291/353/283 300/371/283
f 293/359/284 292/357/284 301/373/284
f 307/369/368 306/368/368 315/375/368
f 307/369/287 316/376/287 317/379/287
f 300/371/369 309/378/369 310/380/369
f 302/374/289 301/373/289 310/380/289
f 302/374/290 311/381/290 312/382/290
f 304/366/291 303/365/291 312/382/291
f 304/366/292 313/383/292 314/384/292
f 306/368/293 305/367/293 314/384/293
f 311/381/294 320/394/294 321/385/294
f 313/383/295 312/382/295 321/385/295
f 313/383/296 322/386/296 323/387/296
f 315/375/297 314/384/297 323/387/297
f 316/376/298 315/375/298 324/388/298
f 316/376/300 325/389/300 326/392/300
f 309/378/301 318/391/301 319/393/301
f 311/381/302 310/380/302 319/393/302
f 325/389/303 324/388/303 333/395/303
f 325/389/305 334/396/305 335/399/305
f 318/391/306 327/398/306 328/400/306
f 320/394/307 319/393/307 328/400/307
f 320/394/308 329/401/308 330/402/308
f 322/386/309 321/385/309 330/402/309
f 322/386/310 331/403/310 332/404/310
f 324/388/311 323/387/311 332/404/311
f 330/402/370 339/414/370 340/405/370
f 331/403/371 340/405/371 341/406/371
f 332/404/372 341/406/372 342/407/372
f 334/396/315 333/395/315 342/407/315
f 334/396/317 343/408/317 344/411/317
f 328/400/318 327/398/318 336/410/318
f 329/401/373 328/400/373 337/412/373
f 329/401/374 338/413/374 339/414/374
f 343/408/322 352/424/322 353/417/322
f 336/410/323 345/416/323 346/418/323
f 338/413/324 337/412/324 346/418/324
f 338/413/375 347/419/375 348/420/375
f 339/414/376 348/420/376 349/421/376
f 340/405/377 349/421/377 350/422/377
f 342/407/378 341/406/378 350/422/378
f 343/408/329 342/407/329 351/423/329
f 348/420/379 356/115/379 70/97/379
f 349/421/380 70/97/380 357/100/380
f 351/423/381 350/422/381 357/100/381
f 73/110/5 82/109/5 91/124/5
f 91/124/5 100/130/5 73/110/5
f 100/130/5 109/143/5 73/110/5
f 109/143/5 118/150/5 128/163/5
f 128/163/5 137/166/5 109/143/5
f 137/166/5 146/181/5 109/143/5
f 146/181/5 155/195/5 164/201/5
f 164/201/5 173/215/5 182/221/5
f 182/221/5 191/235/5 200/241/5
f 200/241/5 209/253/5 218/260/5
f 218/260/5 227/273/5 236/278/5
f 236/278/5 245/293/5 254/296/5
f 254/296/5 263/311/5 272/325/5
f 272/325/5 281/331/5 290/345/5
f 290/345/5 299/354/5 326/392/5
f 299/354/5 308/372/5 326/392/5
f 308/372/5 317/379/5 326/392/5
f 326/392/5 335/399/5 344/411/5
f 344/411/5 353/417/5 73/110/5
f 146/181/5 164/201/5 218/260/5
f 164/201/5 182/221/5 218/260/5
f 182/221/5 200/241/5 218/260/5
f 218/260/5 236/278/5 290/345/5
f 236/278/5 254/296/5 290/345/5
f 254/296/5 272/325/5 290/345/5
f 326/392/5 344/411/5 290/345/5
f 344/411/5 73/110/5 290/345/5
f 73/110/5 109/143/5 218/260/5
f 109/143/5 146/181/5 218/260/5
f 352/424/333 351/423/333 71/103/333
f 353/417/335 352/424/335 72/105/335
f 345/416/336 354/106/336 355/111/336
f 347/419/337 346/418/337 355/111/337
f 347/419/382 69/113/382 356/115/382
f 359/426/383 360/427/383 358/428/383
f 361/429/384 364/430/384 360/427/384
f 364/430/385 363/431/385 362/432/385
f 363/431/386 358/433/386 362/432/386
f 364/430/387 358/434/387 360/435/387
f 361/436/388 363/431/388 365/437/388
f 367/438/389 368/439/389 366/440/389
f 371/441/390 372/442/390 370/443/390
f 374/444/386 377/445/386 376/446/386
f 377/445/383 380/447/383 376/446/383
f 380/447/384 379/448/384 378/449/384
f 379/448/385 374/450/385 378/449/385
f 380/447/387 374/451/387 376/452/387
f 377/453/388 379/448/388 381/454/388
f 382/455/391 385/456/391 384/457/391
f 387/458/392 388/459/392 386/460/392
f 359/426/383 361/429/383 360/427/383
f 361/429/384 365/437/384 364/430/384
f 364/430/385 365/437/385 363/431/385
f 363/431/386 359/461/386 358/433/386
f 364/430/387 362/432/387 358/434/387
f 361/436/388 359/462/388 363/431/388
f 367/438/389 369/463/389 368/439/389
f 371/441/390 373/464/390 372/442/390
f 374/444/386 375/465/386 377/445/386
f 377/445/383 381/454/383 380/447/383
f 380/447/384 381/454/384 379/448/384
f 379/448/385 375/466/385 374/450/385
f 380/447/387 378/449/387 374/451/387
f 377/453/388 375/467/388 379/448/388
f 382/455/391 383/468/391 385/456/391
f 387/458/392 389/469/392 388/459/392
f 391/470/393 392/471/393 390/472/393
f 392/471/394 395/473/394 394/474/394
f 395/473/395 396/475/395 394/474/395
f 396/475/396 399/476/396 398/477/396
f 399/476/397 400/478/397 398/477/397
f 400/478/398 403/479/398 402/480/398
f 402/480/399 405/481/399 404/482/399
f 404/482/400 407/483/400 406/484/400
f 407/483/401 408/485/401 406/484/401
f 409/486/402 410/487/402 408/485/402
f 410/487/403 413/488/403 412/489/403
f 412/489/404 415/490/404 414/491/404
f 414/491/405 417/492/405 416/493/405
f 416/493/406 419/494/406 418/495/406
f 419/494/407 420/496/407 418/495/407
f 421/497/408 422/498/408 420/496/408
f 422/498/409 425/499/409 424/500/409
f 425/499/410 426/501/410 424/500/410
f 426/501/411 429/502/411 428/503/411
f 429/502/412 430/504/412 428/503/412
f 431/505/413 432/506/413 430/504/413
f 433/507/414 434/508/414 432/506/414
f 435/509/415 436/510/415 434/508/415
f 437/511/416 438/512/416 436/510/416
f 439/513/417 440/514/417 438/512/417
f 440/514/418 443/515/418 442/516/418
f 443/515/419 444/517/419 442/516/419
f 445/518/420 446/519/420 444/517/420
f 447/520/421 448/521/421 446/519/421
f 449/522/422 450/523/422 448/521/422
f 419/524/387 411/525/387 395/526/387
f 451/527/423 452/528/423 450/523/423
f 452/528/424 391/529/424 390/530/424
f 452/531/388 404/532/388 420/533/388
f 391/470/425 393/534/425 392/471/425
f 392/471/394 393/534/394 395/473/394
f 395/473/395 397/535/395 396/475/395
f 396/475/426 397/535/426 399/476/426
f 399/476/397 401/536/397 400/478/397
f 400/478/398 401/536/398 403/479/398
f 402/480/399 403/479/399 405/481/399
f 404/482/400 405/481/400 407/483/400
f 407/483/401 409/486/401 408/485/401
f 409/486/402 411/537/402 410/487/402
f 410/487/403 411/537/403 413/488/403
f 412/489/404 413/488/404 415/490/404
f 414/491/405 415/490/405 417/492/405
f 416/493/427 417/492/427 419/494/427
f 419/494/428 421/497/428 420/496/428
f 421/497/408 423/538/408 422/498/408
f 422/498/429 423/538/429 425/499/429
f 425/499/430 427/539/430 426/501/430
f 426/501/411 427/539/411 429/502/411
f 429/502/412 431/505/412 430/504/412
f 431/505/413 433/507/413 432/506/413
f 433/507/414 435/509/414 434/508/414
f 435/509/415 437/511/415 436/510/415
f 437/511/416 439/513/416 438/512/416
f 439/513/417 441/540/417 440/514/417
f 440/514/418 441/540/418 443/515/418
f 443/515/419 445/518/419 444/517/419
f 445/518/420 447/520/420 446/519/420
f 447/520/431 449/522/431 448/521/431
f 449/522/422 451/527/422 450/523/422
f 395/526/432 393/541/432 391/542/432
f 391/542/433 453/543/433 395/526/433
f 453/543/387 451/544/387 395/526/387
f 451/544/434 449/545/434 447/546/434
f 447/546/435 445/547/435 451/544/435
f 445/547/387 443/548/387 451/544/387
f 443/548/387 441/549/387 435/550/387
f 441/549/436 439/551/436 435/550/436
f 439/551/437 437/552/437 435/550/437
f 435/550/438 433/553/438 431/554/438
f 431/554/439 429/555/439 427/556/439
f 427/556/433 425/557/433 423/558/433
f 423/558/440 421/559/440 427/556/440
f 421/559/432 419/524/432 427/556/432
f 419/524/441 417/560/441 415/561/441
f 415/561/387 413/562/387 419/524/387
f 413/562/387 411/525/387 419/524/387
f 411/525/387 409/563/387 403/564/387
f 409/563/442 407/565/442 403/564/442
f 407/565/387 405/566/387 403/564/387
f 403/564/439 401/567/439 399/568/439
f 399/568/443 397/569/443 395/526/443
f 435/550/387 431/554/387 443/548/387
f 431/554/387 427/556/387 443/548/387
f 403/564/387 399/568/387 411/525/387
f 399/568/387 395/526/387 411/525/387
f 395/526/387 451/544/387 427/556/387
f 451/544/387 443/548/387 427/556/387
f 427/556/387 419/524/387 395/526/387
f 451/527/444 453/570/444 452/528/444
f 452/528/424 453/570/424 391/529/424
f 452/531/445 390/571/445 392/572/445
f 392/572/446 394/573/446 452/531/446
f 394/573/388 396/574/388 452/531/388
f 396/574/447 398/575/447 400/576/447
f 400/576/448 402/577/448 404/532/448
f 404/532/449 406/578/449 408/579/449
f 408/579/450 410/580/450 404/532/450
f 410/580/388 412/581/388 404/532/388
f 412/581/446 414/582/446 420/533/446
f 414/582/388 416/583/388 420/533/388
f 416/583/451 418/584/451 420/533/451
f 420/533/452 422/585/452 424/586/452
f 424/586/388 426/587/388 428/588/388
f 428/588/388 430/589/388 436/590/388
f 430/589/453 432/591/453 436/590/453
f 432/591/454 434/592/454 436/590/454
f 436/590/388 438/593/388 440/594/388
f 440/594/455 442/595/455 444/596/455
f 444/596/456 446/597/456 448/598/456
f 448/598/388 450/599/388 444/596/388
f 450/599/388 452/531/388 444/596/388
f 396/574/388 400/576/388 452/531/388
f 400/576/388 404/532/388 452/531/388
f 420/533/388 424/586/388 436/590/388
f 424/586/388 428/588/388 436/590/388
f 436/590/388 440/594/388 444/596/388
f 404/532/388 412/581/388 420/533/388
f 436/590/388 444/596/388 420/533/388
f 444/596/388 452/531/388 420/533/388
