# Blender 4.1.1
# www.blender.org
mtllib Fish.mtl
o Fish
v -0.037041 0.000017 1.415799
v 1.819877 0.188402 0.294782
v -0.746307 0.708997 0.635510
v -2.799913 0.001280 0.446051
v -0.746307 -0.706927 0.632894
v 1.819877 -0.185447 0.294091
v 0.672225 0.573222 -0.629426
v -1.893960 0.440223 -0.629671
v -1.893960 -0.434858 -0.631287
v 0.672225 -0.567856 -0.631533
v 3.666534 0.003091 -0.944081
v -0.037041 0.003701 -1.412076
v -0.453934 0.416418 1.205402
v 2.063160 0.059910 0.529954
v 0.637532 0.589043 0.746308
v 3.666666 0.000325 1.179027
v 2.063160 -0.057568 0.529737
v -1.386167 0.000292 1.204629
v -1.803070 0.417018 0.745988
v -0.453934 -0.415834 1.203865
v -1.803070 -0.415237 0.744451
v 0.637532 -0.587261 0.744135
v 3.228419 0.133028 0.002104
v 3.228419 -0.129310 0.001619
v -0.037041 0.685662 0.003124
v 1.471332 0.282911 0.002380
v -1.870510 0.407532 0.002611
v -1.113548 0.675171 0.003105
v -1.113548 -0.671454 0.000618
v -1.870510 -0.403814 0.001112
v 1.471332 -0.279193 0.001342
v -0.037041 -0.681944 0.000598
v 1.728988 0.191331 -0.174585
v -0.711614 0.676136 -0.740255
v -2.670201 0.002641 -0.598285
v -0.711614 -0.670481 -0.742743
v 1.728988 -0.187153 -0.175284
v 0.379852 0.419552 -1.200142
v 1.874371 0.002458 -0.458367
v -1.128503 0.260604 -1.200435
v -1.128503 -0.253752 -1.201385
v 0.379852 -0.412701 -1.201679
vn 0.2822 0.6425 0.7124
vn -0.2319 0.7325 0.6401
vn -0.1461 0.3257 0.9341
vn -0.1461 -0.3290 0.9330
vn 0.2820 -0.6448 0.7104
vn 0.0579 0.9942 0.0905
vn 0.0818 0.9951 0.0551
vn -0.3909 0.9201 0.0237
vn -0.2556 -0.9622 0.0945
vn 0.3024 -0.9516 -0.0553
vn 0.0830 0.9730 0.2155
vn -0.0097 0.9988 -0.0478
vn -0.4312 0.0017 -0.9022
vn -0.0097 -0.9987 -0.0504
vn 0.0830 -0.9735 0.2129
vn 0.4676 0.7637 -0.4452
vn -0.2129 0.8133 -0.5415
vn -0.3744 -0.6116 -0.6970
vn 0.0949 -0.9472 -0.3064
vn -0.1639 -0.7786 -0.6057
vn 0.4465 -0.0051 -0.8948
vn 0.4094 -0.8412 -0.3532
vn 0.4678 -0.7623 -0.4473
vn -0.0519 -0.4913 -0.8694
vn -0.0816 -0.7735 -0.6286
vn -0.2130 -0.8117 -0.5439
vn -0.1899 0.0018 -0.9818
vn -0.3641 0.0017 -0.9314
vn -0.3742 0.6139 -0.6950
vn -0.0519 0.4943 -0.8677
vn -0.0816 0.7754 -0.6262
vn 0.0948 0.9480 -0.3038
vn 0.4465 0.0084 -0.8948
vn 0.4092 0.8423 -0.3509
vn -0.1638 0.7805 -0.6034
vn 0.0518 -0.9920 -0.1149
vn 0.0791 -0.9267 -0.3675
vn 0.3380 -0.9412 0.0026
vn 0.0807 -0.9928 -0.0886
vn -0.0097 -0.9999 -0.0066
vn -0.2043 -0.9725 -0.1118
vn -0.4881 -0.8707 0.0608
vn -0.6002 -0.0015 0.7998
vn -0.4882 0.8705 0.0631
vn -0.2043 0.9728 -0.1092
vn -0.0097 0.9999 -0.0040
vn 0.0807 0.9930 -0.0860
vn 0.3380 0.9411 0.0050
vn 0.0791 0.9277 -0.3649
vn 0.0518 0.9923 -0.1123
vn 0.2562 -0.9598 0.1143
vn 0.2564 -0.9602 -0.1104
vn 0.0818 -0.9953 0.0525
vn -0.3327 -0.9412 0.0585
vn -0.3333 -0.9427 0.0158
vn -0.3909 -0.9202 0.0213
vn -0.3328 0.9410 0.0610
vn -0.3333 0.9426 0.0182
vn -0.2556 0.9619 0.0970
vn 0.2563 0.9595 0.1168
vn 0.2564 0.9605 -0.1079
vn 0.3023 0.9517 -0.0528
vn 0.9074 -0.0008 0.4203
vn 0.9372 0.0006 -0.3489
vn 0.0579 -0.9944 0.0879
vn 0.3622 -0.9234 0.1272
vn 0.2902 -0.4363 0.8517
vn 0.0426 -0.8988 0.4364
vn -0.1765 -0.8374 0.5173
vn -0.2613 -0.5867 0.7665
vn -0.4230 -0.4480 0.7877
vn -0.4231 0.4452 0.7891
vn -0.2614 0.5842 0.7684
vn -0.1766 0.8359 0.5197
vn -0.2318 -0.7345 0.6378
vn -0.3753 -0.0017 0.9269
vn 0.3887 -0.0017 0.9214
vn 0.0427 0.8975 0.4389
vn 0.2903 0.4334 0.8532
vn 0.3623 0.9230 0.1296
vt 0.181819 0.000000
vt 0.227273 0.078731
vt 0.136365 0.078731
vt 0.272728 0.157461
vt 0.318182 0.078731
vt 0.363637 0.157461
vt 0.909091 0.000000
vt 0.954545 0.078731
vt 0.863636 0.078731
vt 0.727273 0.000000
vt 0.772727 0.078731
vt 0.681818 0.078731
vt 0.545455 0.000000
vt 0.590909 0.078731
vt 0.500000 0.078731
vt 0.318182 0.236191
vt 0.090910 0.157461
vt 0.181819 0.157461
vt 0.136365 0.236191
vt 0.818182 0.157461
vt 0.909091 0.157461
vt 0.863636 0.236191
vt 0.636364 0.157461
vt 0.727273 0.157461
vt 0.681818 0.236191
vt 0.454546 0.157461
vt 0.545455 0.157461
vt 0.500000 0.236191
vt 0.227273 0.236191
vt 0.045455 0.236191
vt 0.772727 0.236191
vt 0.590909 0.236191
vt 0.409092 0.236191
vt 0.181819 0.314921
vt 0.272728 0.314921
vt 0.227273 0.393651
vt 0.000000 0.314921
vt 0.090910 0.314921
vt 0.045455 0.393651
vt 0.727273 0.314921
vt 0.818182 0.314921
vt 0.772727 0.393651
vt 0.545455 0.314921
vt 0.636364 0.314921
vt 0.590909 0.393651
vt 0.363637 0.314921
vt 0.454546 0.314921
vt 0.409092 0.393651
vt 0.500000 0.393651
vt 0.454546 0.472382
vt 0.681818 0.393651
vt 0.636364 0.472382
vt 0.863636 0.393651
vt 0.818182 0.472382
vt 0.909091 0.314921
vt 0.136365 0.393651
vt 0.090910 0.472382
vt 0.318182 0.393651
vt 0.272728 0.472382
vt 0.954545 0.236191
vt 1.000000 0.157461
vt 0.409092 0.078731
vt 0.363637 0.000000
s 0
usemtl マテリアル
f 1/1/1 14/2/1 13/3/1
f 2/4/2 14/5/2 16/6/2
f 1/7/3 13/8/3 18/9/3
f 1/10/4 18/11/4 20/12/4
f 1/13/5 20/14/5 17/15/5
f 2/4/6 16/6/6 23/16/6
f 3/17/7 15/18/7 25/19/7
f 4/20/8 19/21/8 27/22/8
f 5/23/9 21/24/9 29/25/9
f 6/26/10 22/27/10 31/28/10
f 2/4/11 23/16/11 26/29/11
f 3/17/12 25/19/12 28/30/12
f 4/20/13 27/22/13 30/31/13
f 5/23/14 29/25/14 32/32/14
f 6/26/15 31/28/15 24/33/15
f 7/34/16 33/35/16 38/36/16
f 8/37/17 34/38/17 40/39/17
f 9/40/18 35/41/18 41/42/18
f 10/43/19 36/44/19 42/45/19
f 11/46/20 37/47/20 39/48/20
f 39/48/21 42/49/21 12/50/21
f 39/48/22 37/47/22 42/49/22
f 37/47/23 10/43/23 42/49/23
f 42/45/24 41/51/24 12/52/24
f 42/45/25 36/44/25 41/51/25
f 36/44/26 9/40/26 41/51/26
f 41/42/27 40/53/27 12/54/27
f 41/42/28 35/41/28 40/53/28
f 35/41/29 8/55/29 40/53/29
f 40/39/30 38/56/30 12/57/30
f 40/39/31 34/38/31 38/56/31
f 34/38/32 7/34/32 38/56/32
f 38/36/33 39/58/33 12/59/33
f 38/36/34 33/35/34 39/58/34
f 33/35/35 11/46/35 39/58/35
f 24/33/36 37/47/36 11/46/36
f 24/33/37 31/28/37 37/47/37
f 31/28/38 10/43/38 37/47/38
f 32/32/39 36/44/39 10/43/39
f 32/32/40 29/25/40 36/44/40
f 29/25/41 9/40/41 36/44/41
f 30/31/42 35/41/42 9/40/42
f 30/31/43 27/22/43 35/41/43
f 27/22/44 8/55/44 35/41/44
f 28/30/45 34/38/45 8/37/45
f 28/30/46 25/19/46 34/38/46
f 25/19/47 7/34/47 34/38/47
f 26/29/48 33/35/48 7/34/48
f 26/29/49 23/16/49 33/35/49
f 23/16/50 11/46/50 33/35/50
f 31/28/51 32/32/51 10/43/51
f 31/28/52 22/27/52 32/32/52
f 22/27/53 5/23/53 32/32/53
f 29/25/54 30/31/54 9/40/54
f 29/25/55 21/24/55 30/31/55
f 21/24/56 4/20/56 30/31/56
f 27/22/57 28/60/57 8/55/57
f 27/22/58 19/21/58 28/60/58
f 19/21/59 3/61/59 28/60/59
f 25/19/60 26/29/60 7/34/60
f 25/19/61 15/18/61 26/29/61
f 15/18/62 2/4/62 26/29/62
f 23/16/63 24/33/63 11/46/63
f 23/16/64 16/6/64 24/33/64
f 16/6/65 6/26/65 24/33/65
f 17/15/66 22/27/66 6/26/66
f 17/15/67 20/14/67 22/27/67
f 20/14/68 5/23/68 22/27/68
f 20/12/69 21/24/69 5/23/69
f 20/12/70 18/11/70 21/24/70
f 18/11/71 4/20/71 21/24/71
f 18/9/72 19/21/72 4/20/72
f 18/9/73 13/8/73 19/21/73
f 13/8/74 3/61/74 19/21/74
f 16/6/75 17/62/75 6/26/75
f 16/6/76 14/5/76 17/62/76
f 14/5/77 1/63/77 17/62/77
f 13/3/78 15/18/78 3/17/78
f 13/3/79 14/2/79 15/18/79
f 14/2/80 2/4/80 15/18/80
