# Blender 4.1.1
# www.blender.org
mtllib Mushroom.mtl
o mushroom_body
v -0.000000 -0.259077 -0.000000
v 0.364499 0.162422 0.296398
v -0.139224 0.162422 0.479587
v -0.450545 0.162425 -0.000000
v -0.139224 0.162422 -0.479587
v 0.364499 0.162422 -0.296398
v 0.101630 0.844437 0.312792
v -0.266077 0.844437 0.193314
v -0.266077 0.844437 -0.193314
v 0.101630 0.844437 -0.312792
v 0.328889 0.844434 -0.000000
v -0.000000 1.265936 -0.000000
v -0.084474 -0.145200 0.290989
v 0.221160 -0.145200 0.179839
v 0.132414 0.102551 0.456112
v 0.428493 0.102553 -0.000000
v 0.221160 -0.145200 -0.179839
v -0.273369 -0.145198 -0.000000
v -0.346659 0.102552 0.281893
v -0.084474 -0.145200 -0.290989
v -0.346659 0.102552 -0.281893
v 0.132414 0.102551 -0.456112
v 0.389012 0.503430 0.126396
v 0.389012 0.503430 -0.126396
v -0.000000 0.503430 0.409031
v 0.240423 0.503430 0.330913
v -0.389013 0.503430 0.126396
v -0.240423 0.503430 0.330913
v -0.240423 0.503430 -0.330913
v -0.389013 0.503430 -0.126396
v 0.240423 0.503430 -0.330913
v -0.000000 0.503430 -0.409031
v 0.253054 0.904307 0.183854
v -0.096659 0.904308 0.297481
v -0.312791 0.904306 -0.000000
v -0.096659 0.904308 -0.297481
v 0.253054 0.904307 -0.183854
v 0.059736 1.152059 0.183853
v 0.193316 1.152057 -0.000000
v -0.156395 1.152059 0.113626
v -0.156395 1.152059 -0.113626
v 0.059736 1.152059 -0.183853
v 0.000000 0.977811 0.000000
v 1.003099 0.973854 0.728786
v -0.383142 0.973854 1.179211
v -1.239896 0.973856 0.000000
v -0.383142 0.973854 -1.179211
v 1.003099 0.973854 -0.728786
v 0.383142 1.495596 1.179211
v -1.003099 1.495596 0.728786
v -1.003099 1.495596 -0.728786
v 0.383142 1.495596 -1.179211
v 1.239896 1.495594 0.000000
v 0.000000 1.998586 0.000000
v -0.225204 0.975225 0.693117
v 0.589603 0.975225 0.428366
v 0.364401 0.928137 1.121491
v 1.179209 0.928138 0.000000
v 0.589603 0.975225 -0.428366
v -0.728792 0.975226 0.000000
v -0.954001 0.928138 0.693120
v -0.225204 0.975225 -0.693117
v -0.954001 0.928138 -0.693120
v 0.364401 0.928137 -1.121491
v 1.318402 1.068856 0.428368
v 1.318402 1.068856 -0.428368
v 0.000000 1.068856 1.386248
v 0.814817 1.068856 1.121498
v -1.318402 1.068856 0.428368
v -0.814817 1.068856 1.121498
v -0.814817 1.068856 -1.121498
v -1.318402 1.068856 -0.428368
v 0.814817 1.068856 -1.121498
v 0.000000 1.068856 -1.386248
v 0.954001 1.541311 0.693120
v -0.364401 1.541312 1.121491
v -1.179209 1.541311 0.000000
v -0.364401 1.541312 -1.121491
v 0.954001 1.541311 -0.693120
v 0.225204 1.856502 0.693117
v 0.728792 1.856500 0.000000
v -0.589603 1.856502 0.428366
v -0.589603 1.856502 -0.428366
v 0.225204 1.856502 -0.693117
vn 0.1443 -0.9066 0.3967
vn 0.8263 -0.4901 0.2774
vn -0.3731 -0.8956 0.2422
vn -0.3731 -0.8956 -0.2422
vn 0.1443 -0.9066 -0.3967
vn 0.9783 0.0318 0.2048
vn 0.1188 0.1544 0.9808
vn -0.9350 0.0380 0.3526
vn -0.7014 0.0996 -0.7058
vn 0.5432 0.1135 -0.8319
vn 0.7876 0.2286 0.5722
vn -0.2941 0.3073 0.9050
vn -0.9841 0.1776 -0.0000
vn -0.2941 0.3073 -0.9050
vn 0.7876 0.2286 -0.5722
vn 0.5019 0.3916 0.7712
vn -0.5784 0.3916 0.7156
vn -0.8593 0.3916 -0.3289
vn 0.0473 0.3916 -0.9189
vn 0.8886 0.3916 -0.2390
vn 0.4762 0.8084 -0.3460
vn 0.6841 0.5338 -0.4970
vn 0.5019 0.3916 -0.7712
vn -0.1819 0.8084 -0.5598
vn -0.2613 0.5338 -0.8042
vn -0.5784 0.3916 -0.7156
vn -0.5886 0.8084 -0.0000
vn -0.8456 0.5338 -0.0000
vn -0.8593 0.3916 0.3289
vn -0.1819 0.8084 0.5598
vn -0.2613 0.5338 0.8042
vn 0.0473 0.3916 0.9189
vn 0.4762 0.8084 0.3460
vn 0.6841 0.5338 0.4970
vn 0.8886 0.3916 0.2390
vn 0.9180 0.2697 -0.2908
vn 0.7948 0.1868 -0.5774
vn 0.5603 0.2697 -0.7832
vn 0.0071 0.2697 -0.9629
vn -0.3036 0.1868 -0.9343
vn -0.5717 0.2697 -0.7749
vn -0.9136 0.2697 -0.3043
vn -0.9824 0.1868 -0.0000
vn -0.9136 0.2697 0.3043
vn -0.5717 0.2697 0.7749
vn -0.3036 0.1868 0.9343
vn 0.0071 0.2697 0.9629
vn 0.5603 0.2697 0.7832
vn 0.7948 0.1868 0.5774
vn 0.9180 0.2697 0.2908
vn 0.3043 0.1736 -0.9366
vn 0.3022 0.2090 -0.9300
vn 0.1188 0.1544 -0.9808
vn -0.7967 0.1736 -0.5789
vn -0.8009 0.1411 -0.5819
vn -0.9350 0.0380 -0.3526
vn -0.7967 0.1736 0.5789
vn -0.8009 0.1411 0.5819
vn -0.7014 0.0996 0.7058
vn 0.3043 0.1736 0.9366
vn 0.3022 0.2090 0.9300
vn 0.5432 0.1135 0.8319
vn 0.9848 0.1736 -0.0000
vn 0.9952 0.0980 -0.0000
vn 0.9783 0.0318 -0.2048
vn 0.5730 -0.5101 -0.6415
vn 0.2508 -0.6793 -0.6897
vn -0.0430 -0.5277 -0.8483
vn -0.5095 -0.5138 -0.6902
vn -0.6335 -0.6554 -0.4113
vn -0.8475 -0.4881 -0.2087
vn -0.8475 -0.4881 0.2087
vn -0.6335 -0.6554 0.4113
vn -0.5095 -0.5138 0.6902
vn 0.8263 -0.4901 -0.2774
vn 0.7669 -0.6418 -0.0000
vn 0.4578 -0.8891 -0.0000
vn -0.0430 -0.5277 0.8483
vn 0.2508 -0.6793 0.6897
vn 0.5730 -0.5101 0.6415
vn -0.0014 -1.0000 -0.0042
vn -0.0415 -0.9978 0.0526
vn 0.0035 -1.0000 -0.0026
vn 0.0035 -1.0000 0.0026
vn -0.0014 -1.0000 0.0042
vn 0.4194 -0.8941 0.1574
vn -0.0201 -0.8941 0.4475
vn -0.4318 -0.8941 0.1191
vn -0.2467 -0.8941 -0.3739
vn 0.2793 -0.8941 -0.3502
vn 0.6236 -0.6370 0.4531
vn -0.2382 -0.6370 0.7331
vn -0.7709 -0.6370 -0.0000
vn -0.2382 -0.6370 -0.7331
vn 0.6236 -0.6370 -0.4531
vn 0.3474 0.8034 0.4836
vn -0.3526 0.8034 0.4799
vn -0.5653 0.8034 -0.1870
vn 0.0032 0.8034 -0.5955
vn 0.5673 0.8034 -0.1810
vn 0.1895 0.9722 -0.1377
vn 0.3814 0.8819 -0.2771
vn 0.3474 0.8034 -0.4836
vn -0.0724 0.9722 -0.2228
vn -0.1457 0.8819 -0.4484
vn -0.3526 0.8034 -0.4799
vn -0.2343 0.9722 -0.0000
vn -0.4714 0.8819 -0.0000
vn -0.5653 0.8034 0.1870
vn -0.0724 0.9722 0.2228
vn -0.1457 0.8819 0.4484
vn 0.0032 0.8034 0.5955
vn 0.1895 0.9722 0.1377
vn 0.3814 0.8819 0.2771
vn 0.5673 0.8034 0.1810
vn 0.8289 0.4649 -0.3112
vn 0.7760 0.2826 -0.5638
vn 0.5521 0.4649 -0.6921
vn -0.0399 0.4649 -0.8845
vn -0.2964 0.2826 -0.9123
vn -0.4876 0.4649 -0.7390
vn -0.8535 0.4649 -0.2354
vn -0.9592 0.2826 -0.0000
vn -0.8535 0.4649 0.2354
vn -0.4876 0.4649 0.7390
vn -0.2964 0.2826 0.9123
vn -0.0399 0.4649 0.8845
vn 0.5521 0.4649 0.6921
vn 0.7760 0.2826 0.5638
vn 0.8289 0.4649 0.3112
vn 0.3039 0.1809 -0.9354
vn 0.2197 -0.7032 -0.6762
vn -0.0201 -0.8941 -0.4475
vn -0.7957 0.1809 -0.5781
vn -0.5752 -0.7032 -0.4179
vn -0.4318 -0.8941 -0.1191
vn -0.7957 0.1809 0.5781
vn -0.5752 -0.7032 0.4179
vn -0.2467 -0.8941 0.3739
vn 0.3039 0.1809 0.9354
vn 0.2197 -0.7032 0.6762
vn 0.2793 -0.8941 0.3502
vn 0.9835 0.1809 -0.0000
vn 0.7109 -0.7032 -0.0000
vn 0.4194 -0.8941 -0.1574
vn 0.0372 -0.9978 0.0557
vn -0.0246 -0.9968 0.0757
vn -0.0628 -0.9978 0.0232
vn 0.0645 -0.9978 -0.0181
vn 0.0644 -0.9968 0.0468
vn 0.0027 -0.9978 0.0669
vn 0.0027 -0.9978 -0.0669
vn 0.0644 -0.9968 -0.0468
vn 0.0645 -0.9978 0.0181
vn -0.0415 -0.9978 -0.0526
vn -0.0796 -0.9968 -0.0000
vn -0.0044 -1.0000 -0.0000
vn -0.0628 -0.9978 -0.0232
vn -0.0246 -0.9968 -0.0757
vn 0.0372 -0.9978 -0.0557
vt 0.135856 0.057124
vt 0.159417 0.097933
vt 0.112296 0.097933
vt 0.182978 0.138742
vt 0.206539 0.097933
vt 0.230099 0.138742
vt 0.512828 0.057124
vt 0.536389 0.097933
vt 0.489267 0.097933
vt 0.418585 0.057124
vt 0.442146 0.097933
vt 0.395024 0.097933
vt 0.324342 0.057124
vt 0.347903 0.097933
vt 0.300782 0.097933
vt 0.206539 0.179550
vt 0.088735 0.138742
vt 0.135856 0.138742
vt 0.112296 0.179550
vt 0.465707 0.138742
vt 0.512828 0.138742
vt 0.489267 0.179550
vt 0.371464 0.138742
vt 0.418585 0.138742
vt 0.395024 0.179550
vt 0.277221 0.138742
vt 0.324342 0.138742
vt 0.300782 0.179550
vt 0.159417 0.179550
vt 0.065174 0.179550
vt 0.442146 0.179550
vt 0.347903 0.179550
vt 0.253660 0.179550
vt 0.135856 0.220359
vt 0.182978 0.220359
vt 0.159417 0.261168
vt 0.041613 0.220359
vt 0.088735 0.220359
vt 0.065174 0.261168
vt 0.418585 0.220359
vt 0.465707 0.220359
vt 0.442146 0.261168
vt 0.324342 0.220359
vt 0.371464 0.220359
vt 0.347903 0.261168
vt 0.230099 0.220359
vt 0.277221 0.220359
vt 0.253660 0.261168
vt 0.300782 0.261168
vt 0.277221 0.301977
vt 0.395024 0.261168
vt 0.371464 0.301977
vt 0.489267 0.261168
vt 0.465707 0.301977
vt 0.512828 0.220359
vt 0.112296 0.261168
vt 0.088735 0.301977
vt 0.206539 0.261168
vt 0.182978 0.301977
vt 0.536389 0.179550
vt 0.559950 0.138742
vt 0.253660 0.097933
vt 0.230099 0.057124
vt 0.087524 0.369488
vt 0.114736 0.416621
vt 0.060312 0.416621
vt 0.141948 0.463754
vt 0.169160 0.416621
vt 0.196372 0.463754
vt 0.522918 0.369488
vt 0.550130 0.416621
vt 0.495705 0.416621
vt 0.414069 0.369488
vt 0.441281 0.416621
vt 0.386857 0.416621
vt 0.305221 0.369488
vt 0.332433 0.416621
vt 0.278009 0.416621
vt 0.295098 0.673113
vt 0.374715 0.673113
vt 0.334907 0.742064
vt 0.135864 0.673113
vt 0.215481 0.673113
vt 0.175672 0.742064
vt 0.772801 0.673113
vt 0.852418 0.673113
vt 0.812610 0.742064
vt 0.613567 0.673113
vt 0.693184 0.673113
vt 0.653375 0.742064
vt 0.454332 0.673113
vt 0.533950 0.673113
vt 0.494141 0.742064
vt 0.255290 0.742064
vt 0.096055 0.742064
vt 0.732993 0.742064
vt 0.573758 0.742064
vt 0.414524 0.742064
vt 0.215481 0.811015
vt 0.295098 0.811015
vt 0.255290 0.879966
vt 0.056246 0.811015
vt 0.135863 0.811015
vt 0.096055 0.879966
vt 0.693184 0.811015
vt 0.772801 0.811015
vt 0.732993 0.879966
vt 0.533950 0.811015
vt 0.613567 0.811015
vt 0.573758 0.879966
vt 0.374715 0.811015
vt 0.454332 0.811015
vt 0.414524 0.879966
vt 0.494141 0.879966
vt 0.454332 0.948917
vt 0.653375 0.879966
vt 0.613567 0.948917
vt 0.812610 0.879966
vt 0.772801 0.948917
vt 0.852418 0.811015
vt 0.175672 0.879966
vt 0.135864 0.948917
vt 0.334907 0.879966
vt 0.295098 0.948917
vt 0.892227 0.742064
vt 0.932035 0.673113
vt 0.305221 0.463754
vt 0.250796 0.463754
vt 0.359645 0.463754
vt 0.414069 0.463754
vt 0.468493 0.463754
vt 0.522918 0.463754
vt 0.577342 0.463754
vt 0.223584 0.416621
vt 0.196372 0.369488
vt 0.087524 0.463754
vt 0.033100 0.463754
s 0
usemtl マテリアル
f 1/1/1 14/2/1 13/3/1
f 2/4/2 14/5/2 16/6/2
f 1/7/3 13/8/3 18/9/3
f 1/10/4 18/11/4 20/12/4
f 1/13/5 20/14/5 17/15/5
f 2/4/6 16/6/6 23/16/6
f 3/17/7 15/18/7 25/19/7
f 4/20/8 19/21/8 27/22/8
f 5/23/9 21/24/9 29/25/9
f 6/26/10 22/27/10 31/28/10
f 2/4/11 23/16/11 26/29/11
f 3/17/12 25/19/12 28/30/12
f 4/20/13 27/22/13 30/31/13
f 5/23/14 29/25/14 32/32/14
f 6/26/15 31/28/15 24/33/15
f 7/34/16 33/35/16 38/36/16
f 8/37/17 34/38/17 40/39/17
f 9/40/18 35/41/18 41/42/18
f 10/43/19 36/44/19 42/45/19
f 11/46/20 37/47/20 39/48/20
f 39/48/21 42/49/21 12/50/21
f 39/48/22 37/47/22 42/49/22
f 37/47/23 10/43/23 42/49/23
f 42/45/24 41/51/24 12/52/24
f 42/45/25 36/44/25 41/51/25
f 36/44/26 9/40/26 41/51/26
f 41/42/27 40/53/27 12/54/27
f 41/42/28 35/41/28 40/53/28
f 35/41/29 8/55/29 40/53/29
f 40/39/30 38/56/30 12/57/30
f 40/39/31 34/38/31 38/56/31
f 34/38/32 7/34/32 38/56/32
f 38/36/33 39/58/33 12/59/33
f 38/36/34 33/35/34 39/58/34
f 33/35/35 11/46/35 39/58/35
f 24/33/36 37/47/36 11/46/36
f 24/33/37 31/28/37 37/47/37
f 31/28/38 10/43/38 37/47/38
f 32/32/39 36/44/39 10/43/39
f 32/32/40 29/25/40 36/44/40
f 29/25/41 9/40/41 36/44/41
f 30/31/42 35/41/42 9/40/42
f 30/31/43 27/22/43 35/41/43
f 27/22/44 8/55/44 35/41/44
f 28/30/45 34/38/45 8/37/45
f 28/30/46 25/19/46 34/38/46
f 25/19/47 7/34/47 34/38/47
f 26/29/48 33/35/48 7/34/48
f 26/29/49 23/16/49 33/35/49
f 23/16/50 11/46/50 33/35/50
f 31/28/51 32/32/51 10/43/51
f 31/28/52 22/27/52 32/32/52
f 22/27/53 5/23/53 32/32/53
f 29/25/54 30/31/54 9/40/54
f 29/25/55 21/24/55 30/31/55
f 21/24/56 4/20/56 30/31/56
f 27/22/57 28/60/57 8/55/57
f 27/22/58 19/21/58 28/60/58
f 19/21/59 3/61/59 28/60/59
f 25/19/60 26/29/60 7/34/60
f 25/19/61 15/18/61 26/29/61
f 15/18/62 2/4/62 26/29/62
f 23/16/63 24/33/63 11/46/63
f 23/16/64 16/6/64 24/33/64
f 16/6/65 6/26/65 24/33/65
f 17/15/66 22/27/66 6/26/66
f 17/15/67 20/14/67 22/27/67
f 20/14/68 5/23/68 22/27/68
f 20/12/69 21/24/69 5/23/69
f 20/12/70 18/11/70 21/24/70
f 18/11/71 4/20/71 21/24/71
f 18/9/72 19/21/72 4/20/72
f 18/9/73 13/8/73 19/21/73
f 13/8/74 3/61/74 19/21/74
f 16/6/75 17/62/75 6/26/75
f 16/6/76 14/5/76 17/62/76
f 14/5/77 1/63/77 17/62/77
f 13/3/78 15/18/78 3/17/78
f 13/3/79 14/2/79 15/18/79
f 14/2/80 2/4/80 15/18/80
f 43/64/81 56/65/81 55/66/81
f 44/67/82 56/68/82 58/69/82
f 43/70/83 55/71/83 60/72/83
f 43/73/84 60/74/84 62/75/84
f 43/76/85 62/77/85 59/78/85
f 44/79/86 58/80/86 65/81/86
f 45/82/87 57/83/87 67/84/87
f 46/85/88 61/86/88 69/87/88
f 47/88/89 63/89/89 71/90/89
f 48/91/90 64/92/90 73/93/90
f 44/79/91 65/81/91 68/94/91
f 45/82/92 67/84/92 70/95/92
f 46/85/93 69/87/93 72/96/93
f 47/88/94 71/90/94 74/97/94
f 48/91/95 73/93/95 66/98/95
f 49/99/96 75/100/96 80/101/96
f 50/102/97 76/103/97 82/104/97
f 51/105/98 77/106/98 83/107/98
f 52/108/99 78/109/99 84/110/99
f 53/111/100 79/112/100 81/113/100
f 81/113/101 84/114/101 54/115/101
f 81/113/102 79/112/102 84/114/102
f 79/112/103 52/108/103 84/114/103
f 84/110/104 83/116/104 54/117/104
f 84/110/105 78/109/105 83/116/105
f 78/109/106 51/105/106 83/116/106
f 83/107/107 82/118/107 54/119/107
f 83/107/108 77/106/108 82/118/108
f 77/106/109 50/120/109 82/118/109
f 82/104/110 80/121/110 54/122/110
f 82/104/111 76/103/111 80/121/111
f 76/103/112 49/99/112 80/121/112
f 80/101/113 81/123/113 54/124/113
f 80/101/114 75/100/114 81/123/114
f 75/100/115 53/111/115 81/123/115
f 66/98/116 79/112/116 53/111/116
f 66/98/117 73/93/117 79/112/117
f 73/93/118 52/108/118 79/112/118
f 74/97/119 78/109/119 52/108/119
f 74/97/120 71/90/120 78/109/120
f 71/90/121 51/105/121 78/109/121
f 72/96/122 77/106/122 51/105/122
f 72/96/123 69/87/123 77/106/123
f 69/87/124 50/120/124 77/106/124
f 70/95/125 76/103/125 50/102/125
f 70/95/126 67/84/126 76/103/126
f 67/84/127 49/99/127 76/103/127
f 68/94/128 75/100/128 49/99/128
f 68/94/129 65/81/129 75/100/129
f 65/81/130 53/111/130 75/100/130
f 73/93/131 74/97/131 52/108/131
f 73/93/132 64/92/132 74/97/132
f 64/92/133 47/88/133 74/97/133
f 71/90/134 72/96/134 51/105/134
f 71/90/135 63/89/135 72/96/135
f 63/89/136 46/85/136 72/96/136
f 69/87/137 70/125/137 50/120/137
f 69/87/138 61/86/138 70/125/138
f 61/86/139 45/126/139 70/125/139
f 67/84/140 68/94/140 49/99/140
f 67/84/141 57/83/141 68/94/141
f 57/83/142 44/79/142 68/94/142
f 65/81/143 66/98/143 53/111/143
f 65/81/144 58/80/144 66/98/144
f 58/80/145 48/91/145 66/98/145
f 59/78/146 64/127/146 48/128/146
f 59/78/147 62/77/147 64/127/147
f 62/77/148 47/129/148 64/127/148
f 62/75/149 63/130/149 47/129/149
f 62/75/150 60/74/150 63/130/150
f 60/74/151 46/131/151 63/130/151
f 60/72/152 61/132/152 46/131/152
f 60/72/153 55/71/153 61/132/153
f 55/71/154 45/133/154 61/132/154
f 58/69/155 59/134/155 48/128/155
f 58/69/156 56/68/156 59/134/156
f 56/68/157 43/135/157 59/134/157
f 55/66/158 57/136/158 45/137/158
f 55/66/159 56/65/159 57/136/159
f 56/65/160 44/67/160 57/136/160
