# Blender 4.1.1
# www.blender.org
mtllib Colorcone.mtl
o 円柱
v 0.000000 0.057593 -1.000000
v 0.000000 3.539985 -0.106400
v 0.195090 0.057593 -0.980785
v 0.020758 3.539985 -0.104355
v 0.382683 0.057593 -0.923880
v 0.040717 3.539985 -0.098301
v 0.555570 0.057593 -0.831470
v 0.059113 3.539985 -0.088468
v 0.707107 0.057593 -0.707107
v 0.075236 3.539985 -0.075236
v 0.831470 0.057593 -0.555570
v 0.088468 3.539985 -0.059113
v 0.923880 0.057593 -0.382683
v 0.098301 3.539985 -0.040717
v 0.980785 0.057593 -0.195090
v 0.104355 3.539985 -0.020758
v 1.000000 0.057593 0.000000
v 0.106400 3.539985 -0.000000
v 0.980785 0.057593 0.195090
v 0.104355 3.539985 0.020758
v 0.923880 0.057593 0.382683
v 0.098301 3.539985 0.040717
v 0.831470 0.057593 0.555570
v 0.088468 3.539985 0.059113
v 0.707107 0.057593 0.707107
v 0.075236 3.539985 0.075236
v 0.555570 0.057593 0.831470
v 0.059113 3.539985 0.088468
v 0.382683 0.057593 0.923880
v 0.040717 3.539985 0.098301
v 0.195090 0.057593 0.980785
v 0.020758 3.539985 0.104355
v 0.000000 0.057593 1.000000
v 0.000000 3.539985 0.106400
v -0.195090 0.057593 0.980785
v -0.020758 3.539985 0.104355
v -0.382683 0.057593 0.923880
v -0.040717 3.539985 0.098301
v -0.555570 0.057593 0.831470
v -0.059113 3.539985 0.088468
v -0.707107 0.057593 0.707107
v -0.075236 3.539985 0.075236
v -0.831470 0.057593 0.555570
v -0.088468 3.539985 0.059113
v -0.923880 0.057593 0.382683
v -0.098301 3.539985 0.040717
v -0.980785 0.057593 0.195090
v -0.104355 3.539985 0.020758
v -1.000000 0.057593 0.000000
v -0.106400 3.539985 -0.000000
v -0.980785 0.057593 -0.195090
v -0.104355 3.539985 -0.020758
v -0.923880 0.057593 -0.382683
v -0.098301 3.539985 -0.040717
v -0.831470 0.057593 -0.555570
v -0.088468 3.539985 -0.059113
v -0.707107 0.057593 -0.707107
v -0.075236 3.539985 -0.075236
v -0.555570 0.057593 -0.831470
v -0.059113 3.539985 -0.088468
v -0.382683 0.057593 -0.923880
v -0.040717 3.539985 -0.098301
v -0.195090 0.057593 -0.980785
v -0.020758 3.539985 -0.104355
v 0.000000 1.798789 -0.553200
v 0.107924 1.798789 -0.542570
v 0.211700 1.798789 -0.511090
v 0.307341 1.798789 -0.459969
v 0.391171 1.798789 -0.391171
v 0.459969 1.798789 -0.307341
v 0.511090 1.798789 -0.211700
v 0.542570 1.798789 -0.107924
v 0.553200 1.798789 -0.000000
v 0.542570 1.798789 0.107924
v 0.511090 1.798789 0.211700
v 0.459969 1.798789 0.307341
v 0.391171 1.798789 0.391171
v 0.307341 1.798789 0.459969
v 0.211700 1.798789 0.511090
v 0.107924 1.798789 0.542570
v 0.000000 1.798789 0.553200
v -0.107924 1.798789 0.542570
v -0.211700 1.798789 0.511090
v -0.307341 1.798789 0.459969
v -0.391171 1.798789 0.391171
v -0.459969 1.798789 0.307341
v -0.511090 1.798789 0.211700
v -0.542570 1.798789 0.107924
v -0.553200 1.798789 -0.000000
v -0.542570 1.798789 -0.107924
v -0.511090 1.798789 -0.211700
v -0.459969 1.798789 -0.307341
v -0.391171 1.798789 -0.391171
v -0.307341 1.798789 -0.459969
v -0.211700 1.798789 -0.511090
v -0.107924 1.798789 -0.542570
v 0.151507 0.928191 -0.761678
v 0.297192 0.928191 -0.717485
v 0.431456 0.928191 -0.645719
v 0.549139 0.928191 -0.549139
v 0.645719 0.928191 -0.431456
v 0.717485 0.928191 -0.297192
v 0.761678 0.928191 -0.151507
v 0.776600 0.928191 -0.000000
v 0.761678 0.928191 0.151507
v 0.717485 0.928191 0.297192
v 0.645719 0.928191 0.431456
v 0.549139 0.928191 0.549139
v 0.431456 0.928191 0.645719
v 0.297192 0.928191 0.717485
v 0.151507 0.928191 0.761678
v 0.000000 0.928191 0.776600
v -0.151507 0.928191 0.761678
v -0.297192 0.928191 0.717485
v -0.431456 0.928191 0.645719
v -0.549139 0.928191 0.549139
v -0.645719 0.928191 0.431456
v -0.717485 0.928191 0.297192
v -0.761678 0.928191 0.151507
v -0.776600 0.928191 -0.000000
v -0.761678 0.928191 -0.151507
v -0.717485 0.928191 -0.297192
v -0.645719 0.928191 -0.431456
v -0.549139 0.928191 -0.549139
v -0.431456 0.928191 -0.645719
v -0.297192 0.928191 -0.717485
v -0.151507 0.928191 -0.761678
v 0.000000 0.928191 -0.776600
v 0.000000 2.669387 -0.329800
v 0.064341 2.669387 -0.323463
v 0.126209 2.669387 -0.304695
v 0.183227 2.669387 -0.274219
v 0.233204 2.669387 -0.233204
v 0.274219 2.669387 -0.183227
v 0.304695 2.669387 -0.126209
v 0.323463 2.669387 -0.064341
v 0.329800 2.669387 -0.000000
v 0.323463 2.669387 0.064341
v 0.304695 2.669387 0.126209
v 0.274219 2.669387 0.183227
v 0.233204 2.669387 0.233204
v 0.183227 2.669387 0.274219
v 0.126209 2.669387 0.304695
v 0.064341 2.669387 0.323463
v 0.000000 2.669387 0.329800
v -0.064341 2.669387 0.323463
v -0.126209 2.669387 0.304695
v -0.183227 2.669387 0.274219
v -0.233204 2.669387 0.233204
v -0.274219 2.669387 0.183227
v -0.304695 2.669387 0.126209
v -0.323463 2.669387 0.064341
v -0.329800 2.669387 -0.000000
v -0.323463 2.669387 -0.064341
v -0.304695 2.669387 -0.126209
v -0.274219 2.669387 -0.183227
v -0.233204 2.669387 -0.233204
v -0.183227 2.669387 -0.274219
v -0.126209 2.669387 -0.304695
v -0.064341 2.669387 -0.323463
v 0.086132 2.234088 -0.433017
v 0.168955 2.234088 -0.407893
v 0.245284 2.234088 -0.367094
v 0.312188 2.234088 -0.312188
v 0.367094 2.234088 -0.245284
v 0.407893 2.234088 -0.168955
v 0.433017 2.234088 -0.086132
v 0.441500 2.234088 -0.000000
v 0.433017 2.234088 0.086132
v 0.407893 2.234088 0.168955
v 0.367094 2.234088 0.245284
v 0.312188 2.234088 0.312188
v 0.245284 2.234088 0.367094
v 0.168955 2.234088 0.407893
v 0.086132 2.234088 0.433017
v 0.000000 2.234088 0.441500
v -0.086132 2.234088 0.433017
v -0.168955 2.234088 0.407893
v -0.245284 2.234088 0.367094
v -0.312188 2.234088 0.312188
v -0.367094 2.234088 0.245284
v -0.407893 2.234088 0.168955
v -0.433017 2.234088 0.086132
v -0.441500 2.234088 -0.000000
v -0.433017 2.234088 -0.086132
v -0.407893 2.234088 -0.168955
v -0.367094 2.234088 -0.245284
v -0.312188 2.234088 -0.312188
v -0.245284 2.234088 -0.367094
v -0.168955 2.234088 -0.407893
v -0.086132 2.234088 -0.433017
v 0.000000 2.234088 -0.441500
v 0.000000 1.363490 -0.664900
v 0.129716 1.363490 -0.652124
v 0.254446 1.363490 -0.614287
v 0.369399 1.363490 -0.552844
v 0.470155 1.363490 -0.470155
v 0.552844 1.363490 -0.369399
v 0.614287 1.363490 -0.254446
v 0.652124 1.363490 -0.129716
v 0.664900 1.363490 -0.000000
v 0.652124 1.363490 0.129716
v 0.614287 1.363490 0.254446
v 0.552844 1.363490 0.369399
v 0.470155 1.363490 0.470155
v 0.369399 1.363490 0.552844
v 0.254446 1.363490 0.614287
v 0.129716 1.363490 0.652124
v 0.000000 1.363490 0.664900
v -0.129716 1.363490 0.652124
v -0.254446 1.363490 0.614287
v -0.369399 1.363490 0.552844
v -0.470155 1.363490 0.470155
v -0.552844 1.363490 0.369399
v -0.614287 1.363490 0.254446
v -0.652124 1.363490 0.129716
v -0.664900 1.363490 -0.000000
v -0.652124 1.363490 -0.129716
v -0.614287 1.363490 -0.254446
v -0.552844 1.363490 -0.369399
v -0.470155 1.363490 -0.470155
v -0.369399 1.363490 -0.552844
v -0.254446 1.363490 -0.614287
v -0.129716 1.363490 -0.652124
v 0.173299 0.492892 -0.871232
v 0.339938 0.492892 -0.820682
v 0.493513 0.492892 -0.738594
v 0.628123 0.492892 -0.628123
v 0.738594 0.492892 -0.493513
v 0.820682 0.492892 -0.339938
v 0.871232 0.492892 -0.173299
v 0.888300 0.492892 -0.000000
v 0.871232 0.492892 0.173299
v 0.820682 0.492892 0.339938
v 0.738594 0.492892 0.493513
v 0.628123 0.492892 0.628123
v 0.493513 0.492892 0.738594
v 0.339938 0.492892 0.820682
v 0.173299 0.492892 0.871231
v 0.000000 0.492892 0.888300
v -0.173299 0.492892 0.871231
v -0.339938 0.492892 0.820682
v -0.493513 0.492892 0.738594
v -0.628123 0.492892 0.628123
v -0.738594 0.492892 0.493513
v -0.820682 0.492892 0.339938
v -0.871231 0.492892 0.173299
v -0.888300 0.492892 -0.000000
v -0.871231 0.492892 -0.173299
v -0.820682 0.492892 -0.339938
v -0.738594 0.492892 -0.493513
v -0.628123 0.492892 -0.628123
v -0.493513 0.492892 -0.738594
v -0.339938 0.492892 -0.820682
v -0.173299 0.492892 -0.871232
v 0.000000 0.492892 -0.888300
v 0.000000 3.104686 -0.218100
v 0.042549 3.104686 -0.213909
v 0.083463 3.104686 -0.201498
v 0.121170 3.104686 -0.181343
v 0.154220 3.104686 -0.154220
v 0.181343 3.104686 -0.121170
v 0.201498 3.104686 -0.083463
v 0.213909 3.104686 -0.042549
v 0.218100 3.104686 -0.000000
v 0.213909 3.104686 0.042549
v 0.201498 3.104686 0.083463
v 0.181343 3.104686 0.121170
v 0.154220 3.104686 0.154220
v 0.121170 3.104686 0.181343
v 0.083463 3.104686 0.201498
v 0.042549 3.104686 0.213909
v 0.000000 3.104686 0.218100
v -0.042549 3.104686 0.213909
v -0.083463 3.104686 0.201498
v -0.121170 3.104686 0.181343
v -0.154220 3.104686 0.154220
v -0.181343 3.104686 0.121170
v -0.201498 3.104686 0.083463
v -0.213909 3.104686 0.042549
v -0.218100 3.104686 -0.000000
v -0.213909 3.104686 -0.042549
v -0.201498 3.104686 -0.083463
v -0.181343 3.104686 -0.121170
v -0.154220 3.104686 -0.154220
v -0.121170 3.104686 -0.181343
v -0.083463 3.104686 -0.201498
v -0.042549 3.104686 -0.213909
v -1.252289 0.059967 1.252289
v -1.252289 0.454343 1.252289
v -1.252289 0.059967 -1.252289
v -1.252289 0.454343 -1.252289
v 1.252289 0.059967 1.252289
v 1.252289 0.454343 1.252289
v 1.252289 0.059967 -1.252289
v 1.252289 0.454343 -1.252289
v -1.252289 0.257155 1.252289
v -1.252289 0.257155 -1.252289
v 1.252289 0.257155 -1.252289
v 1.252289 0.257155 1.252289
vn 0.0950 0.2474 -0.9642
vn 0.2813 0.2474 -0.9272
vn 0.4567 0.2474 -0.8545
vn 0.6147 0.2474 -0.7490
vn 0.7490 0.2474 -0.6147
vn 0.8545 0.2474 -0.4567
vn 0.9272 0.2474 -0.2813
vn 0.9642 0.2474 -0.0950
vn 0.9642 0.2474 0.0950
vn 0.9272 0.2474 0.2813
vn 0.8545 0.2474 0.4567
vn 0.7490 0.2474 0.6147
vn 0.6147 0.2474 0.7490
vn 0.4567 0.2474 0.8545
vn 0.2813 0.2474 0.9272
vn 0.0950 0.2474 0.9642
vn -0.0950 0.2474 0.9642
vn -0.2813 0.2474 0.9272
vn -0.4567 0.2474 0.8545
vn -0.6147 0.2474 0.7490
vn -0.7490 0.2474 0.6147
vn -0.8545 0.2474 0.4567
vn -0.9272 0.2474 0.2813
vn -0.9642 0.2474 0.0950
vn -0.9642 0.2474 -0.0950
vn -0.9272 0.2474 -0.2813
vn -0.8545 0.2474 -0.4567
vn -0.7490 0.2474 -0.6147
vn -0.6147 0.2474 -0.7490
vn -0.4567 0.2474 -0.8545
vn -0.0000 1.0000 -0.0000
vn -0.2813 0.2474 -0.9272
vn -0.0950 0.2474 -0.9642
vn -0.0000 -1.0000 -0.0000
vn -1.0000 -0.0000 -0.0000
vn -0.0000 -0.0000 -1.0000
vn 1.0000 -0.0000 -0.0000
vn -0.0000 -0.0000 1.0000
vn -0.0001 1.0000 -0.0000
vn 0.0001 1.0000 -0.0000
vt 0.457829 0.959828
vt 0.444777 0.933725
vt 0.457829 0.933725
vt 0.444777 0.959828
vt 0.431725 0.933725
vt 0.431725 0.959828
vt 0.418673 0.933725
vt 0.418673 0.959828
vt 0.405621 0.933725
vt 0.392570 0.959828
vt 0.392570 0.933725
vt 0.379518 0.933725
vt 0.379518 0.959828
vt 0.366466 0.933725
vt 0.366466 0.959828
vt 0.353414 0.933725
vt 0.353414 0.959828
vt 0.340363 0.933725
vt 0.340363 0.959828
vt 0.327311 0.933725
vt 0.327311 0.959828
vt 0.314259 0.933725
vt 0.314259 0.959828
vt 0.301207 0.933725
vt 0.301207 0.959828
vt 0.288155 0.933725
vt 0.288155 0.959828
vt 0.275104 0.933725
vt 0.275104 0.959828
vt 0.262052 0.933725
vt 0.249000 0.959828
vt 0.249000 0.933725
vt 0.235948 0.933725
vt 0.235948 0.959828
vt 0.222897 0.933725
vt 0.222897 0.959828
vt 0.209845 0.933725
vt 0.209845 0.959828
vt 0.196793 0.933725
vt 0.196793 0.959828
vt 0.183741 0.933725
vt 0.183741 0.959828
vt 0.170689 0.933725
vt 0.170689 0.959828
vt 0.157638 0.933725
vt 0.144586 0.959828
vt 0.144586 0.933725
vt 0.131534 0.933725
vt 0.131534 0.959828
vt 0.118482 0.933725
vt 0.118482 0.959828
vt 0.105431 0.933725
vt 0.105431 0.959828
vt 0.092379 0.933725
vt 0.079327 0.959828
vt 0.079327 0.933725
vt 0.066275 0.933725
vt 0.182945 0.553978
vt 0.237193 0.608226
vt 0.182945 0.739193
vt 0.066275 0.959828
vt 0.053224 0.933725
vt 0.053224 0.959828
vt 0.040172 0.933725
vt 0.894656 0.144706
vt 0.776789 0.223462
vt 0.855545 0.341329
vt 0.048302 0.299277
vt 0.035250 0.273174
vt 0.048302 0.273174
vt 0.061354 0.273174
vt 0.074405 0.299277
vt 0.074405 0.273174
vt 0.087457 0.273174
vt 0.100509 0.299277
vt 0.100509 0.273174
vt 0.113561 0.273174
vt 0.126613 0.299277
vt 0.126613 0.273174
vt 0.139664 0.299277
vt 0.139664 0.273174
vt 0.152716 0.273174
vt 0.165768 0.299277
vt 0.165768 0.273174
vt 0.178820 0.299277
vt 0.178820 0.273174
vt 0.191871 0.299277
vt 0.191871 0.273174
vt 0.204923 0.299277
vt 0.204923 0.273174
vt 0.217975 0.299277
vt 0.217975 0.273174
vt 0.231027 0.299277
vt 0.231027 0.273174
vt 0.244079 0.299277
vt 0.244079 0.273174
vt 0.257130 0.299277
vt 0.257130 0.273174
vt 0.270182 0.299277
vt 0.270182 0.273174
vt 0.283234 0.299277
vt 0.283234 0.273174
vt 0.296286 0.299277
vt 0.296286 0.273174
vt 0.309337 0.299277
vt 0.309337 0.273174
vt 0.322389 0.273174
vt 0.335441 0.299277
vt 0.335441 0.273174
vt 0.348493 0.299277
vt 0.348493 0.273174
vt 0.361545 0.299277
vt 0.361544 0.273174
vt 0.374596 0.273174
vt 0.387648 0.299277
vt 0.387648 0.273174
vt 0.400700 0.273174
vt 0.413752 0.299277
vt 0.413752 0.273174
vt 0.426803 0.273174
vt 0.439855 0.299277
vt 0.439855 0.273174
vt 0.452907 0.273174
vt 0.457828 0.777103
vt 0.444777 0.803207
vt 0.444777 0.777103
vt 0.431725 0.777103
vt 0.418673 0.803207
vt 0.418673 0.777103
vt 0.405621 0.777103
vt 0.405621 0.803207
vt 0.392570 0.777103
vt 0.392570 0.803207
vt 0.379518 0.777103
vt 0.366466 0.803207
vt 0.366466 0.777103
vt 0.353414 0.777103
vt 0.340362 0.803207
vt 0.340363 0.777103
vt 0.327311 0.777103
vt 0.314259 0.803207
vt 0.314259 0.777103
vt 0.301207 0.777103
vt 0.301207 0.803207
vt 0.288155 0.777103
vt 0.275104 0.803207
vt 0.275104 0.777103
vt 0.262052 0.777103
vt 0.249000 0.803207
vt 0.249000 0.777103
vt 0.235948 0.777103
vt 0.222897 0.803207
vt 0.222897 0.777103
vt 0.209845 0.777103
vt 0.209845 0.803207
vt 0.196793 0.777103
vt 0.196793 0.803207
vt 0.183741 0.777103
vt 0.170689 0.803207
vt 0.170689 0.777103
vt 0.157638 0.777103
vt 0.144586 0.803207
vt 0.144586 0.777103
vt 0.131534 0.777103
vt 0.118482 0.803207
vt 0.118482 0.777103
vt 0.105431 0.777103
vt 0.105431 0.803207
vt 0.092379 0.777103
vt 0.092379 0.803207
vt 0.079327 0.777103
vt 0.079327 0.803207
vt 0.066275 0.777103
vt 0.053224 0.803207
vt 0.053224 0.777103
vt 0.040172 0.777103
vt 0.048302 0.351484
vt 0.035250 0.325381
vt 0.048302 0.325381
vt 0.061354 0.325381
vt 0.074405 0.351484
vt 0.074405 0.325381
vt 0.087457 0.325381
vt 0.100509 0.351484
vt 0.100509 0.325381
vt 0.113561 0.325381
vt 0.126613 0.325381
vt 0.113561 0.351484
vt 0.139664 0.351484
vt 0.139664 0.325381
vt 0.152716 0.325381
vt 0.165768 0.351484
vt 0.165768 0.325381
vt 0.178820 0.351484
vt 0.178820 0.325381
vt 0.191871 0.325381
vt 0.204923 0.351484
vt 0.204923 0.325381
vt 0.217975 0.351484
vt 0.217975 0.325381
vt 0.231027 0.325381
vt 0.244079 0.351484
vt 0.244079 0.325381
vt 0.257130 0.325381
vt 0.270182 0.351484
vt 0.270182 0.325381
vt 0.283234 0.351484
vt 0.283234 0.325381
vt 0.296286 0.325381
vt 0.309337 0.351484
vt 0.309337 0.325381
vt 0.322389 0.351484
vt 0.322389 0.325381
vt 0.335441 0.351484
vt 0.335441 0.325381
vt 0.348493 0.325381
vt 0.361545 0.351484
vt 0.361544 0.325381
vt 0.374596 0.325381
vt 0.387648 0.351484
vt 0.387648 0.325381
vt 0.400700 0.325381
vt 0.413752 0.351484
vt 0.413752 0.325381
vt 0.426803 0.351484
vt 0.426803 0.325381
vt 0.439855 0.351484
vt 0.439855 0.325381
vt 0.452907 0.325381
vt 0.457829 0.855414
vt 0.444777 0.881518
vt 0.444777 0.855414
vt 0.431725 0.855414
vt 0.431725 0.881518
vt 0.418673 0.855414
vt 0.418673 0.881518
vt 0.405621 0.855414
vt 0.392570 0.881518
vt 0.392570 0.855414
vt 0.379518 0.855414
vt 0.366466 0.881518
vt 0.366466 0.855414
vt 0.353414 0.855414
vt 0.340362 0.881518
vt 0.340362 0.855414
vt 0.327311 0.855414
vt 0.314259 0.881518
vt 0.314259 0.855414
vt 0.301207 0.855414
vt 0.301207 0.881518
vt 0.288155 0.855414
vt 0.288155 0.881518
vt 0.275104 0.855414
vt 0.275104 0.881518
vt 0.262052 0.855414
vt 0.249000 0.881518
vt 0.249000 0.855414
vt 0.235948 0.855414
vt 0.222897 0.881518
vt 0.222897 0.855414
vt 0.209845 0.855414
vt 0.209845 0.881518
vt 0.196793 0.855414
vt 0.196793 0.881518
vt 0.183741 0.855414
vt 0.183741 0.881518
vt 0.170689 0.855414
vt 0.170689 0.881518
vt 0.157638 0.855414
vt 0.144586 0.881518
vt 0.144586 0.855414
vt 0.131534 0.855414
vt 0.131534 0.881518
vt 0.118482 0.855414
vt 0.118482 0.881518
vt 0.105431 0.855414
vt 0.105431 0.881518
vt 0.092379 0.855414
vt 0.079327 0.881518
vt 0.079327 0.855414
vt 0.066275 0.855414
vt 0.053224 0.881518
vt 0.053224 0.855414
vt 0.040172 0.855414
vt 0.457829 0.829311
vt 0.457829 0.803207
vt 0.444777 0.829311
vt 0.431725 0.803207
vt 0.418673 0.829311
vt 0.392570 0.829311
vt 0.379518 0.803207
vt 0.379518 0.829310
vt 0.353414 0.829311
vt 0.353414 0.803207
vt 0.340362 0.829311
vt 0.327311 0.803207
vt 0.314259 0.829311
vt 0.301207 0.829311
vt 0.288155 0.803207
vt 0.288155 0.829311
vt 0.262052 0.829310
vt 0.262052 0.803207
vt 0.249000 0.829311
vt 0.235948 0.803207
vt 0.235948 0.829311
vt 0.222897 0.829311
vt 0.196793 0.829310
vt 0.183741 0.803207
vt 0.183741 0.829311
vt 0.170689 0.829311
vt 0.157638 0.803207
vt 0.144586 0.829311
vt 0.131534 0.803207
vt 0.131534 0.829311
vt 0.118482 0.829310
vt 0.105431 0.829311
vt 0.092379 0.829310
vt 0.079327 0.829311
vt 0.066275 0.803207
vt 0.053224 0.829310
vt 0.040172 0.829311
vt 0.040172 0.803207
vt 0.040172 0.751000
vt 0.053224 0.751000
vt 0.066275 0.751000
vt 0.079327 0.751000
vt 0.092379 0.751000
vt 0.105431 0.751000
vt 0.118482 0.751000
vt 0.131534 0.751000
vt 0.144586 0.751000
vt 0.157638 0.751000
vt 0.170689 0.751000
vt 0.183741 0.751000
vt 0.196793 0.751000
vt 0.209845 0.751000
vt 0.222897 0.751000
vt 0.235948 0.751000
vt 0.249000 0.751000
vt 0.262052 0.751000
vt 0.275104 0.751000
vt 0.288155 0.751000
vt 0.301207 0.751000
vt 0.314259 0.751000
vt 0.327311 0.751000
vt 0.340363 0.751000
vt 0.353414 0.751000
vt 0.366466 0.751000
vt 0.379518 0.751000
vt 0.392570 0.751000
vt 0.405621 0.751000
vt 0.418673 0.751000
vt 0.431725 0.751000
vt 0.444777 0.751000
vt 0.457829 0.751000
vt 0.040172 0.907621
vt 0.053224 0.907621
vt 0.066275 0.907621
vt 0.079327 0.907621
vt 0.092379 0.907621
vt 0.105431 0.907621
vt 0.118482 0.907621
vt 0.131534 0.907621
vt 0.144586 0.907621
vt 0.157638 0.907621
vt 0.170689 0.907621
vt 0.183741 0.907621
vt 0.196793 0.907621
vt 0.209845 0.907621
vt 0.222897 0.907621
vt 0.235948 0.907621
vt 0.249000 0.907621
vt 0.262052 0.907621
vt 0.275104 0.907621
vt 0.288155 0.907621
vt 0.301207 0.907621
vt 0.314259 0.907621
vt 0.327311 0.907621
vt 0.340363 0.907621
vt 0.353414 0.907621
vt 0.366466 0.907621
vt 0.379518 0.907621
vt 0.392570 0.907621
vt 0.405621 0.907621
vt 0.418673 0.907621
vt 0.431725 0.907621
vt 0.444777 0.907621
vt 0.457829 0.907621
vt 0.854883 0.547093
vt 0.802676 0.651507
vt 0.802676 0.547093
vt 0.854883 0.651507
vt 0.802676 0.755921
vt 0.854883 0.755921
vt 0.802676 0.860336
vt 0.854883 0.860336
vt 0.802676 0.964750
vt 0.092379 0.855414
vt 0.959298 0.755921
vt 0.196793 0.855414
vt 0.249000 0.646586
vt 0.196793 0.646586
vt 0.249000 0.542171
vt 0.196793 0.542171
vt 0.405621 0.959828
vt 0.262052 0.959828
vt 0.157638 0.959828
vt 0.092379 0.959828
vt 0.164141 0.744897
vt 0.144586 0.746823
vt 0.125031 0.744897
vt 0.106227 0.739193
vt 0.088897 0.729930
vt 0.073707 0.717464
vt 0.061241 0.702275
vt 0.051978 0.684945
vt 0.046274 0.666141
vt 0.051978 0.608226
vt 0.044348 0.646586
vt 0.046274 0.627030
vt 0.061241 0.590897
vt 0.106227 0.553978
vt 0.073707 0.575707
vt 0.088897 0.563241
vt 0.125031 0.548274
vt 0.144586 0.546348
vt 0.164141 0.548274
vt 0.200275 0.563241
vt 0.215465 0.575707
vt 0.227930 0.590897
vt 0.242898 0.627030
vt 0.244824 0.646586
vt 0.242898 0.666141
vt 0.237193 0.684945
vt 0.227930 0.702275
vt 0.215465 0.717464
vt 0.200275 0.729930
vt 0.040172 0.959828
vt 0.875100 0.343255
vt 0.894656 0.341329
vt 0.913460 0.335625
vt 0.930789 0.326362
vt 0.945979 0.313896
vt 0.958445 0.298706
vt 0.967708 0.281377
vt 0.973412 0.262573
vt 0.975338 0.243017
vt 0.973412 0.223462
vt 0.967708 0.204658
vt 0.958445 0.187328
vt 0.945979 0.172139
vt 0.930789 0.159673
vt 0.913460 0.150410
vt 0.875100 0.142780
vt 0.855545 0.144706
vt 0.836741 0.150410
vt 0.819411 0.159673
vt 0.804222 0.172139
vt 0.791756 0.187328
vt 0.782493 0.204658
vt 0.774863 0.243017
vt 0.776789 0.262573
vt 0.782493 0.281377
vt 0.791756 0.298706
vt 0.804222 0.313896
vt 0.819411 0.326362
vt 0.836741 0.335625
vt 0.035250 0.299277
vt 0.061354 0.299277
vt 0.087457 0.299277
vt 0.113561 0.299277
vt 0.152716 0.299277
vt 0.322389 0.299277
vt 0.374596 0.299277
vt 0.400700 0.299277
vt 0.426803 0.299277
vt 0.452907 0.299277
vt 0.035250 0.351484
vt 0.061354 0.351484
vt 0.087457 0.351484
vt 0.126613 0.351484
vt 0.152716 0.351484
vt 0.191871 0.351484
vt 0.231027 0.351484
vt 0.257130 0.351484
vt 0.296286 0.351484
vt 0.348493 0.351484
vt 0.374596 0.351484
vt 0.400700 0.351484
vt 0.452907 0.351484
vt 0.457829 0.881518
vt 0.405621 0.881518
vt 0.379518 0.881518
vt 0.353414 0.881518
vt 0.327311 0.881518
vt 0.262052 0.881518
vt 0.235948 0.881518
vt 0.157638 0.881518
vt 0.092379 0.881518
vt 0.066275 0.881518
vt 0.040172 0.881518
vt 0.431725 0.829310
vt 0.405621 0.829311
vt 0.366466 0.829310
vt 0.327311 0.829310
vt 0.275104 0.829311
vt 0.209845 0.829311
vt 0.157638 0.829310
vt 0.066275 0.829311
vt 0.854883 0.964750
vt 0.959298 0.860336
s 0
usemtl マテリアル
f 2/1/1 258/2/1 257/3/1
f 4/4/2 259/5/2 258/2/2
f 6/6/3 260/7/3 259/5/3
f 8/8/4 261/9/4 260/7/4
f 261/9/5 12/10/5 262/11/5
f 12/10/6 263/12/6 262/11/6
f 14/13/7 264/14/7 263/12/7
f 16/15/8 265/16/8 264/14/8
f 18/17/9 266/18/9 265/16/9
f 20/19/10 267/20/10 266/18/10
f 22/21/11 268/22/11 267/20/11
f 24/23/12 269/24/12 268/22/12
f 26/25/13 270/26/13 269/24/13
f 28/27/14 271/28/14 270/26/14
f 30/29/15 272/30/15 271/28/15
f 272/30/16 34/31/16 273/32/16
f 34/31/17 274/33/17 273/32/17
f 36/34/18 275/35/18 274/33/18
f 38/36/19 276/37/19 275/35/19
f 40/38/20 277/39/20 276/37/20
f 42/40/21 278/41/21 277/39/21
f 44/42/22 279/43/22 278/41/22
f 46/44/23 280/45/23 279/43/23
f 280/45/24 50/46/24 281/47/24
f 50/46/25 282/48/25 281/47/25
f 52/49/26 283/50/26 282/48/26
f 54/51/27 284/52/27 283/50/27
f 56/53/28 285/54/28 284/52/28
f 285/54/29 60/55/29 286/56/29
f 60/55/30 287/57/30 286/56/30
f 30/58/31 22/59/31 6/60/31
f 62/61/32 288/62/32 287/57/32
f 64/63/33 257/64/33 288/62/33
f 31/65/34 47/66/34 63/67/34
f 96/68/33 193/69/33 224/70/33
f 223/71/32 96/68/32 224/70/32
f 94/72/30 223/71/30 222/73/30
f 221/74/29 94/72/29 222/73/29
f 92/75/28 221/74/28 220/76/28
f 219/77/27 92/75/27 220/76/27
f 90/78/26 219/77/26 218/79/26
f 89/80/25 218/79/25 217/81/25
f 216/82/24 89/80/24 217/81/24
f 87/83/23 216/82/23 215/84/23
f 86/85/22 215/84/22 214/86/22
f 85/87/21 214/86/21 213/88/21
f 84/89/20 213/88/20 212/90/20
f 83/91/19 212/90/19 211/92/19
f 82/93/18 211/92/18 210/94/18
f 81/95/17 210/94/17 209/96/17
f 80/97/16 209/96/16 208/98/16
f 79/99/15 208/98/15 207/100/15
f 78/101/14 207/100/14 206/102/14
f 77/103/13 206/102/13 205/104/13
f 76/105/12 205/104/12 204/106/12
f 203/107/11 76/105/11 204/106/11
f 74/108/10 203/107/10 202/109/10
f 73/110/9 202/109/9 201/111/9
f 72/112/8 201/111/8 200/113/8
f 199/114/7 72/112/7 200/113/7
f 70/115/6 199/114/6 198/116/6
f 197/117/5 70/115/5 198/116/5
f 68/118/4 197/117/4 196/119/4
f 195/120/3 68/118/3 196/119/3
f 66/121/2 195/120/2 194/122/2
f 193/123/1 66/121/1 194/122/1
f 256/124/1 97/125/1 225/126/1
f 97/125/2 226/127/2 225/126/2
f 226/127/3 99/128/3 227/129/3
f 99/128/4 228/130/4 227/129/4
f 100/131/5 229/132/5 228/130/5
f 101/133/6 230/134/6 229/132/6
f 230/134/7 103/135/7 231/136/7
f 103/135/8 232/137/8 231/136/8
f 232/137/9 105/138/9 233/139/9
f 105/138/10 234/140/10 233/139/10
f 234/140/11 107/141/11 235/142/11
f 107/141/12 236/143/12 235/142/12
f 108/144/13 237/145/13 236/143/13
f 237/145/14 110/146/14 238/147/14
f 110/146/15 239/148/15 238/147/15
f 239/148/16 112/149/16 240/150/16
f 112/149/17 241/151/17 240/150/17
f 241/151/18 114/152/18 242/153/18
f 114/152/19 243/154/19 242/153/19
f 115/155/20 244/156/20 243/154/20
f 116/157/21 245/158/21 244/156/21
f 245/158/22 118/159/22 246/160/22
f 118/159/23 247/161/23 246/160/23
f 247/161/24 120/162/24 248/163/24
f 120/162/25 249/164/25 248/163/25
f 249/164/26 122/165/26 250/166/26
f 122/165/27 251/167/27 250/166/27
f 123/168/28 252/169/28 251/167/28
f 124/170/29 253/171/29 252/169/29
f 125/172/30 254/173/30 253/171/30
f 254/173/32 127/174/32 255/175/32
f 127/174/33 256/176/33 255/175/33
f 160/177/33 192/178/33 191/179/33
f 190/180/32 160/177/32 191/179/32
f 158/181/30 190/180/30 189/182/30
f 188/183/29 158/181/29 189/182/29
f 156/184/28 188/183/28 187/185/28
f 186/186/27 156/184/27 187/185/27
f 185/187/26 155/188/26 186/186/26
f 153/189/25 185/187/25 184/190/25
f 183/191/24 153/189/24 184/190/24
f 151/192/23 183/191/23 182/193/23
f 150/194/22 182/193/22 181/195/22
f 180/196/21 150/194/21 181/195/21
f 148/197/20 180/196/20 179/198/20
f 147/199/19 179/198/19 178/200/19
f 177/201/18 147/199/18 178/200/18
f 145/202/17 177/201/17 176/203/17
f 175/204/16 145/202/16 176/203/16
f 143/205/15 175/204/15 174/206/15
f 142/207/14 174/206/14 173/208/14
f 172/209/13 142/207/13 173/208/13
f 140/210/12 172/209/12 171/211/12
f 139/212/11 171/211/11 170/213/11
f 138/214/10 170/213/10 169/215/10
f 168/216/9 138/214/9 169/215/9
f 136/217/8 168/216/8 167/218/8
f 166/219/7 136/217/7 167/218/7
f 134/220/6 166/219/6 165/221/6
f 164/222/5 134/220/5 165/221/5
f 132/223/4 164/222/4 163/224/4
f 131/225/3 163/224/3 162/226/3
f 130/227/2 162/226/2 161/228/2
f 192/229/1 130/227/1 161/228/1
f 65/230/1 161/231/1 66/232/1
f 161/231/2 67/233/2 66/232/2
f 162/234/3 68/235/3 67/233/3
f 163/236/4 69/237/4 68/235/4
f 69/237/5 165/238/5 70/239/5
f 165/238/6 71/240/6 70/239/6
f 71/240/7 167/241/7 72/242/7
f 167/241/8 73/243/8 72/242/8
f 73/243/9 169/244/9 74/245/9
f 169/244/10 75/246/10 74/245/10
f 75/246/11 171/247/11 76/248/11
f 171/247/12 77/249/12 76/248/12
f 172/250/13 78/251/13 77/249/13
f 173/252/14 79/253/14 78/251/14
f 174/254/15 80/255/15 79/253/15
f 80/255/16 176/256/16 81/257/16
f 176/256/17 82/258/17 81/257/17
f 82/258/18 178/259/18 83/260/18
f 178/259/19 84/261/19 83/260/19
f 179/262/20 85/263/20 84/261/20
f 180/264/21 86/265/21 85/263/21
f 181/266/22 87/267/22 86/265/22
f 182/268/23 88/269/23 87/267/23
f 88/269/24 184/270/24 89/271/24
f 184/270/25 90/272/25 89/271/25
f 185/273/26 91/274/26 90/272/26
f 186/275/27 92/276/27 91/274/27
f 187/277/28 93/278/28 92/276/28
f 93/278/29 189/279/29 94/280/29
f 189/279/30 95/281/30 94/280/30
f 95/281/32 191/282/32 96/283/32
f 191/282/33 65/284/33 96/283/33
f 193/285/1 97/125/1 128/286/1
f 194/287/2 98/288/2 97/125/2
f 98/288/3 196/289/3 99/128/3
f 196/289/4 100/131/4 99/128/4
f 100/131/5 198/290/5 101/133/5
f 198/290/6 102/291/6 101/133/6
f 199/292/7 103/135/7 102/291/7
f 103/135/8 201/293/8 104/294/8
f 201/293/9 105/138/9 104/294/9
f 202/295/10 106/296/10 105/138/10
f 106/296/11 204/297/11 107/141/11
f 204/297/12 108/144/12 107/141/12
f 205/298/13 109/299/13 108/144/13
f 206/300/14 110/146/14 109/299/14
f 110/146/15 208/301/15 111/302/15
f 111/302/16 209/303/16 112/149/16
f 209/303/17 113/304/17 112/149/17
f 210/305/18 114/152/18 113/304/18
f 211/306/19 115/155/19 114/152/19
f 115/155/20 213/307/20 116/157/20
f 213/307/21 117/308/21 116/157/21
f 214/309/22 118/159/22 117/308/22
f 215/310/23 119/311/23 118/159/23
f 119/311/24 217/312/24 120/162/24
f 217/312/25 121/313/25 120/162/25
f 218/314/26 122/165/26 121/313/26
f 219/315/27 123/168/27 122/165/27
f 220/316/28 124/170/28 123/168/28
f 221/317/29 125/172/29 124/170/29
f 222/318/30 126/319/30 125/172/30
f 126/319/32 224/320/32 127/174/32
f 127/174/33 193/321/33 128/322/33
f 255/175/33 1/323/33 63/324/33
f 254/173/32 63/324/32 61/325/32
f 253/171/30 61/325/30 59/326/30
f 252/169/29 59/326/29 57/327/29
f 251/167/28 57/327/28 55/328/28
f 250/166/27 55/328/27 53/329/27
f 51/330/26 250/166/26 53/329/26
f 248/163/25 51/330/25 49/331/25
f 47/332/24 248/163/24 49/331/24
f 246/160/23 47/332/23 45/333/23
f 245/158/22 45/333/22 43/334/22
f 244/156/21 43/334/21 41/335/21
f 243/154/20 41/335/20 39/336/20
f 242/153/19 39/336/19 37/337/19
f 35/338/18 242/153/18 37/337/18
f 240/150/17 35/338/17 33/339/17
f 31/340/16 240/150/16 33/339/16
f 238/147/15 31/340/15 29/341/15
f 237/145/14 29/341/14 27/342/14
f 236/143/13 27/342/13 25/343/13
f 235/142/12 25/343/12 23/344/12
f 234/140/11 23/344/11 21/345/11
f 19/346/10 234/140/10 21/345/10
f 17/347/9 233/139/9 19/346/9
f 231/136/8 17/347/8 15/348/8
f 230/134/7 15/348/7 13/349/7
f 11/350/6 230/134/6 13/349/6
f 228/130/5 11/350/5 9/351/5
f 227/129/4 9/351/4 7/352/4
f 226/127/3 7/352/3 5/353/3
f 3/354/2 226/127/2 5/353/2
f 1/355/1 225/126/1 3/354/1
f 288/62/33 129/356/33 160/357/33
f 287/57/32 160/357/32 159/358/32
f 286/56/30 159/358/30 158/359/30
f 157/360/29 286/56/29 158/359/29
f 284/52/28 157/360/28 156/361/28
f 155/362/27 284/52/27 156/361/27
f 282/48/26 155/362/26 154/363/26
f 281/47/25 154/363/25 153/364/25
f 152/365/24 281/47/24 153/364/24
f 279/43/23 152/365/23 151/366/23
f 278/41/22 151/366/22 150/367/22
f 277/39/21 150/367/21 149/368/21
f 276/37/20 149/368/20 148/369/20
f 147/370/19 276/37/19 148/369/19
f 274/33/18 147/370/18 146/371/18
f 273/32/17 146/371/17 145/372/17
f 144/373/16 273/32/16 145/372/16
f 271/28/15 144/373/15 143/374/15
f 270/26/14 143/374/14 142/375/14
f 269/24/13 142/375/13 141/376/13
f 268/22/12 141/376/12 140/377/12
f 139/378/11 268/22/11 140/377/11
f 266/18/10 139/378/10 138/379/10
f 137/380/9 266/18/9 138/379/9
f 264/14/8 137/380/8 136/381/8
f 263/12/7 136/381/7 135/382/7
f 262/11/6 135/382/6 134/383/6
f 133/384/5 262/11/5 134/383/5
f 260/7/4 133/384/4 132/385/4
f 131/386/3 260/7/3 132/385/3
f 258/2/2 131/386/2 130/387/2
f 129/388/1 258/2/1 130/387/1
f 290/389/35 298/390/35 297/391/35
f 292/392/36 299/393/36 298/390/36
f 296/394/37 300/395/37 299/393/37
f 294/396/38 297/397/38 300/395/38
f 295/335/34 289/398/34 291/327/34
f 292/399/31 294/396/31 296/394/31
f 300/257/38 289/40/38 293/400/38
f 299/339/37 293/400/37 295/335/37
f 298/401/36 295/335/36 291/402/36
f 297/403/35 291/402/35 289/404/35
f 2/1/1 4/4/1 258/2/1
f 4/4/2 6/6/2 259/5/2
f 6/6/3 8/8/3 260/7/3
f 8/8/4 10/405/4 261/9/4
f 261/9/5 10/405/5 12/10/5
f 12/10/6 14/13/6 263/12/6
f 14/13/7 16/15/7 264/14/7
f 16/15/8 18/17/8 265/16/8
f 18/17/9 20/19/9 266/18/9
f 20/19/10 22/21/10 267/20/10
f 22/21/11 24/23/11 268/22/11
f 24/23/12 26/25/12 269/24/12
f 26/25/13 28/27/13 270/26/13
f 28/27/14 30/29/14 271/28/14
f 30/29/15 32/406/15 272/30/15
f 272/30/16 32/406/16 34/31/16
f 34/31/17 36/34/17 274/33/17
f 36/34/18 38/36/18 275/35/18
f 38/36/19 40/38/19 276/37/19
f 40/38/20 42/40/20 277/39/20
f 42/40/21 44/42/21 278/41/21
f 44/42/22 46/44/22 279/43/22
f 46/44/23 48/407/23 280/45/23
f 280/45/24 48/407/24 50/46/24
f 50/46/25 52/49/25 282/48/25
f 52/49/26 54/51/26 283/50/26
f 54/51/27 56/53/27 284/52/27
f 56/53/28 58/408/28 285/54/28
f 285/54/29 58/408/29 60/55/29
f 60/55/30 62/61/30 287/57/30
f 6/60/31 4/409/31 2/410/31
f 2/410/31 64/411/31 62/412/31
f 62/412/31 60/413/31 58/414/31
f 58/414/39 56/415/39 54/416/39
f 54/416/31 52/417/31 46/418/31
f 52/417/40 50/419/40 46/418/40
f 50/419/39 48/420/39 46/418/39
f 46/418/31 44/421/31 38/422/31
f 44/421/31 42/423/31 38/422/31
f 42/423/31 40/424/31 38/422/31
f 38/422/31 36/425/31 30/58/31
f 36/425/31 34/426/31 30/58/31
f 34/426/31 32/427/31 30/58/31
f 30/58/31 28/428/31 26/429/31
f 26/429/39 24/430/39 22/59/39
f 22/59/40 20/431/40 18/432/40
f 18/432/31 16/433/31 22/59/31
f 16/433/31 14/434/31 22/59/31
f 14/434/40 12/435/40 10/436/40
f 10/436/31 8/437/31 6/60/31
f 6/60/31 2/410/31 62/412/31
f 62/412/31 58/414/31 6/60/31
f 58/414/31 54/416/31 6/60/31
f 30/58/31 26/429/31 22/59/31
f 14/434/31 10/436/31 22/59/31
f 10/436/31 6/60/31 22/59/31
f 54/416/31 46/418/31 6/60/31
f 46/418/31 38/422/31 6/60/31
f 38/422/31 30/58/31 6/60/31
f 62/61/32 64/63/32 288/62/32
f 64/63/33 2/438/33 257/64/33
f 63/67/34 1/439/34 3/440/34
f 3/440/34 5/441/34 7/442/34
f 7/442/34 9/443/34 11/444/34
f 11/444/34 13/445/34 15/446/34
f 15/446/34 17/447/34 19/448/34
f 19/448/34 21/449/34 23/450/34
f 23/450/34 25/451/34 27/452/34
f 27/452/34 29/453/34 31/65/34
f 31/65/34 33/454/34 35/455/34
f 35/455/34 37/456/34 39/457/34
f 39/457/34 41/458/34 43/459/34
f 43/459/34 45/460/34 47/66/34
f 47/66/34 49/461/34 51/462/34
f 51/462/34 53/463/34 55/464/34
f 55/464/34 57/465/34 59/466/34
f 59/466/34 61/467/34 63/67/34
f 63/67/34 3/440/34 15/446/34
f 3/440/34 7/442/34 15/446/34
f 7/442/34 11/444/34 15/446/34
f 15/446/34 19/448/34 31/65/34
f 19/448/34 23/450/34 31/65/34
f 23/450/34 27/452/34 31/65/34
f 31/65/34 35/455/34 47/66/34
f 35/455/34 39/457/34 47/66/34
f 39/457/34 43/459/34 47/66/34
f 47/66/34 51/462/34 63/67/34
f 51/462/34 55/464/34 63/67/34
f 55/464/34 59/466/34 63/67/34
f 63/67/34 15/446/34 31/65/34
f 96/68/33 65/468/33 193/69/33
f 223/71/32 95/469/32 96/68/32
f 94/72/30 95/469/30 223/71/30
f 221/74/29 93/470/29 94/72/29
f 92/75/28 93/470/28 221/74/28
f 219/77/27 91/471/27 92/75/27
f 90/78/26 91/471/26 219/77/26
f 89/80/25 90/78/25 218/79/25
f 216/82/24 88/472/24 89/80/24
f 87/83/23 88/472/23 216/82/23
f 86/85/22 87/83/22 215/84/22
f 85/87/21 86/85/21 214/86/21
f 84/89/20 85/87/20 213/88/20
f 83/91/19 84/89/19 212/90/19
f 82/93/18 83/91/18 211/92/18
f 81/95/17 82/93/17 210/94/17
f 80/97/16 81/95/16 209/96/16
f 79/99/15 80/97/15 208/98/15
f 78/101/14 79/99/14 207/100/14
f 77/103/13 78/101/13 206/102/13
f 76/105/12 77/103/12 205/104/12
f 203/107/11 75/473/11 76/105/11
f 74/108/10 75/473/10 203/107/10
f 73/110/9 74/108/9 202/109/9
f 72/112/8 73/110/8 201/111/8
f 199/114/7 71/474/7 72/112/7
f 70/115/6 71/474/6 199/114/6
f 197/117/5 69/475/5 70/115/5
f 68/118/4 69/475/4 197/117/4
f 195/120/3 67/476/3 68/118/3
f 66/121/2 67/476/2 195/120/2
f 193/123/1 65/477/1 66/121/1
f 256/124/1 128/286/1 97/125/1
f 97/125/2 98/288/2 226/127/2
f 226/127/3 98/288/3 99/128/3
f 99/128/4 100/131/4 228/130/4
f 100/131/5 101/133/5 229/132/5
f 101/133/6 102/291/6 230/134/6
f 230/134/7 102/291/7 103/135/7
f 103/135/8 104/294/8 232/137/8
f 232/137/9 104/294/9 105/138/9
f 105/138/10 106/296/10 234/140/10
f 234/140/11 106/296/11 107/141/11
f 107/141/12 108/144/12 236/143/12
f 108/144/13 109/299/13 237/145/13
f 237/145/14 109/299/14 110/146/14
f 110/146/15 111/302/15 239/148/15
f 239/148/16 111/302/16 112/149/16
f 112/149/17 113/304/17 241/151/17
f 241/151/18 113/304/18 114/152/18
f 114/152/19 115/155/19 243/154/19
f 115/155/20 116/157/20 244/156/20
f 116/157/21 117/308/21 245/158/21
f 245/158/22 117/308/22 118/159/22
f 118/159/23 119/311/23 247/161/23
f 247/161/24 119/311/24 120/162/24
f 120/162/25 121/313/25 249/164/25
f 249/164/26 121/313/26 122/165/26
f 122/165/27 123/168/27 251/167/27
f 123/168/28 124/170/28 252/169/28
f 124/170/29 125/172/29 253/171/29
f 125/172/30 126/319/30 254/173/30
f 254/173/32 126/319/32 127/174/32
f 127/174/33 128/322/33 256/176/33
f 160/177/33 129/478/33 192/178/33
f 190/180/32 159/479/32 160/177/32
f 158/181/30 159/479/30 190/180/30
f 188/183/29 157/480/29 158/181/29
f 156/184/28 157/480/28 188/183/28
f 186/186/27 155/188/27 156/184/27
f 185/187/26 154/481/26 155/188/26
f 153/189/25 154/481/25 185/187/25
f 183/191/24 152/482/24 153/189/24
f 151/192/23 152/482/23 183/191/23
f 150/194/22 151/192/22 182/193/22
f 180/196/21 149/483/21 150/194/21
f 148/197/20 149/483/20 180/196/20
f 147/199/19 148/197/19 179/198/19
f 177/201/18 146/484/18 147/199/18
f 145/202/17 146/484/17 177/201/17
f 175/204/16 144/485/16 145/202/16
f 143/205/15 144/485/15 175/204/15
f 142/207/14 143/205/14 174/206/14
f 172/209/13 141/486/13 142/207/13
f 140/210/12 141/486/12 172/209/12
f 139/212/11 140/210/11 171/211/11
f 138/214/10 139/212/10 170/213/10
f 168/216/9 137/487/9 138/214/9
f 136/217/8 137/487/8 168/216/8
f 166/219/7 135/488/7 136/217/7
f 134/220/6 135/488/6 166/219/6
f 164/222/5 133/489/5 134/220/5
f 132/223/4 133/489/4 164/222/4
f 131/225/3 132/223/3 163/224/3
f 130/227/2 131/225/2 162/226/2
f 192/229/1 129/490/1 130/227/1
f 65/230/1 192/491/1 161/231/1
f 161/231/2 162/234/2 67/233/2
f 162/234/3 163/236/3 68/235/3
f 163/236/4 164/492/4 69/237/4
f 69/237/5 164/492/5 165/238/5
f 165/238/6 166/493/6 71/240/6
f 71/240/7 166/493/7 167/241/7
f 167/241/8 168/494/8 73/243/8
f 73/243/9 168/494/9 169/244/9
f 169/244/10 170/495/10 75/246/10
f 75/246/11 170/495/11 171/247/11
f 171/247/12 172/250/12 77/249/12
f 172/250/13 173/252/13 78/251/13
f 173/252/14 174/254/14 79/253/14
f 174/254/15 175/496/15 80/255/15
f 80/255/16 175/496/16 176/256/16
f 176/256/17 177/497/17 82/258/17
f 82/258/18 177/497/18 178/259/18
f 178/259/19 179/262/19 84/261/19
f 179/262/20 180/264/20 85/263/20
f 180/264/21 181/266/21 86/265/21
f 181/266/22 182/268/22 87/267/22
f 182/268/23 183/498/23 88/269/23
f 88/269/24 183/498/24 184/270/24
f 184/270/25 185/273/25 90/272/25
f 185/273/26 186/275/26 91/274/26
f 186/275/27 187/277/27 92/276/27
f 187/277/28 188/499/28 93/278/28
f 93/278/29 188/499/29 189/279/29
f 189/279/30 190/500/30 95/281/30
f 95/281/32 190/500/32 191/282/32
f 191/282/33 192/501/33 65/284/33
f 193/285/1 194/287/1 97/125/1
f 194/287/2 195/502/2 98/288/2
f 98/288/3 195/502/3 196/289/3
f 196/289/4 197/503/4 100/131/4
f 100/131/5 197/503/5 198/290/5
f 198/290/6 199/292/6 102/291/6
f 199/292/7 200/504/7 103/135/7
f 103/135/8 200/504/8 201/293/8
f 201/293/9 202/295/9 105/138/9
f 202/295/10 203/505/10 106/296/10
f 106/296/11 203/505/11 204/297/11
f 204/297/12 205/298/12 108/144/12
f 205/298/13 206/300/13 109/299/13
f 206/300/14 207/506/14 110/146/14
f 110/146/15 207/506/15 208/301/15
f 111/302/16 208/301/16 209/303/16
f 209/303/17 210/305/17 113/304/17
f 210/305/18 211/306/18 114/152/18
f 211/306/19 212/507/19 115/155/19
f 115/155/20 212/507/20 213/307/20
f 213/307/21 214/309/21 117/308/21
f 214/309/22 215/310/22 118/159/22
f 215/310/23 216/508/23 119/311/23
f 119/311/24 216/508/24 217/312/24
f 217/312/25 218/314/25 121/313/25
f 218/314/26 219/315/26 122/165/26
f 219/315/27 220/316/27 123/168/27
f 220/316/28 221/317/28 124/170/28
f 221/317/29 222/318/29 125/172/29
f 222/318/30 223/509/30 126/319/30
f 126/319/32 223/509/32 224/320/32
f 127/174/33 224/320/33 193/321/33
f 255/175/33 256/176/33 1/323/33
f 254/173/32 255/175/32 63/324/32
f 253/171/30 254/173/30 61/325/30
f 252/169/29 253/171/29 59/326/29
f 251/167/28 252/169/28 57/327/28
f 250/166/27 251/167/27 55/328/27
f 51/330/26 249/164/26 250/166/26
f 248/163/25 249/164/25 51/330/25
f 47/332/24 247/161/24 248/163/24
f 246/160/23 247/161/23 47/332/23
f 245/158/22 246/160/22 45/333/22
f 244/156/21 245/158/21 43/334/21
f 243/154/20 244/156/20 41/335/20
f 242/153/19 243/154/19 39/336/19
f 35/338/18 241/151/18 242/153/18
f 240/150/17 241/151/17 35/338/17
f 31/340/16 239/148/16 240/150/16
f 238/147/15 239/148/15 31/340/15
f 237/145/14 238/147/14 29/341/14
f 236/143/13 237/145/13 27/342/13
f 235/142/12 236/143/12 25/343/12
f 234/140/11 235/142/11 23/344/11
f 19/346/10 233/139/10 234/140/10
f 17/347/9 232/137/9 233/139/9
f 231/136/8 232/137/8 17/347/8
f 230/134/7 231/136/7 15/348/7
f 11/350/6 229/132/6 230/134/6
f 228/130/5 229/132/5 11/350/5
f 227/129/4 228/130/4 9/351/4
f 226/127/3 227/129/3 7/352/3
f 3/354/2 225/126/2 226/127/2
f 1/355/1 256/124/1 225/126/1
f 288/62/33 257/64/33 129/356/33
f 287/57/32 288/62/32 160/357/32
f 286/56/30 287/57/30 159/358/30
f 157/360/29 285/54/29 286/56/29
f 284/52/28 285/54/28 157/360/28
f 155/362/27 283/50/27 284/52/27
f 282/48/26 283/50/26 155/362/26
f 281/47/25 282/48/25 154/363/25
f 152/365/24 280/45/24 281/47/24
f 279/43/23 280/45/23 152/365/23
f 278/41/22 279/43/22 151/366/22
f 277/39/21 278/41/21 150/367/21
f 276/37/20 277/39/20 149/368/20
f 147/370/19 275/35/19 276/37/19
f 274/33/18 275/35/18 147/370/18
f 273/32/17 274/33/17 146/371/17
f 144/373/16 272/30/16 273/32/16
f 271/28/15 272/30/15 144/373/15
f 270/26/14 271/28/14 143/374/14
f 269/24/13 270/26/13 142/375/13
f 268/22/12 269/24/12 141/376/12
f 139/378/11 267/20/11 268/22/11
f 266/18/10 267/20/10 139/378/10
f 137/380/9 265/16/9 266/18/9
f 264/14/8 265/16/8 137/380/8
f 263/12/7 264/14/7 136/381/7
f 262/11/6 263/12/6 135/382/6
f 133/384/5 261/9/5 262/11/5
f 260/7/4 261/9/4 133/384/4
f 131/386/3 259/5/3 260/7/3
f 258/2/2 259/5/2 131/386/2
f 129/388/1 257/3/1 258/2/1
f 290/389/35 292/392/35 298/390/35
f 292/392/36 296/394/36 299/393/36
f 296/394/37 294/396/37 300/395/37
f 294/396/38 290/510/38 297/397/38
f 295/335/34 293/400/34 289/398/34
f 292/399/31 290/511/31 294/396/31
f 300/257/38 297/31/38 289/40/38
f 299/339/37 300/257/37 293/400/37
f 298/401/36 299/339/36 295/335/36
f 297/403/35 298/401/35 291/402/35
