# Made in Blockbench 5.1.4
mtllib HoleIsland.mtl

o cylinder
v 0 -0.625 0
v -1.376764663473656e-18 0.5 -1.3767646634736558e-18
v 0.5358983848622453 -0.625 1.9999999999999998
v 0.4186706131736291 0.5 1.5625
v 1.4641016151377544 -0.625 1.4641016151377546
v 1.1438293868263703 0.5 1.1438293868263703
v 1.9999999999999998 -0.625 0.5358983848622453
v 1.5625 0.5 0.418670613173629
v 1.9999999999999998 -0.625 -0.5358983848622455
v 1.5625 0.5 -0.41867061317362925
v 1.4641016151377546 -0.625 -1.4641016151377544
v 1.1438293868263703 0.5 -1.1438293868263703
v 0.535898384862246 -0.625 -1.9999999999999996
v 0.4186706131736296 0.5 -1.5624999999999993
v -0.5358983848622445 -0.625 -2
v -0.4186706131736285 0.5 -1.5625
v -1.4641016151377544 -0.625 -1.4641016151377548
v -1.1438293868263703 0.5 -1.1438293868263707
v -1.9999999999999998 -0.625 -0.5358983848622451
v -1.5624999999999996 0.5 -0.4186706131736288
v -2 -0.625 0.5358983848622444
v -1.5625 0.5 0.41867061317362836
v -1.4641016151377548 -0.625 1.4641016151377542
v -1.1438293868263707 0.5 1.1438293868263703
v -0.5358983848622452 -0.625 1.9999999999999998
v -0.41867061317362897 0.5 1.5625
v 1.4641016151377544 0.25 1.4641016151377546
v 0.5358983848622453 0.25 1.9999999999999998
v -0.5358983848622452 0.25 1.9999999999999998
v -1.4641016151377548 0.25 1.4641016151377542
v -2 0.25 0.5358983848622444
v -1.9999999999999998 0.25 -0.5358983848622451
v -1.4641016151377544 0.25 -1.4641016151377548
v -0.5358983848622445 0.25 -2
v 0.535898384862246 0.25 -1.9999999999999996
v 1.4641016151377546 0.25 -1.4641016151377544
v 1.9999999999999998 0.25 -0.5358983848622455
v 1.9999999999999998 0.25 0.5358983848622453
vt 2.0705500766704485 -0.03527503833522405
vt 1.7931520864109658 1
vt 0 -0.035275038335224274
vt 0 1
vt 0 0.75
vt 1.0718 0.75
vt 1.0718 1
vt 0 -1.0705527788491653
vt 1.0352736872476291 -0.7931497462545338
vt 3.3306690738754696e-16 1
vt 2.0705527788491653 -0.03527368724762914
vt 1.7931497462545338 1
vt 0 -0.03527368724762869
vt 0 1
vt 0 0.75
vt 1.0718 0.75
vt 1.0718 1
vt 2.220446049250313e-16 -1.0705500766704485
vt 1.0352750383352243 -0.7931520864109658
vt 0 1
vt 2 -0.07180000000000009
vt 2 1
vt 0 0.46409999999999996
vt 0 1
vt 0 0.75
vt 1.0718 0.75
vt 1.0718 1
vt 2 -0.07180000000000009
vt 2 1
vt 0 0.46409999999999996
vt 2.220446049250313e-16 -1.0705500766704485
vt 1.0352750383352243 -0.7931520864109658
vt 0 1
vt 0 1
vt 0 0.75
vt 1.0718 0.75
vt 1.0718 1
vt 2.0705527788491653 -0.03527368724762914
vt 1.7931497462545338 1
vt 0 -0.03527368724762869
vt 0 -1.0705527788491653
vt 1.0352736872476291 -0.7931497462545338
vt 3.3306690738754696e-16 1
vt 0 1
vt 0 0.75
vt 1.0718 0.75
vt 1.0718 1
vt 2.0705500766704485 -0.03527503833522405
vt 1.7931520864109658 1
vt 0 -0.035275038335224274
vt 0 -1
vt 1.0718 -1
vt 0.5359 1
vt 0 1
vt 0 0.75
vt 1.0718 0.75
vt 1.0718 1
vt 1.0718 1
vt 0 1
vt 0.5359 -1
vt 0 0.9999999999999998
vt 0.27739799025948275 -0.035275038335224274
vt 2.0705500766704485 1
vt 0 1
vt 0 0.75
vt 1.0718 0.75
vt 1.0718 1
vt 1.0352736872476291 1
vt 0 0.7225969674053685
vt 1.0352736872476287 -1.0705527788491653
vt 0 1
vt 0.2774030325946315 -0.03527368724762914
vt 2.0705527788491653 0.9999999999999997
vt 0 1
vt 0 0.75
vt 1.0718 0.75
vt 1.0718 1
vt 1.035275038335224 1
vt 0 0.7226020097405172
vt 1.0352750383352243 -1.0705500766704485
vt 0 1
vt 0 -0.07180000000000009
vt 2 0.46409999999999996
vt 0 1
vt 0 0.75
vt 1.0718 0.75
vt 1.0718 1
vt 0 1
vt 0 -0.07180000000000009
vt 2 0.46409999999999996
vt 1.035275038335224 1
vt 0 0.7226020097405172
vt 1.0352750383352243 -1.0705500766704485
vt 0 1
vt 0 0.75
vt 1.0718 0.75
vt 1.0718 1
vt 0 1
vt 0.2774030325946315 -0.03527368724762914
vt 2.0705527788491653 0.9999999999999997
vt 1.0352736872476291 1
vt 0 0.7225969674053685
vt 1.0352736872476287 -1.0705527788491653
vt 0 1
vt 0 0.75
vt 1.0718 0.75
vt 1.0718 1
vt 0 0.9999999999999998
vt 0.27739799025948275 -0.035275038335224274
vt 2.0705500766704485 1
vt 1.0718 1
vt 0 1
vt 0.5359 -1
vt 0 1
vt 0 0.75
vt 1.0718 0.75
vt 1.0718 1
vt 0 -1
vt 1.0718 -1
vt 0.5359 1
vt 1.0718 0.5
vt 1.0718 0.75
vt 0 0.75
vt 0 0.5
vt 1.0718 0.5
vt 1.0718 0.75
vt 0 0.75
vt 0 0.5
vt 1.0718 0.5
vt 1.0718 0.75
vt 0 0.75
vt 0 0.5
vt 1.0718 0.5
vt 1.0718 0.75
vt 0 0.75
vt 0 0.5
vt 1.0718 0.5
vt 1.0718 0.75
vt 0 0.75
vt 0 0.5
vt 1.0718 0.5
vt 1.0718 0.75
vt 0 0.75
vt 0 0.5
vt 1.0718 0.5
vt 1.0718 0.75
vt 0 0.75
vt 0 0.5
vt 1.0718 0.5
vt 1.0718 0.75
vt 0 0.75
vt 0 0.5
vt 1.0718 0.5
vt 1.0718 0.75
vt 0 0.75
vt 0 0.5
vt 1.0718 0.5
vt 1.0718 0.75
vt 0 0.75
vt 0 0.5
vt 1.0718 0.5
vt 1.0718 0.75
vt 0 0.75
vt 0 0.5
vt 1.0718 0.5
vt 1.0718 0.75
vt 0 0.75
vt 0 0.5
vn 0 -1 0
vn 0.24806946917841696 0.8682431421244593 0.42966892442366
vn 0 1 0
vn 0 -1 0
vn 0.4296689244236594 0.8682431421244595 0.24806946917841666
vn 0 1 0
vn 0 -1 0
vn 0.49613893835683404 0.8682431421244591 0
vn 0 1 0
vn 0 -1 0
vn 0.42966892442365995 0.8682431421244593 -0.24806946917841702
vn 0 1 0
vn 0 -1 0
vn 0.2480694691784167 0.8682431421244594 -0.42966892442365934
vn 0 1 0
vn 0 -1 0
vn 2.055706411275823e-16 0.8682431421244594 -0.49613893835683365
vn 0 1 0
vn 0 -1 0
vn -0.2480694691784167 0.8682431421244593 -0.42966892442365995
vn 0 1 0
vn 0 -1 0
vn -0.4296689244236596 0.8682431421244595 -0.24806946917841666
vn 0 1 0
vn 0 -1 0
vn -0.49613893835683365 0.8682431421244593 -1.0278532056379123e-16
vn 0 1 0
vn 0 -1 0
vn -0.4296689244236599 0.8682431421244593 0.24806946917841677
vn 0 1 0
vn 0 -1 0
vn -0.24806946917841682 0.8682431421244594 0.42966892442365967
vn 0 1 0
vn 0 -1 0
vn 0 0.8682431421244592 0.49613893835683404
vn 0 1 0
vn 0.49999999999999983 0 0.8660254037844387
vn 0 0 1
vn -0.49999999999999994 0 0.8660254037844387
vn -0.8660254037844389 0 0.4999999999999996
vn -1 0 -2.0717043678169412e-16
vn -0.8660254037844388 0 -0.4999999999999997
vn -0.4999999999999995 0 -0.8660254037844389
vn 4.143408735633879e-16 0 -1
vn 0.5000000000000001 0 -0.8660254037844386
vn 0.8660254037844387 0 -0.49999999999999994
vn 1 0 0
vn 0.8660254037844387 0 0.49999999999999994
usemtl none
f 5/1/1 3/2/1 1/3/1
f 4/4/2 28/5/2 27/6/2 6/7/2
f 4/8/3 6/9/3 2/10/3
f 7/11/4 5/12/4 1/13/4
f 6/14/5 27/15/5 38/16/5 8/17/5
f 6/18/6 8/19/6 2/20/6
f 9/21/7 7/22/7 1/23/7
f 8/24/8 38/25/8 37/26/8 10/27/8
f 8/28/9 10/29/9 2/30/9
f 11/31/10 9/32/10 1/33/10
f 10/34/11 37/35/11 36/36/11 12/37/11
f 10/38/12 12/39/12 2/40/12
f 13/41/13 11/42/13 1/43/13
f 12/44/14 36/45/14 35/46/14 14/47/14
f 12/48/15 14/49/15 2/50/15
f 15/51/16 13/52/16 1/53/16
f 14/54/17 35/55/17 34/56/17 16/57/17
f 14/58/18 16/59/18 2/60/18
f 17/61/19 15/62/19 1/63/19
f 16/64/20 34/65/20 33/66/20 18/67/20
f 16/68/21 18/69/21 2/70/21
f 19/71/22 17/72/22 1/73/22
f 18/74/23 33/75/23 32/76/23 20/77/23
f 18/78/24 20/79/24 2/80/24
f 21/81/25 19/82/25 1/83/25
f 20/84/26 32/85/26 31/86/26 22/87/26
f 20/88/27 22/89/27 2/90/27
f 23/91/28 21/92/28 1/93/28
f 22/94/29 31/95/29 30/96/29 24/97/29
f 22/98/30 24/99/30 2/100/30
f 25/101/31 23/102/31 1/103/31
f 24/104/32 30/105/32 29/106/32 26/107/32
f 24/108/33 26/109/33 2/110/33
f 3/111/34 25/112/34 1/113/34
f 26/114/35 29/115/35 28/116/35 4/117/35
f 26/118/36 4/119/36 2/120/36
f 5/121/37 27/122/37 28/123/37 3/124/37
f 3/125/38 28/126/38 29/127/38 25/128/38
f 25/129/39 29/130/39 30/131/39 23/132/39
f 23/133/40 30/134/40 31/135/40 21/136/40
f 21/137/41 31/138/41 32/139/41 19/140/41
f 19/141/42 32/142/42 33/143/42 17/144/42
f 17/145/43 33/146/43 34/147/43 15/148/43
f 15/149/44 34/150/44 35/151/44 13/152/44
f 13/153/45 35/154/45 36/155/45 11/156/45
f 11/157/46 36/158/46 37/159/46 9/160/46
f 9/161/47 37/162/47 38/163/47 7/164/47
f 7/165/48 38/166/48 27/167/48 5/168/48