# Made in Blockbench 5.1.4
mtllib trash_bag.mtl

o sphere
v 0 0 0
v -0.015625 0.421875 0.015625
v 0.03349375 0.34150625 0.109375
v 0.0580125 0.25 0.18525625
v 0.0669875 0.125 0.21875
v 0.0580125 0.0625 0.21650625
v 0.03349375 0.0022437500000000027 0.125
v 0.09150625 0.34150625 0.084255
v 0.11161875 0.25 0.15849375
v 0.1361375 0.125 0.1830125
v 0.15849375 0.0625 0.15849375
v 0.09150625 0.0022437500000000027 0.09150625
v 0.125 0.34150625 0.03349375
v 0.16963125 0.25 0.0580125
v 0.203125 0.125 0.0669875
v 0.21650625 0.0625 0.0580125
v 0.125 0.0022437500000000027 0.03349375
v 0.09375 0.34150625 -0.03349375
v 0.18525625 0.25 -0.0580125
v 0.25 0.125 -0.0669875
v 0.21650625 0.0625 -0.0580125
v 0.125 0.0022437500000000027 -0.03349375
v 0.06025625 0.34150625 -0.09150625
v 0.12724375 0.25 -0.15849375
v 0.1830125 0.125 -0.1830125
v 0.15849375 0.0625 -0.15849375
v 0.09150625 0.0022437500000000027 -0.09150625
v 0.03349375 0.34150625 -0.125
v 0.0580125 0.25 -0.21650625
v 0.0669875 0.125 -0.25
v 0.0580125 0.0625 -0.21650625
v 0.03349375 0.0022437500000000027 -0.125
v -0.03349375 0.34150625 -0.125
v -0.0580125 0.25 -0.21650625
v -0.0669875 0.125 -0.25
v -0.0580125 0.0625 -0.21650625
v -0.03349375 0.0022437500000000027 -0.125
v -0.09150625 0.34150625 -0.09150625
v -0.12724375 0.25 -0.15849375
v -0.1517625 0.125 -0.1830125
v -0.15849375 0.0625 -0.15849375
v -0.09150625 0.0022437500000000027 -0.09150625
v -0.125 0.34150625 -0.03349375
v -0.18525625 0.25 -0.0580125
v -0.21875 0.125 -0.0669875
v -0.21650625 0.0625 -0.0580125
v -0.125 0.0022437500000000027 -0.03349375
v -0.09375 0.34150625 0.03349375
v -0.15400625 0.25 0.0423875
v -0.203125 0.125 0.0513625
v -0.21650625 0.0625 0.0580125
v -0.125 0.0022437500000000027 0.03349375
v -0.06982625 0.34150625 0.09150625
v -0.09599375 0.25 0.14286875
v -0.1361375 0.125 0.1673875
v -0.15849375 0.0625 0.15849375
v -0.09150625 0.0022437500000000027 0.09150625
v -0.03349375 0.34150625 0.125
v -0.0580125 0.25 0.18525625
v -0.0669875 0.125 0.21875
v -0.0580125 0.0625 0.21650625
v -0.03349375 0.0022437500000000027 0.125
vt 0.285895 0.23253468749999995
vt 0.3125 0.21546624999999997
vt 0.3125 0.28125
vt 0.75582 0.40625
vt 0.6951309375 0.40625
vt 0.698081875 0.376439375
vt 0.7578125 0.374730625
vt 0.133945 0.3125
vt 0.125 0.2482609375
vt 0.1640625 0.2451028125
vt 0.1640625 0.3099603125
vt 0.5703125 0.718659375
vt 0.5669875 0.65625
vt 0.625 0.65625
vt 0.609190625 0.71875
vt 0.08036875 0.78125
vt 0.092628125 0.82701875
vt 0.06361875 0.843760625
vt 0.0301234375 0.8102475
vt 0.1121609375 0.72546875
vt 0.083153125 0.74221375
vt 0.06640625 0.679704375
vt 0.602403125 0.24672187499999998
vt 0.6328125 0.24672187499999998
vt 0.60154375 0.3125
vt 0.65660625 0.625
vt 0.6294875 0.5703125
vt 0.6875 0.5703125
vt 0.686959375 0.624071875
vt 0.5078125 0.90625
vt 0.503325 0.84375
vt 0.5703125 0.84375
vt 0.565825 0.90625
vt 0.37890625 1
vt 0.3951125 0.9375
vt 0.453125 0.9375
vt 0.44589375 1
vt 0.0301234375 0.8102475
vt 0.06361875 0.843760625
vt 0.0468615625 0.8727609375000001
vt 0.001099375 0.8604775
vt 0.128911875 0.696465
vt 0.1121609375 0.72546875
vt 0.06640625 0.679704375
vt 0.375 0.3125
vt 0.3941940625 0.2809153125
vt 0.4478284375 0.3125
vt 0.6173715625 0.53125
vt 0.59375 0.484518125
vt 0.6484375 0.4676703125
vt 0.6484375 0.5311009375
vt 0.1946671875 0.7480037500000001
vt 0.1946671875 0.6831440625
vt 0.265625 0.681728125
vt 0.2520559375 0.75
vt 0.46875 0.625
vt 0.40625 0.6181743749999999
vt 0.4084109375 0.560201875
vt 0.46875 0.5579659375
vt 0.001099375 0.8604775
vt 0.0468615625 0.8727609375000001
vt 0.0468440625 0.9062546875
vt 0.00106875 0.91849
vt 0.128919375 0.66297125
vt 0.128911875 0.696465
vt 0.06640625 0.679704375
vt 0.21875 0.25830937499999995
vt 0.2493778125 0.2447534375
vt 0.2493778125 0.3125
vt 0.199759375 0.40625
vt 0.1875 0.34375
vt 0.2455125 0.34375
vt 0.233253125 0.40625
vt 0.2623 0.875
vt 0.25 0.8046875
vt 0.3169875 0.8046875
vt 0.3203125 0.875
vt 0.25 0.5
vt 0.2544875 0.4375
vt 0.3125 0.4375
vt 0.3169875 0.5
vt 0.00106875 0.91849
vt 0.0468440625 0.9062546875
vt 0.0635703125 0.935273125
vt 0.030039375 0.968750625
vt 0.1121809375 0.6339596875
vt 0.128919375 0.66297125
vt 0.06640625 0.679704375
vt 0.71875 0.591033125
vt 0.7370753125 0.579914375
vt 0.7370753125 0.65625
vt 0.305183125 0.40625
vt 0.28125 0.34489625
vt 0.328125 0.33117375000000004
vt 0.328125 0.396965625
vt 0.3195284375 1
vt 0.25 1
vt 0.2673603125 0.93530125
vt 0.328294375 0.9562975
vt 0.375 0.5
vt 0.3794875 0.4375
vt 0.4375 0.4375
vt 0.4419875 0.5
vt 0.030039375 0.968750625
vt 0.0635703125 0.935273125
vt 0.092561875 0.952045625
vt 0.0802540625 0.99780125
vt 0.083180625 0.6172021875
vt 0.1121809375 0.6339596875
vt 0.06640625 0.679704375
vt 0.6571428125 0.71875
vt 0.667918125 0.687036875
vt 0.7334821875 0.71875
vt 0.577003125 0.8125
vt 0.56474375 0.75
vt 0.62275625 0.75
vt 0.610496875 0.8125
vt 0.13115 0.53125
vt 0.1266625 0.46875
vt 0.19365 0.46875
vt 0.1891625 0.53125
vt 0.4391625 0.71875
vt 0.44365 0.65625
vt 0.5016625 0.65625
vt 0.50615 0.71875
vt 0.0802540625 0.99780125
vt 0.092561875 0.952045625
vt 0.126055625 0.9520809375
vt 0.1382665625 0.9978625
vt 0.049686875 0.6171875
vt 0.083180625 0.6172021875
vt 0.06640625 0.679704375
vt 0.6927946875 0.53125
vt 0.705404375 0.500220625
vt 0.765625 0.53125
vt 0.0698959375 0.33220375
vt 0.00505875 0.34375
vt 0.0110109375 0.296875
vt 0.0703125 0.296875
vt 0.601275 0.40593124999999997
vt 0.5944125 0.34375
vt 0.6484375 0.34375
vt 0.64641875 0.40625
vt 0.5046265625 0.5298128125
vt 0.5046265625 0.46495125000000004
vt 0.5625 0.4609375
vt 0.5578146875 0.5240975
vt 0.1384959375 0.99780125
vt 0.126188125 0.952045625
vt 0.1551796875 0.935273125
vt 0.188710625 0.968750625
vt 0.0206315625 0.6339596875
vt 0.049631875 0.6172021875
vt 0.06640625 0.679704375
vt 0.69006875 0.46875
vt 0.7036253125 0.4381221875
vt 0.7578125 0.46875
vt 0.649559375 0.90625
vt 0.6294875 0.8515625
vt 0.6875 0.8515625
vt 0.683053125 0.90625
vt 0.5078125 1
vt 0.503325 0.9375
vt 0.5703125 0.9375
vt 0.565825 1
vt 0.375 0.90625
vt 0.3873 0.84375
vt 0.4453125 0.84375
vt 0.4419875 0.90625
vt 0.188710625 0.968750625
vt 0.1551796875 0.935273125
vt 0.1719059375 0.9062546875
vt 0.21768125 0.91849
vt 0.003893125 0.66297125
vt 0.0206315625 0.6339596875
vt 0.06640625 0.679704375
vt 0.71875 0.90625
vt 0.7456940625 0.8809515625
vt 0.7809953125 0.90625
vt 0.4311396875 0.40625
vt 0.375 0.40625
vt 0.39434875 0.35736156249999995
vt 0.4468375 0.37307375
vt 0.319140625 0.622784375
vt 0.3125 0.5546875
vt 0.3721875 0.5546875
vt 0.370953125 0.625
vt 0.0017434375 0.46526187500000005
vt 0.0017434375 0.40259156250000006
vt 0.0596071875 0.3984375
vt 0.0607565625 0.460884375
vt 0.21768125 0.91849
vt 0.1719059375 0.9062546875
vt 0.1718884375 0.8727609375000001
vt 0.217650625 0.8604775
vt 0.003900625 0.696465
vt 0.003893125 0.66297125
vt 0.06640625 0.679704375
vt 0.5 0.24737656249999995
vt 0.527181875 0.2317065625
vt 0.527181875 0.28125
vt 0.6362125 1
vt 0.625 0.9453125
vt 0.6830125 0.9453125
vt 0.6673125 0.99781875
vt 0.32089375 0.75
vt 0.3125 0.6796875
vt 0.3794875 0.6796875
vt 0.37890625 0.75
vt 0.187965625 0.625
vt 0.1875 0.5625
vt 0.2455125 0.5625
vt 0.254953125 0.625
vt 0.217650625 0.8604775
vt 0.1718884375 0.8727609375000001
vt 0.15513125 0.843760625
vt 0.1886265625 0.8102475
vt 0.0206515625 0.72546875
vt 0.003900625 0.696465
vt 0.06640625 0.679704375
vt 0 0.20512906249999996
vt 0.0210015625 0.19211062499999998
vt 0.0210015625 0.25
vt 0.690933125 0.3125
vt 0.6875 0.25853531249999995
vt 0.71875 0.25130343749999995
vt 0.71875 0.30740156249999995
vt 0.7230296875 0.8125
vt 0.65625 0.8125
vt 0.6619275 0.7698071875
vt 0.724846875 0.784611875
vt 0.5636478125 0.625
vt 0.5 0.625
vt 0.5108490625 0.5680109375
vt 0.5715140625 0.5829446875
vt 0.1886265625 0.8102475
vt 0.15513125 0.843760625
vt 0.126121875 0.82701875
vt 0.13838125 0.78125
vt 0.049659375 0.74221375
vt 0.0206515625 0.72546875
vt 0.06640625 0.679704375
vt 0.7210559375 1
vt 0.733605625 0.9679775
vt 0.7789440625 1
vt 0.523134375 0.40625
vt 0.5 0.3551021875
vt 0.5546875 0.3433153125
vt 0.5546875 0.403651875
vt 0.44365 0.8125
vt 0.4391625 0.75
vt 0.50615 0.75
vt 0.5016625 0.8125
vt 0.0016625 0.5625
vt 0.00615 0.5
vt 0.0641625 0.5
vt 0.06865 0.5625
vt 0.13838125 0.78125
vt 0.126121875 0.82701875
vt 0.092628125 0.82701875
vt 0.08036875 0.78125
vt 0.083153125 0.74221375
vt 0.049659375 0.74221375
vt 0.06640625 0.679704375
vn 0.2407225022127352 0.7956108419500184 0.5559281114496933
vn 0.3383900369095165 0.6527398352348627 0.677807413959113
vn 0.4431369761587767 0.2615694817850063 0.8574444743303085
vn 0.49737181846594414 -0.10234968400055491 0.861478854285389
vn 0.27498444146999684 -0.8351869096856671 0.4762839309058615
vn 0.00897360130848406 -0.9998389375573522 0.015542632458546188
vn 0.4457938940783902 0.8454258599757866 0.29414778477259884
vn 0.743923467766076 0.5119631120364794 0.42950162516668033
vn 0.8365155955255755 0.25881624447390045 0.4829656406401163
vn 0.8604895244136763 0.11290221482853792 0.4968006323075043
vn 0.4762815618228135 -0.8351887110482351 0.274983073670379
vn 0.015542632458546188 -0.9998389375573522 0.00897360130848406
vn 0.5046238553041826 0.8306245365646271 -0.2354095238403539
vn 0.8795896671104133 0.4607501953772531 0.11845368281491236
vn 0.909727982124797 0.26661515444003714 0.31829445166710096
vn 0.9778396042666634 0.20935545927349283 0
vn 0.5499653371645244 -0.8351874806996997 0
vn 0.017947108931175973 -0.9998389376699693 0
vn 0.4839134961911453 0.8293185699424196 -0.27938940164709636
vn 0.6123736605856213 0.7071065147940485 -0.3535518018010662
vn 0.7793802558182399 0.435988447068044 -0.4499783226599815
vn 0.7633251838790583 -0.47235093672135664 -0.44070313844407677
vn 0.4762839309058615 -0.8351869096856671 -0.27498444146999684
vn 0.015542632458546188 -0.9998389375573522 -0.00897360130848406
vn 0.41975316929154644 0.8433962961681802 -0.33539523622063844
vn 0.44710795721858404 0.7179104738829984 -0.5335719502381225
vn 0.4653638290704378 0.3657245746909324 -0.806028561565927
vn 0.44070535038727576 -0.4723426815814204 -0.7633290151019424
vn 0.274983073670379 -0.8351887110482351 -0.4762815618228135
vn 0.00897360130848406 -0.9998389375573522 -0.015542632458546188
vn 0 0.8682122706742077 -0.4961929594933171
vn 0 0.7071067811865476 -0.7071067811865476
vn 0 0.258819772900384 -0.9659256312759249
vn 0 -0.4723485964614911 -0.8814118239624765
vn 0 -0.8351874806996997 -0.5499653371645244
vn 0 -0.9998389376699693 -0.017947108931175973
vn -0.2618756939033682 0.8518727345513771 -0.4535790615433968
vn -0.46831052848517707 0.684356798208859 -0.5588747817313404
vn -0.600796583098708 0.24686731599525905 -0.7603288722850228
vn -0.44070313844407677 -0.47235093672135664 -0.7633251838790583
vn -0.27498444146999684 -0.8351869096856671 -0.4762839309058615
vn -0.00897360130848406 -0.9998389375573522 -0.015542632458546188
vn -0.48391349619114526 0.8293185699424196 -0.2793894016470963
vn -0.7080603937580952 0.5757917524816529 -0.40879620419622087
vn -0.8365155955255755 0.2588162444739005 -0.4829656406401163
vn -0.8614799116047285 -0.10233781737983194 -0.4973724289055852
vn -0.4762815618228135 -0.8351887110482351 -0.274983073670379
vn -0.015542632458546188 -0.9998389375573522 -0.00897360130848406
vn -0.6488888593111001 0.6980759184760558 0.30270986159316104
vn -0.8369409969956004 0.4813194861519994 0.26050205334773413
vn -0.9603683038512117 0.24822706901200534 0.12679133711597113
vn -0.9993562172184741 -0.03587688819814304 0
vn -0.5499653371645244 -0.8351874806996997 0
vn -0.017947108931175973 -0.9998389376699693 0
vn -0.659140886801452 0.7011744730808699 0.2718228276770736
vn -0.7364112750243236 0.5262448034471325 0.4251644868306136
vn -0.8105621553887368 0.3521114575696019 0.46798131768242196
vn -0.8423773012138283 0.23209993957843733 0.48634360327590714
vn -0.4762839309058615 -0.8351869096856671 0.27498444146999684
vn -0.015542632458546188 -0.9998389375573522 0.00897360130848406
vn -0.4444703299066451 0.7549741369923834 0.4821412431075404
vn -0.642122666593219 0.5065811216670271 0.5753729644480964
vn -0.5629848959168622 0.32947525056054616 0.7579538681460406
vn -0.49922614174478436 0.05552771037181013 0.864690657275468
vn -0.274983073670379 -0.8351887110482351 0.4762815618228135
vn -0.00897360130848406 -0.9998389375573522 0.015542632458546188
vn 0.14019768368447594 0.786814389801507 0.6010555094920853
vn 0 0.5499653371645244 0.8351874806996995
vn 0 0.258819772900384 0.9659256312759249
vn 0 -0.03587688819814304 0.9993562172184741
vn 0 -0.8351874806996997 0.5499653371645244
vn 0 -0.9998389376699693 0.017947108931175973
usemtl m_26e85610-3f13-40bf-6308-72c0d7cc7ad8
f 3/1/1 8/2/1 2/3/1
f 3/4/2 4/5/2 9/6/2 8/7/2
f 4/8/3 5/9/3 10/10/3 9/11/3
f 5/12/4 6/13/4 11/14/4 10/15/4
f 6/16/5 7/17/5 12/18/5 11/19/5
f 12/20/6 7/21/6 1/22/6
f 8/23/7 13/24/7 2/25/7
f 8/26/8 9/27/8 14/28/8 13/29/8
f 9/30/9 10/31/9 15/32/9 14/33/9
f 10/34/10 11/35/10 16/36/10 15/37/10
f 11/38/11 12/39/11 17/40/11 16/41/11
f 17/42/12 12/43/12 1/44/12
f 13/45/13 18/46/13 2/47/13
f 13/48/14 14/49/14 19/50/14 18/51/14
f 14/52/15 15/53/15 20/54/15 19/55/15
f 15/56/16 16/57/16 21/58/16 20/59/16
f 16/60/17 17/61/17 22/62/17 21/63/17
f 22/64/18 17/65/18 1/66/18
f 18/67/19 23/68/19 2/69/19
f 18/70/20 19/71/20 24/72/20 23/73/20
f 19/74/21 20/75/21 25/76/21 24/77/21
f 20/78/22 21/79/22 26/80/22 25/81/22
f 21/82/23 22/83/23 27/84/23 26/85/23
f 27/86/24 22/87/24 1/88/24
f 23/89/25 28/90/25 2/91/25
f 23/92/26 24/93/26 29/94/26 28/95/26
f 24/96/27 25/97/27 30/98/27 29/99/27
f 25/100/28 26/101/28 31/102/28 30/103/28
f 26/104/29 27/105/29 32/106/29 31/107/29
f 32/108/30 27/109/30 1/110/30
f 28/111/31 33/112/31 2/113/31
f 28/114/32 29/115/32 34/116/32 33/117/32
f 29/118/33 30/119/33 35/120/33 34/121/33
f 30/122/34 31/123/34 36/124/34 35/125/34
f 31/126/35 32/127/35 37/128/35 36/129/35
f 37/130/36 32/131/36 1/132/36
f 33/133/37 38/134/37 2/135/37
f 33/136/38 34/137/38 39/138/38 38/139/38
f 34/140/39 35/141/39 40/142/39 39/143/39
f 35/144/40 36/145/40 41/146/40 40/147/40
f 36/148/41 37/149/41 42/150/41 41/151/41
f 42/152/42 37/153/42 1/154/42
f 38/155/43 43/156/43 2/157/43
f 38/158/44 39/159/44 44/160/44 43/161/44
f 39/162/45 40/163/45 45/164/45 44/165/45
f 40/166/46 41/167/46 46/168/46 45/169/46
f 41/170/47 42/171/47 47/172/47 46/173/47
f 47/174/48 42/175/48 1/176/48
f 43/177/49 48/178/49 2/179/49
f 43/180/50 44/181/50 49/182/50 48/183/50
f 44/184/51 45/185/51 50/186/51 49/187/51
f 45/188/52 46/189/52 51/190/52 50/191/52
f 46/192/53 47/193/53 52/194/53 51/195/53
f 52/196/54 47/197/54 1/198/54
f 48/199/55 53/200/55 2/201/55
f 48/202/56 49/203/56 54/204/56 53/205/56
f 49/206/57 50/207/57 55/208/57 54/209/57
f 50/210/58 51/211/58 56/212/58 55/213/58
f 51/214/59 52/215/59 57/216/59 56/217/59
f 57/218/60 52/219/60 1/220/60
f 53/221/61 58/222/61 2/223/61
f 53/224/62 54/225/62 59/226/62 58/227/62
f 54/228/63 55/229/63 60/230/63 59/231/63
f 55/232/64 56/233/64 61/234/64 60/235/64
f 56/236/65 57/237/65 62/238/65 61/239/65
f 62/240/66 57/241/66 1/242/66
f 58/243/67 3/244/67 2/245/67
f 58/246/68 59/247/68 4/248/68 3/249/68
f 59/250/69 60/251/69 5/252/69 4/253/69
f 60/254/70 61/255/70 6/256/70 5/257/70
f 61/258/71 62/259/71 7/260/71 6/261/71
f 7/262/72 62/263/72 1/264/72
o cone
v -0.015625 0.453125 0.015624999999999993
v -0.015625 0.421875 0.015624999999999988
v 0.010263125000000001 0.484375 -0.046875
v 0.046875 0.484375 -0.010263125000000005
v 0.046875 0.484375 0.041513125
v 0.010263125000000001 0.484375 0.078125
v -0.041513125 0.484375 0.078125
v -0.078125 0.484375 0.041513125
v -0.078125 0.484375 -0.010263125000000005
v -0.041513125 0.484375 -0.046875
vt 0.15625 0.41919375000000003
vt 0.13794375 0.4375
vt 0.125 0.40625
vt 0.3501559375 0.17997281249999997
vt 0.375 0.17269687499999997
vt 0.375 0.21875
vt 0.15625 0.39330624999999997
vt 0.15625 0.41919375000000003
vt 0.125 0.40625
vt 0.753203125 0.27372281249999997
vt 0.778046875 0.26644687499999997
vt 0.778046875 0.3125
vt 0.13794375 0.375
vt 0.15625 0.39330624999999997
vt 0.125 0.40625
vt 0.78125 0.6174728125
vt 0.8060940625 0.610196875
vt 0.8060940625 0.65625
vt 0.11205625 0.375
vt 0.13794375 0.375
vt 0.125 0.40625
vt 0.065703125 0.21122281249999997
vt 0.090546875 0.20394687499999997
vt 0.090546875 0.25
vt 0.09375 0.39330624999999997
vt 0.11205625 0.375
vt 0.125 0.40625
vt 0.6939059375 0.17997281249999997
vt 0.71875 0.17269687499999997
vt 0.71875 0.21875
vt 0.09375 0.41919375000000003
vt 0.09375 0.39330624999999997
vt 0.125 0.40625
vt 0.784453125 0.8049728125
vt 0.809296875 0.797696875
vt 0.809296875 0.84375
vt 0.11205625 0.4375
vt 0.09375 0.41919375000000003
vt 0.125 0.40625
vt 0.78125 0.7112228125
vt 0.8060940625 0.703946875
vt 0.8060940625 0.75
vt 0.13794375 0.4375
vt 0.11205625 0.4375
vt 0.125 0.40625
vt 0.440703125 0.21122281249999997
vt 0.465546875 0.20394687499999997
vt 0.465546875 0.25
vn -0.31622840327463375 0.8944267403900396 0.31622840327463386
vn 0.5000006297449398 -0.7071058905915911 -0.5000006297449399
vn -0.44721359549995804 0.8944271909999161 1.0953573965284055e-16
vn 0.7071067811865476 -0.7071067811865476 -8.659560562354934e-17
vn -0.3162284032746338 0.8944267403900398 -0.3162284032746337
vn 0.5000006297449398 -0.7071058905915913 0.5000006297449396
vn 0 0.8944271909999161 -0.4472135954999579
vn 0 -0.7071067811865477 0.7071067811865475
vn 0.3162284032746338 0.8944267403900398 -0.3162284032746337
vn -0.5000006297449398 -0.7071058905915913 0.5000006297449396
vn 0.44721359549995804 0.8944271909999161 1.0953573965284055e-16
vn -0.7071067811865476 -0.7071067811865476 -8.659560562354934e-17
vn 0.31622840327463375 0.8944267403900396 0.31622840327463386
vn -0.5000006297449398 -0.7071058905915911 -0.5000006297449399
vn 0 0.8944271909999159 0.44721359549995804
vn 0 -0.7071067811865475 -0.7071067811865477
usemtl m_26e85610-3f13-40bf-6308-72c0d7cc7ad8
f 66/265/73 65/266/73 63/267/73
f 65/268/74 66/269/74 64/270/74
f 67/271/75 66/272/75 63/273/75
f 66/274/76 67/275/76 64/276/76
f 68/277/77 67/278/77 63/279/77
f 67/280/78 68/281/78 64/282/78
f 69/283/79 68/284/79 63/285/79
f 68/286/80 69/287/80 64/288/80
f 70/289/81 69/290/81 63/291/81
f 69/292/82 70/293/82 64/294/82
f 71/295/83 70/296/83 63/297/83
f 70/298/84 71/299/84 64/300/84
f 72/301/85 71/302/85 63/303/85
f 71/304/86 72/305/86 64/306/86
f 65/307/87 72/308/87 63/309/87
f 72/310/88 65/311/88 64/312/88
o torus
v -0.012173125 0.43125 0.023958125
v -0.010953125000000001 0.428504375 0.026904375
v -0.0104475 0.421875 0.028125
v -0.010953125000000001 0.415245625 0.026904375
v -0.012173125 0.4125 0.023958125
v -0.01339375 0.415245625 0.021011875
v -0.013899375 0.421875 0.019791875
v -0.01339375 0.428504375 0.021011875
v -0.007291875 0.43125 0.019076875
v -0.0043456250000000005 0.428504375 0.020296875
v -0.0031249999999999993 0.421875 0.0208025
v -0.0043456250000000005 0.415245625 0.020296875
v -0.007291875 0.4125 0.019076875
v -0.010238125 0.415245625 0.01785625
v -0.011458125 0.421875 0.017350625
v -0.010238125 0.428504375 0.01785625
v -0.007291875 0.43125 0.012173125
v -0.0043456250000000005 0.428504375 0.010953125000000001
v -0.0031249999999999993 0.421875 0.0104475
v -0.0043456250000000005 0.415245625 0.010953125000000001
v -0.007291875 0.4125 0.012173125
v -0.010238125 0.415245625 0.01339375
v -0.011458125 0.421875 0.013899375
v -0.010238125 0.428504375 0.01339375
v -0.012173125 0.43125 0.007291875
v -0.010953125000000001 0.428504375 0.0043456250000000005
v -0.0104475 0.421875 0.0031249999999999993
v -0.010953125000000001 0.415245625 0.0043456250000000005
v -0.012173125 0.4125 0.007291875
v -0.01339375 0.415245625 0.010238125
v -0.013899375 0.421875 0.011458125
v -0.01339375 0.428504375 0.010238125
v -0.019076875 0.43125 0.007291875
v -0.020296875 0.428504375 0.0043456250000000005
v -0.0208025 0.421875 0.0031249999999999993
v -0.020296875 0.415245625 0.0043456250000000005
v -0.019076875 0.4125 0.007291875
v -0.01785625 0.415245625 0.010238125
v -0.017350625 0.421875 0.011458125
v -0.01785625 0.428504375 0.010238125
v -0.023958125 0.43125 0.012173125
v -0.026904375 0.428504375 0.010953125000000001
v -0.028125 0.421875 0.0104475
v -0.026904375 0.415245625 0.010953125000000001
v -0.023958125 0.4125 0.012173125
v -0.021011875 0.415245625 0.01339375
v -0.019791875 0.421875 0.013899375
v -0.021011875 0.428504375 0.01339375
v -0.023958125 0.43125 0.019076875
v -0.026904375 0.428504375 0.020296875
v -0.028125 0.421875 0.0208025
v -0.026904375 0.415245625 0.020296875
v -0.023958125 0.4125 0.019076875
v -0.021011875 0.415245625 0.01785625
v -0.019791875 0.421875 0.017350625
v -0.021011875 0.428504375 0.01785625
v -0.019076875 0.43125 0.023958125
v -0.020296875 0.428504375 0.026904375
v -0.0208025 0.421875 0.028125
v -0.020296875 0.415245625 0.026904375
v -0.019076875 0.4125 0.023958125
v -0.01785625 0.415245625 0.021011875
v -0.017350625 0.421875 0.019791875
v -0.01785625 0.428504375 0.021011875
vt 0.87875 1
vt 0.8781375 0.9921875
vt 0.8828125 0.9921875
vt 0.8822 1
vt 0.6278875 0.1875
vt 0.6276375 0.1796875
vt 0.6328125 0.1796875
vt 0.6325625 0.1875
vt 0.8151375 0.1875
vt 0.8153875 0.1796875
vt 0.8200625 0.1796875
vt 0.8203125 0.1875
vt 0.3156375 0.125
vt 0.31625 0.1171875
vt 0.3197 0.1171875
vt 0.3203125 0.125
vt 0.8828125 0.2421875
vt 0.882203125 0.25
vt 0.879971875 0.25
vt 0.8793625 0.2421875
vt 0.1328125 0.0546875
vt 0.132559375 0.0625
vt 0.130834375 0.0625
vt 0.13058125 0.0546875
vt 0.945059375 0.4921875
vt 0.9453125 0.5
vt 0.94308125 0.5
vt 0.943334375 0.4921875
vt 0.069703125 0.0859375
vt 0.0703125 0.09375
vt 0.0668625 0.09375
vt 0.067471875 0.0859375
vt 0.84593125 0.625
vt 0.84531875 0.6171875
vt 0.84999375 0.6171875
vt 0.84938125 0.625
vt 0.18906875 0.1875
vt 0.18881875 0.1796875
vt 0.19399375 0.1796875
vt 0.19374375 0.1875
vt 0.12631875 0.1875
vt 0.12656875 0.1796875
vt 0.13124375 0.1796875
vt 0.13149375 0.1875
vt 0.84531875 0.6875
vt 0.84593125 0.6796875
vt 0.84938125 0.6796875
vt 0.84999375 0.6875
vt 0.66188125 0.1171875
vt 0.661271875 0.125
vt 0.659040625 0.125
vt 0.65843125 0.1171875
vt 0.942521875 0.9921875
vt 0.94226875 1
vt 0.94054375 1
vt 0.940290625 0.9921875
vt 0.94226875 0.9296875
vt 0.942521875 0.9375
vt 0.940290625 0.9375
vt 0.94054375 0.9296875
vt 0.598771875 0.1171875
vt 0.59938125 0.125
vt 0.59593125 0.125
vt 0.596540625 0.1171875
vt 0.4068625 0.15625
vt 0.40625 0.1484375
vt 0.410925 0.1484375
vt 0.4103125 0.15625
vt 0.81275 0.5
vt 0.8125 0.4921875
vt 0.817675 0.4921875
vt 0.817425 0.5
vt 0.5625 0.1875
vt 0.56275 0.1796875
vt 0.567425 0.1796875
vt 0.567675 0.1875
vt 0.75 0.15625
vt 0.7506125 0.1484375
vt 0.7540625 0.1484375
vt 0.754675 0.15625
vt 0.87845 0.1171875
vt 0.877840625 0.125
vt 0.875609375 0.125
vt 0.875 0.1171875
vt 0.18973125 0.0546875
vt 0.189478125 0.0625
vt 0.187753125 0.0625
vt 0.1875 0.0546875
vt 0.564478125 0.0546875
vt 0.56473125 0.0625
vt 0.5625 0.0625
vt 0.562753125 0.0546875
vt 0.909090625 0.8046875
vt 0.9097 0.8125
vt 0.90625 0.8125
vt 0.906859375 0.8046875
vt 0.00218125 0.15625
vt 0.00156875 0.1484375
vt 0.00624375 0.1484375
vt 0.00563125 0.15625
vt 0.75156875 0.21875
vt 0.75131875 0.2109375
vt 0.75649375 0.2109375
vt 0.75624375 0.21875
vt 0.37631875 0.8125
vt 0.37656875 0.8046875
vt 0.38124375 0.8046875
vt 0.38149375 0.8125
vt 0.06406875 0.15625
vt 0.06468125 0.1484375
vt 0.06813125 0.1484375
vt 0.06874375 0.15625
vt 0.47438125 0.1171875
vt 0.473771875 0.125
vt 0.471540625 0.125
vt 0.47093125 0.1171875
vt 0.255021875 0.0859375
vt 0.25476875 0.09375
vt 0.25304375 0.09375
vt 0.252790625 0.0859375
vt 0.91101875 0.7421875
vt 0.911271875 0.75
vt 0.909040625 0.75
vt 0.90929375 0.7421875
vt 0.880021875 0.4921875
vt 0.88063125 0.5
vt 0.87718125 0.5
vt 0.877790625 0.4921875
vt 0.87875 0.5625
vt 0.8781375 0.5546875
vt 0.8828125 0.5546875
vt 0.8822 0.5625
vt 0.8153875 0.25
vt 0.8151375 0.2421875
vt 0.8203125 0.2421875
vt 0.8200625 0.25
vt 0.8151375 0.375
vt 0.8153875 0.3671875
vt 0.8200625 0.3671875
vt 0.8203125 0.375
vt 0.8781375 0.9375
vt 0.87875 0.9296875
vt 0.8822 0.9296875
vt 0.8828125 0.9375
vt 0.8203125 0.1171875
vt 0.819703125 0.125
vt 0.817471875 0.125
vt 0.8168625 0.1171875
vt 0.3203125 0.0546875
vt 0.320059375 0.0625
vt 0.318334375 0.0625
vt 0.31808125 0.0546875
vt 0.445059375 0.0546875
vt 0.4453125 0.0625
vt 0.44308125 0.0625
vt 0.443334375 0.0546875
vt 0.007203125 0.0859375
vt 0.0078125 0.09375
vt 0.0043625 0.09375
vt 0.004971875 0.0859375
vt 0.84593125 0.75
vt 0.84531875 0.7421875
vt 0.84999375 0.7421875
vt 0.84938125 0.75
vt 0.81406875 0.5625
vt 0.81381875 0.5546875
vt 0.81899375 0.5546875
vt 0.81874375 0.5625
vt 0.50131875 0.1875
vt 0.50156875 0.1796875
vt 0.50624375 0.1796875
vt 0.50649375 0.1875
vt 0.25156875 0.15625
vt 0.25218125 0.1484375
vt 0.25563125 0.1484375
vt 0.25624375 0.15625
vt 0.88063125 0.3046875
vt 0.880021875 0.3125
vt 0.877790625 0.3125
vt 0.87718125 0.3046875
vt 0.723771875 0.0859375
vt 0.72351875 0.09375
vt 0.72179375 0.09375
vt 0.721540625 0.0859375
vt 0.91101875 0.6171875
vt 0.911271875 0.625
vt 0.909040625 0.625
vt 0.90929375 0.6171875
vt 0.880021875 0.3671875
vt 0.88063125 0.375
vt 0.87718125 0.375
vt 0.877790625 0.3671875
vt 0.1881125 0.125
vt 0.1875 0.1171875
vt 0.192175 0.1171875
vt 0.1915625 0.125
vt 0.81275 0.3125
vt 0.8125 0.3046875
vt 0.817675 0.3046875
vt 0.817425 0.3125
vt 0.8125 0.4375
vt 0.81275 0.4296875
vt 0.817425 0.4296875
vt 0.817675 0.4375
vt 0.125 0.125
vt 0.1256125 0.1171875
vt 0.1290625 0.1171875
vt 0.129675 0.125
vt 0.87845 0.1796875
vt 0.877840625 0.1875
vt 0.875609375 0.1875
vt 0.875 0.1796875
vt 0.93973125 0.5546875
vt 0.939478125 0.5625
vt 0.937753125 0.5625
vt 0.9375 0.5546875
vt 0.501978125 0.0546875
vt 0.50223125 0.0625
vt 0.5 0.0625
vt 0.500253125 0.0546875
vt 0.909090625 0.8671875
vt 0.9097 0.875
vt 0.90625 0.875
vt 0.906859375 0.8671875
vt 0.84593125 0.8125
vt 0.84531875 0.8046875
vt 0.84999375 0.8046875
vt 0.84938125 0.8125
vt 0.81406875 1
vt 0.81381875 0.9921875
vt 0.81899375 0.9921875
vt 0.81874375 1
vt 0.81381875 0.9375
vt 0.81406875 0.9296875
vt 0.81874375 0.9296875
vt 0.81899375 0.9375
vt 0.84531875 0.875
vt 0.84593125 0.8671875
vt 0.84938125 0.8671875
vt 0.84999375 0.875
vt 0.53688125 0.1171875
vt 0.536271875 0.125
vt 0.534040625 0.125
vt 0.53343125 0.1171875
vt 0.380021875 0.0859375
vt 0.37976875 0.09375
vt 0.37804375 0.09375
vt 0.377790625 0.0859375
vt 0.91101875 0.6796875
vt 0.911271875 0.6875
vt 0.909040625 0.6875
vt 0.90929375 0.6796875
vt 0.880021875 0.4296875
vt 0.88063125 0.4375
vt 0.87718125 0.4375
vt 0.877790625 0.4296875
vn 0.4821001498629548 0.7315455495075021 0.4821001498629548
vn 0.6954168370851759 0.1810824270792172 0.695416837085176
vn 0.695416837085176 -0.18108242707921723 0.6954168370851758
vn 0.48210014986295485 -0.731545549507502 0.48210014986295485
vn -0.48206144772315623 -0.7315965563328667 -0.4820614477231564
vn -0.6954250918222853 -0.18101901371936743 -0.6954250918222852
vn -0.6954250918222851 0.1810190137193674 -0.6954250918222852
vn -0.4820614477231563 0.7315965563328667 -0.48206144772315623
vn 0.6817595803214286 0.7315762944764884 0
vn 0.9834684001963387 0.18107983271268518 0
vn 0.9834684001963387 -0.1810798327126852 0
vn 0.6817595803214285 -0.7315762944764884 0
vn -0.6817595803214284 -0.7315762944764885 0
vn -0.9834849083335561 -0.18099015188715964 0
vn -0.9834849083335561 0.18099015188715964 0
vn -0.6817595803214285 0.7315762944764885 0
vn 0.4821001498629548 0.7315455495075021 -0.4821001498629548
vn 0.695416837085176 0.1810824270792172 -0.6954168370851759
vn 0.6954168370851758 -0.18108242707921723 -0.695416837085176
vn 0.48210014986295485 -0.731545549507502 -0.48210014986295485
vn -0.4820614477231564 -0.7315965563328667 0.48206144772315623
vn -0.6954250918222851 -0.1810190137193674 0.6954250918222852
vn -0.6954250918222853 0.18101901371936743 0.6954250918222852
vn -0.48206144772315623 0.7315965563328667 0.4820614477231563
vn 0 0.7315762944764884 -0.6817595803214286
vn 0 0.18107983271268518 -0.9834684001963387
vn 0 -0.1810798327126852 -0.9834684001963387
vn 0 -0.7315762944764884 -0.6817595803214285
vn 0 -0.7315762944764885 0.6817595803214284
vn 0 -0.18099015188715964 0.9834849083335561
vn 0 0.18099015188715964 0.9834849083335561
vn 0 0.7315762944764885 0.6817595803214285
vn -0.4821001498629548 0.7315455495075021 -0.4821001498629548
vn -0.6954168370851759 0.1810824270792172 -0.695416837085176
vn -0.695416837085176 -0.18108242707921723 -0.6954168370851758
vn -0.48210014986295485 -0.731545549507502 -0.48210014986295485
vn 0.48206144772315623 -0.7315965563328667 0.4820614477231564
vn 0.6954250918222853 -0.18101901371936743 0.6954250918222852
vn 0.6954250918222851 0.1810190137193674 0.6954250918222852
vn 0.4820614477231563 0.7315965563328667 0.48206144772315623
vn -0.6817595803214286 0.7315762944764884 0
vn -0.9834684001963387 0.18107983271268518 0
vn -0.9834684001963387 -0.1810798327126852 0
vn -0.6817595803214285 -0.7315762944764884 0
vn 0.6817595803214284 -0.7315762944764885 0
vn 0.9834849083335561 -0.18099015188715964 0
vn 0.9834849083335561 0.18099015188715964 0
vn 0.6817595803214285 0.7315762944764885 0
vn -0.4821001498629548 0.7315455495075021 0.4821001498629548
vn -0.695416837085176 0.1810824270792172 0.6954168370851759
vn -0.6954168370851758 -0.18108242707921723 0.695416837085176
vn -0.48210014986295485 -0.731545549507502 0.48210014986295485
vn 0.4820614477231564 -0.7315965563328667 -0.48206144772315623
vn 0.6954250918222851 -0.1810190137193674 -0.6954250918222852
vn 0.6954250918222853 0.18101901371936743 -0.6954250918222852
vn 0.48206144772315623 0.7315965563328667 -0.4820614477231563
vn 0 0.7315762944764884 0.6817595803214286
vn 0 0.18107983271268518 0.9834684001963387
vn 0 -0.1810798327126852 0.9834684001963387
vn 0 -0.7315762944764884 0.6817595803214285
vn 0 -0.7315762944764885 -0.6817595803214284
vn 0 -0.18099015188715964 -0.9834849083335561
vn 0 0.18099015188715964 -0.9834849083335561
vn 0 0.7315762944764885 -0.6817595803214285
usemtl m_26e85610-3f13-40bf-6308-72c0d7cc7ad8
f 73/313/89 74/314/89 82/315/89 81/316/89
f 74/317/90 75/318/90 83/319/90 82/320/90
f 75/321/91 76/322/91 84/323/91 83/324/91
f 76/325/92 77/326/92 85/327/92 84/328/92
f 77/329/93 78/330/93 86/331/93 85/332/93
f 78/333/94 79/334/94 87/335/94 86/336/94
f 79/337/95 80/338/95 88/339/95 87/340/95
f 80/341/96 73/342/96 81/343/96 88/344/96
f 81/345/97 82/346/97 90/347/97 89/348/97
f 82/349/98 83/350/98 91/351/98 90/352/98
f 83/353/99 84/354/99 92/355/99 91/356/99
f 84/357/100 85/358/100 93/359/100 92/360/100
f 85/361/101 86/362/101 94/363/101 93/364/101
f 86/365/102 87/366/102 95/367/102 94/368/102
f 87/369/103 88/370/103 96/371/103 95/372/103
f 88/373/104 81/374/104 89/375/104 96/376/104
f 89/377/105 90/378/105 98/379/105 97/380/105
f 90/381/106 91/382/106 99/383/106 98/384/106
f 91/385/107 92/386/107 100/387/107 99/388/107
f 92/389/108 93/390/108 101/391/108 100/392/108
f 93/393/109 94/394/109 102/395/109 101/396/109
f 94/397/110 95/398/110 103/399/110 102/400/110
f 95/401/111 96/402/111 104/403/111 103/404/111
f 96/405/112 89/406/112 97/407/112 104/408/112
f 97/409/113 98/410/113 106/411/113 105/412/113
f 98/413/114 99/414/114 107/415/114 106/416/114
f 99/417/115 100/418/115 108/419/115 107/420/115
f 100/421/116 101/422/116 109/423/116 108/424/116
f 101/425/117 102/426/117 110/427/117 109/428/117
f 102/429/118 103/430/118 111/431/118 110/432/118
f 103/433/119 104/434/119 112/435/119 111/436/119
f 104/437/120 97/438/120 105/439/120 112/440/120
f 105/441/121 106/442/121 114/443/121 113/444/121
f 106/445/122 107/446/122 115/447/122 114/448/122
f 107/449/123 108/450/123 116/451/123 115/452/123
f 108/453/124 109/454/124 117/455/124 116/456/124
f 109/457/125 110/458/125 118/459/125 117/460/125
f 110/461/126 111/462/126 119/463/126 118/464/126
f 111/465/127 112/466/127 120/467/127 119/468/127
f 112/469/128 105/470/128 113/471/128 120/472/128
f 113/473/129 114/474/129 122/475/129 121/476/129
f 114/477/130 115/478/130 123/479/130 122/480/130
f 115/481/131 116/482/131 124/483/131 123/484/131
f 116/485/132 117/486/132 125/487/132 124/488/132
f 117/489/133 118/490/133 126/491/133 125/492/133
f 118/493/134 119/494/134 127/495/134 126/496/134
f 119/497/135 120/498/135 128/499/135 127/500/135
f 120/501/136 113/502/136 121/503/136 128/504/136
f 121/505/137 122/506/137 130/507/137 129/508/137
f 122/509/138 123/510/138 131/511/138 130/512/138
f 123/513/139 124/514/139 132/515/139 131/516/139
f 124/517/140 125/518/140 133/519/140 132/520/140
f 125/521/141 126/522/141 134/523/141 133/524/141
f 126/525/142 127/526/142 135/527/142 134/528/142
f 127/529/143 128/530/143 136/531/143 135/532/143
f 128/533/144 121/534/144 129/535/144 136/536/144
f 129/537/145 130/538/145 74/539/145 73/540/145
f 130/541/146 131/542/146 75/543/146 74/544/146
f 131/545/147 132/546/147 76/547/147 75/548/147
f 132/549/148 133/550/148 77/551/148 76/552/148
f 133/553/149 134/554/149 78/555/149 77/556/149
f 134/557/150 135/558/150 79/559/150 78/560/150
f 135/561/151 136/562/151 80/563/151 79/564/151
f 136/565/152 129/566/152 73/567/152 80/568/152