# Made in Blockbench 5.1.4
mtllib empty_can.mtl

o cylinder
v 0.082355625 0 0.082355625
v 0.030144375 0.5 0.1125
v 0.082355625 0.4890625 0.082355625
v 0.030144375 0.4890625 0.1125
v 0.082355625 0.5 0.082355625
v 0.1125 0.4890625 0.030144375
v 0.1125 0.5 0.030144375
v 0.1125 0.4890625 -0.030144375
v 0.1125 0.5 -0.030144375
v 0.082355625 0.4890625 -0.082355625
v 0.082355625 0.5 -0.082355625
v 0.030144375 0.4890625 -0.1125
v 0.030144375 0.5 -0.1125
v -0.030144375 0.4890625 -0.1125
v -0.030144375 0.5 -0.1125
v -0.082355625 0.4890625 -0.082355625
v -0.082355625 0.5 -0.082355625
v -0.1125 0.4890625 -0.030144375
v -0.1125 0.5 -0.030144375
v -0.1125 0.4890625 0.030144375
v -0.1125 0.5 0.030144375
v -0.082355625 0.4890625 0.082355625
v -0.082355625 0.5 0.082355625
v -0.030144375 0.4890625 0.1125
v -0.030144375 0.5 0.1125
v -0.084375 0.015625 0.022608125
v -0.084375 0.015625 -0.022608125
v 0 0.015625 0
v -0.061766875 0.015625 -0.061766875
v -0.022608125 0.015625 -0.084375
v 0.022608125 0.015625 -0.084375
v 0.061766875 0.015625 -0.061766875
v 0.084375 0.015625 -0.022608125
v 0.084375 0.015625 0.022608125
v 0.061766875 0.015625 0.061766875
v 0.022608125 0.015625 0.084375
v -0.022608125 0.015625 0.084375
v -0.061766875 0.015625 0.061766875
v -0.0259575 0.4875 0.096875
v 0.0259575 0.4875 0.096875
v 0 0.4875 0
v -0.0709175 0.4875 0.0709175
v -0.096875 0.4875 0.0259575
v -0.096875 0.4875 -0.0259575
v -0.0709175 0.4875 -0.0709175
v 0.0259575 0.4875 -0.096875
v -0.0259575 0.4875 -0.096875
v 0.0709175 0.4875 -0.0709175
v 0.096875 0.4875 -0.0259575
v 0.096875 0.4875 0.0259575
v 0.0709175 0.4875 0.0709175
v 0.030144375 0 0.1125
v 0.1125 0 0.030144375
v 0.1125 0 -0.030144375
v 0.082355625 0 -0.082355625
v 0.030144375 0 -0.1125
v -0.030144375 0 -0.1125
v -0.082355625 0 -0.082355625
v -0.1125 0 -0.030144375
v -0.1125 0 0.030144375
v -0.082355625 0 0.082355625
v -0.030144375 0 0.1125
v 0.09150625 0.46875 0.09150625
v 0.03349375 0.46875 0.125
v -0.03349375 0.46875 0.125
v -0.09150625 0.46875 0.09150625
v -0.125 0.46875 0.03349375
v -0.125 0.46875 -0.03349375
v -0.09150625 0.46875 -0.09150625
v -0.03349375 0.46875 -0.125
v 0.03349375 0.46875 -0.125
v 0.09150625 0.46875 -0.09150625
v 0.125 0.46875 -0.03349375
v 0.125 0.46875 0.03349375
v 0.082355625 0.015625 0.082355625
v 0.030144375 0.015625 0.1125
v -0.030144375 0.015625 0.1125
v -0.082355625 0.015625 0.082355625
v -0.1125 0.015625 0.030144375
v -0.1125 0.015625 -0.030144375
v -0.082355625 0.015625 -0.082355625
v -0.030144375 0.015625 -0.1125
v 0.030144375 0.015625 -0.1125
v 0.082355625 0.015625 -0.082355625
v 0.1125 0.015625 -0.030144375
v 0.1125 0.015625 0.030144375
v 0.03349375 0.0390625 0.125
v 0.09150625 0.0390625 0.09150625
v 0.125 0.0390625 0.03349375
v 0.125 0.0390625 -0.03349375
v 0.09150625 0.0390625 -0.09150625
v 0.03349375 0.0390625 -0.125
v -0.03349375 0.0390625 -0.125
v -0.09150625 0.0390625 -0.09150625
v -0.125 0.0390625 -0.03349375
v -0.125 0.0390625 0.03349375
v -0.09150625 0.0390625 0.09150625
v -0.03349375 0.0390625 0.125
vt 0.198853125 0.862134375
vt 0.179271875 0.8734375
vt 0.16796875 0.83125
vt 0.1875 0.3125
vt 0.1875 0.3046875
vt 0.21875 0.3046875
vt 0.21875 0.3125
vt 0.063759375 0.903125
vt 0.086240625 0.916103125
vt 0.05078125 0.9515625
vt 0.21015625 0.842553125
vt 0.198853125 0.862134375
vt 0.16796875 0.83125
vt 0 0.34375
vt 0 0.3359375
vt 0.03125 0.3359375
vt 0.03125 0.34375
vt 0.086240625 0.916103125
vt 0.09921875 0.938584375
vt 0.05078125 0.9515625
vt 0.21015625 0.819946875
vt 0.21015625 0.842553125
vt 0.16796875 0.83125
vt 0.375 0.375
vt 0.375 0.3671875
vt 0.40625 0.3671875
vt 0.40625 0.375
vt 0.09921875 0.938584375
vt 0.09921875 0.964540625
vt 0.05078125 0.9515625
vt 0.198853125 0.800365625
vt 0.21015625 0.819946875
vt 0.16796875 0.83125
vt 0.65625 0.5
vt 0.65625 0.4921875
vt 0.6875 0.4921875
vt 0.6875 0.5
vt 0.09921875 0.964540625
vt 0.086240625 0.987021875
vt 0.05078125 0.9515625
vt 0.179271875 0.7890625
vt 0.198853125 0.800365625
vt 0.16796875 0.83125
vt 0.125 0.3125
vt 0.125 0.3046875
vt 0.15625 0.3046875
vt 0.15625 0.3125
vt 0.086240625 0.987021875
vt 0.063759375 1
vt 0.05078125 0.9515625
vt 0.156665625 0.7890625
vt 0.179271875 0.7890625
vt 0.16796875 0.83125
vt 0.625 0.8125
vt 0.625 0.8046875
vt 0.65625 0.8046875
vt 0.65625 0.8125
vt 0.063759375 1
vt 0.037803125 1
vt 0.05078125 0.9515625
vt 0.137084375 0.800365625
vt 0.156665625 0.7890625
vt 0.16796875 0.83125
vt 0.65625 0.4375
vt 0.65625 0.4296875
vt 0.6875 0.4296875
vt 0.6875 0.4375
vt 0.037803125 1
vt 0.015321875 0.987021875
vt 0.05078125 0.9515625
vt 0.12578125 0.819946875
vt 0.137084375 0.800365625
vt 0.16796875 0.83125
vt 0.625 0.5625
vt 0.625 0.5546875
vt 0.65625 0.5546875
vt 0.65625 0.5625
vt 0.015321875 0.987021875
vt 0.00234375 0.964540625
vt 0.05078125 0.9515625
vt 0.12578125 0.842553125
vt 0.12578125 0.819946875
vt 0.16796875 0.83125
vt 0.625 0.625
vt 0.625 0.6171875
vt 0.65625 0.6171875
vt 0.65625 0.625
vt 0.00234375 0.964540625
vt 0.00234375 0.938584375
vt 0.05078125 0.9515625
vt 0.137084375 0.862134375
vt 0.12578125 0.842553125
vt 0.16796875 0.83125
vt 0.4375 0.375
vt 0.4375 0.3671875
vt 0.46875 0.3671875
vt 0.46875 0.375
vt 0.00234375 0.938584375
vt 0.015321875 0.916103125
vt 0.05078125 0.9515625
vt 0.156665625 0.8734375
vt 0.137084375 0.862134375
vt 0.16796875 0.83125
vt 0.25 0.3125
vt 0.25 0.3046875
vt 0.28125 0.3046875
vt 0.28125 0.3125
vt 0.015321875 0.916103125
vt 0.037803125 0.903125
vt 0.05078125 0.9515625
vt 0.179271875 0.8734375
vt 0.156665625 0.8734375
vt 0.16796875 0.83125
vt 0.625 0.6875
vt 0.625 0.6796875
vt 0.65625 0.6796875
vt 0.65625 0.6875
vt 0.037803125 0.903125
vt 0.063759375 0.903125
vt 0.05078125 0.9515625
vt 0.5686375 0.625
vt 0.53849375 0.625
vt 0.53681875 0.609375
vt 0.5703125 0.609375
vt 0.5686375 1
vt 0.53849375 1
vt 0.53681875 0.984375
vt 0.5703125 0.984375
vt 0.472103125 0.75
vt 0.441959375 0.75
vt 0.440284375 0.734375
vt 0.473778125 0.734375
vt 0.53181875 0.5
vt 0.501675 0.5
vt 0.5 0.484375
vt 0.53349375 0.484375
vt 0.15681875 0.4375
vt 0.126675 0.4375
vt 0.125 0.421875
vt 0.15849375 0.421875
vt 0.472103125 0.9375
vt 0.441959375 0.9375
vt 0.440284375 0.921875
vt 0.473778125 0.921875
vt 0.5686375 0.6875
vt 0.53849375 0.6875
vt 0.53681875 0.671875
vt 0.5703125 0.671875
vt 0.3498875 0.5
vt 0.31974375 0.5
vt 0.31806875 0.484375
vt 0.3515625 0.484375
vt 0.472103125 0.6875
vt 0.441959375 0.6875
vt 0.440284375 0.671875
vt 0.473778125 0.671875
vt 0.43806875 0.5
vt 0.407925 0.5
vt 0.40625 0.484375
vt 0.43974375 0.484375
vt 0.56306875 0.5625
vt 0.532925 0.5625
vt 0.53125 0.546875
vt 0.56474375 0.546875
vt 0.472103125 1
vt 0.441959375 1
vt 0.440284375 0.984375
vt 0.473778125 0.984375
vt 0.370678125 0.4375
vt 0.348071875 0.4375
vt 0.344303125 0.421875
vt 0.374446875 0.421875
vt 0.65248125 0.9375
vt 0.629875 0.9375
vt 0.62610625 0.921875
vt 0.65625 0.921875
vt 0.49623125 0.4375
vt 0.473625 0.4375
vt 0.46985625 0.421875
vt 0.5 0.421875
vt 0.245678125 0.4375
vt 0.223071875 0.4375
vt 0.219303125 0.421875
vt 0.249446875 0.421875
vt 0.557625 0.4375
vt 0.53501875 0.4375
vt 0.53125 0.421875
vt 0.56139375 0.421875
vt 0.151375 0.375
vt 0.12876875 0.375
vt 0.125 0.359375
vt 0.15514375 0.359375
vt 0.433178125 0.4375
vt 0.410571875 0.4375
vt 0.406803125 0.421875
vt 0.436946875 0.421875
vt 0.65248125 0.875
vt 0.629875 0.875
vt 0.62610625 0.859375
vt 0.65625 0.859375
vt 0.62123125 0.5
vt 0.598625 0.5
vt 0.59485625 0.484375
vt 0.625 0.484375
vt 0.308178125 0.4375
vt 0.285571875 0.4375
vt 0.281803125 0.421875
vt 0.311946875 0.421875
vt 0.620125 0.4375
vt 0.59751875 0.4375
vt 0.59375 0.421875
vt 0.62389375 0.421875
vt 0.651375 1
vt 0.62876875 1
vt 0.625 0.984375
vt 0.65514375 0.984375
vt 0.690146875 0.7421875
vt 0.716103125 0.7421875
vt 0.718196875 0.75
vt 0.688053125 0.75
vt 0.68959375 0.6171875
vt 0.71555 0.6171875
vt 0.71764375 0.625
vt 0.6875 0.625
vt 0.56459375 0.3046875
vt 0.59055 0.3046875
vt 0.59264375 0.3125
vt 0.5625 0.3125
vt 0.690146875 0.6796875
vt 0.716103125 0.6796875
vt 0.718196875 0.6875
vt 0.688053125 0.6875
vt 0.6907 0.3671875
vt 0.71665625 0.3671875
vt 0.71875 0.375
vt 0.68860625 0.375
vt 0.315146875 0.3046875
vt 0.341103125 0.3046875
vt 0.343196875 0.3125
vt 0.313053125 0.3125
vt 0.68959375 0.5546875
vt 0.71555 0.5546875
vt 0.71764375 0.5625
vt 0.6875 0.5625
vt 0.5032 0.3046875
vt 0.52915625 0.3046875
vt 0.53125 0.3125
vt 0.50110625 0.3125
vt 0.62709375 0.3046875
vt 0.65305 0.3046875
vt 0.65514375 0.3125
vt 0.625 0.3125
vt 0.377646875 0.3046875
vt 0.403603125 0.3046875
vt 0.405696875 0.3125
vt 0.375553125 0.3125
vt 0.6907 0.3046875
vt 0.71665625 0.3046875
vt 0.71875 0.3125
vt 0.68860625 0.3125
vt 0.4407 0.3046875
vt 0.46665625 0.3046875
vt 0.46875 0.3125
vt 0.43860625 0.3125
vt 0.5686375 0.859375
vt 0.5703125 0.875
vt 0.53681875 0.875
vt 0.53849375 0.859375
vt 0.190853125 0.984375
vt 0.192528125 1
vt 0.159034375 1
vt 0.160709375 0.984375
vt 0.56306875 0.796875
vt 0.56474375 0.8125
vt 0.53125 0.8125
vt 0.532925 0.796875
vt 0.46931875 0.609375
vt 0.47099375 0.625
vt 0.4375 0.625
vt 0.439175 0.609375
vt 0.472103125 0.796875
vt 0.473778125 0.8125
vt 0.440284375 0.8125
vt 0.441959375 0.796875
vt 0.4748875 0.546875
vt 0.4765625 0.5625
vt 0.44306875 0.5625
vt 0.44474375 0.546875
vt 0.5686375 0.921875
vt 0.5703125 0.9375
vt 0.53681875 0.9375
vt 0.53849375 0.921875
vt 0.190853125 0.921875
vt 0.192528125 0.9375
vt 0.159034375 0.9375
vt 0.160709375 0.921875
vt 0.56306875 0.734375
vt 0.56474375 0.75
vt 0.53125 0.75
vt 0.532925 0.734375
vt 0.15681875 0.484375
vt 0.15849375 0.5
vt 0.125 0.5
vt 0.126675 0.484375
vt 0.472103125 0.859375
vt 0.473778125 0.875
vt 0.440284375 0.875
vt 0.441959375 0.859375
vt 0.2561375 0.484375
vt 0.2578125 0.5
vt 0.22431875 0.5
vt 0.22599375 0.484375
vt 0.71875 0.8671875
vt 0.71875 0.875
vt 0.6875 0.875
vt 0.6875 0.8671875
vt 0.65625 0.7421875
vt 0.65625 0.75
vt 0.625 0.75
vt 0.625 0.7421875
vt 0.71875 0.8046875
vt 0.71875 0.8125
vt 0.6875 0.8125
vt 0.6875 0.8046875
vt 0.53125 0.3671875
vt 0.53125 0.375
vt 0.5 0.375
vt 0.5 0.3671875
vt 0.21875 0.3671875
vt 0.21875 0.375
vt 0.1875 0.375
vt 0.1875 0.3671875
vt 0.59375 0.3671875
vt 0.59375 0.375
vt 0.5625 0.375
vt 0.5625 0.3671875
vt 0.71875 0.9921875
vt 0.71875 1
vt 0.6875 1
vt 0.6875 0.9921875
vt 0.28125 0.3671875
vt 0.28125 0.375
vt 0.25 0.375
vt 0.25 0.3671875
vt 0.71875 0.9296875
vt 0.71875 0.9375
vt 0.6875 0.9375
vt 0.6875 0.9296875
vt 0.09375 0.3359375
vt 0.09375 0.34375
vt 0.0625 0.34375
vt 0.0625 0.3359375
vt 0.34375 0.3671875
vt 0.34375 0.375
vt 0.3125 0.375
vt 0.3125 0.3671875
vt 0.65625 0.3671875
vt 0.65625 0.375
vt 0.625 0.375
vt 0.625 0.3671875
vt 0.375 0.75
vt 0.375 0.53125
vt 0.40625 0.53125
vt 0.40625 0.75
vt 0.3125 1
vt 0.3125 0.78125
vt 0.34375 0.78125
vt 0.34375 1
vt 0 0.84375
vt 0 0.625
vt 0.03125 0.625
vt 0.03125 0.84375
vt 0.3125 0.75
vt 0.3125 0.53125
vt 0.34375 0.53125
vt 0.34375 0.75
vt 0 0.59375
vt 0 0.375
vt 0.03125 0.375
vt 0.03125 0.59375
vt 0.125 0.75
vt 0.125 0.53125
vt 0.15625 0.53125
vt 0.15625 0.75
vt 0.375 1
vt 0.375 0.78125
vt 0.40625 0.78125
vt 0.40625 1
vt 0.25 0.75
vt 0.25 0.53125
vt 0.28125 0.53125
vt 0.28125 0.75
vt 0.25 1
vt 0.25 0.78125
vt 0.28125 0.78125
vt 0.28125 1
vt 0.1875 0.75
vt 0.1875 0.53125
vt 0.21875 0.53125
vt 0.21875 0.75
vt 0.0625 0.59375
vt 0.0625 0.375
vt 0.09375 0.375
vt 0.09375 0.59375
vt 0.0625 0.84375
vt 0.0625 0.625
vt 0.09375 0.625
vt 0.09375 0.84375
vn 0 -1 0
vn 0.5000024352623959 0 0.8660239977804737
vn 0 1 0
vn 0 -1 0
vn 0.8660239977804737 0 0.5000024352623959
vn 0 1 0
vn 0 -1 0
vn 1 0 0
vn 0 1 0
vn 0 -1 0
vn 0.8660239977804737 0 -0.5000024352623959
vn 0 1 0
vn 0 -1 0
vn 0.5000024352623959 0 -0.8660239977804737
vn 0 1 0
vn 0 -1 0
vn 0 0 -1
vn 0 1 0
vn 0 -1 0
vn -0.5000024352623959 0 -0.8660239977804737
vn 0 1 0
vn 0 -1 0
vn -0.8660239977804737 0 -0.5000024352623959
vn 0 1 0
vn 0 -1 0
vn -1 0 0
vn 0 1 0
vn 0 -1 0
vn -0.8660239977804737 0 0.5000024352623959
vn 0 1 0
vn 0 -1 0
vn -0.5000024352623959 0 0.8660239977804737
vn 0 1 0
vn 0 -1 0
vn 0 0 1
vn 0 1 0
vn 0.4258312732658786 0.5240972927330236 0.7375566110195718
vn 0.7375566110195719 0.5240972927330236 0.4258312732658787
vn 0.8516583167045441 0.5240974256643344 0
vn 0.7375566110195719 0.5240972927330237 -0.4258312732658787
vn 0.4258312732658787 0.5240972927330236 -0.7375566110195719
vn 0 0.5240974256643344 -0.8516583167045441
vn -0.4258312732658786 0.5240972927330236 -0.7375566110195718
vn -0.7375566110195719 0.5240972927330236 -0.4258312732658787
vn -0.8516583167045441 0.5240974256643344 0
vn -0.7375566110195719 0.5240972927330237 0.4258312732658787
vn -0.4258312732658787 0.5240972927330236 0.7375566110195719
vn 0 0.5240974256643344 0.8516583167045441
vn 0.48564293117863216 -0.8741572761215378 0
vn 0.42057866288786144 -0.8741581329281756 0.24281916513937843
vn 0.2428217299055785 -0.874155283162153 0.4205831052305341
vn 0 -0.8741572761215378 0.48564293117863216
vn -0.24281916513937843 -0.8741581329281756 0.42057866288786144
vn -0.4205831052305341 -0.874155283162153 0.2428217299055785
vn -0.48564293117863216 -0.8741572761215378 0
vn -0.42057866288786144 -0.8741581329281756 -0.24281916513937843
vn -0.2428217299055785 -0.874155283162153 -0.4205831052305341
vn 0 -0.8741572761215378 -0.48564293117863216
vn 0.24281916513937843 -0.8741581329281756 -0.42057866288786144
vn 0.4205831052305341 -0.874155283162153 -0.2428217299055785
vn 0 0.78086880944303 -0.6246950475544246
vn 0.3123489615803605 0.7808640815642861 -0.541007774733815
vn 0.5410006262359821 0.780870685083936 -0.3123448344199402
vn 0.6246950475544246 0.78086880944303 0
vn 0.5410077747338151 0.7808640815642863 0.3123489615803606
vn 0 0.78086880944303 0.6246950475544246
vn -0.3123489615803605 0.7808640815642861 0.541007774733815
vn 0.3123448344199402 0.780870685083936 0.5410006262359821
vn -0.5410006262359821 0.780870685083936 0.3123448344199402
vn -0.6246950475544246 0.78086880944303 0
vn -0.5410077747338151 0.7808640815642863 -0.3123489615803606
vn -0.3123448344199402 0.780870685083936 -0.5410006262359821
vn 0.4411786535141377 -0.47058810717610117 0.7641388807460769
vn 0 -0.47058823529411753 0.8823529411764707
vn -0.44117865351413765 -0.4705881071761013 0.7641388807460766
vn -0.7641388807460769 -0.47058810717610117 0.4411786535141377
vn -0.8823529411764707 -0.47058823529411753 0
vn -0.7641388807460766 -0.4705881071761013 -0.44117865351413765
vn -0.4411786535141377 -0.47058810717610117 -0.7641388807460769
vn 0 -0.47058823529411753 -0.8823529411764707
vn 0.44117865351413765 -0.4705881071761013 -0.7641388807460766
vn 0.7641388807460769 -0.47058810717610117 -0.4411786535141377
vn 0.8823529411764707 -0.47058823529411753 0
vn 0.7641388807460766 -0.4705881071761013 0.44117865351413765
vn 0.5000024352623959 0 0.8660239977804737
vn 0 0 1
vn -0.5000024352623959 0 0.8660239977804737
vn -0.8660239977804737 0 0.5000024352623959
vn -1 0 0
vn -0.8660239977804737 0 -0.5000024352623959
vn -0.5000024352623959 0 -0.8660239977804737
vn 0 0 -1
vn 0.5000024352623959 0 -0.8660239977804737
vn 0.8660239977804737 0 -0.5000024352623959
vn 1 0 0
vn 0.8660239977804737 0 0.5000024352623959
vn 0.5000024352623959 0 0.8660239977804736
vn 0.8660239977804736 0 0.5000024352623959
vn 1 0 0
vn 0.8660239977804736 0 -0.5000024352623959
vn 0.5000024352623959 0 -0.8660239977804736
vn 0 0 -1
vn -0.5000024352623959 0 -0.8660239977804736
vn -0.8660239977804736 0 -0.5000024352623959
vn -1 0 0
vn -0.8660239977804736 0 0.5000024352623959
vn -0.5000024352623959 0 0.8660239977804736
vn 0 0 1
usemtl m_a2c99bf1-5354-4c3e-7adb-07d33d0e71c7
f 35/1/1 36/2/1 28/3/1
f 2/4/2 4/5/2 3/6/2 5/7/2
f 40/8/3 51/9/3 41/10/3
f 34/11/4 35/12/4 28/13/4
f 5/14/5 3/15/5 6/16/5 7/17/5
f 51/18/6 50/19/6 41/20/6
f 33/21/7 34/22/7 28/23/7
f 7/24/8 6/25/8 8/26/8 9/27/8
f 50/28/9 49/29/9 41/30/9
f 32/31/10 33/32/10 28/33/10
f 9/34/11 8/35/11 10/36/11 11/37/11
f 49/38/12 48/39/12 41/40/12
f 31/41/13 32/42/13 28/43/13
f 11/44/14 10/45/14 12/46/14 13/47/14
f 48/48/15 46/49/15 41/50/15
f 30/51/16 31/52/16 28/53/16
f 13/54/17 12/55/17 14/56/17 15/57/17
f 46/58/18 47/59/18 41/60/18
f 29/61/19 30/62/19 28/63/19
f 15/64/20 14/65/20 16/66/20 17/67/20
f 47/68/21 45/69/21 41/70/21
f 27/71/22 29/72/22 28/73/22
f 17/74/23 16/75/23 18/76/23 19/77/23
f 45/78/24 44/79/24 41/80/24
f 26/81/25 27/82/25 28/83/25
f 19/84/26 18/85/26 20/86/26 21/87/26
f 44/88/27 43/89/27 41/90/27
f 38/91/28 26/92/28 28/93/28
f 21/94/29 20/95/29 22/96/29 23/97/29
f 43/98/30 42/99/30 41/100/30
f 37/101/31 38/102/31 28/103/31
f 23/104/32 22/105/32 24/106/32 25/107/32
f 42/108/33 39/109/33 41/110/33
f 36/111/34 37/112/34 28/113/34
f 25/114/35 24/115/35 4/116/35 2/117/35
f 39/118/36 40/119/36 41/120/36
f 3/121/37 4/122/37 64/123/37 63/124/37
f 6/125/38 3/126/38 63/127/38 74/128/38
f 8/129/39 6/130/39 74/131/39 73/132/39
f 10/133/40 8/134/40 73/135/40 72/136/40
f 12/137/41 10/138/41 72/139/41 71/140/41
f 14/141/42 12/142/42 71/143/42 70/144/42
f 16/145/43 14/146/43 70/147/43 69/148/43
f 18/149/44 16/150/44 69/151/44 68/152/44
f 20/153/45 18/154/45 68/155/45 67/156/45
f 22/157/46 20/158/46 67/159/46 66/160/46
f 24/161/47 22/162/47 66/163/47 65/164/47
f 4/165/48 24/166/48 65/167/48 64/168/48
f 27/169/49 26/170/49 60/171/49 59/172/49
f 29/173/50 27/174/50 59/175/50 58/176/50
f 30/177/51 29/178/51 58/179/51 57/180/51
f 31/181/52 30/182/52 57/183/52 56/184/52
f 32/185/53 31/186/53 56/187/53 55/188/53
f 33/189/54 32/190/54 55/191/54 54/192/54
f 34/193/55 33/194/55 54/195/55 53/196/55
f 35/197/56 34/198/56 53/199/56 1/200/56
f 36/201/57 35/202/57 1/203/57 52/204/57
f 37/205/58 36/206/58 52/207/58 62/208/58
f 38/209/59 37/210/59 62/211/59 61/212/59
f 26/213/60 38/214/60 61/215/60 60/216/60
f 40/217/61 39/218/61 25/219/61 2/220/61
f 39/221/62 42/222/62 23/223/62 25/224/62
f 42/225/63 43/226/63 21/227/63 23/228/63
f 43/229/64 44/230/64 19/231/64 21/232/64
f 44/233/65 45/234/65 17/235/65 19/236/65
f 47/237/66 46/238/66 13/239/66 15/240/66
f 46/241/67 48/242/67 11/243/67 13/244/67
f 45/245/68 47/246/68 15/247/68 17/248/68
f 48/249/69 49/250/69 9/251/69 11/252/69
f 49/253/70 50/254/70 7/255/70 9/256/70
f 50/257/71 51/258/71 5/259/71 7/260/71
f 51/261/72 40/262/72 2/263/72 5/264/72
f 75/265/73 88/266/73 87/267/73 76/268/73
f 76/269/74 87/270/74 98/271/74 77/272/74
f 77/273/75 98/274/75 97/275/75 78/276/75
f 78/277/76 97/278/76 96/279/76 79/280/76
f 79/281/77 96/282/77 95/283/77 80/284/77
f 80/285/78 95/286/78 94/287/78 81/288/78
f 81/289/79 94/290/79 93/291/79 82/292/79
f 82/293/80 93/294/80 92/295/80 83/296/80
f 83/297/81 92/298/81 91/299/81 84/300/81
f 84/301/82 91/302/82 90/303/82 85/304/82
f 85/305/83 90/306/83 89/307/83 86/308/83
f 86/309/84 89/310/84 88/311/84 75/312/84
f 1/313/85 75/314/85 76/315/85 52/316/85
f 52/317/86 76/318/86 77/319/86 62/320/86
f 62/321/87 77/322/87 78/323/87 61/324/87
f 61/325/88 78/326/88 79/327/88 60/328/88
f 60/329/89 79/330/89 80/331/89 59/332/89
f 59/333/90 80/334/90 81/335/90 58/336/90
f 58/337/91 81/338/91 82/339/91 57/340/91
f 57/341/92 82/342/92 83/343/92 56/344/92
f 56/345/93 83/346/93 84/347/93 55/348/93
f 55/349/94 84/350/94 85/351/94 54/352/94
f 54/353/95 85/354/95 86/355/95 53/356/95
f 53/357/96 86/358/96 75/359/96 1/360/96
f 64/361/97 87/362/97 88/363/97 63/364/97
f 63/365/98 88/366/98 89/367/98 74/368/98
f 74/369/99 89/370/99 90/371/99 73/372/99
f 73/373/100 90/374/100 91/375/100 72/376/100
f 72/377/101 91/378/101 92/379/101 71/380/101
f 71/381/102 92/382/102 93/383/102 70/384/102
f 70/385/103 93/386/103 94/387/103 69/388/103
f 69/389/104 94/390/104 95/391/104 68/392/104
f 68/393/105 95/394/105 96/395/105 67/396/105
f 67/397/106 96/398/106 97/399/106 66/400/106
f 66/401/107 97/402/107 98/403/107 65/404/107
f 65/405/108 98/406/108 87/407/108 64/408/108