# Blender 4.1.1
# www.blender.org
mtllib Island.mtl
o Island
v 0.000000 -3.694947 -67.526123
v 0.000000 3.694947 -64.000000
v 13.173694 -3.694947 -66.228622
v 12.485781 3.694947 -62.770256
v 25.841129 -3.694947 -62.386002
v 24.491741 3.694947 -59.128288
v 37.515503 -3.694947 -56.145920
v 35.556496 3.694947 -53.214054
v 47.748180 -3.694947 -47.748180
v 45.254833 3.694947 -45.254833
v 56.145920 -3.694947 -37.515503
v 53.214054 3.694947 -35.556496
v 62.386002 -3.694947 -25.841129
v 59.128288 3.694947 -24.491741
v 66.228622 -3.694947 -13.173694
v 62.770256 3.694947 -12.485781
v 67.526123 -3.694947 0.000000
v 64.000000 3.694947 0.000000
v 66.228622 -3.694947 13.173694
v 62.770256 3.694947 12.485781
v 62.386002 -3.694947 25.841129
v 59.128288 3.694947 24.491741
v 56.145920 -3.694947 37.515503
v 53.214054 3.694947 35.556496
v 47.748180 -3.694947 47.748180
v 45.254833 3.694947 45.254833
v 37.515503 -3.694947 56.145920
v 35.556496 3.694947 53.214054
v 25.841129 -3.694947 62.386002
v 24.491741 3.694947 59.128288
v 13.173694 -3.694947 66.228622
v 12.485781 3.694947 62.770256
v 0.000000 -3.694947 67.526123
v 0.000000 3.694947 64.000000
v -13.173694 -3.694947 66.228622
v -12.485781 3.694947 62.770256
v -25.841129 -3.694947 62.386002
v -24.491741 3.694947 59.128288
v -37.515503 -3.694947 56.145920
v -35.556496 3.694947 53.214054
v -47.748180 -3.694947 47.748180
v -45.254833 3.694947 45.254833
v -56.145920 -3.694947 37.515503
v -53.214054 3.694947 35.556496
v -62.386002 -3.694947 25.841129
v -59.128288 3.694947 24.491741
v -66.228622 -3.694947 13.173694
v -62.770256 3.694947 12.485781
v -67.526123 -3.694947 0.000000
v -64.000000 3.694947 0.000000
v -66.228622 -3.694947 -13.173694
v -62.770256 3.694947 -12.485781
v -62.386002 -3.694947 -25.841129
v -59.128288 3.694947 -24.491741
v -56.145920 -3.694947 -37.515503
v -53.214054 3.694947 -35.556496
v -47.748180 -3.694947 -47.748180
v -45.254833 3.694947 -45.254833
v -37.515503 -3.694947 -56.145920
v -35.556496 3.694947 -53.214054
v -25.841129 -3.694947 -62.386002
v -24.491741 3.694947 -59.128288
v -13.173694 -3.694947 -66.228622
v -12.485781 3.694947 -62.770256
v 0.000000 0.000000 -67.526123
v 13.173694 0.000000 -66.228622
v 25.841129 0.000000 -62.386002
v 37.515503 0.000000 -56.145920
v 47.748180 0.000000 -47.748180
v 56.145920 0.000000 -37.515503
v 62.386002 0.000000 -25.841129
v 66.228622 0.000000 -13.173694
v 67.526123 0.000000 0.000000
v 66.228622 0.000000 13.173694
v 62.386002 0.000000 25.841129
v 56.145920 0.000000 37.515503
v 47.748180 0.000000 47.748180
v 37.515503 0.000000 56.145920
v 25.841129 0.000000 62.386002
v 13.173694 0.000000 66.228622
v 0.000000 0.000000 67.526123
v -13.173694 0.000000 66.228622
v -25.841129 0.000000 62.386002
v -37.515503 0.000000 56.145920
v -47.748180 0.000000 47.748180
v -56.145920 0.000000 37.515503
v -62.386002 0.000000 25.841129
v -66.228622 0.000000 13.173694
v -67.526123 0.000000 0.000000
v -66.228622 0.000000 -13.173694
v -62.386002 0.000000 -25.841129
v -56.145920 0.000000 -37.515503
v -47.748180 0.000000 -47.748180
v -37.515503 0.000000 -56.145920
v -25.841129 0.000000 -62.386002
v -13.173694 0.000000 -66.228622
vn 0.0711 0.6886 -0.7216
vn 0.2105 0.6886 -0.6939
vn 0.3418 0.6886 -0.6395
vn 0.4600 0.6886 -0.5605
vn 0.5605 0.6886 -0.4600
vn 0.6395 0.6886 -0.3418
vn 0.6939 0.6886 -0.2105
vn 0.7216 0.6886 -0.0711
vn 0.7216 0.6886 0.0711
vn 0.6939 0.6886 0.2105
vn 0.6395 0.6886 0.3418
vn 0.5605 0.6886 0.4600
vn 0.4600 0.6886 0.5605
vn 0.3418 0.6886 0.6395
vn 0.2105 0.6886 0.6939
vn 0.0711 0.6886 0.7216
vn -0.0711 0.6886 0.7216
vn -0.2105 0.6886 0.6939
vn -0.3418 0.6886 0.6395
vn -0.4600 0.6886 0.5605
vn -0.5605 0.6886 0.4600
vn -0.6395 0.6886 0.3418
vn -0.6939 0.6886 0.2105
vn -0.7216 0.6886 0.0711
vn -0.7216 0.6886 -0.0711
vn -0.6939 0.6886 -0.2105
vn -0.6395 0.6886 -0.3418
vn -0.5605 0.6886 -0.4600
vn -0.4600 0.6886 -0.5605
vn -0.3418 0.6886 -0.6395
vn -0.0000 1.0000 -0.0000
vn -0.2105 0.6886 -0.6939
vn -0.0711 0.6886 -0.7216
vn -0.0000 -1.0000 -0.0000
vn -0.0980 -0.0000 -0.9952
vn -0.2903 -0.0000 -0.9569
vn -0.4714 -0.0000 -0.8819
vn -0.6344 -0.0000 -0.7730
vn -0.7730 -0.0000 -0.6344
vn -0.8819 -0.0000 -0.4714
vn -0.9569 -0.0000 -0.2903
vn -0.9952 -0.0000 -0.0980
vn -0.9952 -0.0000 0.0980
vn -0.9569 -0.0000 0.2903
vn -0.8819 -0.0000 0.4714
vn -0.7730 -0.0000 0.6344
vn -0.6344 -0.0000 0.7730
vn -0.4714 -0.0000 0.8819
vn -0.2903 -0.0000 0.9569
vn -0.0980 -0.0000 0.9952
vn 0.0980 -0.0000 0.9952
vn 0.2903 -0.0000 0.9569
vn 0.4714 -0.0000 0.8819
vn 0.6344 -0.0000 0.7730
vn 0.7730 -0.0000 0.6344
vn 0.8819 -0.0000 0.4714
vn 0.9569 -0.0000 0.2903
vn 0.9952 -0.0000 0.0980
vn 0.9952 -0.0000 -0.0980
vn 0.9569 -0.0000 -0.2903
vn 0.8819 -0.0000 -0.4714
vn 0.7730 -0.0000 -0.6344
vn 0.6344 -0.0000 -0.7730
vn 0.4714 -0.0000 -0.8819
vn 0.2903 -0.0000 -0.9569
vn 0.0980 -0.0000 -0.9952
vt 0.244711 0.982928
vt 0.237473 0.925025
vt 0.244711 0.925025
vt 0.237473 0.982928
vt 0.230235 0.925025
vt 0.230235 0.982928
vt 0.222997 0.925025
vt 0.222997 0.982928
vt 0.215760 0.925025
vt 0.215760 0.982928
vt 0.208522 0.925025
vt 0.201284 0.982928
vt 0.201284 0.925025
vt 0.194046 0.925025
vt 0.194046 0.982928
vt 0.186809 0.925025
vt 0.186809 0.982928
vt 0.179571 0.925025
vt 0.179571 0.982928
vt 0.172333 0.925025
vt 0.172333 0.982928
vt 0.165095 0.925025
vt 0.165095 0.982928
vt 0.157857 0.925025
vt 0.157857 0.982928
vt 0.150620 0.925025
vt 0.143382 0.982928
vt 0.143382 0.925025
vt 0.136144 0.925025
vt 0.136144 0.982928
vt 0.128906 0.925025
vt 0.128906 0.982928
vt 0.121669 0.925025
vt 0.121669 0.982928
vt 0.114431 0.925025
vt 0.114431 0.982928
vt 0.107193 0.925025
vt 0.107193 0.982928
vt 0.099955 0.925025
vt 0.099955 0.982928
vt 0.092717 0.925025
vt 0.085480 0.982928
vt 0.085480 0.925025
vt 0.078242 0.925025
vt 0.078242 0.982928
vt 0.071004 0.925025
vt 0.071004 0.982928
vt 0.063766 0.925025
vt 0.063766 0.982928
vt 0.056529 0.925025
vt 0.056529 0.982928
vt 0.049291 0.925025
vt 0.049291 0.982928
vt 0.042053 0.925025
vt 0.042053 0.982928
vt 0.034815 0.925025
vt 0.027577 0.982928
vt 0.027577 0.925025
vt 0.314256 0.051083
vt 0.961682 0.319255
vt 0.693510 0.966682
vt 0.020340 0.925025
vt 0.020340 0.982928
vt 0.013102 0.925025
vt 0.084372 0.034000
vt 0.019009 0.077674
vt 0.062683 0.143036
vt 0.013102 0.867123
vt 0.020340 0.867123
vt 0.027577 0.867123
vt 0.034815 0.867123
vt 0.042053 0.867123
vt 0.049291 0.867123
vt 0.056529 0.867123
vt 0.063766 0.867123
vt 0.071004 0.867123
vt 0.078242 0.867123
vt 0.085480 0.867123
vt 0.092717 0.867123
vt 0.099955 0.867123
vt 0.107193 0.867123
vt 0.114431 0.867123
vt 0.121669 0.867123
vt 0.128906 0.867123
vt 0.136144 0.867123
vt 0.143382 0.867123
vt 0.150620 0.867123
vt 0.157857 0.867123
vt 0.165095 0.867123
vt 0.172333 0.867123
vt 0.179571 0.867123
vt 0.186809 0.867123
vt 0.194046 0.867123
vt 0.201284 0.867123
vt 0.208522 0.867123
vt 0.215760 0.867123
vt 0.222997 0.867123
vt 0.230235 0.867123
vt 0.237473 0.867123
vt 0.244711 0.867123
vt 0.208522 0.982928
vt 0.150620 0.982928
vt 0.092717 0.982928
vt 0.034815 0.982928
vt 0.600554 0.994880
vt 0.503883 1.004401
vt 0.407212 0.994880
vt 0.314256 0.966682
vt 0.228587 0.920892
vt 0.153498 0.859267
vt 0.091874 0.784178
vt 0.046083 0.698509
vt 0.017885 0.605554
vt 0.008364 0.508882
vt 0.017885 0.412211
vt 0.046083 0.319255
vt 0.091874 0.233587
vt 0.153498 0.158498
vt 0.228587 0.096873
vt 0.407212 0.022885
vt 0.693510 0.051083
vt 0.503883 0.013363
vt 0.600554 0.022885
vt 0.779178 0.096873
vt 0.854268 0.158498
vt 0.915892 0.233587
vt 0.989880 0.412211
vt 0.961682 0.698509
vt 0.999402 0.508882
vt 0.989880 0.605554
vt 0.915892 0.784178
vt 0.854268 0.859267
vt 0.779178 0.920892
vt 0.013102 0.982928
vt 0.073527 0.144104
vt 0.084372 0.143036
vt 0.094799 0.139873
vt 0.104409 0.134736
vt 0.112833 0.127823
vt 0.119745 0.119400
vt 0.124882 0.109790
vt 0.128045 0.099362
vt 0.129113 0.088518
vt 0.128045 0.077674
vt 0.124882 0.067246
vt 0.119745 0.057636
vt 0.112833 0.049213
vt 0.104409 0.042300
vt 0.094799 0.037163
vt 0.073527 0.032932
vt 0.062683 0.034000
vt 0.052255 0.037163
vt 0.042645 0.042300
vt 0.034222 0.049213
vt 0.027309 0.057636
vt 0.022172 0.067246
vt 0.017941 0.088518
vt 0.019009 0.099362
vt 0.022172 0.109790
vt 0.027309 0.119400
vt 0.034222 0.127823
vt 0.042645 0.134736
vt 0.052255 0.139873
s 0
usemtl マテリアル
f 2/1/1 66/2/1 65/3/1
f 4/4/2 67/5/2 66/2/2
f 6/6/3 68/7/3 67/5/3
f 8/8/4 69/9/4 68/7/4
f 10/10/5 70/11/5 69/9/5
f 70/11/6 14/12/6 71/13/6
f 14/12/7 72/14/7 71/13/7
f 16/15/8 73/16/8 72/14/8
f 18/17/9 74/18/9 73/16/9
f 20/19/10 75/20/10 74/18/10
f 22/21/11 76/22/11 75/20/11
f 24/23/12 77/24/12 76/22/12
f 26/25/13 78/26/13 77/24/13
f 78/26/14 30/27/14 79/28/14
f 30/27/15 80/29/15 79/28/15
f 32/30/16 81/31/16 80/29/16
f 34/32/17 82/33/17 81/31/17
f 36/34/18 83/35/18 82/33/18
f 38/36/19 84/37/19 83/35/19
f 40/38/20 85/39/20 84/37/20
f 42/40/21 86/41/21 85/39/21
f 86/41/22 46/42/22 87/43/22
f 46/42/23 88/44/23 87/43/23
f 48/45/24 89/46/24 88/44/24
f 50/47/25 90/48/25 89/46/25
f 52/49/26 91/50/26 90/48/26
f 54/51/27 92/52/27 91/50/27
f 56/53/28 93/54/28 92/52/28
f 58/55/29 94/56/29 93/54/29
f 94/56/30 62/57/30 95/58/30
f 38/59/31 22/60/31 6/61/31
f 62/57/32 96/62/32 95/58/32
f 64/63/33 65/64/33 96/62/33
f 31/65/34 47/66/34 63/67/34
f 96/62/35 1/68/35 63/69/35
f 95/58/36 63/69/36 61/70/36
f 94/56/37 61/70/37 59/71/37
f 93/54/38 59/71/38 57/72/38
f 92/52/39 57/72/39 55/73/39
f 91/50/40 55/73/40 53/74/40
f 90/48/41 53/74/41 51/75/41
f 89/46/42 51/75/42 49/76/42
f 88/44/43 49/76/43 47/77/43
f 87/43/44 47/77/44 45/78/44
f 86/41/45 45/78/45 43/79/45
f 85/39/46 43/79/46 41/80/46
f 84/37/47 41/80/47 39/81/47
f 83/35/48 39/81/48 37/82/48
f 82/33/49 37/82/49 35/83/49
f 81/31/50 35/83/50 33/84/50
f 80/29/51 33/84/51 31/85/51
f 79/28/52 31/85/52 29/86/52
f 78/26/53 29/86/53 27/87/53
f 77/24/54 27/87/54 25/88/54
f 76/22/55 25/88/55 23/89/55
f 75/20/56 23/89/56 21/90/56
f 74/18/57 21/90/57 19/91/57
f 73/16/58 19/91/58 17/92/58
f 72/14/59 17/92/59 15/93/59
f 71/13/60 15/93/60 13/94/60
f 70/11/61 13/94/61 11/95/61
f 69/9/62 11/95/62 9/96/62
f 68/7/63 9/96/63 7/97/63
f 67/5/64 7/97/64 5/98/64
f 66/2/65 5/98/65 3/99/65
f 65/3/66 3/99/66 1/100/66
f 2/1/1 4/4/1 66/2/1
f 4/4/2 6/6/2 67/5/2
f 6/6/3 8/8/3 68/7/3
f 8/8/4 10/10/4 69/9/4
f 10/10/5 12/101/5 70/11/5
f 70/11/6 12/101/6 14/12/6
f 14/12/7 16/15/7 72/14/7
f 16/15/8 18/17/8 73/16/8
f 18/17/9 20/19/9 74/18/9
f 20/19/10 22/21/10 75/20/10
f 22/21/11 24/23/11 76/22/11
f 24/23/12 26/25/12 77/24/12
f 26/25/13 28/102/13 78/26/13
f 78/26/14 28/102/14 30/27/14
f 30/27/15 32/30/15 80/29/15
f 32/30/16 34/32/16 81/31/16
f 34/32/17 36/34/17 82/33/17
f 36/34/18 38/36/18 83/35/18
f 38/36/19 40/38/19 84/37/19
f 40/38/20 42/40/20 85/39/20
f 42/40/21 44/103/21 86/41/21
f 86/41/22 44/103/22 46/42/22
f 46/42/23 48/45/23 88/44/23
f 48/45/24 50/47/24 89/46/24
f 50/47/25 52/49/25 90/48/25
f 52/49/26 54/51/26 91/50/26
f 54/51/27 56/53/27 92/52/27
f 56/53/28 58/55/28 93/54/28
f 58/55/29 60/104/29 94/56/29
f 94/56/30 60/104/30 62/57/30
f 6/61/31 4/105/31 2/106/31
f 2/106/31 64/107/31 6/61/31
f 64/107/31 62/108/31 6/61/31
f 62/108/31 60/109/31 58/110/31
f 58/110/31 56/111/31 54/112/31
f 54/112/31 52/113/31 50/114/31
f 50/114/31 48/115/31 54/112/31
f 48/115/31 46/116/31 54/112/31
f 46/116/31 44/117/31 42/118/31
f 42/118/31 40/119/31 38/59/31
f 38/59/31 36/120/31 30/121/31
f 36/120/31 34/122/31 30/121/31
f 34/122/31 32/123/31 30/121/31
f 30/121/31 28/124/31 26/125/31
f 26/125/31 24/126/31 22/60/31
f 22/60/31 20/127/31 14/128/31
f 20/127/31 18/129/31 14/128/31
f 18/129/31 16/130/31 14/128/31
f 14/128/31 12/131/31 10/132/31
f 10/132/31 8/133/31 6/61/31
f 62/108/31 58/110/31 6/61/31
f 58/110/31 54/112/31 6/61/31
f 46/116/31 42/118/31 54/112/31
f 42/118/31 38/59/31 54/112/31
f 30/121/31 26/125/31 38/59/31
f 26/125/31 22/60/31 38/59/31
f 14/128/31 10/132/31 22/60/31
f 10/132/31 6/61/31 22/60/31
f 6/61/31 54/112/31 38/59/31
f 62/57/32 64/63/32 96/62/32
f 64/63/33 2/134/33 65/64/33
f 63/67/34 1/135/34 3/136/34
f 3/136/34 5/137/34 7/138/34
f 7/138/34 9/139/34 11/140/34
f 11/140/34 13/141/34 15/142/34
f 15/142/34 17/143/34 19/144/34
f 19/144/34 21/145/34 23/146/34
f 23/146/34 25/147/34 27/148/34
f 27/148/34 29/149/34 31/65/34
f 31/65/34 33/150/34 35/151/34
f 35/151/34 37/152/34 39/153/34
f 39/153/34 41/154/34 43/155/34
f 43/155/34 45/156/34 47/66/34
f 47/66/34 49/157/34 51/158/34
f 51/158/34 53/159/34 55/160/34
f 55/160/34 57/161/34 59/162/34
f 59/162/34 61/163/34 63/67/34
f 63/67/34 3/136/34 15/142/34
f 3/136/34 7/138/34 15/142/34
f 7/138/34 11/140/34 15/142/34
f 15/142/34 19/144/34 31/65/34
f 19/144/34 23/146/34 31/65/34
f 23/146/34 27/148/34 31/65/34
f 31/65/34 35/151/34 47/66/34
f 35/151/34 39/153/34 47/66/34
f 39/153/34 43/155/34 47/66/34
f 47/66/34 51/158/34 63/67/34
f 51/158/34 55/160/34 63/67/34
f 55/160/34 59/162/34 63/67/34
f 63/67/34 15/142/34 31/65/34
f 96/62/35 65/64/35 1/68/35
f 95/58/36 96/62/36 63/69/36
f 94/56/37 95/58/37 61/70/37
f 93/54/38 94/56/38 59/71/38
f 92/52/39 93/54/39 57/72/39
f 91/50/40 92/52/40 55/73/40
f 90/48/41 91/50/41 53/74/41
f 89/46/42 90/48/42 51/75/42
f 88/44/43 89/46/43 49/76/43
f 87/43/44 88/44/44 47/77/44
f 86/41/45 87/43/45 45/78/45
f 85/39/46 86/41/46 43/79/46
f 84/37/47 85/39/47 41/80/47
f 83/35/48 84/37/48 39/81/48
f 82/33/49 83/35/49 37/82/49
f 81/31/50 82/33/50 35/83/50
f 80/29/51 81/31/51 33/84/51
f 79/28/52 80/29/52 31/85/52
f 78/26/53 79/28/53 29/86/53
f 77/24/54 78/26/54 27/87/54
f 76/22/55 77/24/55 25/88/55
f 75/20/56 76/22/56 23/89/56
f 74/18/57 75/20/57 21/90/57
f 73/16/58 74/18/58 19/91/58
f 72/14/59 73/16/59 17/92/59
f 71/13/60 72/14/60 15/93/60
f 70/11/61 71/13/61 13/94/61
f 69/9/62 70/11/62 11/95/62
f 68/7/63 69/9/63 9/96/63
f 67/5/64 68/7/64 7/97/64
f 66/2/65 67/5/65 5/98/65
f 65/3/66 66/2/66 3/99/66
