# Made in Blockbench 5.1.4
mtllib Island_01.mtl

o beveled_cuboid
v 1.03125 0.375 1.03125
v 1.03125 0.375 -1.03125
v -1.03125 0.375 1.03125
v -1.03125 0.375 -1.03125
v 1.03125 -0.25 1.03125
v 1.03125 -0.0625 -1.03125
v -1.03125 -0.25 1.03125
v -1.03125 -0.25 -1.03125
v -1.15625 -0.125 1.03125
v -1.15625 0.25 1.03125
v -1.15625 -0.125 -1.03125
v -1.15625 0.25 -1.03125
v 1.15625 -0.125 1.03125
v 1.15625 0.25 1.03125
v 1.15625 -0.125 -1.03125
v 1.15625 0.25 -1.03125
v 1.03125 -0.125 -1.15625
v 1.03125 0.25 -1.15625
v -1.03125 -0.125 -1.15625
v -1.03125 0.25 -1.15625
v 1.03125 -0.125 1.15625
v 1.03125 0.25 1.15625
v -1.03125 -0.125 1.15625
v -1.03125 0.25 1.15625
v 0.8020833333333333 0.375 -1.03125
v 0.8020833333333333 0.375 1.03125
v 0.5729166666666665 0.375 -1.03125
v 0.5729166666666665 0.3125 1.03125
v 0.34375 0.375 -1.03125
v 0.34375 0.3125 1.03125
v 0.11458333333333348 0.375 -1.03125
v 0.11458333333333348 0.375 1.03125
v -0.11458333333333315 0.375 -1.03125
v -0.11458333333333315 0.375 1.03125
v -0.3437499999999999 0.375 -1.03125
v -0.3437499999999999 0.375 1.03125
v -0.5729166666666665 0.375 -1.03125
v -0.5729166666666665 0.375 1.03125
v -0.8020833333333333 0.375 -1.03125
v -0.8020833333333333 0.375 1.03125
v 0.8020833333333333 0.25 1.15625
v 0.5729166666666665 0.25 1.15625
v 0.34375 0.25 1.15625
v 0.11458333333333348 0.25 1.15625
v -0.11458333333333315 0.25 1.15625
v -0.3437499999999999 0.25 1.15625
v -0.5729166666666665 0.25 1.15625
v -0.8020833333333333 0.25 1.15625
v 0.8020833333333333 -0.125 1.15625
v 0.5729166666666665 -0.125 1.15625
v 0.34375 -0.125 1.15625
v 0.11458333333333348 -0.125 1.15625
v -0.11458333333333315 -0.125 1.15625
v -0.3437499999999999 -0.125 1.15625
v -0.5729166666666665 -0.125 1.15625
v -0.8020833333333333 -0.125 1.15625
v 0.8020833333333333 -0.25 1.03125
v 0.5729166666666665 -0.25 1.03125
v 0.34375 -0.25 1.03125
v 0.11458333333333348 -0.25 1.03125
v -0.11458333333333315 -0.25 1.03125
v -0.3437499999999999 -0.25 1.03125
v -0.5729166666666665 -0.25 1.03125
v -0.8020833333333333 -0.25 1.03125
v 0.8020833333333333 -0.0625 -1.03125
v 0.5729166666666665 -0.0625 -1.03125
v 0.34375 -0.0625 -1.03125
v 0.11458333333333348 -0.0625 -1.03125
v -0.11458333333333315 -0.0625 -1.03125
v -0.3437499999999999 -0.25 -1.03125
v -0.5729166666666665 -0.25 -1.03125
v -0.8020833333333333 -0.25 -1.03125
v 0.8020833333333333 -0.125 -1.15625
v 0.5729166666666665 -0.125 -1.15625
v 0.34375 -0.125 -1.15625
v 0.11458333333333348 -0.125 -1.15625
v -0.11458333333333315 -0.125 -1.15625
v -0.3437499999999999 -0.125 -1.15625
v -0.5729166666666665 -0.125 -1.15625
v -0.8020833333333333 -0.125 -1.15625
v 0.8020833333333333 0.25 -1.15625
v 0.5729166666666665 0.25 -1.15625
v 0.34375 0.25 -1.15625
v 0.11458333333333348 0.25 -1.15625
v -0.11458333333333315 0.25 -1.15625
v -0.3437499999999999 0.25 -1.15625
v -0.5729166666666665 0.25 -1.15625
v -0.8020833333333333 0.25 -1.15625
v -0.8020833333333333 0.3125 0.8020875000000003
v -1.03125 0.3125 0.8020875000000003
v -0.8020833333333333 0.3125 0.5729244791761368
v -1.03125 0.3125 0.5729244791761368
v -0.8020833333333333 0.375 0.34376086312364773
v -1.03125 0.375 0.34376086312364773
v -0.8020833333333333 0.375 0.11459655263595847
v -1.03125 0.375 0.11459655263595847
v -0.8020833333333333 0.375 -0.1145685911764962
v -1.03125 0.375 -0.1145685911764962
v -0.8020833333333333 0.375 -0.34373477664869556
v -1.03125 0.375 -0.34373477664869556
v -0.8020833333333333 0.3125 -0.5729023510068676
v -1.03125 0.3125 -0.5729023510068676
v -0.8020833333333333 0.3125 -0.8020720087066247
v -1.03125 0.3125 -0.8020720087066247
v -1.15625 0.25 0.8020875000000003
v -1.15625 0.25 0.5729244791761368
v -1.15625 0.25 0.34376086312364773
v -1.15625 0.25 0.11459655263595847
v -1.15625 0.25 -0.1145685911764962
v -1.15625 0.25 -0.34373477664869556
v -1.15625 0.25 -0.5729023510068676
v -1.15625 0.25 -0.8020720087066247
v -1.15625 -0.125 0.8020875000000003
v -1.15625 -0.125 0.5729244791761368
v -1.15625 -0.125 0.34376086312364773
v -1.15625 -0.125 0.11459655263595847
v -1.15625 -0.125 -0.1145685911764962
v -1.15625 -0.125 -0.34373477664869556
v -1.15625 -0.125 -0.5729023510068676
v -1.15625 -0.125 -0.8020720087066247
v -1.03125 -0.25 0.8020875000000003
v -1.03125 -0.25 0.5729244791761368
v -1.03125 -0.25 0.34376086312364773
v -1.03125 -0.25 0.11459655263595847
v -1.03125 -0.25 -0.1145685911764962
v -1.03125 -0.25 -0.34373477664869556
v -1.03125 -0.25 -0.5729023510068676
v -1.03125 -0.25 -0.8020720087066247
v -0.8020833333333333 -0.25 0.8020875000000003
v -0.8020833333333333 -0.25 0.5729244791761368
v -0.8020833333333333 -0.25 0.34376086312364773
v -0.8020833333333333 -0.25 0.11459655263595847
v -0.8020833333333333 -0.25 -0.1145685911764962
v -0.8020833333333333 -0.25 -0.34373477664869556
v -0.8020833333333333 -0.25 -0.5729023510068676
v -0.8020833333333333 -0.25 -0.8020720087066247
v -0.5729166666666665 -0.25 0.8020875000000003
v -0.5729166666666665 -0.25 0.5729244791761368
v -0.5729166666666665 -0.25 0.34376086312364773
v -0.5729166666666665 -0.25 0.11459655263595847
v -0.5729166666666665 -0.25 -0.1145685911764962
v -0.5729166666666665 -0.25 -0.34373477664869556
v -0.5729166666666665 -0.25 -0.5729023510068676
v -0.5729166666666665 -0.25 -0.8020720087066247
v -0.3437499999999999 -0.25 0.8020875000000003
v -0.3437499999999999 -0.25 0.5729244791761368
v -0.3437499999999999 -0.25 0.34376086312364773
v -0.3437499999999999 -0.25 0.11459655263595847
v -0.3437499999999999 -0.25 -0.1145685911764962
v -0.3437499999999999 -0.25 -0.34373477664869556
v -0.3437499999999999 -0.25 -0.5729023510068676
v -0.3437499999999999 -0.25 -0.8020720087066247
v -0.11458333333333315 -0.25 0.8020875000000003
v -0.11458333333333315 -0.25 0.5729244791761368
v -0.11458333333333315 -0.0625 0.34376086312364773
v -0.11458333333333315 -0.0625 0.11459655263595847
v -0.11458333333333315 -0.0625 -0.1145685911764962
v -0.11458333333333315 -0.0625 -0.34373477664869556
v -0.11458333333333315 -0.0625 -0.5729023510068676
v -0.11458333333333315 -0.0625 -0.8020720087066247
v 0.11458333333333348 -0.25 0.8020875000000003
v 0.11458333333333348 -0.25 0.5729244791761368
v 0.11458333333333348 -0.0625 0.34376086312364773
v 0.11458333333333348 -0.0625 0.11459655263595847
v 0.11458333333333348 -0.0625 -0.1145685911764962
v 0.11458333333333348 -0.0625 -0.34373477664869556
v 0.11458333333333348 -0.0625 -0.5729023510068676
v 0.11458333333333348 -0.0625 -0.8020720087066247
v 0.34375 -0.25 0.8020875000000003
v 0.34375 -0.25 0.5729244791761368
v 0.34375 -0.0625 0.34376086312364773
v 0.34375 -0.0625 0.11459655263595847
v 0.34375 -0.0625 -0.1145685911764962
v 0.34375 -0.0625 -0.34373477664869556
v 0.34375 -0.0625 -0.5729023510068676
v 0.34375 -0.0625 -0.8020720087066247
v 0.5729166666666665 -0.25 0.8020875000000003
v 0.5729166666666665 -0.25 0.5729244791761368
v 0.5729166666666665 -0.0625 0.34376086312364773
v 0.5729166666666665 -0.0625 0.11459655263595847
v 0.5729166666666665 -0.0625 -0.1145685911764962
v 0.5729166666666665 -0.0625 -0.34373477664869556
v 0.5729166666666665 -0.0625 -0.5729023510068676
v 0.5729166666666665 -0.0625 -0.8020720087066247
v 0.8020833333333333 -0.25 0.8020875000000003
v 0.8020833333333333 -0.25 0.5729244791761368
v 0.8020833333333333 -0.0625 0.34376086312364773
v 0.8020833333333333 -0.0625 0.11459655263595847
v 0.8020833333333333 -0.0625 -0.1145685911764962
v 0.8020833333333333 -0.0625 -0.34373477664869556
v 0.8020833333333333 -0.0625 -0.5729023510068676
v 0.8020833333333333 -0.0625 -0.8020720087066247
v 1.03125 -0.25 0.8020875000000003
v 1.03125 -0.25 0.5729244791761368
v 1.03125 -0.0625 0.34376086312364773
v 1.03125 -0.0625 0.11459655263595847
v 1.03125 -0.0625 -0.1145685911764962
v 1.03125 -0.0625 -0.34373477664869556
v 1.03125 -0.0625 -0.5729023510068676
v 1.03125 -0.0625 -0.8020720087066247
v 1.15625 -0.125 0.8020875000000003
v 1.15625 -0.125 0.5729244791761368
v 1.15625 -0.125 0.34376086312364773
v 1.15625 -0.125 0.11459655263595847
v 1.15625 -0.125 -0.1145685911764962
v 1.15625 -0.125 -0.34373477664869556
v 1.15625 -0.125 -0.5729023510068676
v 1.15625 -0.125 -0.8020720087066247
v 1.15625 0.25 0.8020875000000003
v 1.15625 0.25 0.5729244791761368
v 1.15625 0.25 0.34376086312364773
v 1.15625 0.25 0.11459655263595847
v 1.15625 0.25 -0.1145685911764962
v 1.15625 0.25 -0.34373477664869556
v 1.15625 0.25 -0.5729023510068676
v 1.15625 0.25 -0.8020720087066247
v 1.03125 0.375 0.8020875000000003
v 1.03125 0.375 0.5729244791761368
v 1.03125 0.375 0.34376086312364773
v 1.03125 0.375 0.11459655263595847
v 1.03125 0.375 -0.1145685911764962
v 1.03125 0.375 -0.34373477664869556
v 1.03125 0.375 -0.5729023510068676
v 1.03125 0.375 -0.8020720087066247
v 0.8020833333333333 0.375 0.8020875000000003
v 0.8020833333333333 0.375 0.5729244791761368
v 0.8020833333333333 0.5625 0.34376086312364773
v 0.8020833333333333 0.5625 0.11459655263595847
v 0.8020833333333333 0.5625 -0.1145685911764962
v 0.8020833333333333 0.5625 -0.34373477664869556
v 0.8020833333333333 0.5625 -0.5729023510068676
v 0.8020833333333333 0.5625 -0.8020720087066247
v 0.5729166666666665 0.3125 0.8020875000000003
v 0.5729166666666665 0.375 0.5729244791761368
v 0.5729166666666665 0.5625 0.34376086312364773
v 0.5729166666666665 0.5625 0.11459655263595847
v 0.5729166666666665 0.5625 -0.1145685911764962
v 0.5729166666666665 0.625 -0.34373477664869556
v 0.5729166666666665 0.625 -0.5729023510068676
v 0.5729166666666665 0.5625 -0.8020720087066247
v 0.34375 0.3125 0.8020875000000003
v 0.34375 0.375 0.5729244791761368
v 0.34375 0.5625 0.34376086312364773
v 0.34375 0.5625 0.11459655263595847
v 0.34375 0.625 -0.1145685911764962
v 0.34375 0.6875 -0.34373477664869556
v 0.34375 0.625 -0.5729023510068676
v 0.34375 0.5625 -0.8020720087066247
v 0.11458333333333348 0.375 0.8020875000000003
v 0.11458333333333348 0.375 0.5729244791761368
v 0.11458333333333348 0.5625 0.34376086312364773
v 0.11458333333333348 0.5625 0.11459655263595847
v 0.11458333333333348 0.625 -0.1145685911764962
v 0.11458333333333348 0.625 -0.34373477664869556
v 0.11458333333333348 0.5625 -0.5729023510068676
v 0.11458333333333348 0.5625 -0.8020720087066247
v -0.11458333333333315 0.375 0.8020875000000003
v -0.11458333333333315 0.375 0.5729244791761368
v -0.11458333333333315 0.5625 0.34376086312364773
v -0.11458333333333315 0.5625 0.11459655263595847
v -0.11458333333333315 0.5625 -0.1145685911764962
v -0.11458333333333315 0.5625 -0.34373477664869556
v -0.11458333333333315 0.5625 -0.5729023510068676
v -0.11458333333333315 0.5625 -0.8020720087066247
v -0.3437499999999999 0.375 0.8020875000000003
v -0.3437499999999999 0.375 0.5729244791761368
v -0.3437499999999999 0.375 0.34376086312364773
v -0.3437499999999999 0.375 0.11459655263595847
v -0.3437499999999999 0.375 -0.1145685911764962
v -0.3437499999999999 0.375 -0.34373477664869556
v -0.3437499999999999 0.375 -0.5729023510068676
v -0.3437499999999999 0.375 -0.8020720087066247
v -0.5729166666666665 0.375 0.8020875000000003
v -0.5729166666666665 0.375 0.5729244791761368
v -0.5729166666666665 0.375 0.34376086312364773
v -0.5729166666666665 0.375 0.11459655263595847
v -0.5729166666666665 0.375 -0.1145685911764962
v -0.5729166666666665 0.375 -0.34373477664869556
v -0.5729166666666665 0.375 -0.5729023510068676
v -0.5729166666666665 0.375 -0.8020720087066247
vt 2.0625 1
vt 1.8333220087066247 1
vt 1.8333220087066247 0.625
vt 2.0625 0.625
vt 0 0.625
vt 0.22917799129337532 0.625
vt 0.22917799129337532 1
vt 0 1
vt 0 1
vt 0 0.7708220087066247
vt 0.22916666666666674 0.7708220087066247
vt 0.22916666666666674 1
vt 0.22916666666666674 -1.0625
vt 0.22916666666666674 -0.8333220087066247
vt 0 -0.8333220087066247
vt 0 -1.0625
vt 0 0.625
vt 0.22916666666666674 0.625
vt 0.22916666666666674 1
vt 0 1
vt 2.0625 1
vt 1.8333333333333333 1
vt 1.8333333333333333 0.625
vt 2.0625 0.625
vt 2.0625 1
vt 1.8333220087066247 1
vt 1.8333220087066247 0.823225
vt 2.0625 0.823225
vt 0 0.823225
vt 0.22917799129337532 0.823225
vt 0.22917799129337532 1
vt 0 1
vt 0 0.823225
vt 0.22916666666666674 0.823225
vt 0.22916666666666674 1
vt 0 1
vt 2.0625 1
vt 1.8333333333333333 1
vt 1.8333333333333333 0.823225
vt 2.0625 0.823225
vt 2.0625 1
vt 1.8333220087066247 1
vt 1.8333220087066247 0.823225
vt 2.0625 0.823225
vt 0 0.823225
vt 0.22917799129337532 0.823225
vt 0.22917799129337532 1
vt 0 1
vt 0 0.823225
vt 0.22916666666666674 0.823225
vt 0.22916666666666674 1
vt 0 1
vt 2.0625 1
vt 1.8333333333333333 1
vt 1.8333333333333333 0.823225
vt 2.0625 0.823225
vt 0 0.625
vt 0.176775 0.625
vt 0.176775 1
vt 0 1
vt 0 1
vt 0 0.625
vt 0.176775 0.625
vt 0.176775 1
vt 0 1
vt 0 0.625
vt 0.176775 0.625
vt 0.176775 1
vt 0 0.625
vt 0.176775 0.625
vt 0.176775 1
vt 0 1
vt 0.0883875 0.84690625
vt 0.176775 1
vt 0 1
vt 0.0883875 0.84690625
vt 0.176775 1
vt 0 1
vt 0.0883875 0.84690625
vt 0.176775 1
vt 0 1
vt 0.0883875 0.84690625
vt 0.176775 1
vt 0 1
vt 0.0883875 1
vt 0 0.84690625
vt 0.176775 0.84690625
vt 0.0883875 1
vt 0 0.84690625
vt 0.176775 0.84690625
vt 0.0883875 1
vt 0 0.84690625
vt 0.176775 0.84690625
vt 0.0883875 1
vt 0 0.84690625
vt 0.176775 0.84690625
vt 1.8333333333333333 1
vt 1.8333333333333333 0.7708220087066247
vt 2.0625 0.7708220087066247
vt 2.0625 1
vt 1.6041666666666665 1
vt 1.6041666666666665 0.7708220087066247
vt 1.8333333333333333 0.7708220087066247
vt 1.8333333333333333 1
vt 1.375 1
vt 1.375 0.7708220087066247
vt 1.6041666666666665 0.7708220087066247
vt 1.6041666666666665 1
vt 1.1458333333333335 1
vt 1.1458333333333335 0.7708220087066247
vt 1.375 0.7708220087066247
vt 1.375 1
vt 0.9166666666666669 1
vt 0.9166666666666669 0.7708220087066247
vt 1.1458333333333335 0.7708220087066247
vt 1.1458333333333335 1
vt 0.6875000000000001 1
vt 0.6875000000000001 0.7708220087066247
vt 0.9166666666666669 0.7708220087066247
vt 0.9166666666666669 1
vt 0.4583333333333335 1
vt 0.4583333333333335 0.7708220087066247
vt 0.6875000000000001 0.7708220087066247
vt 0.6875000000000001 1
vt 0.22916666666666674 1
vt 0.22916666666666674 0.7708220087066247
vt 0.4583333333333335 0.7708220087066247
vt 0.4583333333333335 1
vt 2.0625 1
vt 1.8333333333333333 1
vt 1.8333333333333333 0.823225
vt 2.0625 0.823225
vt 1.8333333333333333 1
vt 1.6041666666666665 1
vt 1.6041666666666665 0.823225
vt 1.8333333333333333 0.823225
vt 1.6041666666666665 1
vt 1.375 1
vt 1.375 0.823225
vt 1.6041666666666665 0.823225
vt 1.375 1
vt 1.1458333333333335 1
vt 1.1458333333333335 0.823225
vt 1.375 0.823225
vt 1.1458333333333335 1
vt 0.9166666666666669 1
vt 0.9166666666666669 0.823225
vt 1.1458333333333335 0.823225
vt 0.9166666666666669 1
vt 0.6875000000000001 1
vt 0.6875000000000001 0.823225
vt 0.9166666666666669 0.823225
vt 0.6875000000000001 1
vt 0.4583333333333335 1
vt 0.4583333333333335 0.823225
vt 0.6875000000000001 0.823225
vt 0.4583333333333335 1
vt 0.22916666666666674 1
vt 0.22916666666666674 0.823225
vt 0.4583333333333335 0.823225
vt 2.0625 1
vt 1.8333333333333333 1
vt 1.8333333333333333 0.625
vt 2.0625 0.625
vt 1.8333333333333333 1
vt 1.6041666666666665 1
vt 1.6041666666666665 0.625
vt 1.8333333333333333 0.625
vt 1.6041666666666665 1
vt 1.375 1
vt 1.375 0.625
vt 1.6041666666666665 0.625
vt 1.375 1
vt 1.1458333333333335 1
vt 1.1458333333333335 0.625
vt 1.375 0.625
vt 1.1458333333333335 1
vt 0.9166666666666669 1
vt 0.9166666666666669 0.625
vt 1.1458333333333335 0.625
vt 0.9166666666666669 1
vt 0.6875000000000001 1
vt 0.6875000000000001 0.625
vt 0.9166666666666669 0.625
vt 0.6875000000000001 1
vt 0.4583333333333335 1
vt 0.4583333333333335 0.625
vt 0.6875000000000001 0.625
vt 0.4583333333333335 1
vt 0.22916666666666674 1
vt 0.22916666666666674 0.625
vt 0.4583333333333335 0.625
vt 2.0625 1
vt 1.8333333333333333 1
vt 1.8333333333333333 0.823225
vt 2.0625 0.823225
vt 1.8333333333333333 1
vt 1.6041666666666665 1
vt 1.6041666666666665 0.823225
vt 1.8333333333333333 0.823225
vt 1.6041666666666665 1
vt 1.375 1
vt 1.375 0.823225
vt 1.6041666666666665 0.823225
vt 1.375 1
vt 1.1458333333333335 1
vt 1.1458333333333335 0.823225
vt 1.375 0.823225
vt 1.1458333333333335 1
vt 0.9166666666666669 1
vt 0.9166666666666669 0.823225
vt 1.1458333333333335 0.823225
vt 0.9166666666666669 1
vt 0.6875000000000001 1
vt 0.6875000000000001 0.823225
vt 0.9166666666666669 0.823225
vt 0.6875000000000001 1
vt 0.4583333333333335 1
vt 0.4583333333333335 0.823225
vt 0.6875000000000001 0.823225
vt 0.4583333333333335 1
vt 0.22916666666666674 1
vt 0.22916666666666674 0.823225
vt 0.4583333333333335 0.823225
vt 2.0625 -1.0625
vt 2.0625 -0.8333220087066247
vt 1.8333333333333333 -0.8333220087066247
vt 1.8333333333333333 -1.0625
vt 1.8333333333333333 -1.0625
vt 1.8333333333333333 -0.8333220087066247
vt 1.6041666666666665 -0.8333220087066247
vt 1.6041666666666665 -1.0625
vt 1.6041666666666665 -1.0625
vt 1.6041666666666665 -0.8333220087066247
vt 1.375 -0.8333220087066247
vt 1.375 -1.0625
vt 1.375 -1.0625
vt 1.375 -0.8333220087066247
vt 1.1458333333333335 -0.8333220087066247
vt 1.1458333333333335 -1.0625
vt 1.1458333333333335 -1.0625
vt 1.1458333333333335 -0.8333220087066247
vt 0.9166666666666669 -0.8333220087066247
vt 0.9166666666666669 -1.0625
vt 0.9166666666666669 -1.0625
vt 0.9166666666666669 -0.8333220087066247
vt 0.6875000000000001 -0.8333220087066247
vt 0.6875000000000001 -1.0625
vt 0.6875000000000001 -1.0625
vt 0.6875000000000001 -0.8333220087066247
vt 0.4583333333333335 -0.8333220087066247
vt 0.4583333333333335 -1.0625
vt 0.4583333333333335 -1.0625
vt 0.4583333333333335 -0.8333220087066247
vt 0.22916666666666674 -0.8333220087066247
vt 0.22916666666666674 -1.0625
vt 0 0.823225
vt 0.22916666666666674 0.823225
vt 0.22916666666666674 1
vt 0 1
vt 0.22916666666666674 0.823225
vt 0.4583333333333335 0.823225
vt 0.4583333333333335 1
vt 0.22916666666666674 1
vt 0.4583333333333335 0.823225
vt 0.6875 0.823225
vt 0.6875 1
vt 0.4583333333333335 1
vt 0.6875 0.823225
vt 0.9166666666666665 0.823225
vt 0.9166666666666665 1
vt 0.6875 1
vt 0.9166666666666665 0.823225
vt 1.145833333333333 0.823225
vt 1.145833333333333 1
vt 0.9166666666666665 1
vt 1.145833333333333 0.823225
vt 1.3749999999999998 0.823225
vt 1.3749999999999998 1
vt 1.145833333333333 1
vt 1.3749999999999998 0.823225
vt 1.6041666666666665 0.823225
vt 1.6041666666666665 1
vt 1.3749999999999998 1
vt 1.6041666666666665 0.823225
vt 1.8333333333333333 0.823225
vt 1.8333333333333333 1
vt 1.6041666666666665 1
vt 0 0.625
vt 0.22916666666666674 0.625
vt 0.22916666666666674 1
vt 0 1
vt 0.22916666666666674 0.625
vt 0.4583333333333335 0.625
vt 0.4583333333333335 1
vt 0.22916666666666674 1
vt 0.4583333333333335 0.625
vt 0.6875 0.625
vt 0.6875 1
vt 0.4583333333333335 1
vt 0.6875 0.625
vt 0.9166666666666665 0.625
vt 0.9166666666666665 1
vt 0.6875 1
vt 0.9166666666666665 0.625
vt 1.145833333333333 0.625
vt 1.145833333333333 1
vt 0.9166666666666665 1
vt 1.145833333333333 0.625
vt 1.3749999999999998 0.625
vt 1.3749999999999998 1
vt 1.145833333333333 1
vt 1.3749999999999998 0.625
vt 1.6041666666666665 0.625
vt 1.6041666666666665 1
vt 1.3749999999999998 1
vt 1.6041666666666665 0.625
vt 1.8333333333333333 0.625
vt 1.8333333333333333 1
vt 1.6041666666666665 1
vt 0 0.823225
vt 0.22916666666666674 0.823225
vt 0.22916666666666674 1
vt 0 1
vt 0.22916666666666674 0.823225
vt 0.4583333333333335 0.823225
vt 0.4583333333333335 1
vt 0.22916666666666674 1
vt 0.4583333333333335 0.823225
vt 0.6875 0.823225
vt 0.6875 1
vt 0.4583333333333335 1
vt 0.6875 0.823225
vt 0.9166666666666665 0.823225
vt 0.9166666666666665 1
vt 0.6875 1
vt 0.9166666666666665 0.823225
vt 1.145833333333333 0.823225
vt 1.145833333333333 1
vt 0.9166666666666665 1
vt 1.145833333333333 0.823225
vt 1.3749999999999998 0.823225
vt 1.3749999999999998 1
vt 1.145833333333333 1
vt 1.3749999999999998 0.823225
vt 1.6041666666666665 0.823225
vt 1.6041666666666665 1
vt 1.3749999999999998 1
vt 1.6041666666666665 0.823225
vt 1.8333333333333333 0.823225
vt 1.8333333333333333 1
vt 1.6041666666666665 1
vt 0.22916666666666674 -1.0625
vt 0.22916666666666674 -0.8333375000000003
vt 0 -0.8333375000000003
vt 0 -1.0625
vt 0.22916666666666674 -0.8333375000000003
vt 0.22916666666666674 -0.6041744791761368
vt 0 -0.6041744791761368
vt 0 -0.8333375000000003
vt 0.22916666666666674 -0.6041744791761368
vt 0.22916666666666674 -0.37501086312364773
vt 0 -0.37501086312364773
vt 0 -0.6041744791761368
vt 0.22916666666666674 -0.37501086312364773
vt 0.22916666666666674 -0.14584655263595847
vt 0 -0.14584655263595847
vt 0 -0.37501086312364773
vt 0.22916666666666674 -0.14584655263595847
vt 0.22916666666666674 0.0833185911764962
vt 0 0.0833185911764962
vt 0 -0.14584655263595847
vt 0.22916666666666674 0.0833185911764962
vt 0.22916666666666674 0.31248477664869556
vt 0 0.31248477664869556
vt 0 0.0833185911764962
vt 0.22916666666666674 0.31248477664869556
vt 0.22916666666666674 0.5416523510068676
vt 0 0.5416523510068676
vt 0 0.31248477664869556
vt 0.22916666666666674 0.5416523510068676
vt 0.22916666666666674 0.7708220087066247
vt 0 0.7708220087066247
vt 0 0.5416523510068676
vt 2.0625 1
vt 1.8333375000000003 1
vt 1.8333375000000003 0.823225
vt 2.0625 0.823225
vt 1.8333375000000003 1
vt 1.6041744791761368 1
vt 1.6041744791761368 0.823225
vt 1.8333375000000003 0.823225
vt 1.6041744791761368 1
vt 1.3750108631236477 1
vt 1.3750108631236477 0.823225
vt 1.6041744791761368 0.823225
vt 1.3750108631236477 1
vt 1.1458465526359585 1
vt 1.1458465526359585 0.823225
vt 1.3750108631236477 0.823225
vt 1.1458465526359585 1
vt 0.9166814088235038 1
vt 0.9166814088235038 0.823225
vt 1.1458465526359585 0.823225
vt 0.9166814088235038 1
vt 0.6875152233513044 1
vt 0.6875152233513044 0.823225
vt 0.9166814088235038 0.823225
vt 0.6875152233513044 1
vt 0.45834764899313246 1
vt 0.45834764899313246 0.823225
vt 0.6875152233513044 0.823225
vt 0.45834764899313246 1
vt 0.22917799129337532 1
vt 0.22917799129337532 0.823225
vt 0.45834764899313246 0.823225
vt 2.0625 1
vt 1.8333375000000003 1
vt 1.8333375000000003 0.625
vt 2.0625 0.625
vt 1.8333375000000003 1
vt 1.6041744791761368 1
vt 1.6041744791761368 0.625
vt 1.8333375000000003 0.625
vt 1.6041744791761368 1
vt 1.3750108631236477 1
vt 1.3750108631236477 0.625
vt 1.6041744791761368 0.625
vt 1.3750108631236477 1
vt 1.1458465526359585 1
vt 1.1458465526359585 0.625
vt 1.3750108631236477 0.625
vt 1.1458465526359585 1
vt 0.9166814088235038 1
vt 0.9166814088235038 0.625
vt 1.1458465526359585 0.625
vt 0.9166814088235038 1
vt 0.6875152233513044 1
vt 0.6875152233513044 0.625
vt 0.9166814088235038 0.625
vt 0.6875152233513044 1
vt 0.45834764899313246 1
vt 0.45834764899313246 0.625
vt 0.6875152233513044 0.625
vt 0.45834764899313246 1
vt 0.22917799129337532 1
vt 0.22917799129337532 0.625
vt 0.45834764899313246 0.625
vt 2.0625 1
vt 1.8333375000000003 1
vt 1.8333375000000003 0.823225
vt 2.0625 0.823225
vt 1.8333375000000003 1
vt 1.6041744791761368 1
vt 1.6041744791761368 0.823225
vt 1.8333375000000003 0.823225
vt 1.6041744791761368 1
vt 1.3750108631236477 1
vt 1.3750108631236477 0.823225
vt 1.6041744791761368 0.823225
vt 1.3750108631236477 1
vt 1.1458465526359585 1
vt 1.1458465526359585 0.823225
vt 1.3750108631236477 0.823225
vt 1.1458465526359585 1
vt 0.9166814088235038 1
vt 0.9166814088235038 0.823225
vt 1.1458465526359585 0.823225
vt 0.9166814088235038 1
vt 0.6875152233513044 1
vt 0.6875152233513044 0.823225
vt 0.9166814088235038 0.823225
vt 0.6875152233513044 1
vt 0.45834764899313246 1
vt 0.45834764899313246 0.823225
vt 0.6875152233513044 0.823225
vt 0.45834764899313246 1
vt 0.22917799129337532 1
vt 0.22917799129337532 0.823225
vt 0.45834764899313246 0.823225
vt 0 1
vt 0 0.7708375000000003
vt 0.22916666666666674 0.7708375000000003
vt 0.22916666666666674 1
vt 0 0.7708375000000003
vt 0 0.5416744791761368
vt 0.22916666666666674 0.5416744791761368
vt 0.22916666666666674 0.7708375000000003
vt 0 0.5416744791761368
vt 0 0.31251086312364773
vt 0.22916666666666674 0.31251086312364773
vt 0.22916666666666674 0.5416744791761368
vt 0 0.31251086312364773
vt 0 0.08334655263595847
vt 0.22916666666666674 0.08334655263595847
vt 0.22916666666666674 0.31251086312364773
vt 0 0.08334655263595847
vt 0 -0.1458185911764962
vt 0.22916666666666674 -0.1458185911764962
vt 0.22916666666666674 0.08334655263595847
vt 0 -0.1458185911764962
vt 0 -0.37498477664869556
vt 0.22916666666666674 -0.37498477664869556
vt 0.22916666666666674 -0.1458185911764962
vt 0 -0.37498477664869556
vt 0 -0.6041523510068676
vt 0.22916666666666674 -0.6041523510068676
vt 0.22916666666666674 -0.37498477664869556
vt 0 -0.6041523510068676
vt 0 -0.8333220087066247
vt 0.22916666666666674 -0.8333220087066247
vt 0.22916666666666674 -0.6041523510068676
vt 0.22916666666666674 1
vt 0.22916666666666674 0.7708375000000003
vt 0.4583333333333335 0.7708375000000003
vt 0.4583333333333335 1
vt 0.22916666666666674 0.7708375000000003
vt 0.22916666666666674 0.5416744791761368
vt 0.4583333333333335 0.5416744791761368
vt 0.4583333333333335 0.7708375000000003
vt 0.22916666666666674 0.5416744791761368
vt 0.22916666666666674 0.31251086312364773
vt 0.4583333333333335 0.31251086312364773
vt 0.4583333333333335 0.5416744791761368
vt 0.22916666666666674 0.31251086312364773
vt 0.22916666666666674 0.08334655263595847
vt 0.4583333333333335 0.08334655263595847
vt 0.4583333333333335 0.31251086312364773
vt 0.22916666666666674 0.08334655263595847
vt 0.22916666666666674 -0.1458185911764962
vt 0.4583333333333335 -0.1458185911764962
vt 0.4583333333333335 0.08334655263595847
vt 0.22916666666666674 -0.1458185911764962
vt 0.22916666666666674 -0.37498477664869556
vt 0.4583333333333335 -0.37498477664869556
vt 0.4583333333333335 -0.1458185911764962
vt 0.22916666666666674 -0.37498477664869556
vt 0.22916666666666674 -0.6041523510068676
vt 0.4583333333333335 -0.6041523510068676
vt 0.4583333333333335 -0.37498477664869556
vt 0.22916666666666674 -0.6041523510068676
vt 0.22916666666666674 -0.8333220087066247
vt 0.4583333333333335 -0.8333220087066247
vt 0.4583333333333335 -0.6041523510068676
vt 0.4583333333333335 1
vt 0.4583333333333335 0.7708375000000003
vt 0.6875000000000001 0.7708375000000003
vt 0.6875000000000001 1
vt 0.4583333333333335 0.7708375000000003
vt 0.4583333333333335 0.5416744791761368
vt 0.6875000000000001 0.5416744791761368
vt 0.6875000000000001 0.7708375000000003
vt 0.4583333333333335 0.5416744791761368
vt 0.4583333333333335 0.31251086312364773
vt 0.6875000000000001 0.31251086312364773
vt 0.6875000000000001 0.5416744791761368
vt 0.4583333333333335 0.31251086312364773
vt 0.4583333333333335 0.08334655263595847
vt 0.6875000000000001 0.08334655263595847
vt 0.6875000000000001 0.31251086312364773
vt 0.4583333333333335 0.08334655263595847
vt 0.4583333333333335 -0.1458185911764962
vt 0.6875000000000001 -0.1458185911764962
vt 0.6875000000000001 0.08334655263595847
vt 0.4583333333333335 -0.1458185911764962
vt 0.4583333333333335 -0.37498477664869556
vt 0.6875000000000001 -0.37498477664869556
vt 0.6875000000000001 -0.1458185911764962
vt 0.4583333333333335 -0.37498477664869556
vt 0.4583333333333335 -0.6041523510068676
vt 0.6875000000000001 -0.6041523510068676
vt 0.6875000000000001 -0.37498477664869556
vt 0.4583333333333335 -0.6041523510068676
vt 0.4583333333333335 -0.8333220087066247
vt 0.6875000000000001 -0.8333220087066247
vt 0.6875000000000001 -0.6041523510068676
vt 0.6875000000000001 1
vt 0.6875000000000001 0.7708375000000003
vt 0.9166666666666669 0.7708375000000003
vt 0.9166666666666669 1
vt 0.6875000000000001 0.7708375000000003
vt 0.6875000000000001 0.5416744791761368
vt 0.9166666666666669 0.5416744791761368
vt 0.9166666666666669 0.7708375000000003
vt 0.6875000000000001 0.5416744791761368
vt 0.6875000000000001 0.31251086312364773
vt 0.9166666666666669 0.31251086312364773
vt 0.9166666666666669 0.5416744791761368
vt 0.6875000000000001 0.31251086312364773
vt 0.6875000000000001 0.08334655263595847
vt 0.9166666666666669 0.08334655263595847
vt 0.9166666666666669 0.31251086312364773
vt 0.6875000000000001 0.08334655263595847
vt 0.6875000000000001 -0.1458185911764962
vt 0.9166666666666669 -0.1458185911764962
vt 0.9166666666666669 0.08334655263595847
vt 0.6875000000000001 -0.1458185911764962
vt 0.6875000000000001 -0.37498477664869556
vt 0.9166666666666669 -0.37498477664869556
vt 0.9166666666666669 -0.1458185911764962
vt 0.6875000000000001 -0.37498477664869556
vt 0.6875000000000001 -0.6041523510068676
vt 0.9166666666666669 -0.6041523510068676
vt 0.9166666666666669 -0.37498477664869556
vt 0.6875000000000001 -0.6041523510068676
vt 0.6875000000000001 -0.8333220087066247
vt 0.9166666666666669 -0.8333220087066247
vt 0.9166666666666669 -0.6041523510068676
vt 0.9166666666666669 1
vt 0.9166666666666669 0.7708375000000003
vt 1.1458333333333335 0.7708375000000003
vt 1.1458333333333335 1
vt 0.9166666666666669 0.7708375000000003
vt 0.9166666666666669 0.5416744791761368
vt 1.1458333333333335 0.5416744791761368
vt 1.1458333333333335 0.7708375000000003
vt 0.9166666666666669 0.5416744791761368
vt 0.9166666666666669 0.31251086312364773
vt 1.1458333333333335 0.31251086312364773
vt 1.1458333333333335 0.5416744791761368
vt 0.9166666666666669 0.31251086312364773
vt 0.9166666666666669 0.08334655263595847
vt 1.1458333333333335 0.08334655263595847
vt 1.1458333333333335 0.31251086312364773
vt 0.9166666666666669 0.08334655263595847
vt 0.9166666666666669 -0.1458185911764962
vt 1.1458333333333335 -0.1458185911764962
vt 1.1458333333333335 0.08334655263595847
vt 0.9166666666666669 -0.1458185911764962
vt 0.9166666666666669 -0.37498477664869556
vt 1.1458333333333335 -0.37498477664869556
vt 1.1458333333333335 -0.1458185911764962
vt 0.9166666666666669 -0.37498477664869556
vt 0.9166666666666669 -0.6041523510068676
vt 1.1458333333333335 -0.6041523510068676
vt 1.1458333333333335 -0.37498477664869556
vt 0.9166666666666669 -0.6041523510068676
vt 0.9166666666666669 -0.8333220087066247
vt 1.1458333333333335 -0.8333220087066247
vt 1.1458333333333335 -0.6041523510068676
vt 1.1458333333333335 1
vt 1.1458333333333335 0.7708375000000003
vt 1.375 0.7708375000000003
vt 1.375 1
vt 1.1458333333333335 0.7708375000000003
vt 1.1458333333333335 0.5416744791761368
vt 1.375 0.5416744791761368
vt 1.375 0.7708375000000003
vt 1.1458333333333335 0.5416744791761368
vt 1.1458333333333335 0.31251086312364773
vt 1.375 0.31251086312364773
vt 1.375 0.5416744791761368
vt 1.1458333333333335 0.31251086312364773
vt 1.1458333333333335 0.08334655263595847
vt 1.375 0.08334655263595847
vt 1.375 0.31251086312364773
vt 1.1458333333333335 0.08334655263595847
vt 1.1458333333333335 -0.1458185911764962
vt 1.375 -0.1458185911764962
vt 1.375 0.08334655263595847
vt 1.1458333333333335 -0.1458185911764962
vt 1.1458333333333335 -0.37498477664869556
vt 1.375 -0.37498477664869556
vt 1.375 -0.1458185911764962
vt 1.1458333333333335 -0.37498477664869556
vt 1.1458333333333335 -0.6041523510068676
vt 1.375 -0.6041523510068676
vt 1.375 -0.37498477664869556
vt 1.1458333333333335 -0.6041523510068676
vt 1.1458333333333335 -0.8333220087066247
vt 1.375 -0.8333220087066247
vt 1.375 -0.6041523510068676
vt 1.375 1
vt 1.375 0.7708375000000003
vt 1.6041666666666665 0.7708375000000003
vt 1.6041666666666665 1
vt 1.375 0.7708375000000003
vt 1.375 0.5416744791761368
vt 1.6041666666666665 0.5416744791761368
vt 1.6041666666666665 0.7708375000000003
vt 1.375 0.5416744791761368
vt 1.375 0.31251086312364773
vt 1.6041666666666665 0.31251086312364773
vt 1.6041666666666665 0.5416744791761368
vt 1.375 0.31251086312364773
vt 1.375 0.08334655263595847
vt 1.6041666666666665 0.08334655263595847
vt 1.6041666666666665 0.31251086312364773
vt 1.375 0.08334655263595847
vt 1.375 -0.1458185911764962
vt 1.6041666666666665 -0.1458185911764962
vt 1.6041666666666665 0.08334655263595847
vt 1.375 -0.1458185911764962
vt 1.375 -0.37498477664869556
vt 1.6041666666666665 -0.37498477664869556
vt 1.6041666666666665 -0.1458185911764962
vt 1.375 -0.37498477664869556
vt 1.375 -0.6041523510068676
vt 1.6041666666666665 -0.6041523510068676
vt 1.6041666666666665 -0.37498477664869556
vt 1.375 -0.6041523510068676
vt 1.375 -0.8333220087066247
vt 1.6041666666666665 -0.8333220087066247
vt 1.6041666666666665 -0.6041523510068676
vt 1.6041666666666665 1
vt 1.6041666666666665 0.7708375000000003
vt 1.8333333333333333 0.7708375000000003
vt 1.8333333333333333 1
vt 1.6041666666666665 0.7708375000000003
vt 1.6041666666666665 0.5416744791761368
vt 1.8333333333333333 0.5416744791761368
vt 1.8333333333333333 0.7708375000000003
vt 1.6041666666666665 0.5416744791761368
vt 1.6041666666666665 0.31251086312364773
vt 1.8333333333333333 0.31251086312364773
vt 1.8333333333333333 0.5416744791761368
vt 1.6041666666666665 0.31251086312364773
vt 1.6041666666666665 0.08334655263595847
vt 1.8333333333333333 0.08334655263595847
vt 1.8333333333333333 0.31251086312364773
vt 1.6041666666666665 0.08334655263595847
vt 1.6041666666666665 -0.1458185911764962
vt 1.8333333333333333 -0.1458185911764962
vt 1.8333333333333333 0.08334655263595847
vt 1.6041666666666665 -0.1458185911764962
vt 1.6041666666666665 -0.37498477664869556
vt 1.8333333333333333 -0.37498477664869556
vt 1.8333333333333333 -0.1458185911764962
vt 1.6041666666666665 -0.37498477664869556
vt 1.6041666666666665 -0.6041523510068676
vt 1.8333333333333333 -0.6041523510068676
vt 1.8333333333333333 -0.37498477664869556
vt 1.6041666666666665 -0.6041523510068676
vt 1.6041666666666665 -0.8333220087066247
vt 1.8333333333333333 -0.8333220087066247
vt 1.8333333333333333 -0.6041523510068676
vt 1.8333333333333333 1
vt 1.8333333333333333 0.7708375000000003
vt 2.0625 0.7708375000000003
vt 2.0625 1
vt 1.8333333333333333 0.7708375000000003
vt 1.8333333333333333 0.5416744791761368
vt 2.0625 0.5416744791761368
vt 2.0625 0.7708375000000003
vt 1.8333333333333333 0.5416744791761368
vt 1.8333333333333333 0.31251086312364773
vt 2.0625 0.31251086312364773
vt 2.0625 0.5416744791761368
vt 1.8333333333333333 0.31251086312364773
vt 1.8333333333333333 0.08334655263595847
vt 2.0625 0.08334655263595847
vt 2.0625 0.31251086312364773
vt 1.8333333333333333 0.08334655263595847
vt 1.8333333333333333 -0.1458185911764962
vt 2.0625 -0.1458185911764962
vt 2.0625 0.08334655263595847
vt 1.8333333333333333 -0.1458185911764962
vt 1.8333333333333333 -0.37498477664869556
vt 2.0625 -0.37498477664869556
vt 2.0625 -0.1458185911764962
vt 1.8333333333333333 -0.37498477664869556
vt 1.8333333333333333 -0.6041523510068676
vt 2.0625 -0.6041523510068676
vt 2.0625 -0.37498477664869556
vt 1.8333333333333333 -0.6041523510068676
vt 1.8333333333333333 -0.8333220087066247
vt 2.0625 -0.8333220087066247
vt 2.0625 -0.6041523510068676
vt 0 0.823225
vt 0.2291624999999997 0.823225
vt 0.2291624999999997 1
vt 0 1
vt 0.2291624999999997 0.823225
vt 0.45832552082386324 0.823225
vt 0.45832552082386324 1
vt 0.2291624999999997 1
vt 0.45832552082386324 0.823225
vt 0.6874891368763523 0.823225
vt 0.6874891368763523 1
vt 0.45832552082386324 1
vt 0.6874891368763523 0.823225
vt 0.9166534473640415 0.823225
vt 0.9166534473640415 1
vt 0.6874891368763523 1
vt 0.9166534473640415 0.823225
vt 1.1458185911764962 0.823225
vt 1.1458185911764962 1
vt 0.9166534473640415 1
vt 1.1458185911764962 0.823225
vt 1.3749847766486956 0.823225
vt 1.3749847766486956 1
vt 1.1458185911764962 1
vt 1.3749847766486956 0.823225
vt 1.6041523510068676 0.823225
vt 1.6041523510068676 1
vt 1.3749847766486956 1
vt 1.6041523510068676 0.823225
vt 1.8333220087066247 0.823225
vt 1.8333220087066247 1
vt 1.6041523510068676 1
vt 0 0.625
vt 0.2291624999999997 0.625
vt 0.2291624999999997 1
vt 0 1
vt 0.2291624999999997 0.625
vt 0.45832552082386324 0.625
vt 0.45832552082386324 1
vt 0.2291624999999997 1
vt 0.45832552082386324 0.625
vt 0.6874891368763523 0.625
vt 0.6874891368763523 1
vt 0.45832552082386324 1
vt 0.6874891368763523 0.625
vt 0.9166534473640415 0.625
vt 0.9166534473640415 1
vt 0.6874891368763523 1
vt 0.9166534473640415 0.625
vt 1.1458185911764962 0.625
vt 1.1458185911764962 1
vt 0.9166534473640415 1
vt 1.1458185911764962 0.625
vt 1.3749847766486956 0.625
vt 1.3749847766486956 1
vt 1.1458185911764962 1
vt 1.3749847766486956 0.625
vt 1.6041523510068676 0.625
vt 1.6041523510068676 1
vt 1.3749847766486956 1
vt 1.6041523510068676 0.625
vt 1.8333220087066247 0.625
vt 1.8333220087066247 1
vt 1.6041523510068676 1
vt 0 0.823225
vt 0.2291624999999997 0.823225
vt 0.2291624999999997 1
vt 0 1
vt 0.2291624999999997 0.823225
vt 0.45832552082386324 0.823225
vt 0.45832552082386324 1
vt 0.2291624999999997 1
vt 0.45832552082386324 0.823225
vt 0.6874891368763523 0.823225
vt 0.6874891368763523 1
vt 0.45832552082386324 1
vt 0.6874891368763523 0.823225
vt 0.9166534473640415 0.823225
vt 0.9166534473640415 1
vt 0.6874891368763523 1
vt 0.9166534473640415 0.823225
vt 1.1458185911764962 0.823225
vt 1.1458185911764962 1
vt 0.9166534473640415 1
vt 1.1458185911764962 0.823225
vt 1.3749847766486956 0.823225
vt 1.3749847766486956 1
vt 1.1458185911764962 1
vt 1.3749847766486956 0.823225
vt 1.6041523510068676 0.823225
vt 1.6041523510068676 1
vt 1.3749847766486956 1
vt 1.6041523510068676 0.823225
vt 1.8333220087066247 0.823225
vt 1.8333220087066247 1
vt 1.6041523510068676 1
vt 2.0625 -1.0625
vt 2.0625 -0.8333375000000003
vt 1.8333333333333333 -0.8333375000000003
vt 1.8333333333333333 -1.0625
vt 2.0625 -0.8333375000000003
vt 2.0625 -0.6041744791761368
vt 1.8333333333333333 -0.6041744791761368
vt 1.8333333333333333 -0.8333375000000003
vt 2.0625 -0.6041744791761368
vt 2.0625 -0.37501086312364773
vt 1.8333333333333333 -0.37501086312364773
vt 1.8333333333333333 -0.6041744791761368
vt 2.0625 -0.37501086312364773
vt 2.0625 -0.14584655263595847
vt 1.8333333333333333 -0.14584655263595847
vt 1.8333333333333333 -0.37501086312364773
vt 2.0625 -0.14584655263595847
vt 2.0625 0.0833185911764962
vt 1.8333333333333333 0.0833185911764962
vt 1.8333333333333333 -0.14584655263595847
vt 2.0625 0.0833185911764962
vt 2.0625 0.31248477664869556
vt 1.8333333333333333 0.31248477664869556
vt 1.8333333333333333 0.0833185911764962
vt 2.0625 0.31248477664869556
vt 2.0625 0.5416523510068676
vt 1.8333333333333333 0.5416523510068676
vt 1.8333333333333333 0.31248477664869556
vt 2.0625 0.5416523510068676
vt 2.0625 0.7708220087066247
vt 1.8333333333333333 0.7708220087066247
vt 1.8333333333333333 0.5416523510068676
vt 1.8333333333333333 -1.0625
vt 1.8333333333333333 -0.8333375000000003
vt 1.6041666666666665 -0.8333375000000003
vt 1.6041666666666665 -1.0625
vt 1.8333333333333333 -0.8333375000000003
vt 1.8333333333333333 -0.6041744791761368
vt 1.6041666666666665 -0.6041744791761368
vt 1.6041666666666665 -0.8333375000000003
vt 1.8333333333333333 -0.6041744791761368
vt 1.8333333333333333 -0.37501086312364773
vt 1.6041666666666665 -0.37501086312364773
vt 1.6041666666666665 -0.6041744791761368
vt 1.8333333333333333 -0.37501086312364773
vt 1.8333333333333333 -0.14584655263595847
vt 1.6041666666666665 -0.14584655263595847
vt 1.6041666666666665 -0.37501086312364773
vt 1.8333333333333333 -0.14584655263595847
vt 1.8333333333333333 0.0833185911764962
vt 1.6041666666666665 0.0833185911764962
vt 1.6041666666666665 -0.14584655263595847
vt 1.8333333333333333 0.0833185911764962
vt 1.8333333333333333 0.31248477664869556
vt 1.6041666666666665 0.31248477664869556
vt 1.6041666666666665 0.0833185911764962
vt 1.8333333333333333 0.31248477664869556
vt 1.8333333333333333 0.5416523510068676
vt 1.6041666666666665 0.5416523510068676
vt 1.6041666666666665 0.31248477664869556
vt 1.8333333333333333 0.5416523510068676
vt 1.8333333333333333 0.7708220087066247
vt 1.6041666666666665 0.7708220087066247
vt 1.6041666666666665 0.5416523510068676
vt 1.6041666666666665 -1.0625
vt 1.6041666666666665 -0.8333375000000003
vt 1.375 -0.8333375000000003
vt 1.375 -1.0625
vt 1.6041666666666665 -0.8333375000000003
vt 1.6041666666666665 -0.6041744791761368
vt 1.375 -0.6041744791761368
vt 1.375 -0.8333375000000003
vt 1.6041666666666665 -0.6041744791761368
vt 1.6041666666666665 -0.37501086312364773
vt 1.375 -0.37501086312364773
vt 1.375 -0.6041744791761368
vt 1.6041666666666665 -0.37501086312364773
vt 1.6041666666666665 -0.14584655263595847
vt 1.375 -0.14584655263595847
vt 1.375 -0.37501086312364773
vt 1.6041666666666665 -0.14584655263595847
vt 1.6041666666666665 0.0833185911764962
vt 1.375 0.0833185911764962
vt 1.375 -0.14584655263595847
vt 1.6041666666666665 0.0833185911764962
vt 1.6041666666666665 0.31248477664869556
vt 1.375 0.31248477664869556
vt 1.375 0.0833185911764962
vt 1.6041666666666665 0.31248477664869556
vt 1.6041666666666665 0.5416523510068676
vt 1.375 0.5416523510068676
vt 1.375 0.31248477664869556
vt 1.6041666666666665 0.5416523510068676
vt 1.6041666666666665 0.7708220087066247
vt 1.375 0.7708220087066247
vt 1.375 0.5416523510068676
vt 1.375 -1.0625
vt 1.375 -0.8333375000000003
vt 1.1458333333333335 -0.8333375000000003
vt 1.1458333333333335 -1.0625
vt 1.375 -0.8333375000000003
vt 1.375 -0.6041744791761368
vt 1.1458333333333335 -0.6041744791761368
vt 1.1458333333333335 -0.8333375000000003
vt 1.375 -0.6041744791761368
vt 1.375 -0.37501086312364773
vt 1.1458333333333335 -0.37501086312364773
vt 1.1458333333333335 -0.6041744791761368
vt 1.375 -0.37501086312364773
vt 1.375 -0.14584655263595847
vt 1.1458333333333335 -0.14584655263595847
vt 1.1458333333333335 -0.37501086312364773
vt 1.375 -0.14584655263595847
vt 1.375 0.0833185911764962
vt 1.1458333333333335 0.0833185911764962
vt 1.1458333333333335 -0.14584655263595847
vt 1.375 0.0833185911764962
vt 1.375 0.31248477664869556
vt 1.1458333333333335 0.31248477664869556
vt 1.1458333333333335 0.0833185911764962
vt 1.375 0.31248477664869556
vt 1.375 0.5416523510068676
vt 1.1458333333333335 0.5416523510068676
vt 1.1458333333333335 0.31248477664869556
vt 1.375 0.5416523510068676
vt 1.375 0.7708220087066247
vt 1.1458333333333335 0.7708220087066247
vt 1.1458333333333335 0.5416523510068676
vt 1.1458333333333335 -1.0625
vt 1.1458333333333335 -0.8333375000000003
vt 0.9166666666666669 -0.8333375000000003
vt 0.9166666666666669 -1.0625
vt 1.1458333333333335 -0.8333375000000003
vt 1.1458333333333335 -0.6041744791761368
vt 0.9166666666666669 -0.6041744791761368
vt 0.9166666666666669 -0.8333375000000003
vt 1.1458333333333335 -0.6041744791761368
vt 1.1458333333333335 -0.37501086312364773
vt 0.9166666666666669 -0.37501086312364773
vt 0.9166666666666669 -0.6041744791761368
vt 1.1458333333333335 -0.37501086312364773
vt 1.1458333333333335 -0.14584655263595847
vt 0.9166666666666669 -0.14584655263595847
vt 0.9166666666666669 -0.37501086312364773
vt 1.1458333333333335 -0.14584655263595847
vt 1.1458333333333335 0.0833185911764962
vt 0.9166666666666669 0.0833185911764962
vt 0.9166666666666669 -0.14584655263595847
vt 1.1458333333333335 0.0833185911764962
vt 1.1458333333333335 0.31248477664869556
vt 0.9166666666666669 0.31248477664869556
vt 0.9166666666666669 0.0833185911764962
vt 1.1458333333333335 0.31248477664869556
vt 1.1458333333333335 0.5416523510068676
vt 0.9166666666666669 0.5416523510068676
vt 0.9166666666666669 0.31248477664869556
vt 1.1458333333333335 0.5416523510068676
vt 1.1458333333333335 0.7708220087066247
vt 0.9166666666666669 0.7708220087066247
vt 0.9166666666666669 0.5416523510068676
vt 0.9166666666666669 -1.0625
vt 0.9166666666666669 -0.8333375000000003
vt 0.6875000000000001 -0.8333375000000003
vt 0.6875000000000001 -1.0625
vt 0.9166666666666669 -0.8333375000000003
vt 0.9166666666666669 -0.6041744791761368
vt 0.6875000000000001 -0.6041744791761368
vt 0.6875000000000001 -0.8333375000000003
vt 0.9166666666666669 -0.6041744791761368
vt 0.9166666666666669 -0.37501086312364773
vt 0.6875000000000001 -0.37501086312364773
vt 0.6875000000000001 -0.6041744791761368
vt 0.9166666666666669 -0.37501086312364773
vt 0.9166666666666669 -0.14584655263595847
vt 0.6875000000000001 -0.14584655263595847
vt 0.6875000000000001 -0.37501086312364773
vt 0.9166666666666669 -0.14584655263595847
vt 0.9166666666666669 0.0833185911764962
vt 0.6875000000000001 0.0833185911764962
vt 0.6875000000000001 -0.14584655263595847
vt 0.9166666666666669 0.0833185911764962
vt 0.9166666666666669 0.31248477664869556
vt 0.6875000000000001 0.31248477664869556
vt 0.6875000000000001 0.0833185911764962
vt 0.9166666666666669 0.31248477664869556
vt 0.9166666666666669 0.5416523510068676
vt 0.6875000000000001 0.5416523510068676
vt 0.6875000000000001 0.31248477664869556
vt 0.9166666666666669 0.5416523510068676
vt 0.9166666666666669 0.7708220087066247
vt 0.6875000000000001 0.7708220087066247
vt 0.6875000000000001 0.5416523510068676
vt 0.6875000000000001 -1.0625
vt 0.6875000000000001 -0.8333375000000003
vt 0.4583333333333335 -0.8333375000000003
vt 0.4583333333333335 -1.0625
vt 0.6875000000000001 -0.8333375000000003
vt 0.6875000000000001 -0.6041744791761368
vt 0.4583333333333335 -0.6041744791761368
vt 0.4583333333333335 -0.8333375000000003
vt 0.6875000000000001 -0.6041744791761368
vt 0.6875000000000001 -0.37501086312364773
vt 0.4583333333333335 -0.37501086312364773
vt 0.4583333333333335 -0.6041744791761368
vt 0.6875000000000001 -0.37501086312364773
vt 0.6875000000000001 -0.14584655263595847
vt 0.4583333333333335 -0.14584655263595847
vt 0.4583333333333335 -0.37501086312364773
vt 0.6875000000000001 -0.14584655263595847
vt 0.6875000000000001 0.0833185911764962
vt 0.4583333333333335 0.0833185911764962
vt 0.4583333333333335 -0.14584655263595847
vt 0.6875000000000001 0.0833185911764962
vt 0.6875000000000001 0.31248477664869556
vt 0.4583333333333335 0.31248477664869556
vt 0.4583333333333335 0.0833185911764962
vt 0.6875000000000001 0.31248477664869556
vt 0.6875000000000001 0.5416523510068676
vt 0.4583333333333335 0.5416523510068676
vt 0.4583333333333335 0.31248477664869556
vt 0.6875000000000001 0.5416523510068676
vt 0.6875000000000001 0.7708220087066247
vt 0.4583333333333335 0.7708220087066247
vt 0.4583333333333335 0.5416523510068676
vt 0.4583333333333335 -1.0625
vt 0.4583333333333335 -0.8333375000000003
vt 0.22916666666666674 -0.8333375000000003
vt 0.22916666666666674 -1.0625
vt 0.4583333333333335 -0.8333375000000003
vt 0.4583333333333335 -0.6041744791761368
vt 0.22916666666666674 -0.6041744791761368
vt 0.22916666666666674 -0.8333375000000003
vt 0.4583333333333335 -0.6041744791761368
vt 0.4583333333333335 -0.37501086312364773
vt 0.22916666666666674 -0.37501086312364773
vt 0.22916666666666674 -0.6041744791761368
vt 0.4583333333333335 -0.37501086312364773
vt 0.4583333333333335 -0.14584655263595847
vt 0.22916666666666674 -0.14584655263595847
vt 0.22916666666666674 -0.37501086312364773
vt 0.4583333333333335 -0.14584655263595847
vt 0.4583333333333335 0.0833185911764962
vt 0.22916666666666674 0.0833185911764962
vt 0.22916666666666674 -0.14584655263595847
vt 0.4583333333333335 0.0833185911764962
vt 0.4583333333333335 0.31248477664869556
vt 0.22916666666666674 0.31248477664869556
vt 0.22916666666666674 0.0833185911764962
vt 0.4583333333333335 0.31248477664869556
vt 0.4583333333333335 0.5416523510068676
vt 0.22916666666666674 0.5416523510068676
vt 0.22916666666666674 0.31248477664869556
vt 0.4583333333333335 0.5416523510068676
vt 0.4583333333333335 0.7708220087066247
vt 0.22916666666666674 0.7708220087066247
vt 0.22916666666666674 0.5416523510068676
vn 1 0 0
vn -1 0 0
vn 0 0.9647671216078872 0.26310530413587724
vn 0 -1 0
vn 0 0 1
vn 0 0 -1
vn 0.7071067811865476 0.7071067811865476 0
vn -0.447213595499958 0.894427190999916 0
vn 0 0.7071067811865476 0.7071067811865476
vn 0 0.7071067811865476 -0.7071067811865476
vn -0.447213595499958 -0.894427190999916 0
vn -0.7071067811865476 -0.7071067811865476 0
vn 0 -0.7071067811865476 0.7071067811865476
vn 0 -0.7071067811865476 -0.7071067811865476
vn 0.7071067811865476 0 -0.7071067811865476
vn 0.7071067811865476 0 0.7071067811865476
vn -0.7071067811865476 0 -0.7071067811865476
vn -0.7071067811865476 0 0.7071067811865476
vn 0.5773502691896258 -0.5773502691896258 0.5773502691896258
vn -0.5773502691896258 -0.5773502691896258 0.5773502691896258
vn -0.4082482904638631 -0.8164965809277261 0.4082482904638631
vn -0.5773502691896258 -0.5773502691896258 -0.5773502691896258
vn 0.5773502691896258 0.5773502691896258 0.5773502691896258
vn -0.5773502691896258 0.5773502691896258 0.5773502691896258
vn 0.5773502691896258 0.5773502691896258 -0.5773502691896258
vn -0.5773502691896258 0.5773502691896258 -0.5773502691896258
vn 0.535002034990208 0.6538913760991433 -0.5349755983402469
vn 0 0.7739726349107409 -0.6332190461517444
vn 0 0.773972634910741 -0.6332190461517444
vn 0 0.773972634910741 -0.6332190461517444
vn 0 0.773972634910741 -0.6332190461517444
vn -0.6332377902572626 0.7739572992033211 0
vn 0 1 0
vn -0.25445749301551923 0.9330108077235708 0.25444491922470563
vn 0 0.7071067811865476 0.7071067811865476
vn -0.23698575166000924 0.8689477560867008 0.4344738780433504
vn 0 0.894427190999916 0.447213595499958
vn 0.18935832092934107 0.6943138434075835 0.6943138434075835
vn 0 0.7071067811865476 0.7071067811865476
vn 0 0.7071067811865476 0.7071067811865476
vn 0 0.7071067811865476 0.7071067811865476
vn 0 0.7071067811865476 0.7071067811865476
vn 0 0 1
vn 0 0 1
vn 0 0 1
vn 0 0 1
vn 0 0 1
vn 0 0 1
vn 0 0 1
vn 0 0 1
vn 0 -0.7071067811865476 0.7071067811865476
vn 0 -0.7071067811865476 0.7071067811865476
vn 0 -0.7071067811865476 0.7071067811865476
vn 0 -0.7071067811865476 0.7071067811865476
vn 0 -0.7071067811865476 0.7071067811865476
vn 0 -0.7071067811865476 0.7071067811865476
vn 0 -0.7071067811865476 0.7071067811865476
vn 0 -0.7071067811865476 0.7071067811865476
vn 0 -1 0
vn 0 -1 0
vn 0 -1 0
vn 0 -1 0
vn 0 -1 0
vn 0.6332377902572626 -0.7739572992033211 0
vn 0 -1 0
vn 0 -1 0
vn 0 -0.8944271909999161 0.44721359549995804
vn 0 -0.8944271909999161 0.44721359549995804
vn 0 -0.894427190999916 0.447213595499958
vn 0 -0.894427190999916 0.447213595499958
vn 0 -0.8944271909999161 0.44721359549995804
vn 0.5007733956671915 -0.6120563724821231 -0.6120563724821231
vn 0 -0.7071067811865476 -0.7071067811865476
vn 0 -0.7071067811865476 -0.7071067811865476
vn 0 0 -1
vn 0 0 -1
vn 0 0 -1
vn 0 0 -1
vn 0 0 -1
vn 0 0 -1
vn 0 0 -1
vn 0 0 -1
vn 0 0.7071067811865476 -0.7071067811865476
vn 0 0.7071067811865476 -0.7071067811865476
vn 0 0.7071067811865476 -0.7071067811865476
vn 0 0.7071067811865476 -0.7071067811865476
vn 0 0.7071067811865476 -0.7071067811865476
vn 0 0.7071067811865476 -0.7071067811865476
vn 0 0.7071067811865476 -0.7071067811865476
vn 0 0.7071067811865476 -0.7071067811865476
vn 0 0.9647626068188779 -0.26312185862076015
vn 0 1 0
vn 0 0.9647629321101681 0.2631206659048117
vn 0 1 0
vn 0 1 0
vn 0 1 0
vn 0 0.9647640857857964 -0.26311643578061933
vn 0 1 0
vn -0.43447343437685665 0.8689468687537133 -0.23698981856589602
vn -0.447213595499958 0.894427190999916 0
vn -0.6943135119951407 0.6943135119951407 0.18936075127107843
vn -0.7071067811865476 0.7071067811865476 0
vn -0.7071067811865476 0.7071067811865476 0
vn -0.7071067811865476 0.7071067811865476 0
vn -0.4344739746912743 0.8689479493825486 -0.23698486571895175
vn -0.447213595499958 0.894427190999916 0
vn -1 0 0
vn -1 0 0
vn -1 0 0
vn -1 0 0
vn -1 0 0
vn -1 0 0
vn -1 0 0
vn -1 0 0
vn -0.7071067811865476 -0.7071067811865476 0
vn -0.7071067811865476 -0.7071067811865476 0
vn -0.7071067811865476 -0.7071067811865476 0
vn -0.7071067811865476 -0.7071067811865476 0
vn -0.7071067811865476 -0.7071067811865476 0
vn -0.7071067811865476 -0.7071067811865476 0
vn -0.7071067811865476 -0.7071067811865476 0
vn -0.7071067811865476 -0.7071067811865476 0
vn 0 -1 0
vn 0 -1 0
vn 0 -1 0
vn 0 -1 0
vn 0 -1 0
vn 0 -1 0
vn 0 -1 0
vn 0 -1 0
vn 0 -1 0
vn 0 -1 0
vn 0 -1 0
vn 0 -1 0
vn 0 -1 0
vn 0 -1 0
vn 0 -1 0
vn 0 -1 0
vn 0 -1 0
vn 0 -1 0
vn 0 -1 0
vn 0 -1 0
vn 0 -1 0
vn 0 -1 0
vn 0 -1 0
vn 0 -1 0
vn 0 -1 0
vn 0 -1 0
vn 0.6332377902572626 -0.7739572992033211 0
vn 0.6332377902572626 -0.7739572992033211 0
vn 0.6332377902572626 -0.7739572992033211 0
vn 0.6332377902572626 -0.7739572992033211 0
vn 0.6332377902572626 -0.7739572992033211 0
vn 0.6332377902572627 -0.7739572992033212 0
vn 0 -1 0
vn 0 -1 0
vn 0 -0.773953167856253 -0.6332428396478486
vn 0 -1 0
vn 0 -1 0
vn 0 -1 0
vn 0 -1 0
vn 0 -1 0
vn 0 -1 0
vn 0 -1 0
vn 0 -0.773953167856253 -0.6332428396478484
vn 0 -1 0
vn 0 -1 0
vn 0 -1 0
vn 0 -1 0
vn 0 -1 0
vn 0 -1 0
vn 0 -1 0
vn 0 -0.773953167856253 -0.6332428396478484
vn 0 -1 0
vn 0 -1 0
vn 0 -1 0
vn 0 -1 0
vn 0 -1 0
vn 0 -1 0
vn 0 -1 0
vn 0 -0.7739531678562531 -0.6332428396478486
vn 0 -1 0
vn 0 -1 0
vn 0 -1 0
vn 0 -1 0
vn 0 -1 0
vn 0 -1 0
vn 0 -1 0
vn 0 -0.7739531678562531 -0.6332428396478486
vn 0 -1 0
vn 0 -1 0
vn 0 -1 0
vn 0 -1 0
vn 0 -1 0
vn 0.7071067811865476 -0.7071067811865476 0
vn 0.7071067811865476 -0.7071067811865476 0
vn -0.3608966176655147 -0.7217932353310293 -0.5905659631133146
vn -0.447213595499958 -0.894427190999916 0
vn -0.44721359549995804 -0.8944271909999161 0
vn -0.44721359549995804 -0.8944271909999161 0
vn -0.447213595499958 -0.894427190999916 0
vn -0.447213595499958 -0.894427190999916 0
vn 1 0 0
vn 1 0 0
vn 1 0 0
vn 1 0 0
vn 1 0 0
vn 1 0 0
vn 1 0 0
vn 1 0 0
vn 0.7071067811865476 0.7071067811865476 0
vn 0.7071067811865476 0.7071067811865476 0
vn 0.7071067811865476 0.7071067811865476 0
vn 0.7071067811865476 0.7071067811865476 0
vn 0.7071067811865476 0.7071067811865476 0
vn 0.7071067811865476 0.7071067811865476 0
vn 0.7071067811865476 0.7071067811865476 0
vn 0.7071067811865476 0.7071067811865476 0
vn 0 1 0
vn 0 1 0
vn 0.6332377902572626 0.7739572992033211 0
vn 0.6332377902572626 0.7739572992033211 0
vn 0.6332377902572626 0.7739572992033211 0
vn 0.6332377902572626 0.7739572992033211 0
vn 0.6332377902572626 0.7739572992033211 0
vn 0.6332377902572627 0.7739572992033212 0
vn -0.26311740579210874 0.9647638212377323 0
vn 0 1 0
vn 0 0.7739531678562531 0.6332428396478486
vn 0 1 0
vn 0 1 0
vn 0.2631174057921087 0.9647638212377322 0
vn 0.2631174057921087 0.9647638212377322 0
vn 0 1 0
vn 0 1 0
vn 0 0.9647627586218466 0.2631213020193632
vn 0 0.773953167856253 0.6332428396478484
vn 0 1 0
vn 0.26311740579210896 0.9647638212377321 0
vn 0.2544566443090962 0.9330076958000187 0.2544571786075099
vn 0 1 0
vn 0 0.9647646929677927 -0.2631142094276949
vn 0.26311740579210896 0.9647638212377321 0
vn 0 0.9647627586218466 0.2631213020193632
vn 0 0.773953167856253 0.6332428396478484
vn 0 1 0
vn 0 0.9647633773929931 0.2631190332174112
vn -0.2544566443090962 0.9330076958000187 0.2544571786075099
vn -0.2544567441608216 0.9330080619230119 -0.25445573630346724
vn 0 0.9647646929677927 -0.2631142094276949
vn 0 1 0
vn 0 1 0
vn 0 0.773953167856253 0.6332428396478486
vn 0 1 0
vn -0.2544565694195281 0.9330074212049362 0.25445826034098346
vn -0.26311740579210885 0.9647638212377322 0
vn 0 0.9647640857857963 -0.26311643578061933
vn 0 1 0
vn 0 1 0
vn 0 1 0
vn -0.5349924300476843 0.6538796367249476 0.5349995518391807
vn -0.6332377902572626 0.7739572992033211 0
vn -0.6332377902572626 0.7739572992033211 0
vn -0.6332377902572626 0.7739572992033211 0
vn -0.6332377902572626 0.7739572992033211 0
vn -0.6332377902572627 0.7739572992033212 0
vn 0 1 0
vn 0 1 0
vn 0 1 0
vn 0 1 0
vn 0 1 0
vn 0 1 0
vn 0 1 0
vn 0 1 0
vn -0.26311740579210874 0.9647638212377323 0
vn -0.26311740579210874 0.9647638212377322 0
vn 0 1 0
vn 0 1 0
vn 0 1 0
vn 0 1 0
vn -0.2631174057921087 0.9647638212377322 0
vn -0.2631174057921087 0.9647638212377322 0
usemtl none
f 16/1/1 216/2/1 208/3/1 15/4/1
f 11/5/2 120/6/2 112/7/2 12/8/2
f 4/9/3 104/10/3 103/11/3 39/12/3
f 72/13/4 136/14/4 128/15/4 8/16/4
f 23/17/5 56/18/5 48/19/5 24/20/5
f 20/21/6 88/22/6 80/23/6 19/24/6
f 2/25/7 224/26/7 216/27/7 16/28/7
f 12/29/8 112/30/8 104/31/8 4/32/8
f 24/33/9 48/34/9 40/35/9 3/36/9
f 4/37/10 39/38/10 88/39/10 20/40/10
f 15/41/11 208/42/11 200/43/11 6/44/11
f 8/45/12 128/46/12 120/47/12 11/48/12
f 7/49/13 64/50/13 56/51/13 23/52/13
f 19/53/14 80/54/14 72/55/14 8/56/14
f 15/57/15 17/58/15 18/59/15 16/60/15
f 22/61/16 21/62/16 13/63/16 14/64/16
f 20/65/17 19/66/17 11/67/17 12/68/17
f 9/69/18 23/70/18 24/71/18 10/72/18
f 5/73/19 13/74/19 21/75/19
f 7/76/20 23/77/20 9/78/20
f 6/79/21 17/80/21 15/81/21
f 8/82/22 11/83/22 19/84/22
f 1/85/23 22/86/23 14/87/23
f 3/88/24 10/89/24 24/90/24
f 2/91/25 16/92/25 18/93/25
f 4/94/26 20/95/26 12/96/26
f 25/97/27 232/98/27 224/99/27 2/100/27
f 27/101/28 240/102/28 232/103/28 25/104/28
f 29/105/29 248/106/29 240/107/29 27/108/29
f 31/109/30 256/110/30 248/111/30 29/112/30
f 33/113/31 264/114/31 256/115/31 31/116/31
f 35/117/32 272/118/32 264/119/32 33/120/32
f 37/121/33 280/122/33 272/123/33 35/124/33
f 39/125/34 103/126/34 280/127/34 37/128/34
f 1/129/35 26/130/35 41/131/35 22/132/35
f 26/133/36 28/134/36 42/135/36 41/136/36
f 28/137/37 30/138/37 43/139/37 42/140/37
f 30/141/38 32/142/38 44/143/38 43/144/38
f 32/145/39 34/146/39 45/147/39 44/148/39
f 34/149/40 36/150/40 46/151/40 45/152/40
f 36/153/41 38/154/41 47/155/41 46/156/41
f 38/157/42 40/158/42 48/159/42 47/160/42
f 22/161/43 41/162/43 49/163/43 21/164/43
f 41/165/44 42/166/44 50/167/44 49/168/44
f 42/169/45 43/170/45 51/171/45 50/172/45
f 43/173/46 44/174/46 52/175/46 51/176/46
f 44/177/47 45/178/47 53/179/47 52/180/47
f 45/181/48 46/182/48 54/183/48 53/184/48
f 46/185/49 47/186/49 55/187/49 54/188/49
f 47/189/50 48/190/50 56/191/50 55/192/50
f 21/193/51 49/194/51 57/195/51 5/196/51
f 49/197/52 50/198/52 58/199/52 57/200/52
f 50/201/53 51/202/53 59/203/53 58/204/53
f 51/205/54 52/206/54 60/207/54 59/208/54
f 52/209/55 53/210/55 61/211/55 60/212/55
f 53/213/56 54/214/56 62/215/56 61/216/56
f 54/217/57 55/218/57 63/219/57 62/220/57
f 55/221/58 56/222/58 64/223/58 63/224/58
f 6/225/59 200/226/59 192/227/59 65/228/59
f 65/229/60 192/230/60 184/231/60 66/232/60
f 66/233/61 184/234/61 176/235/61 67/236/61
f 67/237/62 176/238/62 168/239/62 68/240/62
f 68/241/63 168/242/63 160/243/63 69/244/63
f 69/245/64 160/246/64 152/247/64 70/248/64
f 70/249/65 152/250/65 144/251/65 71/252/65
f 71/253/66 144/254/66 136/255/66 72/256/66
f 6/257/67 65/258/67 73/259/67 17/260/67
f 65/261/68 66/262/68 74/263/68 73/264/68
f 66/265/69 67/266/69 75/267/69 74/268/69
f 67/269/70 68/270/70 76/271/70 75/272/70
f 68/273/71 69/274/71 77/275/71 76/276/71
f 69/277/72 70/278/72 78/279/72 77/280/72
f 70/281/73 71/282/73 79/283/73 78/284/73
f 71/285/74 72/286/74 80/287/74 79/288/74
f 17/289/75 73/290/75 81/291/75 18/292/75
f 73/293/76 74/294/76 82/295/76 81/296/76
f 74/297/77 75/298/77 83/299/77 82/300/77
f 75/301/78 76/302/78 84/303/78 83/304/78
f 76/305/79 77/306/79 85/307/79 84/308/79
f 77/309/80 78/310/80 86/311/80 85/312/80
f 78/313/81 79/314/81 87/315/81 86/316/81
f 79/317/82 80/318/82 88/319/82 87/320/82
f 18/321/83 81/322/83 25/323/83 2/324/83
f 81/325/84 82/326/84 27/327/84 25/328/84
f 82/329/85 83/330/85 29/331/85 27/332/85
f 83/333/86 84/334/86 31/335/86 29/336/86
f 84/337/87 85/338/87 33/339/87 31/340/87
f 85/341/88 86/342/88 35/343/88 33/344/88
f 86/345/89 87/346/89 37/347/89 35/348/89
f 87/349/90 88/350/90 39/351/90 37/352/90
f 40/353/91 89/354/91 90/355/91 3/356/91
f 89/357/92 91/358/92 92/359/92 90/360/92
f 91/361/93 93/362/93 94/363/93 92/364/93
f 93/365/94 95/366/94 96/367/94 94/368/94
f 95/369/95 97/370/95 98/371/95 96/372/95
f 97/373/96 99/374/96 100/375/96 98/376/96
f 99/377/97 101/378/97 102/379/97 100/380/97
f 101/381/98 103/382/98 104/383/98 102/384/98
f 3/385/99 90/386/99 105/387/99 10/388/99
f 90/389/100 92/390/100 106/391/100 105/392/100
f 92/393/101 94/394/101 107/395/101 106/396/101
f 94/397/102 96/398/102 108/399/102 107/400/102
f 96/401/103 98/402/103 109/403/103 108/404/103
f 98/405/104 100/406/104 110/407/104 109/408/104
f 100/409/105 102/410/105 111/411/105 110/412/105
f 102/413/106 104/414/106 112/415/106 111/416/106
f 10/417/107 105/418/107 113/419/107 9/420/107
f 105/421/108 106/422/108 114/423/108 113/424/108
f 106/425/109 107/426/109 115/427/109 114/428/109
f 107/429/110 108/430/110 116/431/110 115/432/110
f 108/433/111 109/434/111 117/435/111 116/436/111
f 109/437/112 110/438/112 118/439/112 117/440/112
f 110/441/113 111/442/113 119/443/113 118/444/113
f 111/445/114 112/446/114 120/447/114 119/448/114
f 9/449/115 113/450/115 121/451/115 7/452/115
f 113/453/116 114/454/116 122/455/116 121/456/116
f 114/457/117 115/458/117 123/459/117 122/460/117
f 115/461/118 116/462/118 124/463/118 123/464/118
f 116/465/119 117/466/119 125/467/119 124/468/119
f 117/469/120 118/470/120 126/471/120 125/472/120
f 118/473/121 119/474/121 127/475/121 126/476/121
f 119/477/122 120/478/122 128/479/122 127/480/122
f 7/481/123 121/482/123 129/483/123 64/484/123
f 121/485/124 122/486/124 130/487/124 129/488/124
f 122/489/125 123/490/125 131/491/125 130/492/125
f 123/493/126 124/494/126 132/495/126 131/496/126
f 124/497/127 125/498/127 133/499/127 132/500/127
f 125/501/128 126/502/128 134/503/128 133/504/128
f 126/505/129 127/506/129 135/507/129 134/508/129
f 127/509/130 128/510/130 136/511/130 135/512/130
f 64/513/131 129/514/131 137/515/131 63/516/131
f 129/517/132 130/518/132 138/519/132 137/520/132
f 130/521/133 131/522/133 139/523/133 138/524/133
f 131/525/134 132/526/134 140/527/134 139/528/134
f 132/529/135 133/530/135 141/531/135 140/532/135
f 133/533/136 134/534/136 142/535/136 141/536/136
f 134/537/137 135/538/137 143/539/137 142/540/137
f 135/541/138 136/542/138 144/543/138 143/544/138
f 63/545/139 137/546/139 145/547/139 62/548/139
f 137/549/140 138/550/140 146/551/140 145/552/140
f 138/553/141 139/554/141 147/555/141 146/556/141
f 139/557/142 140/558/142 148/559/142 147/560/142
f 140/561/143 141/562/143 149/563/143 148/564/143
f 141/565/144 142/566/144 150/567/144 149/568/144
f 142/569/145 143/570/145 151/571/145 150/572/145
f 143/573/146 144/574/146 152/575/146 151/576/146
f 62/577/147 145/578/147 153/579/147 61/580/147
f 145/581/148 146/582/148 154/583/148 153/584/148
f 146/585/149 147/586/149 155/587/149 154/588/149
f 147/589/150 148/590/150 156/591/150 155/592/150
f 148/593/151 149/594/151 157/595/151 156/596/151
f 149/597/152 150/598/152 158/599/152 157/600/152
f 150/601/153 151/602/153 159/603/153 158/604/153
f 151/605/154 152/606/154 160/607/154 159/608/154
f 61/609/155 153/610/155 161/611/155 60/612/155
f 153/613/156 154/614/156 162/615/156 161/616/156
f 154/617/157 155/618/157 163/619/157 162/620/157
f 155/621/158 156/622/158 164/623/158 163/624/158
f 156/625/159 157/626/159 165/627/159 164/628/159
f 157/629/160 158/630/160 166/631/160 165/632/160
f 158/633/161 159/634/161 167/635/161 166/636/161
f 159/637/162 160/638/162 168/639/162 167/640/162
f 60/641/163 161/642/163 169/643/163 59/644/163
f 161/645/164 162/646/164 170/647/164 169/648/164
f 162/649/165 163/650/165 171/651/165 170/652/165
f 163/653/166 164/654/166 172/655/166 171/656/166
f 164/657/167 165/658/167 173/659/167 172/660/167
f 165/661/168 166/662/168 174/663/168 173/664/168
f 166/665/169 167/666/169 175/667/169 174/668/169
f 167/669/170 168/670/170 176/671/170 175/672/170
f 59/673/171 169/674/171 177/675/171 58/676/171
f 169/677/172 170/678/172 178/679/172 177/680/172
f 170/681/173 171/682/173 179/683/173 178/684/173
f 171/685/174 172/686/174 180/687/174 179/688/174
f 172/689/175 173/690/175 181/691/175 180/692/175
f 173/693/176 174/694/176 182/695/176 181/696/176
f 174/697/177 175/698/177 183/699/177 182/700/177
f 175/701/178 176/702/178 184/703/178 183/704/178
f 58/705/179 177/706/179 185/707/179 57/708/179
f 177/709/180 178/710/180 186/711/180 185/712/180
f 178/713/181 179/714/181 187/715/181 186/716/181
f 179/717/182 180/718/182 188/719/182 187/720/182
f 180/721/183 181/722/183 189/723/183 188/724/183
f 181/725/184 182/726/184 190/727/184 189/728/184
f 182/729/185 183/730/185 191/731/185 190/732/185
f 183/733/186 184/734/186 192/735/186 191/736/186
f 57/737/187 185/738/187 193/739/187 5/740/187
f 185/741/188 186/742/188 194/743/188 193/744/188
f 186/745/189 187/746/189 195/747/189 194/748/189
f 187/749/190 188/750/190 196/751/190 195/752/190
f 188/753/191 189/754/191 197/755/191 196/756/191
f 189/757/192 190/758/192 198/759/192 197/760/192
f 190/761/193 191/762/193 199/763/193 198/764/193
f 191/765/194 192/766/194 200/767/194 199/768/194
f 5/769/195 193/770/195 201/771/195 13/772/195
f 193/773/196 194/774/196 202/775/196 201/776/196
f 194/777/197 195/778/197 203/779/197 202/780/197
f 195/781/198 196/782/198 204/783/198 203/784/198
f 196/785/199 197/786/199 205/787/199 204/788/199
f 197/789/200 198/790/200 206/791/200 205/792/200
f 198/793/201 199/794/201 207/795/201 206/796/201
f 199/797/202 200/798/202 208/799/202 207/800/202
f 13/801/203 201/802/203 209/803/203 14/804/203
f 201/805/204 202/806/204 210/807/204 209/808/204
f 202/809/205 203/810/205 211/811/205 210/812/205
f 203/813/206 204/814/206 212/815/206 211/816/206
f 204/817/207 205/818/207 213/819/207 212/820/207
f 205/821/208 206/822/208 214/823/208 213/824/208
f 206/825/209 207/826/209 215/827/209 214/828/209
f 207/829/210 208/830/210 216/831/210 215/832/210
f 14/833/211 209/834/211 217/835/211 1/836/211
f 209/837/212 210/838/212 218/839/212 217/840/212
f 210/841/213 211/842/213 219/843/213 218/844/213
f 211/845/214 212/846/214 220/847/214 219/848/214
f 212/849/215 213/850/215 221/851/215 220/852/215
f 213/853/216 214/854/216 222/855/216 221/856/216
f 214/857/217 215/858/217 223/859/217 222/860/217
f 215/861/218 216/862/218 224/863/218 223/864/218
f 1/865/219 217/866/219 225/867/219 26/868/219
f 217/869/220 218/870/220 226/871/220 225/872/220
f 218/873/221 219/874/221 227/875/221 226/876/221
f 219/877/222 220/878/222 228/879/222 227/880/222
f 220/881/223 221/882/223 229/883/223 228/884/223
f 221/885/224 222/886/224 230/887/224 229/888/224
f 222/889/225 223/890/225 231/891/225 230/892/225
f 223/893/226 224/894/226 232/895/226 231/896/226
f 26/897/227 225/898/227 233/899/227 28/900/227
f 225/901/228 226/902/228 234/903/228 233/904/228
f 226/905/229 227/906/229 235/907/229 234/908/229
f 227/909/230 228/910/230 236/911/230 235/912/230
f 228/913/231 229/914/231 237/915/231 236/916/231
f 229/917/232 230/918/232 238/919/232 237/920/232
f 230/921/233 231/922/233 239/923/233 238/924/233
f 231/925/234 232/926/234 240/927/234 239/928/234
f 28/929/235 233/930/235 241/931/235 30/932/235
f 233/933/236 234/934/236 242/935/236 241/936/236
f 234/937/237 235/938/237 243/939/237 242/940/237
f 235/941/238 236/942/238 244/943/238 243/944/238
f 236/945/239 237/946/239 245/947/239 244/948/239
f 237/949/240 238/950/240 246/951/240 245/952/240
f 238/953/241 239/954/241 247/955/241 246/956/241
f 239/957/242 240/958/242 248/959/242 247/960/242
f 30/961/243 241/962/243 249/963/243 32/964/243
f 241/965/244 242/966/244 250/967/244 249/968/244
f 242/969/245 243/970/245 251/971/245 250/972/245
f 243/973/246 244/974/246 252/975/246 251/976/246
f 244/977/247 245/978/247 253/979/247 252/980/247
f 245/981/248 246/982/248 254/983/248 253/984/248
f 246/985/249 247/986/249 255/987/249 254/988/249
f 247/989/250 248/990/250 256/991/250 255/992/250
f 32/993/251 249/994/251 257/995/251 34/996/251
f 249/997/252 250/998/252 258/999/252 257/1000/252
f 250/1001/253 251/1002/253 259/1003/253 258/1004/253
f 251/1005/254 252/1006/254 260/1007/254 259/1008/254
f 252/1009/255 253/1010/255 261/1011/255 260/1012/255
f 253/1013/256 254/1014/256 262/1015/256 261/1016/256
f 254/1017/257 255/1018/257 263/1019/257 262/1020/257
f 255/1021/258 256/1022/258 264/1023/258 263/1024/258
f 34/1025/259 257/1026/259 265/1027/259 36/1028/259
f 257/1029/260 258/1030/260 266/1031/260 265/1032/260
f 258/1033/261 259/1034/261 267/1035/261 266/1036/261
f 259/1037/262 260/1038/262 268/1039/262 267/1040/262
f 260/1041/263 261/1042/263 269/1043/263 268/1044/263
f 261/1045/264 262/1046/264 270/1047/264 269/1048/264
f 262/1049/265 263/1050/265 271/1051/265 270/1052/265
f 263/1053/266 264/1054/266 272/1055/266 271/1056/266
f 36/1057/267 265/1058/267 273/1059/267 38/1060/267
f 265/1061/268 266/1062/268 274/1063/268 273/1064/268
f 266/1065/269 267/1066/269 275/1067/269 274/1068/269
f 267/1069/270 268/1070/270 276/1071/270 275/1072/270
f 268/1073/271 269/1074/271 277/1075/271 276/1076/271
f 269/1077/272 270/1078/272 278/1079/272 277/1080/272
f 270/1081/273 271/1082/273 279/1083/273 278/1084/273
f 271/1085/274 272/1086/274 280/1087/274 279/1088/274
f 38/1089/275 273/1090/275 89/1091/275 40/1092/275
f 273/1093/276 274/1094/276 91/1095/276 89/1096/276
f 274/1097/277 275/1098/277 93/1099/277 91/1100/277
f 275/1101/278 276/1102/278 95/1103/278 93/1104/278
f 276/1105/279 277/1106/279 97/1107/279 95/1108/279
f 277/1109/280 278/1110/280 99/1111/280 97/1112/280
f 278/1113/281 279/1114/281 101/1115/281 99/1116/281
f 279/1117/282 280/1118/282 103/1119/282 101/1120/282