# Blender 4.1.1
# www.blender.org
mtllib Golfcart.mtl
o Cube
v 1.145743 1.488349 -1.930037
v 1.145743 0.366505 -2.072007
v 1.145743 1.490888 1.409761
v 0.985490 0.511276 1.789766
v -1.145743 1.488349 -1.930037
v -1.145743 0.366505 -2.072007
v -1.145743 1.490888 1.409761
v -0.985490 0.511276 1.789766
v -0.000000 0.366505 -2.072007
v -0.000000 1.656911 1.409761
v -0.000000 0.343873 1.789766
v -0.000000 1.488349 -1.930037
v 1.145743 0.886070 -2.072007
v -1.145743 1.128530 1.665736
v 1.145743 1.128530 1.665736
v -1.145743 0.886070 -2.072007
v -0.000000 0.886070 -2.072007
v -0.000000 1.128530 1.665736
v -1.145743 1.273579 1.559541
v 1.145743 1.224874 -2.072007
v 1.145743 1.273579 1.559541
v -1.145743 1.224874 -2.072007
v -0.000000 1.044874 -2.072007
v -0.000000 1.272840 1.593292
v -1.145743 0.237440 0.119395
v 1.145743 0.857230 0.119395
v -1.145743 0.857230 0.119395
v 1.145743 0.237440 0.119395
v -0.000000 0.237440 0.119395
v -0.000000 0.857230 0.119395
v 1.145743 0.559512 0.119395
v -1.145743 0.559512 0.119395
v 1.145743 0.708371 0.119395
v -1.145743 0.708371 0.119395
v 0.572872 0.343873 1.789766
v 0.572872 1.488349 -1.930037
v 0.572872 0.366505 -2.072007
v 0.572872 1.656911 1.409761
v 0.572872 0.999808 1.665736
v 0.572872 0.886070 -2.072007
v 0.572872 1.272840 1.593292
v 0.572872 1.044628 -2.072007
v 0.572872 0.857230 0.119395
v 0.572872 0.237440 0.119395
v -0.572872 0.366505 -2.072007
v -0.572872 1.656911 1.409761
v -0.572872 0.343873 1.789766
v -0.572872 1.488349 -1.930037
v -0.572872 0.886070 -2.072007
v -0.572872 0.999808 1.665736
v -0.572872 1.044628 -2.072007
v -0.572872 1.272840 1.593292
v -0.572872 0.237440 0.119395
v -0.572872 0.857230 0.119395
v 1.145743 0.547265 -2.072007
v 1.145743 0.724197 1.756066
v -1.145743 0.547265 -2.072007
v -0.000000 0.547265 -2.072007
v -0.000000 0.851764 1.740090
v -1.145743 0.724197 1.756066
v -1.145743 0.410653 0.119395
v 1.145743 0.410653 0.119395
v 0.572872 0.547265 -2.072007
v 0.572872 0.851764 1.740090
v -0.572872 0.851764 1.740090
v -0.572872 0.547265 -2.072007
v -1.145743 0.661944 0.731300
v 1.145743 1.864518 0.731300
v -0.000000 0.661944 0.731300
v -0.000000 2.030541 0.731300
v 1.145743 1.422832 0.731300
v 1.145743 1.484074 0.731300
v -1.145743 1.864518 0.731300
v 1.145743 0.661944 0.731300
v -1.145743 1.422832 0.731300
v -1.145743 1.484074 0.731300
v 0.572872 2.030541 0.731300
v 0.572872 0.661944 0.731300
v -0.572872 0.661944 0.731300
v -0.572872 2.030541 0.731300
v -1.145743 0.815454 0.715734
v 1.145743 0.815454 0.715734
v -1.145743 1.563678 -1.137571
v 1.145743 0.606812 -1.137571
v -1.145743 0.886070 -1.137571
v -1.145743 1.224874 -1.137571
v -1.145743 0.606812 -1.137571
v 1.145743 1.563678 -1.137571
v -0.000000 0.606812 -1.137571
v -0.000000 1.563678 -1.137571
v 1.145743 0.886070 -1.137571
v 1.145743 1.224874 -1.137571
v 0.572872 0.606812 -1.137571
v 0.572872 1.563678 -1.137571
v -0.572872 1.563678 -1.137571
v -0.572872 0.606812 -1.137571
v 1.145743 0.747946 -1.137571
v -1.145743 0.747946 -1.137571
v -1.145743 0.232939 -0.509088
v 1.145743 0.858437 -0.509088
v -0.000000 0.232939 -0.509088
v -0.000000 0.858437 -0.509088
v 1.145743 0.545688 -0.509088
v 1.145743 0.702062 -0.509088
v 0.572872 0.232939 -0.509088
v 0.572872 0.858437 -0.509088
v -0.572872 0.858437 -0.509088
v -0.572872 0.232939 -0.509088
v 1.145743 0.389314 -0.509088
v -1.145743 0.858437 -0.509088
v 1.145743 0.232939 -0.509088
v -1.145743 0.545688 -0.509088
v -1.145743 0.702062 -0.509088
v -1.145743 0.389314 -0.509088
v -1.145743 0.756140 1.198518
v 1.145743 1.740875 1.198518
v -0.000000 0.605246 1.198518
v -0.000000 1.906898 1.198518
v 1.145743 1.332661 1.198518
v 1.145743 1.377167 1.198518
v 0.572872 1.906898 1.198518
v 0.572872 0.605246 1.198518
v -0.572872 0.605246 1.198518
v -0.572872 1.906898 1.198518
v 1.145743 0.968954 1.198518
v -1.145743 1.740875 1.198518
v 1.145743 0.756140 1.198518
v -1.145743 1.332661 1.198518
v -1.145743 1.377167 1.198518
v -1.145743 0.968954 1.198518
v -1.145743 1.559957 0.425347
v 1.145743 0.358820 0.425347
v -1.145743 1.035978 0.425347
v -1.145743 1.374557 0.425347
v -1.145743 0.508785 0.425347
v -1.145743 0.358820 0.425347
v 1.145743 1.559957 0.425347
v -0.000000 0.358820 0.425347
v -0.000000 1.559957 0.425347
v 1.145743 1.035978 0.425347
v 1.145743 1.374557 0.425347
v 0.572872 1.559957 0.425347
v 0.572872 0.358820 0.425347
v -0.572872 0.358820 0.425347
v -0.572872 1.559957 0.425347
v 1.145743 0.508785 0.425347
v -1.145743 1.563678 -1.604789
v 1.145743 0.606812 -1.604789
v -1.145743 0.886070 -1.604789
v -1.145743 1.224874 -1.604789
v -1.145743 0.747946 -1.604789
v -1.145743 0.606812 -1.604789
v 1.145743 1.563678 -1.604789
v -0.000000 0.606812 -1.604789
v -0.000000 1.563678 -1.604789
v 1.145743 0.886070 -1.604789
v 1.145743 1.224874 -1.604789
v 0.572872 0.606812 -1.604789
v 0.572872 1.563678 -1.604789
v -0.572872 1.563678 -1.604789
v -0.572872 0.606812 -1.604789
v 1.145743 0.747946 -1.604789
v -1.096267 3.002450 1.061613
v -1.122526 3.001514 1.009785
v -1.096267 3.080571 1.061613
v -1.020686 3.001514 1.102436
v -1.020686 3.001514 1.009785
v -1.020686 3.081507 1.102436
v -0.911573 3.001514 1.102436
v -0.911573 3.081507 1.102436
v -0.911573 3.001514 1.009785
v 0.877418 3.001514 1.102436
v 1.001552 3.001514 1.102436
v 0.877418 3.081507 1.102436
v 0.877418 3.001514 1.009785
v 1.001552 3.001514 1.009785
v 0.877418 3.001514 0.917007
v 0.877418 1.273668 1.298260
v 1.001552 1.273668 1.298260
v 0.877418 1.273668 1.205482
v 1.001552 1.273668 1.205482
v 1.001552 3.001514 0.917007
v 1.121701 3.001514 0.917007
v 1.001552 3.001514 -1.820395
v 1.121701 3.001514 -1.820395
v 1.001552 3.001514 -1.921347
v 0.877418 3.001514 -1.820395
v 1.001552 1.273668 -1.820395
v 1.001552 1.273668 -1.921347
v 0.877418 1.273668 -1.820395
v 0.877418 1.273668 -1.921347
v 0.877418 3.001514 -1.921347
v -0.911573 3.001514 -1.921347
v 0.877418 3.001514 -2.017622
v -0.911573 3.001514 -2.017622
v 1.001552 3.001514 -2.017622
v 0.877418 3.081507 -2.017622
v 1.001552 3.081507 -2.017622
v -0.911573 3.081507 -2.017622
v 0.877418 3.081507 -1.921347
v 1.001552 3.081507 -1.921347
v -0.911573 3.081507 -1.921347
v 0.877418 3.081507 -1.820395
v 1.001552 3.081507 -1.820395
v -0.911573 3.081507 -1.820395
v 0.877418 3.081507 0.917007
v 1.001552 3.081507 0.917007
v -0.911573 3.081507 0.917007
v 0.877418 3.081507 1.009785
v 1.001552 3.081507 1.009785
v -0.911573 3.081507 1.009785
v -1.020686 3.081507 1.009785
v -1.122526 3.081507 1.009785
v -1.020686 3.081507 0.917007
v -1.122526 3.081507 0.917007
v -1.020686 3.081507 -1.820395
v -1.122526 3.081507 -1.820395
v -1.020686 3.081507 -1.921347
v -1.122526 3.081507 -1.921347
v -1.020686 3.081507 -2.017622
v -1.096267 3.080571 -1.976799
v -1.020686 3.001514 -2.017622
v -1.096267 3.002450 -1.976799
v -1.020686 3.001514 -1.921347
v -1.122526 3.001514 -1.921347
v -1.020686 3.001514 -1.820395
v -1.020686 1.273668 -1.921347
v -0.911573 1.273668 -1.921347
v -1.020686 1.273668 -1.820395
v -0.911573 1.273668 -1.820395
v -0.911573 3.001514 -1.820395
v -0.911573 3.001514 0.917007
v -1.020686 3.001514 0.917007
v -0.911573 1.273668 1.205482
v -1.020686 1.273668 1.205482
v -0.911573 1.273668 1.298260
v -1.020686 1.273668 1.298260
v -1.122526 3.001514 0.917007
v -1.122526 3.001514 -1.820395
v 1.121701 3.081507 1.009785
v 1.001552 3.081507 1.102436
v 1.095443 3.080571 1.061613
v 1.095443 3.002450 1.061613
v 1.121701 3.001514 1.009785
v 1.121701 3.081507 0.917007
v 1.121701 3.081507 -1.820395
v 1.121701 3.081507 -1.921347
v 1.095443 3.080571 -1.976799
v 1.121701 3.001514 -1.921347
v 1.095443 3.002450 -1.976799
v 0.866521 0.419459 0.731764
v 0.866521 0.347497 0.738851
v 0.866521 0.491421 0.738851
v 0.913144 0.419459 0.668115
v 0.913144 0.503838 0.676426
v 0.913144 0.335079 0.676426
v 1.231593 0.419459 0.668115
v 1.280771 0.419459 0.731764
v 1.231593 0.503838 0.676426
v 1.231593 0.335079 0.676426
v 1.280771 0.347497 0.738851
v 1.231593 0.253943 0.701038
v 0.913144 0.253943 0.701038
v 1.280771 0.278300 0.759842
v 1.231593 0.179167 0.741007
v 0.913144 0.179167 0.741007
v 1.280771 0.214528 0.793929
v 1.231593 0.113625 0.794796
v 0.913144 0.113625 0.794796
v 1.280771 0.158631 0.839802
v 1.231593 0.059836 0.860337
v 0.913144 0.059836 0.860337
v 1.280771 0.112758 0.895698
v 1.231593 0.019868 0.935113
v 0.913144 0.019868 0.935113
v 1.280771 0.078671 0.959471
v 1.231593 -0.004745 1.016250
v 0.913144 -0.004745 1.016250
v 1.280771 0.057680 1.028667
v 1.231593 -0.013055 1.100629
v 0.913144 -0.013055 1.100629
v 1.280771 0.050593 1.100629
v 1.231593 -0.004745 1.185009
v 0.913144 -0.004745 1.185009
v 1.280771 0.057680 1.172591
v 1.231593 0.019868 1.266145
v 0.913144 0.019868 1.266145
v 1.280771 0.078671 1.241788
v 1.231593 0.059836 1.340921
v 0.913144 0.059836 1.340921
v 1.280771 0.112758 1.305560
v 1.231593 0.113625 1.406463
v 0.913144 0.113625 1.406463
v 1.280771 0.158631 1.361457
v 1.231593 0.179167 1.460252
v 0.913144 0.179167 1.460252
v 1.280771 0.214528 1.407330
v 1.231593 0.253943 1.500220
v 0.913144 0.253943 1.500220
v 1.280771 0.278300 1.441417
v 1.231593 0.335079 1.524833
v 0.913144 0.335079 1.524833
v 1.280771 0.347497 1.462407
v 1.231593 0.419459 1.533144
v 0.913144 0.419459 1.533144
v 1.280771 0.419459 1.469495
v 1.231593 0.503838 1.524833
v 0.913144 0.503838 1.524833
v 1.280771 0.491421 1.462407
v 1.231593 0.584975 1.500220
v 0.913144 0.584975 1.500220
v 1.280771 0.560618 1.441417
v 1.231593 0.659751 1.460252
v 0.913144 0.659751 1.460252
v 1.280771 0.624390 1.407330
v 1.231593 0.725292 1.406463
v 0.913144 0.725292 1.406463
v 1.280771 0.680286 1.361457
v 1.231593 0.779081 1.340921
v 0.913144 0.779081 1.340921
v 1.280771 0.726159 1.305560
v 1.231593 0.819050 1.266145
v 0.913144 0.819050 1.266145
v 1.280771 0.760246 1.241788
v 1.231593 0.843662 1.185009
v 0.913144 0.843662 1.185009
v 1.280771 0.781237 1.172591
v 1.231593 0.851973 1.100629
v 0.913144 0.851973 1.100629
v 1.280771 0.788324 1.100629
v 1.231593 0.843662 1.016250
v 0.913144 0.843662 1.016250
v 1.280771 0.781237 1.028667
v 1.231593 0.819050 0.935113
v 0.913144 0.819050 0.935113
v 1.280771 0.760246 0.959471
v 1.231593 0.779081 0.860337
v 0.913144 0.779081 0.860337
v 1.280771 0.726159 0.895698
v 1.231593 0.725292 0.794796
v 0.913144 0.725292 0.794796
v 1.280771 0.680286 0.839802
v 1.231593 0.659751 0.741007
v 0.913144 0.659751 0.741007
v 1.280771 0.624390 0.793929
v 1.231593 0.584975 0.701038
v 0.913144 0.584975 0.701038
v 1.280771 0.560618 0.759842
v 1.280771 0.491421 0.738851
v 0.866521 0.560618 0.759842
v 0.866521 0.624390 0.793929
v 0.866521 0.680286 0.839802
v 0.866521 0.726159 0.895698
v 0.866521 0.760246 0.959471
v 0.866521 0.781237 1.028667
v 0.866521 0.788324 1.100629
v 0.866521 0.781237 1.172591
v 0.866521 0.760246 1.241788
v 0.866521 0.726159 1.305560
v 0.866521 0.680286 1.361457
v 0.866521 0.624390 1.407330
v 0.866521 0.560618 1.441417
v 0.866521 0.491421 1.462407
v 0.866521 0.419459 1.469495
v 0.866521 0.347497 1.462407
v 0.866521 0.278300 1.441417
v 0.866521 0.214528 1.407330
v 0.866521 0.158631 1.361457
v 0.866521 0.112758 1.305560
v 0.866521 0.078671 1.241788
v 0.866521 0.057680 1.172591
v 0.866521 0.050593 1.100629
v 0.866521 0.057680 1.028667
v 0.866521 0.078671 0.959471
v 0.866521 0.112758 0.895698
v 0.866521 0.158631 0.839802
v 0.866521 0.214528 0.793929
v 0.866521 0.278300 0.759842
v 0.866521 0.419459 -1.703537
v 0.866521 0.347497 -1.696449
v 0.866521 0.491421 -1.696449
v 0.913144 0.419459 -1.767185
v 0.913144 0.503838 -1.758874
v 0.913144 0.335079 -1.758874
v 1.231593 0.419459 -1.767185
v 1.280771 0.419459 -1.703537
v 1.231593 0.503838 -1.758874
v 1.231593 0.335079 -1.758874
v 1.280771 0.347497 -1.696449
v 1.231593 0.253943 -1.734262
v 0.913144 0.253943 -1.734262
v 1.280771 0.278300 -1.675458
v 1.231593 0.179167 -1.694293
v 0.913144 0.179167 -1.694293
v 1.280771 0.214528 -1.641372
v 1.231593 0.113625 -1.640504
v 0.913144 0.113625 -1.640504
v 1.280771 0.158631 -1.595498
v 1.231593 0.059836 -1.574963
v 0.913144 0.059836 -1.574963
v 1.280771 0.112758 -1.539602
v 1.231593 0.019868 -1.500187
v 0.913144 0.019868 -1.500187
v 1.280771 0.078671 -1.475830
v 1.231593 -0.004745 -1.419050
v 0.913144 -0.004745 -1.419050
v 1.280771 0.057680 -1.406633
v 1.231593 -0.013055 -1.334671
v 0.913144 -0.013055 -1.334671
v 1.280771 0.050593 -1.334671
v 1.231593 -0.004745 -1.250292
v 0.913144 -0.004745 -1.250292
v 1.280771 0.057680 -1.262709
v 1.231593 0.019868 -1.169155
v 0.913144 0.019868 -1.169155
v 1.280771 0.078671 -1.193512
v 1.231593 0.059836 -1.094379
v 0.913144 0.059836 -1.094379
v 1.280771 0.112758 -1.129740
v 1.231593 0.113625 -1.028837
v 0.913144 0.113625 -1.028837
v 1.280771 0.158631 -1.073843
v 1.231593 0.179167 -0.975049
v 0.913144 0.179167 -0.975049
v 1.280771 0.214528 -1.027970
v 1.231593 0.253943 -0.935080
v 0.913144 0.253943 -0.935080
v 1.280771 0.278300 -0.993883
v 1.231593 0.335079 -0.910468
v 0.913144 0.335079 -0.910468
v 1.280771 0.347497 -0.972893
v 1.231593 0.419459 -0.902157
v 0.913144 0.419459 -0.902157
v 1.280771 0.419459 -0.965805
v 1.231593 0.503838 -0.910468
v 0.913144 0.503838 -0.910468
v 1.280771 0.491421 -0.972893
v 1.231593 0.584975 -0.935080
v 0.913144 0.584975 -0.935080
v 1.280771 0.560618 -0.993883
v 1.231593 0.659751 -0.975049
v 0.913144 0.659751 -0.975049
v 1.280771 0.624390 -1.027970
v 1.231593 0.725292 -1.028837
v 0.913144 0.725292 -1.028837
v 1.280771 0.680286 -1.073843
v 1.231593 0.779081 -1.094379
v 0.913144 0.779081 -1.094379
v 1.280771 0.726159 -1.129740
v 1.231593 0.819050 -1.169155
v 0.913144 0.819050 -1.169155
v 1.280771 0.760246 -1.193512
v 1.231593 0.843662 -1.250292
v 0.913144 0.843662 -1.250292
v 1.280771 0.781237 -1.262709
v 1.231593 0.851973 -1.334671
v 0.913144 0.851973 -1.334671
v 1.280771 0.788324 -1.334671
v 1.231593 0.843662 -1.419050
v 0.913144 0.843662 -1.419050
v 1.280771 0.781237 -1.406633
v 1.231593 0.819050 -1.500187
v 0.913144 0.819050 -1.500187
v 1.280771 0.760246 -1.475830
v 1.231593 0.779081 -1.574963
v 0.913144 0.779081 -1.574963
v 1.280771 0.726159 -1.539602
v 1.231593 0.725292 -1.640504
v 0.913144 0.725292 -1.640504
v 1.280771 0.680286 -1.595498
v 1.231593 0.659751 -1.694293
v 0.913144 0.659751 -1.694293
v 1.280771 0.624390 -1.641372
v 1.231593 0.584975 -1.734262
v 0.913144 0.584975 -1.734262
v 1.280771 0.560618 -1.675458
v 1.280771 0.491421 -1.696449
v 0.866521 0.560618 -1.675458
v 0.866521 0.624390 -1.641372
v 0.866521 0.680286 -1.595498
v 0.866521 0.726159 -1.539602
v 0.866521 0.760246 -1.475830
v 0.866521 0.781237 -1.406633
v 0.866521 0.788324 -1.334671
v 0.866521 0.781237 -1.262709
v 0.866521 0.760246 -1.193512
v 0.866521 0.726159 -1.129740
v 0.866521 0.680286 -1.073843
v 0.866521 0.624390 -1.027970
v 0.866521 0.560618 -0.993883
v 0.866521 0.491421 -0.972893
v 0.866521 0.419459 -0.965805
v 0.866521 0.347497 -0.972893
v 0.866521 0.278300 -0.993883
v 0.866521 0.214528 -1.027970
v 0.866521 0.158631 -1.073843
v 0.866521 0.112758 -1.129740
v 0.866521 0.078671 -1.193512
v 0.866521 0.057680 -1.262709
v 0.866521 0.050593 -1.334671
v 0.866521 0.057680 -1.406633
v 0.866521 0.078671 -1.475830
v 0.866521 0.112758 -1.539602
v 0.866521 0.158631 -1.595498
v 0.866521 0.214528 -1.641372
v 0.866521 0.278300 -1.675458
v -1.273783 0.419459 -1.703537
v -1.273783 0.491421 -1.696449
v -1.273783 0.347497 -1.696449
v -1.227161 0.419459 -1.767185
v -1.227161 0.335079 -1.758874
v -1.227161 0.503838 -1.758874
v -0.908712 0.419459 -1.767185
v -0.859533 0.419459 -1.703537
v -0.908712 0.335079 -1.758874
v -0.908712 0.503838 -1.758874
v -0.859533 0.491421 -1.696449
v -0.908712 0.584975 -1.734262
v -1.227161 0.584975 -1.734262
v -0.859533 0.560618 -1.675458
v -0.908712 0.659751 -1.694293
v -1.227161 0.659751 -1.694293
v -0.859533 0.624390 -1.641372
v -0.908712 0.725292 -1.640504
v -1.227161 0.725292 -1.640504
v -0.859533 0.680286 -1.595498
v -0.908712 0.779081 -1.574963
v -1.227161 0.779081 -1.574963
v -0.859533 0.726159 -1.539602
v -0.908712 0.819050 -1.500187
v -1.227161 0.819050 -1.500187
v -0.859533 0.760246 -1.475830
v -0.908712 0.843662 -1.419050
v -1.227161 0.843662 -1.419050
v -0.859533 0.781237 -1.406633
v -0.908712 0.851973 -1.334671
v -1.227161 0.851973 -1.334671
v -0.859533 0.788324 -1.334671
v -0.908712 0.843662 -1.250292
v -1.227161 0.843662 -1.250292
v -0.859533 0.781237 -1.262709
v -0.908712 0.819050 -1.169155
v -1.227161 0.819050 -1.169155
v -0.859533 0.760246 -1.193512
v -0.908712 0.779081 -1.094379
v -1.227161 0.779081 -1.094379
v -0.859533 0.726159 -1.129740
v -0.908712 0.725292 -1.028837
v -1.227161 0.725292 -1.028837
v -0.859533 0.680286 -1.073843
v -0.908712 0.659751 -0.975049
v -1.227161 0.659751 -0.975049
v -0.859533 0.624390 -1.027970
v -0.908712 0.584975 -0.935080
v -1.227161 0.584975 -0.935080
v -0.859533 0.560618 -0.993883
v -0.908712 0.503838 -0.910468
v -1.227161 0.503838 -0.910468
v -0.859533 0.491421 -0.972893
v -0.908712 0.419459 -0.902157
v -1.227161 0.419459 -0.902157
v -0.859533 0.419459 -0.965805
v -0.908712 0.335079 -0.910468
v -1.227161 0.335079 -0.910468
v -0.859533 0.347497 -0.972893
v -0.908712 0.253943 -0.935080
v -1.227161 0.253943 -0.935080
v -0.859533 0.278300 -0.993883
v -0.908712 0.179167 -0.975049
v -1.227161 0.179167 -0.975049
v -0.859533 0.214528 -1.027970
v -0.908712 0.113625 -1.028837
v -1.227161 0.113625 -1.028837
v -0.859533 0.158631 -1.073843
v -0.908712 0.059836 -1.094379
v -1.227161 0.059836 -1.094379
v -0.859533 0.112758 -1.129740
v -0.908712 0.019868 -1.169155
v -1.227161 0.019868 -1.169155
v -0.859533 0.078671 -1.193512
v -0.908712 -0.004745 -1.250292
v -1.227161 -0.004745 -1.250292
v -0.859533 0.057680 -1.262709
v -0.908712 -0.013055 -1.334671
v -1.227161 -0.013055 -1.334671
v -0.859533 0.050593 -1.334671
v -0.908712 -0.004745 -1.419050
v -1.227161 -0.004745 -1.419050
v -0.859533 0.057680 -1.406633
v -0.908712 0.019868 -1.500187
v -1.227161 0.019868 -1.500187
v -0.859533 0.078671 -1.475830
v -0.908712 0.059836 -1.574963
v -1.227161 0.059836 -1.574963
v -0.859533 0.112758 -1.539602
v -0.908712 0.113625 -1.640504
v -1.227161 0.113625 -1.640504
v -0.859533 0.158631 -1.595498
v -0.908712 0.179167 -1.694293
v -1.227161 0.179167 -1.694293
v -0.859533 0.214528 -1.641372
v -0.908712 0.253943 -1.734262
v -1.227161 0.253943 -1.734262
v -0.859533 0.278300 -1.675458
v -0.859533 0.347497 -1.696449
v -1.273783 0.278300 -1.675458
v -1.273783 0.214528 -1.641372
v -1.273783 0.158631 -1.595498
v -1.273783 0.112758 -1.539602
v -1.273783 0.078671 -1.475830
v -1.273783 0.057680 -1.406633
v -1.273783 0.050593 -1.334671
v -1.273783 0.057680 -1.262709
v -1.273783 0.078671 -1.193512
v -1.273783 0.112758 -1.129740
v -1.273783 0.158631 -1.073843
v -1.273783 0.214528 -1.027970
v -1.273783 0.278300 -0.993883
v -1.273783 0.347497 -0.972893
v -1.273783 0.419459 -0.965805
v -1.273783 0.491421 -0.972893
v -1.273783 0.560618 -0.993883
v -1.273783 0.624390 -1.027970
v -1.273783 0.680286 -1.073843
v -1.273783 0.726159 -1.129740
v -1.273783 0.760246 -1.193512
v -1.273783 0.781237 -1.262709
v -1.273783 0.788324 -1.334671
v -1.273783 0.781237 -1.406633
v -1.273783 0.760246 -1.475830
v -1.273783 0.726159 -1.539602
v -1.273783 0.680286 -1.595498
v -1.273783 0.624390 -1.641372
v -1.273783 0.560618 -1.675458
v -1.273783 0.419459 0.731764
v -1.273783 0.491421 0.738851
v -1.273783 0.347497 0.738851
v -1.227161 0.419459 0.668115
v -1.227161 0.335079 0.676426
v -1.227161 0.503838 0.676426
v -0.908712 0.419459 0.668115
v -0.859533 0.419459 0.731764
v -0.908712 0.335079 0.676426
v -0.908712 0.503838 0.676426
v -0.859533 0.491421 0.738851
v -0.908712 0.584975 0.701038
v -1.227161 0.584975 0.701038
v -0.859533 0.560618 0.759842
v -0.908712 0.659751 0.741007
v -1.227161 0.659751 0.741007
v -0.859533 0.624390 0.793929
v -0.908712 0.725292 0.794796
v -1.227161 0.725292 0.794796
v -0.859533 0.680286 0.839802
v -0.908712 0.779081 0.860337
v -1.227161 0.779081 0.860337
v -0.859533 0.726159 0.895698
v -0.908712 0.819050 0.935113
v -1.227161 0.819050 0.935113
v -0.859533 0.760246 0.959471
v -0.908712 0.843662 1.016250
v -1.227161 0.843662 1.016250
v -0.859533 0.781237 1.028667
v -0.908712 0.851973 1.100629
v -1.227161 0.851973 1.100629
v -0.859533 0.788324 1.100629
v -0.908712 0.843662 1.185009
v -1.227161 0.843662 1.185009
v -0.859533 0.781237 1.172591
v -0.908712 0.819050 1.266145
v -1.227161 0.819050 1.266145
v -0.859533 0.760246 1.241788
v -0.908712 0.779081 1.340921
v -1.227161 0.779081 1.340921
v -0.859533 0.726159 1.305560
v -0.908712 0.725292 1.406463
v -1.227161 0.725292 1.406463
v -0.859533 0.680286 1.361457
v -0.908712 0.659751 1.460252
v -1.227161 0.659751 1.460252
v -0.859533 0.624390 1.407330
v -0.908712 0.584975 1.500220
v -1.227161 0.584975 1.500220
v -0.859533 0.560618 1.441417
v -0.908712 0.503838 1.524833
v -1.227161 0.503838 1.524833
v -0.859533 0.491421 1.462407
v -0.908712 0.419459 1.533144
v -1.227161 0.419459 1.533144
v -0.859533 0.419459 1.469495
v -0.908712 0.335079 1.524833
v -1.227161 0.335079 1.524833
v -0.859533 0.347497 1.462407
v -0.908712 0.253943 1.500220
v -1.227161 0.253943 1.500220
v -0.859533 0.278300 1.441417
v -0.908712 0.179167 1.460252
v -1.227161 0.179167 1.460252
v -0.859533 0.214528 1.407330
v -0.908712 0.113625 1.406463
v -1.227161 0.113625 1.406463
v -0.859533 0.158631 1.361457
v -0.908712 0.059836 1.340921
v -1.227161 0.059836 1.340921
v -0.859533 0.112758 1.305560
v -0.908712 0.019868 1.266145
v -1.227161 0.019868 1.266145
v -0.859533 0.078671 1.241788
v -0.908712 -0.004745 1.185009
v -1.227161 -0.004745 1.185009
v -0.859533 0.057680 1.172591
v -0.908712 -0.013055 1.100629
v -1.227161 -0.013055 1.100629
v -0.859533 0.050593 1.100629
v -0.908712 -0.004745 1.016250
v -1.227161 -0.004745 1.016250
v -0.859533 0.057680 1.028667
v -0.908712 0.019868 0.935113
v -1.227161 0.019868 0.935113
v -0.859533 0.078671 0.959471
v -0.908712 0.059836 0.860337
v -1.227161 0.059836 0.860337
v -0.859533 0.112758 0.895698
v -0.908712 0.113625 0.794796
v -1.227161 0.113625 0.794796
v -0.859533 0.158631 0.839802
v -0.908712 0.179167 0.741007
v -1.227161 0.179167 0.741007
v -0.859533 0.214528 0.793929
v -0.908712 0.253943 0.701038
v -1.227161 0.253943 0.701038
v -0.859533 0.278300 0.759842
v -0.859533 0.347497 0.738851
v -1.273783 0.278300 0.759842
v -1.273783 0.214528 0.793929
v -1.273783 0.158631 0.839802
v -1.273783 0.112758 0.895698
v -1.273783 0.078671 0.959471
v -1.273783 0.057680 1.028667
v -1.273783 0.050593 1.100629
v -1.273783 0.057680 1.172591
v -1.273783 0.078671 1.241788
v -1.273783 0.112758 1.305560
v -1.273783 0.158631 1.361457
v -1.273783 0.214528 1.407330
v -1.273783 0.278300 1.441417
v -1.273783 0.347497 1.462407
v -1.273783 0.419459 1.469495
v -1.273783 0.491421 1.462407
v -1.273783 0.560618 1.441417
v -1.273783 0.624390 1.407330
v -1.273783 0.680286 1.361457
v -1.273783 0.726159 1.305560
v -1.273783 0.760246 1.241788
v -1.273783 0.781237 1.172591
v -1.273783 0.788324 1.100629
v -1.273783 0.781237 1.028667
v -1.273783 0.760246 0.959471
v -1.273783 0.726159 0.895698
v -1.273783 0.680286 0.839802
v -1.273783 0.624390 0.793929
v -1.273783 0.560618 0.759842
vn -0.1839 0.6344 0.7508
vn -0.0477 0.5669 0.8224
vn -1.0000 -0.0000 -0.0000
vn 0.3479 -0.8575 -0.3791
vn 1.0000 -0.0000 -0.0000
vn -0.0954 0.3033 -0.9481
vn -0.0001 0.3047 -0.9524
vn -0.0000 -0.9146 -0.4043
vn -0.0000 0.4312 0.9023
vn -0.0000 0.6454 0.7638
vn -0.0000 0.4488 0.8936
vn -0.0000 -0.0000 -1.0000
vn -0.0213 0.2180 0.9757
vn 0.0575 0.2560 0.9650
vn -0.0000 1.0000 0.0019
vn -0.0000 -1.0000 0.0072
vn -0.0575 0.2560 0.9650
vn 0.0213 0.2180 0.9757
vn 0.1839 0.6344 0.7508
vn 0.0477 0.5669 0.8224
vn 0.0001 0.3047 -0.9524
vn -0.2418 -0.9179 -0.3146
vn 0.0954 0.3033 -0.9481
vn -0.0000 0.0973 0.9953
vn -0.0395 0.0973 0.9945
vn 0.0395 0.0973 0.9945
vn 0.7959 -0.6045 -0.0346
vn -0.0000 0.5451 -0.8384
vn -0.0000 -0.7104 0.7038
vn -0.0000 0.7087 -0.7055
vn -0.1560 0.5384 -0.8281
vn -0.0000 -1.0000 -0.0000
vn -0.0000 1.0000 -0.0000
vn -0.0000 -0.8594 -0.5113
vn -0.0000 0.6653 0.7466
vn -0.7959 -0.6045 -0.0346
vn -0.0000 0.9667 0.2558
vn -0.2500 -0.9491 0.1914
vn -0.0000 -0.9927 -0.1205
vn 0.2698 0.9309 0.2463
vn -0.2698 0.9309 0.2463
vn -0.0000 0.3992 -0.9169
vn -0.0000 -0.9295 0.3688
vn -0.0000 0.9742 -0.2256
vn -0.0000 -0.8893 0.4574
vn -0.0000 -0.9998 0.0181
vn -0.8920 -0.0000 0.4519
vn -0.4752 -0.0000 0.8799
vn -0.0000 -0.0000 1.0000
vn -0.0000 0.1647 0.9863
vn -0.0000 -0.1647 -0.9863
vn -0.0124 0.9999 -0.0000
vn -0.4752 -0.0000 -0.8799
vn -0.0000 -0.9999 -0.0169
vn -0.9038 -0.0000 -0.4280
vn -0.0000 0.9998 0.0181
vn 0.3987 -0.0000 0.9171
vn 0.8920 -0.0000 0.4520
vn 0.0100 -1.0000 -0.0000
vn -0.0000 0.9999 -0.0169
vn 0.9038 -0.0000 -0.4280
vn 0.3987 -0.0000 -0.9171
vn -0.8054 -0.0581 -0.5899
vn -0.8054 0.0581 -0.5899
vn -0.0000 0.0980 -0.9952
vn -0.0000 -0.0980 -0.9952
vn 0.7899 0.0601 -0.6103
vn 0.7899 -0.0601 -0.6103
vn -0.0000 -0.2903 -0.9569
vn 0.7899 -0.1780 -0.5869
vn -0.0000 -0.4714 -0.8819
vn 0.7899 -0.2891 -0.5409
vn -0.0000 -0.6344 -0.7730
vn 0.7899 -0.3891 -0.4741
vn -0.0000 -0.7730 -0.6344
vn 0.7899 -0.4741 -0.3891
vn -0.0000 -0.8819 -0.4714
vn 0.7899 -0.5409 -0.2891
vn -0.0000 -0.9569 -0.2903
vn 0.7899 -0.5869 -0.1780
vn -0.0000 -0.9952 -0.0980
vn 0.7899 -0.6103 -0.0601
vn -0.0000 -0.9952 0.0980
vn 0.7899 -0.6103 0.0601
vn -0.0000 -0.9569 0.2903
vn 0.7899 -0.5869 0.1780
vn -0.0000 -0.8819 0.4714
vn 0.7899 -0.5408 0.2891
vn -0.0000 -0.7730 0.6344
vn 0.7899 -0.4741 0.3891
vn -0.0000 -0.6344 0.7730
vn 0.7899 -0.3891 0.4741
vn -0.0000 -0.4714 0.8819
vn 0.7899 -0.2891 0.5409
vn -0.0000 -0.2903 0.9569
vn 0.7899 -0.1780 0.5869
vn -0.0000 -0.0980 0.9952
vn 0.7899 -0.0601 0.6103
vn -0.0000 0.0980 0.9952
vn 0.7899 0.0601 0.6103
vn -0.0000 0.2903 0.9569
vn 0.7899 0.1780 0.5869
vn -0.0000 0.4714 0.8819
vn 0.7899 0.2891 0.5408
vn -0.0000 0.6344 0.7730
vn 0.7899 0.3890 0.4741
vn -0.0000 0.7730 0.6344
vn 0.7899 0.4741 0.3891
vn -0.0000 0.8819 0.4714
vn 0.7899 0.5408 0.2891
vn -0.0000 0.9569 0.2903
vn 0.7899 0.5869 0.1780
vn -0.0000 0.9952 0.0980
vn 0.7899 0.6103 0.0601
vn -0.0000 0.9952 -0.0980
vn 0.7899 0.6103 -0.0601
vn -0.0000 0.9569 -0.2903
vn 0.7899 0.5869 -0.1780
vn -0.0000 0.8819 -0.4714
vn 0.7899 0.5408 -0.2891
vn -0.0000 0.7730 -0.6344
vn 0.7899 0.4741 -0.3890
vn -0.0000 0.6344 -0.7730
vn 0.7899 0.3890 -0.4741
vn -0.0000 0.4714 -0.8819
vn 0.7899 0.2891 -0.5408
vn -0.0000 0.2903 -0.9569
vn 0.7899 0.1780 -0.5869
vn -0.8054 0.2794 -0.5228
vn -0.8054 0.1721 -0.5673
vn -0.8054 0.3761 -0.4582
vn -0.8054 0.4582 -0.3761
vn -0.8054 0.5228 -0.2794
vn -0.8054 0.5673 -0.1721
vn -0.8054 0.5899 -0.0581
vn -0.8054 0.5899 0.0581
vn -0.8054 0.5673 0.1721
vn -0.8054 0.5228 0.2794
vn -0.8054 0.4582 0.3761
vn -0.8054 0.3761 0.4582
vn -0.8054 0.2794 0.5228
vn -0.8054 0.1721 0.5673
vn -0.8054 0.0581 0.5899
vn -0.8054 -0.0581 0.5899
vn -0.8054 -0.1721 0.5673
vn -0.8054 -0.2794 0.5228
vn -0.8054 -0.3761 0.4582
vn -0.8054 -0.4582 0.3761
vn -0.8054 -0.5228 0.2794
vn -0.8054 -0.5673 0.1721
vn -0.8054 -0.5899 0.0581
vn -0.8054 -0.5899 -0.0581
vn -0.8054 -0.5673 -0.1721
vn -0.8054 -0.5228 -0.2794
vn -0.8054 -0.4582 -0.3761
vn -0.8054 -0.3761 -0.4582
vn -0.8054 -0.2794 -0.5228
vn -0.8054 -0.1721 -0.5673
vn 0.7899 -0.5408 -0.2891
vn 0.7899 -0.5409 0.2891
vn 0.8054 -0.0581 0.5899
vn 0.8054 0.0581 0.5899
vn -0.7899 0.0601 0.6103
vn -0.7899 -0.0601 0.6103
vn -0.7899 -0.1780 0.5869
vn -0.7899 -0.2891 0.5409
vn -0.7899 -0.3890 0.4741
vn -0.7899 -0.4741 0.3891
vn -0.7899 -0.5408 0.2891
vn -0.7899 -0.5869 0.1780
vn -0.7899 -0.6103 0.0601
vn -0.7899 -0.6103 -0.0601
vn -0.7899 -0.5869 -0.1780
vn -0.7899 -0.5409 -0.2891
vn -0.7899 -0.4741 -0.3891
vn -0.7899 -0.3890 -0.4741
vn -0.7899 -0.2891 -0.5408
vn -0.7899 -0.1780 -0.5869
vn -0.7899 -0.0601 -0.6103
vn -0.7899 0.0601 -0.6103
vn -0.7899 0.1780 -0.5869
vn -0.7899 0.2891 -0.5408
vn -0.7899 0.3891 -0.4741
vn -0.7899 0.4741 -0.3890
vn -0.7899 0.5409 -0.2891
vn -0.7899 0.5869 -0.1780
vn -0.7899 0.6103 -0.0601
vn -0.7899 0.6103 0.0601
vn -0.7899 0.5869 0.1780
vn -0.7899 0.5409 0.2891
vn -0.7899 0.4741 0.3890
vn -0.7899 0.3891 0.4741
vn -0.7899 0.2891 0.5408
vn -0.7899 0.1780 0.5869
vn 0.8054 0.2794 0.5228
vn 0.8054 0.1721 0.5673
vn 0.8054 0.3761 0.4582
vn 0.8054 0.4582 0.3761
vn 0.8054 0.5228 0.2794
vn 0.8054 0.5673 0.1721
vn 0.8054 0.5899 0.0581
vn 0.8054 0.5899 -0.0581
vn 0.8054 0.5673 -0.1721
vn 0.8054 0.5228 -0.2794
vn 0.8054 0.4582 -0.3761
vn 0.8054 0.3761 -0.4582
vn 0.8054 0.2794 -0.5228
vn 0.8054 0.1721 -0.5673
vn 0.8054 0.0581 -0.5899
vn 0.8054 -0.0581 -0.5899
vn 0.8054 -0.1721 -0.5673
vn 0.8054 -0.2794 -0.5228
vn 0.8054 -0.3761 -0.4582
vn 0.8054 -0.4582 -0.3761
vn 0.8054 -0.5228 -0.2794
vn 0.8054 -0.5673 -0.1721
vn 0.8054 -0.5899 -0.0581
vn 0.8054 -0.5899 0.0581
vn 0.8054 -0.5673 0.1721
vn 0.8054 -0.5228 0.2794
vn 0.8054 -0.4582 0.3761
vn 0.8054 -0.3761 0.4582
vn 0.8054 -0.2794 0.5228
vn 0.8054 -0.1721 0.5673
vn -0.7899 -0.2891 0.5408
vn -0.7899 -0.5408 -0.2891
vn -0.7899 0.5408 -0.2891
vn -0.7899 0.5408 0.2891
vn -0.1240 0.4278 0.8953
vn 0.2418 -0.9179 -0.3146
vn -0.0000 0.4744 -0.8803
vn -0.0000 0.3049 -0.9524
vn 0.0582 0.2590 0.9641
vn 0.1003 0.4466 0.8891
vn -0.0000 0.4486 0.8937
vn -0.0467 0.5901 0.8060
vn 0.0467 0.5901 0.8060
vn -0.1003 0.4466 0.8891
vn 0.1240 0.4278 0.8953
vn -0.0582 0.2590 0.9641
vn -0.3479 -0.8575 -0.3791
vn 0.0062 0.1517 0.9884
vn -0.0062 0.1517 0.9884
vn 0.1560 0.5384 -0.8281
vn 0.2500 -0.9491 0.1914
vn -0.0124 -0.9999 -0.0000
vn -0.8920 -0.0000 0.4520
vn 0.0100 1.0000 -0.0000
vn 0.7899 0.2891 0.5409
vn 0.7899 0.3891 0.4741
vn 0.7899 0.4741 0.3890
vn 0.7899 0.5409 -0.2891
vn 0.7899 0.4741 -0.3891
vn 0.7899 -0.3890 -0.4741
vn 0.7899 -0.3890 0.4741
vn 0.7899 0.5409 0.2891
vn 0.7899 0.3891 -0.4741
vn 0.7899 0.2891 -0.5409
vn -0.7899 -0.3891 0.4741
vn -0.7899 -0.4741 0.3890
vn -0.7899 -0.4741 -0.3890
vn -0.7899 -0.3891 -0.4741
vn -0.7899 -0.2891 -0.5409
vn -0.7899 0.2891 -0.5409
vn -0.7899 0.3890 -0.4741
vn -0.7899 0.4741 -0.3891
vn -0.7899 0.4741 0.3891
vn -0.7899 0.3890 0.4741
vn -0.7899 0.2891 0.5409
vn -0.7899 -0.5409 0.2891
vt 0.232954 0.859534
vt 0.215712 0.868155
vt 0.215712 0.859534
vt 0.146745 0.919880
vt 0.163987 0.937122
vt 0.146745 0.937122
vt 0.146745 0.721600
vt 0.163987 0.730221
vt 0.146745 0.730221
vt 0.077778 0.859534
vt 0.095020 0.868155
vt 0.077778 0.868155
vt 0.146745 0.859534
vt 0.163987 0.868155
vt 0.146745 0.868155
vt 0.163987 0.781946
vt 0.146745 0.799188
vt 0.146745 0.781946
vt 0.163987 0.747463
vt 0.146745 0.764704
vt 0.146745 0.747463
vt 0.060536 0.859534
vt 0.043294 0.868155
vt 0.043294 0.859534
vt 0.163987 0.885397
vt 0.146745 0.902639
vt 0.146745 0.885397
vt 0.198470 0.859534
vt 0.181229 0.868155
vt 0.181229 0.859534
vt 0.129503 0.885397
vt 0.112261 0.902639
vt 0.112261 0.885397
vt 0.129503 0.747463
vt 0.112261 0.764704
vt 0.112261 0.747463
vt 0.129503 0.781946
vt 0.112261 0.799188
vt 0.112261 0.781946
vt 0.112261 0.859534
vt 0.129503 0.868155
vt 0.112261 0.868155
vt 0.112261 0.721600
vt 0.129503 0.730221
vt 0.112261 0.730221
vt 0.112261 0.919880
vt 0.129503 0.937122
vt 0.112261 0.937122
vt 0.129503 0.902639
vt 0.129503 0.764704
vt 0.129503 0.799188
vt 0.129503 0.859534
vt 0.129503 0.721600
vt 0.072921 0.467096
vt 0.055680 0.484338
vt 0.055680 0.467096
vt 0.129503 0.687116
vt 0.146745 0.695737
vt 0.129503 0.695737
vt 0.146745 0.825051
vt 0.129503 0.833671
vt 0.129503 0.825051
vt 0.112261 0.687116
vt 0.112261 0.695737
vt 0.112261 0.833671
vt 0.112261 0.825051
vt 0.924401 0.519913
vt 0.907160 0.528534
vt 0.907160 0.519913
vt 0.060536 0.825051
vt 0.043294 0.833671
vt 0.043294 0.825051
vt 0.163987 0.825051
vt 0.146745 0.833671
vt 0.095020 0.825051
vt 0.077778 0.833671
vt 0.077778 0.825051
vt 0.146745 0.687116
vt 0.163987 0.695737
vt 0.232954 0.825051
vt 0.215712 0.833671
vt 0.215712 0.825051
vt 0.060536 0.833671
vt 0.181229 0.825051
vt 0.163987 0.833671
vt 0.055680 0.415371
vt 0.072921 0.432613
vt 0.055680 0.432613
vt 0.163987 0.859534
vt 0.060536 0.868155
vt 0.941643 0.519913
vt 0.924401 0.528534
vt 0.026052 0.833671
vt 0.026052 0.825051
vt 0.129503 0.919880
vt 0.026052 0.868155
vt 0.026052 0.859534
vt 0.163987 0.902639
vt 0.198470 0.868155
vt 0.973535 0.789279
vt 0.956294 0.806521
vt 0.956294 0.789279
vt 0.095020 0.919880
vt 0.095020 0.902639
vt 0.095020 0.885397
vt 0.973535 0.823763
vt 0.956294 0.841005
vt 0.956294 0.823763
vt 0.973535 0.884109
vt 0.956294 0.892730
vt 0.956294 0.884109
vt 0.956294 0.746175
vt 0.973535 0.754796
vt 0.956294 0.754796
vt 0.095020 0.937122
vt 0.956294 0.780659
vt 0.956294 0.918593
vt 0.973535 0.927214
vt 0.956294 0.927214
vt 0.973535 0.841005
vt 0.956294 0.858247
vt 0.973535 0.806521
vt 0.973535 0.901351
vt 0.956294 0.909972
vt 0.956294 0.901351
vt 0.956294 0.728933
vt 0.973535 0.737554
vt 0.956294 0.737554
vt 0.941643 0.537155
vt 0.924401 0.545776
vt 0.924401 0.537155
vt 0.043294 0.842292
vt 0.026052 0.850913
vt 0.026052 0.842292
vt 0.077778 0.842292
vt 0.060536 0.850913
vt 0.060536 0.842292
vt 0.181229 0.842292
vt 0.163987 0.850913
vt 0.163987 0.842292
vt 0.163987 0.669874
vt 0.146745 0.678495
vt 0.146745 0.669874
vt 0.112261 0.669874
vt 0.129503 0.678495
vt 0.112261 0.678495
vt 0.129503 0.669874
vt 0.146745 0.842292
vt 0.129503 0.850913
vt 0.129503 0.842292
vt 0.112261 0.850913
vt 0.112261 0.842292
vt 0.907160 0.545776
vt 0.907160 0.537155
vt 0.043294 0.850913
vt 0.146745 0.850913
vt 0.095020 0.842292
vt 0.077778 0.850913
vt 0.215712 0.842292
vt 0.232954 0.850913
vt 0.215712 0.850913
vt 0.973535 0.763417
vt 0.956294 0.772038
vt 0.956294 0.763417
vt 0.973535 0.866868
vt 0.956294 0.875488
vt 0.956294 0.866868
vt 0.043294 0.807809
vt 0.026052 0.816430
vt 0.026052 0.807809
vt 0.368281 0.847181
vt 0.351039 0.855802
vt 0.351039 0.847181
vt 0.181229 0.807809
vt 0.163987 0.816430
vt 0.163987 0.807809
vt 0.077778 0.807809
vt 0.060536 0.816430
vt 0.060536 0.807809
vt 0.232954 0.807809
vt 0.215712 0.816430
vt 0.215712 0.807809
vt 0.095020 0.807809
vt 0.077778 0.816430
vt 0.146745 0.816430
vt 0.146745 0.807809
vt 0.043294 0.816430
vt 0.333797 0.855802
vt 0.333797 0.847181
vt 0.129503 0.807809
vt 0.112261 0.816430
vt 0.112261 0.807809
vt 0.129503 0.816430
vt 0.146745 0.704358
vt 0.129503 0.712979
vt 0.129503 0.704358
vt 0.112261 0.712979
vt 0.112261 0.704358
vt 0.163987 0.704358
vt 0.146745 0.712979
vt 0.368281 0.855802
vt 0.351039 0.864423
vt 0.181229 0.816430
vt 0.232954 0.816430
vt 0.095020 0.816430
vt 0.333797 0.864423
vt 0.146745 0.661254
vt 0.129503 0.661254
vt 0.112261 0.661254
vt 0.163987 0.661254
vt 0.973535 0.720312
vt 0.956294 0.720312
vt 0.973535 0.909972
vt 0.198470 0.850913
vt 0.181229 0.850913
vt 0.095020 0.850913
vt 0.232954 0.833671
vt 0.095020 0.833671
vt 0.181229 0.833671
vt 0.941643 0.528534
vt 0.973535 0.892730
vt 0.973535 0.746175
vt 0.163987 0.687116
vt 0.198470 0.799188
vt 0.181229 0.799188
vt 0.060536 0.799188
vt 0.043294 0.799188
vt 0.163987 0.799188
vt 0.095020 0.799188
vt 0.077778 0.799188
vt 0.232954 0.799188
vt 0.215712 0.799188
vt 0.198470 0.807809
vt 0.026052 0.799188
vt 0.973535 0.858247
vt 0.973535 0.772038
vt 0.163987 0.712979
vt 0.735774 0.809598
vt 0.920333 0.885882
vt 0.246078 0.105814
vt 0.908029 0.118118
vt 0.232954 0.868155
vt 0.163987 0.919880
vt 0.163987 0.721600
vt 0.095020 0.859534
vt 0.163987 0.764704
vt 0.072921 0.484338
vt 0.072921 0.415371
vt 0.973535 0.780659
vt 0.973535 0.918593
vt 0.973535 0.728933
vt 0.941643 0.545776
vt 0.163987 0.678495
vt 0.232954 0.842292
vt 0.973535 0.875488
vt 0.368281 0.864423
s 0
usemtl Material
f 126/1/1 46/2/1 124/3/1
f 52/4/2 7/5/2 19/6/2
f 150/7/3 5/8/3 22/9/3
f 122/10/4 4/11/4 35/12/4
f 120/13/5 3/14/5 21/15/5
f 36/16/6 20/17/6 42/18/6
f 48/19/7 23/20/7 51/21/7
f 117/22/8 47/23/8 123/24/8
f 38/25/9 24/26/9 41/27/9
f 118/28/10 38/29/10 121/30/10
f 39/31/11 59/32/11 64/33/11
f 49/34/12 58/35/12 66/36/12
f 40/37/12 55/38/12 63/39/12
f 125/40/5 15/41/5 56/42/5
f 151/43/3 16/44/3 57/45/3
f 65/46/13 14/47/13 60/48/13
f 41/27/14 18/49/14 39/31/14
f 51/21/12 17/50/12 49/34/12
f 42/18/12 13/51/12 40/37/12
f 119/52/5 21/15/5 15/41/5
f 150/7/3 16/44/3 149/53/3
f 52/54/14 14/55/14 50/56/14
f 133/57/3 34/58/3 32/59/3
f 104/60/5 31/61/5 103/62/5
f 135/63/3 32/59/3 61/64/3
f 103/62/5 62/65/5 109/66/5
f 102/67/15 43/68/15 106/69/15
f 101/70/16 53/71/16 108/72/16
f 100/73/5 33/74/5 104/60/5
f 111/75/16 44/76/16 105/77/16
f 134/78/3 27/79/3 34/58/3
f 110/80/15 54/81/15 107/82/15
f 105/77/16 29/83/16 101/70/16
f 106/84/15 26/85/15 100/73/15
f 17/50/12 42/18/12 40/37/12
f 15/86/17 41/87/17 39/88/17
f 17/50/12 63/39/12 58/35/12
f 15/41/18 64/33/18 56/42/18
f 116/89/19 38/29/19 3/14/19
f 3/14/20 41/27/20 21/15/20
f 23/20/21 36/16/21 42/18/21
f 122/10/8 11/90/8 117/22/8
f 107/91/15 30/92/15 102/67/15
f 108/72/16 25/93/16 99/94/16
f 18/49/17 52/4/17 50/95/17
f 16/44/12 51/21/12 49/34/12
f 59/32/11 50/95/11 65/46/11
f 16/44/12 66/36/12 57/45/12
f 123/24/22 8/96/22 115/97/22
f 22/9/23 48/19/23 51/21/23
f 10/98/9 52/4/9 24/26/9
f 124/3/10 10/99/10 118/28/10
f 57/100/12 45/101/12 6/102/12
f 59/32/24 47/103/24 11/104/24
f 4/11/25 64/33/25 35/105/25
f 58/106/12 37/107/12 9/108/12
f 109/109/5 28/110/5 111/111/5
f 136/112/3 61/113/3 25/114/3
f 65/46/26 8/115/26 47/103/26
f 152/116/3 57/100/3 6/102/3
f 127/117/27 56/118/27 4/119/27
f 63/120/12 2/121/12 37/107/12
f 66/122/12 9/108/12 45/101/12
f 64/33/24 11/104/24 35/105/24
f 146/123/5 74/124/5 132/125/5
f 115/126/3 81/127/3 67/128/3
f 145/129/28 70/130/28 139/131/28
f 144/132/29 67/133/29 136/134/29
f 143/135/29 69/136/29 138/137/29
f 142/138/30 68/139/30 137/140/30
f 126/141/3 76/142/3 129/143/3
f 130/144/3 75/145/3 81/146/3
f 129/143/3 75/145/3 128/147/3
f 141/148/5 71/149/5 140/150/5
f 140/150/5 82/151/5 146/152/5
f 139/131/28 77/153/28 142/154/28
f 138/137/29 79/155/29 144/132/29
f 137/140/5 72/156/5 141/148/5
f 132/157/29 78/158/29 143/135/29
f 145/159/31 73/160/31 80/161/31
f 114/162/3 87/163/3 99/164/3
f 162/165/5 84/166/5 148/167/5
f 161/168/32 87/169/32 152/170/32
f 160/171/33 90/172/33 155/173/33
f 159/174/33 88/175/33 153/176/33
f 158/177/32 89/178/32 154/179/32
f 147/180/33 95/181/33 160/182/33
f 148/183/32 93/184/32 158/177/32
f 153/176/5 92/185/5 157/186/5
f 154/179/32 96/187/32 161/168/32
f 155/173/33 94/188/33 159/189/33
f 156/190/5 97/191/5 162/192/5
f 157/186/5 91/193/5 156/190/5
f 113/194/3 85/195/3 112/196/3
f 112/196/3 98/197/3 114/198/3
f 110/199/3 86/200/3 113/194/3
f 34/58/3 110/199/3 113/194/3
f 61/64/3 112/196/3 114/198/3
f 32/59/3 113/194/3 112/196/3
f 25/114/3 114/162/3 99/164/3
f 84/166/5 109/109/5 111/111/5
f 96/187/34 99/94/34 87/169/34
f 95/201/35 102/202/35 90/172/35
f 94/203/35 100/73/35 88/175/35
f 93/184/34 101/70/34 89/178/34
f 83/204/35 107/82/35 95/181/35
f 84/205/34 105/77/34 93/184/34
f 92/185/5 100/73/5 104/60/5
f 89/178/34 108/72/34 96/187/34
f 90/172/35 106/206/35 94/188/35
f 97/191/5 103/62/5 109/66/5
f 91/193/5 104/60/5 103/62/5
f 19/207/3 128/147/3 14/208/3
f 14/208/3 130/144/3 60/209/3
f 7/210/3 129/143/3 19/207/3
f 60/211/36 115/126/36 8/212/36
f 82/213/5 127/117/5 74/124/5
f 80/161/37 118/28/37 70/214/37
f 67/133/38 123/24/38 115/97/38
f 78/158/39 117/22/39 69/136/39
f 68/139/40 121/30/40 116/89/40
f 71/149/5 120/13/5 119/52/5
f 71/149/5 125/40/5 82/151/5
f 70/214/37 121/30/37 77/215/37
f 69/136/39 123/24/39 79/155/39
f 72/156/5 116/89/5 120/13/5
f 74/216/39 122/10/39 78/158/39
f 73/160/41 124/3/41 80/161/41
f 27/217/42 145/159/42 54/81/42
f 28/218/43 143/135/43 44/76/43
f 26/85/5 141/148/5 33/74/5
f 29/83/43 144/132/43 53/71/43
f 30/92/42 142/154/42 43/68/42
f 31/61/5 146/152/5 62/65/5
f 33/74/5 140/150/5 31/61/5
f 43/219/42 137/140/42 26/85/42
f 44/76/43 138/137/43 29/83/43
f 53/71/43 136/134/43 25/93/43
f 54/220/42 139/131/42 30/92/42
f 62/221/5 132/125/5 28/110/5
f 67/128/3 135/222/3 136/112/3
f 76/142/3 131/223/3 134/78/3
f 81/146/3 133/57/3 135/63/3
f 75/145/3 134/78/3 133/57/3
f 20/17/5 156/190/5 13/51/5
f 13/51/5 162/192/5 55/38/5
f 12/224/44 159/174/44 36/225/44
f 9/226/45 161/168/45 45/227/45
f 1/228/5 157/186/5 20/17/5
f 2/229/45 158/177/45 37/230/45
f 5/231/44 160/182/44 48/232/44
f 37/230/45 154/179/45 9/226/45
f 36/225/44 153/176/44 1/228/44
f 48/232/44 155/233/44 12/224/44
f 45/227/45 152/170/45 6/234/45
f 55/235/5 148/167/5 2/121/5
f 98/236/3 152/116/3 87/163/3
f 86/200/3 149/53/3 85/195/3
f 85/195/3 151/43/3 98/197/3
f 83/237/3 150/7/3 86/200/3
f 167/238/46 163/238/46 164/238/46
f 165/238/47 164/238/47 163/238/47
f 168/238/48 163/238/48 166/238/48
f 171/238/32 166/238/32 167/238/32
f 170/238/49 166/238/49 169/238/49
f 174/238/49 169/238/49 172/238/49
f 175/238/32 169/238/32 171/238/32
f 241/238/49 172/238/49 173/238/49
f 176/238/32 172/238/32 175/238/32
f 177/238/32 171/238/32 232/238/32
f 175/239/50 179/239/50 176/239/50
f 175/239/3 180/239/3 178/239/3
f 181/240/32 178/240/32 180/240/32
f 182/239/51 180/239/51 177/239/51
f 176/239/5 181/239/5 182/239/5
f 185/238/32 182/238/32 184/238/32
f 183/238/32 176/238/32 182/238/32
f 184/238/32 177/238/32 187/238/32
f 249/238/32 184/238/32 186/238/32
f 184/239/5 189/239/5 186/239/5
f 187/239/49 188/239/49 184/239/49
f 189/240/32 190/240/32 191/240/32
f 192/239/3 190/239/3 187/239/3
f 186/239/12 191/239/12 192/239/12
f 192/238/32 231/238/32 193/238/32
f 194/238/32 193/238/32 195/238/32
f 196/238/32 192/238/32 194/238/32
f 199/238/12 194/238/12 195/238/12
f 197/238/12 196/238/12 194/238/12
f 197/238/33 201/238/33 198/238/33
f 199/238/33 200/238/33 197/238/33
f 200/238/33 204/238/33 201/238/33
f 202/238/33 203/238/33 200/238/33
f 203/238/33 207/238/33 204/238/33
f 205/238/33 206/238/33 203/238/33
f 206/238/33 210/238/33 207/238/33
f 208/238/33 209/238/33 206/238/33
f 209/238/33 241/238/33 210/238/33
f 211/238/33 174/238/33 209/238/33
f 212/238/33 170/238/33 211/238/33
f 214/238/33 211/238/33 208/238/33
f 215/238/33 212/238/33 214/238/33
f 212/238/52 165/238/52 168/238/52
f 217/238/33 214/238/33 216/238/33
f 216/238/33 208/238/33 205/238/33
f 219/238/33 216/238/33 218/238/33
f 218/238/33 205/238/33 202/238/33
f 221/238/52 218/238/52 220/238/52
f 220/238/33 202/238/33 199/238/33
f 221/238/53 222/238/53 223/238/53
f 220/238/12 195/238/12 222/238/12
f 223/238/54 224/238/54 225/238/54
f 195/238/32 224/238/32 222/238/32
f 224/238/32 239/238/32 225/238/32
f 193/239/12 227/239/12 224/239/12
f 224/239/3 229/239/3 226/239/3
f 228/240/32 229/240/32 227/240/32
f 226/239/49 230/239/49 231/239/49
f 231/239/5 228/239/5 193/239/5
f 231/238/32 233/238/32 226/238/32
f 187/238/32 232/238/32 231/238/32
f 232/239/51 235/239/51 233/239/51
f 171/239/5 234/239/5 232/239/5
f 234/240/32 237/240/32 235/240/32
f 167/239/50 236/239/50 171/239/50
f 167/239/3 235/239/3 237/239/3
f 226/238/32 238/238/32 239/238/32
f 233/238/32 164/238/32 238/238/32
f 213/238/3 238/238/3 164/238/3
f 215/238/3 239/238/3 238/238/3
f 217/238/3 225/238/3 239/238/3
f 219/238/55 223/238/55 225/238/55
f 210/238/56 242/238/56 240/238/56
f 207/238/33 240/238/33 245/238/33
f 242/238/57 173/238/57 243/238/57
f 240/238/58 243/238/58 244/238/58
f 176/238/59 243/238/59 173/238/59
f 245/238/5 244/238/5 183/238/5
f 204/238/33 245/238/33 246/238/33
f 246/238/5 183/238/5 185/238/5
f 201/238/33 246/238/33 247/238/33
f 247/238/5 185/238/5 249/238/5
f 248/238/60 201/238/60 247/238/60
f 248/238/61 249/238/61 250/238/61
f 250/238/59 186/238/59 196/238/59
f 198/238/62 250/238/62 196/238/62
f 254/240/63 252/240/63 251/240/63
f 353/240/3 253/240/3 365/240/3
f 253/240/64 254/240/64 251/240/64
f 259/240/65 254/240/65 255/240/65
f 257/240/66 256/240/66 254/240/66
f 349/240/67 257/240/67 259/240/67
f 257/240/68 261/240/68 260/240/68
f 260/240/69 263/240/69 256/240/69
f 261/240/70 262/240/70 260/240/70
f 262/240/71 266/240/71 263/240/71
f 264/240/72 265/240/72 262/240/72
f 265/240/73 269/240/73 266/240/73
f 267/240/74 268/240/74 265/240/74
f 268/240/75 272/240/75 269/240/75
f 270/240/76 271/240/76 268/240/76
f 271/240/77 275/240/77 272/240/77
f 271/240/78 276/240/78 274/240/78
f 274/240/79 278/240/79 275/240/79
f 274/240/80 279/240/80 277/240/80
f 277/240/81 281/240/81 278/240/81
f 279/240/82 280/240/82 277/240/82
f 280/240/83 284/240/83 281/240/83
f 280/240/84 285/240/84 283/240/84
f 283/240/85 287/240/85 284/240/85
f 285/240/86 286/240/86 283/240/86
f 286/240/87 290/240/87 287/240/87
f 288/240/88 289/240/88 286/240/88
f 289/240/89 293/240/89 290/240/89
f 289/240/90 294/240/90 292/240/90
f 292/240/91 296/240/91 293/240/91
f 294/240/92 295/240/92 292/240/92
f 295/240/93 299/240/93 296/240/93
f 297/240/94 298/240/94 295/240/94
f 299/240/95 301/240/95 302/240/95
f 298/240/96 303/240/96 301/240/96
f 302/240/97 304/240/97 305/240/97
f 301/240/98 306/240/98 304/240/98
f 305/240/99 307/240/99 308/240/99
f 306/240/100 307/240/100 304/240/100
f 307/240/101 311/240/101 308/240/101
f 309/240/102 310/240/102 307/240/102
f 310/240/103 314/240/103 311/240/103
f 310/240/104 315/240/104 313/240/104
f 313/240/105 317/240/105 314/240/105
f 313/240/106 318/240/106 316/240/106
f 316/240/107 320/240/107 317/240/107
f 318/240/108 319/240/108 316/240/108
f 319/240/109 323/240/109 320/240/109
f 319/240/110 324/240/110 322/240/110
f 322/240/111 326/240/111 323/240/111
f 324/240/112 325/240/112 322/240/112
f 325/240/113 329/240/113 326/240/113
f 325/240/114 330/240/114 328/240/114
f 328/240/115 332/240/115 329/240/115
f 330/240/116 331/240/116 328/240/116
f 331/240/117 335/240/117 332/240/117
f 331/240/118 336/240/118 334/240/118
f 334/240/119 338/240/119 335/240/119
f 336/240/120 337/240/120 334/240/120
f 337/240/121 341/240/121 338/240/121
f 339/240/122 340/240/122 337/240/122
f 340/240/123 344/240/123 341/240/123
f 342/240/124 343/240/124 340/240/124
f 343/240/125 347/240/125 344/240/125
f 345/240/126 346/240/126 343/240/126
f 347/240/127 259/240/127 255/240/127
f 346/240/128 349/240/128 259/240/128
f 336/241/5 312/241/5 288/241/5
f 344/240/129 350/240/129 351/240/129
f 347/240/130 253/240/130 350/240/130
f 341/240/131 351/240/131 352/240/131
f 353/240/132 341/240/132 352/240/132
f 354/240/133 338/240/133 353/240/133
f 332/240/134 354/240/134 355/240/134
f 356/240/135 332/240/135 355/240/135
f 326/240/136 356/240/136 357/240/136
f 358/240/137 326/240/137 357/240/137
f 320/240/138 358/240/138 359/240/138
f 317/240/139 359/240/139 360/240/139
f 314/240/140 360/240/140 361/240/140
f 311/240/141 361/240/141 362/240/141
f 363/240/142 311/240/142 362/240/142
f 364/240/143 308/240/143 363/240/143
f 302/240/144 364/240/144 365/240/144
f 299/240/145 365/240/145 366/240/145
f 367/240/146 299/240/146 366/240/146
f 368/240/147 296/240/147 367/240/147
f 290/240/148 368/240/148 369/240/148
f 370/240/149 290/240/149 369/240/149
f 371/240/150 287/240/150 370/240/150
f 281/240/151 371/240/151 372/240/151
f 373/240/152 281/240/152 372/240/152
f 275/240/153 373/240/153 374/240/153
f 272/240/154 374/240/154 375/240/154
f 269/240/155 375/240/155 376/240/155
f 266/240/156 376/240/156 377/240/156
f 378/240/157 266/240/157 377/240/157
f 252/240/158 263/240/158 378/240/158
f 382/240/63 380/240/63 379/240/63
f 481/240/3 381/240/3 493/240/3
f 381/240/64 382/240/64 379/240/64
f 387/240/65 382/240/65 383/240/65
f 385/240/66 384/240/66 382/240/66
f 477/240/67 385/240/67 387/240/67
f 385/240/68 389/240/68 388/240/68
f 388/240/69 391/240/69 384/240/69
f 389/240/70 390/240/70 388/240/70
f 390/240/71 394/240/71 391/240/71
f 392/240/72 393/240/72 390/240/72
f 393/240/73 397/240/73 394/240/73
f 395/240/74 396/240/74 393/240/74
f 396/240/75 400/240/75 397/240/75
f 398/240/76 399/240/76 396/240/76
f 399/240/77 403/240/77 400/240/77
f 399/240/159 404/240/159 402/240/159
f 402/240/79 406/240/79 403/240/79
f 402/240/80 407/240/80 405/240/80
f 405/240/81 409/240/81 406/240/81
f 405/240/82 410/240/82 408/240/82
f 408/240/83 412/240/83 409/240/83
f 408/240/84 413/240/84 411/240/84
f 411/240/85 415/240/85 412/240/85
f 413/240/86 414/240/86 411/240/86
f 414/240/87 418/240/87 415/240/87
f 416/240/160 417/240/160 414/240/160
f 417/240/89 421/240/89 418/240/89
f 417/240/90 422/240/90 420/240/90
f 420/240/91 424/240/91 421/240/91
f 420/240/92 425/240/92 423/240/92
f 423/240/93 427/240/93 424/240/93
f 425/240/94 426/240/94 423/240/94
f 427/240/95 429/240/95 430/240/95
f 426/240/96 431/240/96 429/240/96
f 430/240/97 432/240/97 433/240/97
f 429/240/98 434/240/98 432/240/98
f 433/240/99 435/240/99 436/240/99
f 434/240/100 435/240/100 432/240/100
f 435/240/101 439/240/101 436/240/101
f 437/240/102 438/240/102 435/240/102
f 438/240/103 442/240/103 439/240/103
f 438/240/104 443/240/104 441/240/104
f 441/240/105 445/240/105 442/240/105
f 441/240/106 446/240/106 444/240/106
f 444/240/107 448/240/107 445/240/107
f 446/240/108 447/240/108 444/240/108
f 447/240/109 451/240/109 448/240/109
f 447/240/110 452/240/110 450/240/110
f 450/240/111 454/240/111 451/240/111
f 452/240/112 453/240/112 450/240/112
f 453/240/113 457/240/113 454/240/113
f 455/240/114 456/240/114 453/240/114
f 456/240/115 460/240/115 457/240/115
f 458/240/116 459/240/116 456/240/116
f 459/240/117 463/240/117 460/240/117
f 461/240/118 462/240/118 459/240/118
f 462/240/119 466/240/119 463/240/119
f 464/240/120 465/240/120 462/240/120
f 465/240/121 469/240/121 466/240/121
f 467/240/122 468/240/122 465/240/122
f 468/240/123 472/240/123 469/240/123
f 470/240/124 471/240/124 468/240/124
f 471/240/125 475/240/125 472/240/125
f 471/240/126 476/240/126 474/240/126
f 475/240/127 387/240/127 383/240/127
f 474/240/128 477/240/128 387/240/128
f 440/241/5 416/241/5 392/241/5
f 472/240/129 478/240/129 479/240/129
f 475/240/130 381/240/130 478/240/130
f 469/240/131 479/240/131 480/240/131
f 466/240/132 480/240/132 481/240/132
f 482/240/133 466/240/133 481/240/133
f 483/240/134 463/240/134 482/240/134
f 484/240/135 460/240/135 483/240/135
f 485/240/136 457/240/136 484/240/136
f 486/240/137 454/240/137 485/240/137
f 448/240/138 486/240/138 487/240/138
f 488/240/139 448/240/139 487/240/139
f 489/240/140 445/240/140 488/240/140
f 439/240/141 489/240/141 490/240/141
f 491/240/142 439/240/142 490/240/142
f 433/240/143 491/240/143 492/240/143
f 430/240/144 492/240/144 493/240/144
f 427/240/145 493/240/145 494/240/145
f 495/240/146 427/240/146 494/240/146
f 496/240/147 424/240/147 495/240/147
f 418/240/148 496/240/148 497/240/148
f 498/240/149 418/240/149 497/240/149
f 499/240/150 415/240/150 498/240/150
f 409/240/151 499/240/151 500/240/151
f 406/240/152 500/240/152 501/240/152
f 403/240/153 501/240/153 502/240/153
f 400/240/154 502/240/154 503/240/154
f 504/240/155 400/240/155 503/240/155
f 394/240/156 504/240/156 505/240/156
f 506/240/157 394/240/157 505/240/157
f 380/240/158 391/240/158 506/240/158
f 510/240/161 508/240/161 507/240/161
f 609/241/5 509/241/5 621/241/5
f 509/240/162 510/240/162 507/240/162
f 511/240/99 513/240/99 510/240/99
f 510/240/97 516/240/97 512/240/97
f 605/240/163 513/240/163 515/240/163
f 513/240/164 517/240/164 516/240/164
f 512/240/95 518/240/95 519/240/95
f 517/240/165 518/240/165 516/240/165
f 518/240/93 522/240/93 519/240/93
f 520/240/166 521/240/166 518/240/166
f 521/240/91 525/240/91 522/240/91
f 521/240/167 526/240/167 524/240/167
f 524/240/89 528/240/89 525/240/89
f 524/240/168 529/240/168 527/240/168
f 527/240/87 531/240/87 528/240/87
f 527/240/169 532/240/169 530/240/169
f 530/240/85 534/240/85 531/240/85
f 530/240/170 535/240/170 533/240/170
f 533/240/83 537/240/83 534/240/83
f 533/240/171 538/240/171 536/240/171
f 536/240/81 540/240/81 537/240/81
f 538/240/172 539/240/172 536/240/172
f 539/240/79 543/240/79 540/240/79
f 539/240/173 544/240/173 542/240/173
f 542/240/77 546/240/77 543/240/77
f 544/240/174 545/240/174 542/240/174
f 545/240/75 549/240/75 546/240/75
f 547/240/175 548/240/175 545/240/175
f 549/240/73 551/240/73 552/240/73
f 550/240/176 551/240/176 548/240/176
f 551/240/71 555/240/71 552/240/71
f 553/240/177 554/240/177 551/240/177
f 554/240/69 558/240/69 555/240/69
f 554/240/178 559/240/178 557/240/178
f 557/240/66 561/240/66 558/240/66
f 557/240/179 562/240/179 560/240/179
f 560/240/65 564/240/65 561/240/65
f 562/240/180 563/240/180 560/240/180
f 563/240/127 567/240/127 564/240/127
f 565/240/181 566/240/181 563/240/181
f 566/240/125 570/240/125 567/240/125
f 566/240/182 571/240/182 569/240/182
f 570/240/123 572/240/123 573/240/123
f 571/240/183 572/240/183 569/240/183
f 572/240/121 576/240/121 573/240/121
f 574/240/184 575/240/184 572/240/184
f 575/240/119 579/240/119 576/240/119
f 575/240/185 580/240/185 578/240/185
f 578/240/117 582/240/117 579/240/117
f 578/240/186 583/240/186 581/240/186
f 581/240/115 585/240/115 582/240/115
f 581/240/187 586/240/187 584/240/187
f 584/240/113 588/240/113 585/240/113
f 586/240/188 587/240/188 584/240/188
f 587/240/111 591/240/111 588/240/111
f 589/240/189 590/240/189 587/240/189
f 590/240/109 594/240/109 591/240/109
f 592/240/190 593/240/190 590/240/190
f 593/240/107 597/240/107 594/240/107
f 593/240/191 598/240/191 596/240/191
f 596/240/105 600/240/105 597/240/105
f 596/240/192 601/240/192 599/240/192
f 599/240/103 603/240/103 600/240/103
f 599/240/193 604/240/193 602/240/193
f 603/240/101 515/240/101 511/240/101
f 602/240/194 605/240/194 515/240/194
f 532/240/3 520/240/3 568/240/3
f 600/240/195 606/240/195 607/240/195
f 603/240/196 509/240/196 606/240/196
f 597/240/197 607/240/197 608/240/197
f 594/240/198 608/240/198 609/240/198
f 610/240/199 594/240/199 609/240/199
f 611/240/200 591/240/200 610/240/200
f 612/240/201 588/240/201 611/240/201
f 613/240/202 585/240/202 612/240/202
f 579/240/203 613/240/203 614/240/203
f 576/240/204 614/240/204 615/240/204
f 616/240/205 576/240/205 615/240/205
f 617/240/206 573/240/206 616/240/206
f 567/240/207 617/240/207 618/240/207
f 619/240/208 567/240/208 618/240/208
f 620/240/209 564/240/209 619/240/209
f 558/240/210 620/240/210 621/240/210
f 555/240/211 621/240/211 622/240/211
f 623/240/212 555/240/212 622/240/212
f 549/240/213 623/240/213 624/240/213
f 546/240/214 624/240/214 625/240/214
f 626/240/215 546/240/215 625/240/215
f 540/240/216 626/240/216 627/240/216
f 537/240/217 627/240/217 628/240/217
f 534/240/218 628/240/218 629/240/218
f 531/240/219 629/240/219 630/240/219
f 528/240/220 630/240/220 631/240/220
f 632/240/221 528/240/221 631/240/221
f 633/240/222 525/240/222 632/240/222
f 634/240/223 522/240/223 633/240/223
f 508/240/224 519/240/224 634/240/224
f 638/240/161 636/240/161 635/240/161
f 749/241/5 741/241/5 637/241/5
f 637/240/162 638/240/162 635/240/162
f 639/240/99 641/240/99 638/240/99
f 638/240/97 644/240/97 640/240/97
f 733/240/163 641/240/163 643/240/163
f 641/240/164 645/240/164 644/240/164
f 640/240/95 646/240/95 647/240/95
f 645/240/165 646/240/165 644/240/165
f 646/240/93 650/240/93 647/240/93
f 646/240/225 651/240/225 649/240/225
f 649/240/91 653/240/91 650/240/91
f 649/240/167 654/240/167 652/240/167
f 652/240/89 656/240/89 653/240/89
f 652/240/168 657/240/168 655/240/168
f 655/240/87 659/240/87 656/240/87
f 655/240/169 660/240/169 658/240/169
f 658/240/85 662/240/85 659/240/85
f 660/240/170 661/240/170 658/240/170
f 661/240/83 665/240/83 662/240/83
f 661/240/171 666/240/171 664/240/171
f 664/240/81 668/240/81 665/240/81
f 666/240/172 667/240/172 664/240/172
f 667/240/79 671/240/79 668/240/79
f 669/240/173 670/240/173 667/240/173
f 670/240/77 674/240/77 671/240/77
f 672/240/226 673/240/226 670/240/226
f 673/240/75 677/240/75 674/240/75
f 675/240/175 676/240/175 673/240/175
f 677/240/73 679/240/73 680/240/73
f 678/240/176 679/240/176 676/240/176
f 679/240/71 683/240/71 680/240/71
f 681/240/177 682/240/177 679/240/177
f 682/240/69 686/240/69 683/240/69
f 682/240/178 687/240/178 685/240/178
f 685/240/66 689/240/66 686/240/66
f 685/240/179 690/240/179 688/240/179
f 688/240/65 692/240/65 689/240/65
f 690/240/180 691/240/180 688/240/180
f 691/240/127 695/240/127 692/240/127
f 693/240/181 694/240/181 691/240/181
f 694/240/125 698/240/125 695/240/125
f 694/240/182 699/240/182 697/240/182
f 698/240/123 700/240/123 701/240/123
f 697/240/183 702/240/183 700/240/183
f 700/240/121 704/240/121 701/240/121
f 702/240/184 703/240/184 700/240/184
f 703/240/119 707/240/119 704/240/119
f 703/240/227 708/240/227 706/240/227
f 706/240/117 710/240/117 707/240/117
f 706/240/186 711/240/186 709/240/186
f 709/240/115 713/240/115 710/240/115
f 709/240/187 714/240/187 712/240/187
f 712/240/113 716/240/113 713/240/113
f 714/240/188 715/240/188 712/240/188
f 715/240/111 719/240/111 716/240/111
f 717/240/189 718/240/189 715/240/189
f 718/240/109 722/240/109 719/240/109
f 720/240/228 721/240/228 718/240/228
f 721/240/107 725/240/107 722/240/107
f 723/240/191 724/240/191 721/240/191
f 724/240/105 728/240/105 725/240/105
f 724/240/192 729/240/192 727/240/192
f 727/240/103 731/240/103 728/240/103
f 727/240/193 732/240/193 730/240/193
f 731/240/101 643/240/101 639/240/101
f 730/240/194 733/240/194 643/240/194
f 660/240/3 648/240/3 696/240/3
f 728/240/195 734/240/195 735/240/195
f 731/240/196 637/240/196 734/240/196
f 725/240/197 735/240/197 736/240/197
f 737/240/198 725/240/198 736/240/198
f 738/240/199 722/240/199 737/240/199
f 739/240/200 719/240/200 738/240/200
f 713/240/201 739/240/201 740/240/201
f 741/240/202 713/240/202 740/240/202
f 707/240/203 741/240/203 742/240/203
f 704/240/204 742/240/204 743/240/204
f 744/240/205 704/240/205 743/240/205
f 698/240/206 744/240/206 745/240/206
f 695/240/207 745/240/207 746/240/207
f 747/240/208 695/240/208 746/240/208
f 748/240/209 692/240/209 747/240/209
f 686/240/210 748/240/210 749/240/210
f 683/240/211 749/240/211 750/240/211
f 751/240/212 683/240/212 750/240/212
f 752/240/213 680/240/213 751/240/213
f 674/240/214 752/240/214 753/240/214
f 754/240/215 674/240/215 753/240/215
f 668/240/216 754/240/216 755/240/216
f 756/240/217 668/240/217 755/240/217
f 662/240/218 756/240/218 757/240/218
f 758/240/219 662/240/219 757/240/219
f 656/240/220 758/240/220 759/240/220
f 653/240/221 759/240/221 760/240/221
f 761/240/222 653/240/222 760/240/222
f 762/240/223 650/240/223 761/240/223
f 636/240/224 647/240/224 762/240/224
f 126/1/1 7/242/1 46/2/1
f 52/4/229 46/243/229 7/5/229
f 150/7/3 147/244/3 5/8/3
f 122/10/230 127/245/230 4/11/230
f 120/13/5 116/89/5 3/14/5
f 36/16/231 1/228/231 20/17/231
f 48/19/232 12/246/232 23/20/232
f 117/22/8 11/90/8 47/23/8
f 38/25/9 10/98/9 24/26/9
f 118/28/10 10/99/10 38/29/10
f 39/31/233 18/49/233 59/32/233
f 49/34/12 17/50/12 58/35/12
f 40/37/12 13/51/12 55/38/12
f 125/40/5 119/52/5 15/41/5
f 151/43/3 149/53/3 16/44/3
f 65/46/234 50/95/234 14/47/234
f 41/27/235 24/26/235 18/49/235
f 51/21/12 23/20/12 17/50/12
f 42/18/12 20/17/12 13/51/12
f 119/52/5 120/13/5 21/15/5
f 150/7/3 22/9/3 16/44/3
f 52/54/236 19/247/236 14/55/236
f 133/57/3 134/78/3 34/58/3
f 104/60/5 33/74/5 31/61/5
f 135/63/3 133/57/3 32/59/3
f 103/62/5 31/61/5 62/65/5
f 102/67/15 30/92/15 43/68/15
f 101/70/16 29/83/16 53/71/16
f 100/73/5 26/85/5 33/74/5
f 111/75/16 28/218/16 44/76/16
f 134/78/3 131/223/3 27/79/3
f 110/80/15 27/217/15 54/81/15
f 105/77/16 44/76/16 29/83/16
f 106/84/15 43/219/15 26/85/15
f 17/50/12 23/20/12 42/18/12
f 15/86/237 21/248/237 41/87/237
f 17/50/12 40/37/12 63/39/12
f 15/41/238 39/31/238 64/33/238
f 116/89/19 121/30/19 38/29/19
f 3/14/239 38/25/239 41/27/239
f 23/20/232 12/246/232 36/16/232
f 122/10/8 35/12/8 11/90/8
f 107/91/15 54/220/15 30/92/15
f 108/72/16 53/71/16 25/93/16
f 18/49/235 24/26/235 52/4/235
f 16/44/12 22/9/12 51/21/12
f 59/32/240 18/49/240 50/95/240
f 16/44/12 49/34/12 66/36/12
f 123/24/241 47/23/241 8/96/241
f 22/9/231 5/8/231 48/19/231
f 10/98/9 46/243/9 52/4/9
f 124/3/10 46/2/10 10/99/10
f 57/100/12 66/122/12 45/101/12
f 59/32/24 65/46/24 47/103/24
f 4/11/242 56/42/242 64/33/242
f 58/106/12 63/120/12 37/107/12
f 109/109/5 62/221/5 28/110/5
f 136/112/3 135/222/3 61/113/3
f 65/46/243 60/48/243 8/115/243
f 152/116/3 151/249/3 57/100/3
f 127/117/5 125/250/5 56/118/5
f 63/120/12 55/235/12 2/121/12
f 66/122/12 58/106/12 9/108/12
f 64/33/24 59/32/24 11/104/24
f 146/123/5 82/213/5 74/124/5
f 115/126/3 130/251/3 81/127/3
f 145/129/28 80/252/28 70/130/28
f 144/132/29 79/155/29 67/133/29
f 143/135/29 78/158/29 69/136/29
f 142/138/244 77/215/244 68/139/244
f 126/141/3 73/253/3 76/142/3
f 130/144/3 128/147/3 75/145/3
f 129/143/3 76/142/3 75/145/3
f 141/148/5 72/156/5 71/149/5
f 140/150/5 71/149/5 82/151/5
f 139/131/28 70/130/28 77/153/28
f 138/137/29 69/136/29 79/155/29
f 137/140/5 68/139/5 72/156/5
f 132/157/29 74/216/29 78/158/29
f 145/159/30 131/254/30 73/160/30
f 114/162/3 98/236/3 87/163/3
f 162/165/5 97/255/5 84/166/5
f 161/168/32 96/187/32 87/169/32
f 160/171/33 95/201/33 90/172/33
f 159/174/33 94/203/33 88/175/33
f 158/177/32 93/184/32 89/178/32
f 147/180/33 83/204/33 95/181/33
f 148/183/32 84/205/32 93/184/32
f 153/176/5 88/175/5 92/185/5
f 154/179/32 89/178/32 96/187/32
f 155/173/33 90/172/33 94/188/33
f 156/190/5 91/193/5 97/191/5
f 157/186/5 92/185/5 91/193/5
f 113/194/3 86/200/3 85/195/3
f 112/196/3 85/195/3 98/197/3
f 110/199/3 83/237/3 86/200/3
f 34/58/3 27/79/3 110/199/3
f 61/64/3 32/59/3 112/196/3
f 32/59/3 34/58/3 113/194/3
f 25/114/3 61/113/3 114/162/3
f 84/166/5 97/255/5 109/109/5
f 96/187/34 108/72/34 99/94/34
f 95/201/35 107/256/35 102/202/35
f 94/203/35 106/84/35 100/73/35
f 93/184/34 105/77/34 101/70/34
f 83/204/35 110/80/35 107/82/35
f 84/205/34 111/75/34 105/77/34
f 92/185/5 88/175/5 100/73/5
f 89/178/34 101/70/34 108/72/34
f 90/172/35 102/202/35 106/206/35
f 97/191/5 91/193/5 103/62/5
f 91/193/5 92/185/5 104/60/5
f 19/207/3 129/143/3 128/147/3
f 14/208/3 128/147/3 130/144/3
f 7/210/3 126/141/3 129/143/3
f 60/211/3 130/251/3 115/126/3
f 82/213/5 125/250/5 127/117/5
f 80/161/37 124/3/37 118/28/37
f 67/133/39 79/155/39 123/24/39
f 78/158/39 122/10/39 117/22/39
f 68/139/40 77/215/40 121/30/40
f 71/149/5 72/156/5 120/13/5
f 71/149/5 119/52/5 125/40/5
f 70/214/37 118/28/37 121/30/37
f 69/136/39 117/22/39 123/24/39
f 72/156/5 68/139/5 116/89/5
f 74/216/245 127/245/245 122/10/245
f 73/160/41 126/1/41 124/3/41
f 27/217/42 131/254/42 145/159/42
f 28/218/43 132/157/43 143/135/43
f 26/85/5 137/140/5 141/148/5
f 29/83/43 138/137/43 144/132/43
f 30/92/42 139/131/42 142/154/42
f 31/61/5 140/150/5 146/152/5
f 33/74/5 141/148/5 140/150/5
f 43/219/42 142/138/42 137/140/42
f 44/76/43 143/135/43 138/137/43
f 53/71/43 144/132/43 136/134/43
f 54/220/42 145/129/42 139/131/42
f 62/221/5 146/123/5 132/125/5
f 67/128/3 81/127/3 135/222/3
f 76/142/3 73/253/3 131/223/3
f 81/146/3 75/145/3 133/57/3
f 75/145/3 76/142/3 134/78/3
f 20/17/5 157/186/5 156/190/5
f 13/51/5 156/190/5 162/192/5
f 12/224/44 155/233/44 159/174/44
f 9/226/45 154/179/45 161/168/45
f 1/228/5 153/176/5 157/186/5
f 2/229/45 148/183/45 158/177/45
f 5/231/44 147/180/44 160/182/44
f 37/230/45 158/177/45 154/179/45
f 36/225/44 159/174/44 153/176/44
f 48/232/44 160/182/44 155/233/44
f 45/227/45 161/168/45 152/170/45
f 55/235/5 162/165/5 148/167/5
f 98/236/3 151/249/3 152/116/3
f 86/200/3 150/7/3 149/53/3
f 85/195/3 149/53/3 151/43/3
f 83/237/3 147/244/3 150/7/3
f 167/238/246 166/238/246 163/238/246
f 165/238/247 213/238/247 164/238/247
f 168/238/48 165/238/48 163/238/48
f 171/238/32 169/238/32 166/238/32
f 170/238/49 168/238/49 166/238/49
f 174/238/49 170/238/49 169/238/49
f 175/238/32 172/238/32 169/238/32
f 241/238/49 174/238/49 172/238/49
f 176/238/32 173/238/32 172/238/32
f 177/238/32 175/238/32 171/238/32
f 175/239/50 178/239/50 179/239/50
f 175/239/3 177/239/3 180/239/3
f 181/240/32 179/240/32 178/240/32
f 182/239/51 181/239/51 180/239/51
f 176/239/5 179/239/5 181/239/5
f 185/238/32 183/238/32 182/238/32
f 183/238/32 244/238/32 176/238/32
f 184/238/32 182/238/32 177/238/32
f 249/238/32 185/238/32 184/238/32
f 184/239/5 188/239/5 189/239/5
f 187/239/49 190/239/49 188/239/49
f 189/240/32 188/240/32 190/240/32
f 192/239/3 191/239/3 190/239/3
f 186/239/12 189/239/12 191/239/12
f 192/238/32 187/238/32 231/238/32
f 194/238/32 192/238/32 193/238/32
f 196/238/32 186/238/32 192/238/32
f 199/238/12 197/238/12 194/238/12
f 197/238/12 198/238/12 196/238/12
f 197/238/33 200/238/33 201/238/33
f 199/238/33 202/238/33 200/238/33
f 200/238/33 203/238/33 204/238/33
f 202/238/33 205/238/33 203/238/33
f 203/238/33 206/238/33 207/238/33
f 205/238/33 208/238/33 206/238/33
f 206/238/33 209/238/33 210/238/33
f 208/238/33 211/238/33 209/238/33
f 209/238/33 174/238/33 241/238/33
f 211/238/33 170/238/33 174/238/33
f 212/238/33 168/238/33 170/238/33
f 214/238/33 212/238/33 211/238/33
f 215/238/33 213/238/33 212/238/33
f 212/238/56 213/238/56 165/238/56
f 217/238/33 215/238/33 214/238/33
f 216/238/33 214/238/33 208/238/33
f 219/238/33 217/238/33 216/238/33
f 218/238/33 216/238/33 205/238/33
f 221/238/60 219/238/60 218/238/60
f 220/238/33 218/238/33 202/238/33
f 221/238/53 220/238/53 222/238/53
f 220/238/12 199/238/12 195/238/12
f 223/238/246 222/238/246 224/238/246
f 195/238/32 193/238/32 224/238/32
f 224/238/32 226/238/32 239/238/32
f 193/239/12 228/239/12 227/239/12
f 224/239/3 227/239/3 229/239/3
f 228/240/32 230/240/32 229/240/32
f 226/239/49 229/239/49 230/239/49
f 231/239/5 230/239/5 228/239/5
f 231/238/32 232/238/32 233/238/32
f 187/238/32 177/238/32 232/238/32
f 232/239/51 234/239/51 235/239/51
f 171/239/5 236/239/5 234/239/5
f 234/240/32 236/240/32 237/240/32
f 167/239/50 237/239/50 236/239/50
f 167/239/3 233/239/3 235/239/3
f 226/238/32 233/238/32 238/238/32
f 233/238/32 167/238/32 164/238/32
f 213/238/3 215/238/3 238/238/3
f 215/238/3 217/238/3 239/238/3
f 217/238/3 219/238/3 225/238/3
f 219/238/55 221/238/55 223/238/55
f 210/238/248 241/238/248 242/238/248
f 207/238/33 210/238/33 240/238/33
f 242/238/57 241/238/57 173/238/57
f 240/238/58 242/238/58 243/238/58
f 176/238/46 244/238/46 243/238/46
f 245/238/5 240/238/5 244/238/5
f 204/238/33 207/238/33 245/238/33
f 246/238/5 245/238/5 183/238/5
f 201/238/33 204/238/33 246/238/33
f 247/238/5 246/238/5 185/238/5
f 248/238/248 198/238/248 201/238/248
f 248/238/61 247/238/61 249/238/61
f 250/238/54 249/238/54 186/238/54
f 198/238/62 248/238/62 250/238/62
f 254/240/63 256/240/63 252/240/63
f 253/240/3 251/240/3 377/240/3
f 251/240/3 252/240/3 377/240/3
f 252/240/3 378/240/3 377/240/3
f 377/240/3 376/240/3 375/240/3
f 375/240/3 374/240/3 377/240/3
f 374/240/3 373/240/3 377/240/3
f 373/240/3 372/240/3 369/240/3
f 372/240/3 371/240/3 369/240/3
f 371/240/3 370/240/3 369/240/3
f 369/240/3 368/240/3 367/240/3
f 367/240/3 366/240/3 365/240/3
f 365/240/3 364/240/3 363/240/3
f 363/240/3 362/240/3 361/240/3
f 361/240/3 360/240/3 359/240/3
f 359/240/3 358/240/3 357/240/3
f 357/240/3 356/240/3 355/240/3
f 355/240/3 354/240/3 353/240/3
f 353/240/3 352/240/3 253/240/3
f 352/240/3 351/240/3 253/240/3
f 351/240/3 350/240/3 253/240/3
f 369/240/3 367/240/3 365/240/3
f 365/240/3 363/240/3 361/240/3
f 361/240/3 359/240/3 365/240/3
f 359/240/3 357/240/3 365/240/3
f 357/240/3 355/240/3 353/240/3
f 253/240/3 377/240/3 373/240/3
f 373/240/3 369/240/3 253/240/3
f 369/240/3 365/240/3 253/240/3
f 357/240/3 353/240/3 365/240/3
f 253/240/64 255/240/64 254/240/64
f 259/240/65 257/240/65 254/240/65
f 257/240/66 260/240/66 256/240/66
f 349/240/67 258/240/67 257/240/67
f 257/240/68 258/240/68 261/240/68
f 260/240/69 262/240/69 263/240/69
f 261/240/70 264/240/70 262/240/70
f 262/240/71 265/240/71 266/240/71
f 264/240/72 267/240/72 265/240/72
f 265/240/73 268/240/73 269/240/73
f 267/240/74 270/240/74 268/240/74
f 268/240/75 271/240/75 272/240/75
f 270/240/76 273/240/76 271/240/76
f 271/240/77 274/240/77 275/240/77
f 271/240/78 273/240/78 276/240/78
f 274/240/79 277/240/79 278/240/79
f 274/240/80 276/240/80 279/240/80
f 277/240/81 280/240/81 281/240/81
f 279/240/82 282/240/82 280/240/82
f 280/240/83 283/240/83 284/240/83
f 280/240/84 282/240/84 285/240/84
f 283/240/85 286/240/85 287/240/85
f 285/240/86 288/240/86 286/240/86
f 286/240/87 289/240/87 290/240/87
f 288/240/160 291/240/160 289/240/160
f 289/240/89 292/240/89 293/240/89
f 289/240/90 291/240/90 294/240/90
f 292/240/91 295/240/91 296/240/91
f 294/240/92 297/240/92 295/240/92
f 295/240/93 298/240/93 299/240/93
f 297/240/94 300/240/94 298/240/94
f 299/240/95 298/240/95 301/240/95
f 298/240/96 300/240/96 303/240/96
f 302/240/97 301/240/97 304/240/97
f 301/240/98 303/240/98 306/240/98
f 305/240/99 304/240/99 307/240/99
f 306/240/100 309/240/100 307/240/100
f 307/240/101 310/240/101 311/240/101
f 309/240/102 312/240/102 310/240/102
f 310/240/103 313/240/103 314/240/103
f 310/240/249 312/240/249 315/240/249
f 313/240/105 316/240/105 317/240/105
f 313/240/250 315/240/250 318/240/250
f 316/240/107 319/240/107 320/240/107
f 318/240/251 321/240/251 319/240/251
f 319/240/109 322/240/109 323/240/109
f 319/240/110 321/240/110 324/240/110
f 322/240/111 325/240/111 326/240/111
f 324/240/112 327/240/112 325/240/112
f 325/240/113 328/240/113 329/240/113
f 325/240/114 327/240/114 330/240/114
f 328/240/115 331/240/115 332/240/115
f 330/240/116 333/240/116 331/240/116
f 331/240/117 334/240/117 335/240/117
f 331/240/118 333/240/118 336/240/118
f 334/240/119 337/240/119 338/240/119
f 336/240/252 339/240/252 337/240/252
f 337/240/121 340/240/121 341/240/121
f 339/240/253 342/240/253 340/240/253
f 340/240/123 343/240/123 344/240/123
f 342/240/124 345/240/124 343/240/124
f 343/240/125 346/240/125 347/240/125
f 345/240/126 348/240/126 346/240/126
f 347/240/127 346/240/127 259/240/127
f 346/240/128 348/240/128 349/240/128
f 264/241/5 261/241/5 258/241/5
f 258/241/5 349/241/5 348/241/5
f 348/241/5 345/241/5 336/241/5
f 345/241/5 342/241/5 336/241/5
f 342/241/5 339/241/5 336/241/5
f 336/241/5 333/241/5 330/241/5
f 330/241/5 327/241/5 324/241/5
f 324/241/5 321/241/5 318/241/5
f 318/241/5 315/241/5 324/241/5
f 315/241/5 312/241/5 324/241/5
f 312/241/5 309/241/5 300/241/5
f 309/241/5 306/241/5 300/241/5
f 306/241/5 303/241/5 300/241/5
f 300/241/5 297/241/5 294/241/5
f 294/241/5 291/241/5 300/241/5
f 291/241/5 288/241/5 300/241/5
f 288/241/5 285/241/5 282/241/5
f 282/241/5 279/241/5 276/241/5
f 276/241/5 273/241/5 264/241/5
f 273/241/5 270/241/5 264/241/5
f 270/241/5 267/241/5 264/241/5
f 264/241/5 258/241/5 336/241/5
f 258/241/5 348/241/5 336/241/5
f 336/241/5 330/241/5 312/241/5
f 330/241/5 324/241/5 312/241/5
f 288/241/5 282/241/5 264/241/5
f 282/241/5 276/241/5 264/241/5
f 312/241/5 300/241/5 288/241/5
f 264/241/5 336/241/5 288/241/5
f 344/240/129 347/240/129 350/240/129
f 347/240/130 255/240/130 253/240/130
f 341/240/131 344/240/131 351/240/131
f 353/240/132 338/240/132 341/240/132
f 354/240/133 335/240/133 338/240/133
f 332/240/134 335/240/134 354/240/134
f 356/240/135 329/240/135 332/240/135
f 326/240/136 329/240/136 356/240/136
f 358/240/137 323/240/137 326/240/137
f 320/240/138 323/240/138 358/240/138
f 317/240/139 320/240/139 359/240/139
f 314/240/140 317/240/140 360/240/140
f 311/240/141 314/240/141 361/240/141
f 363/240/142 308/240/142 311/240/142
f 364/240/143 305/240/143 308/240/143
f 302/240/144 305/240/144 364/240/144
f 299/240/145 302/240/145 365/240/145
f 367/240/146 296/240/146 299/240/146
f 368/240/147 293/240/147 296/240/147
f 290/240/148 293/240/148 368/240/148
f 370/240/149 287/240/149 290/240/149
f 371/240/150 284/240/150 287/240/150
f 281/240/151 284/240/151 371/240/151
f 373/240/152 278/240/152 281/240/152
f 275/240/153 278/240/153 373/240/153
f 272/240/154 275/240/154 374/240/154
f 269/240/155 272/240/155 375/240/155
f 266/240/156 269/240/156 376/240/156
f 378/240/157 263/240/157 266/240/157
f 252/240/158 256/240/158 263/240/158
f 382/240/63 384/240/63 380/240/63
f 381/240/3 379/240/3 505/240/3
f 379/240/3 380/240/3 505/240/3
f 380/240/3 506/240/3 505/240/3
f 505/240/3 504/240/3 503/240/3
f 503/240/3 502/240/3 501/240/3
f 501/240/3 500/240/3 497/240/3
f 500/240/3 499/240/3 497/240/3
f 499/240/3 498/240/3 497/240/3
f 497/240/3 496/240/3 495/240/3
f 495/240/3 494/240/3 497/240/3
f 494/240/3 493/240/3 497/240/3
f 493/240/3 492/240/3 491/240/3
f 491/240/3 490/240/3 493/240/3
f 490/240/3 489/240/3 493/240/3
f 489/240/3 488/240/3 485/240/3
f 488/240/3 487/240/3 485/240/3
f 487/240/3 486/240/3 485/240/3
f 485/240/3 484/240/3 481/240/3
f 484/240/3 483/240/3 481/240/3
f 483/240/3 482/240/3 481/240/3
f 481/240/3 480/240/3 479/240/3
f 479/240/3 478/240/3 481/240/3
f 478/240/3 381/240/3 481/240/3
f 505/240/3 503/240/3 381/240/3
f 503/240/3 501/240/3 381/240/3
f 501/240/3 497/240/3 381/240/3
f 497/240/3 493/240/3 381/240/3
f 493/240/3 489/240/3 485/240/3
f 485/240/3 481/240/3 493/240/3
f 381/240/64 383/240/64 382/240/64
f 387/240/65 385/240/65 382/240/65
f 385/240/66 388/240/66 384/240/66
f 477/240/67 386/240/67 385/240/67
f 385/240/68 386/240/68 389/240/68
f 388/240/69 390/240/69 391/240/69
f 389/240/70 392/240/70 390/240/70
f 390/240/71 393/240/71 394/240/71
f 392/240/72 395/240/72 393/240/72
f 393/240/73 396/240/73 397/240/73
f 395/240/254 398/240/254 396/240/254
f 396/240/75 399/240/75 400/240/75
f 398/240/76 401/240/76 399/240/76
f 399/240/77 402/240/77 403/240/77
f 399/240/78 401/240/78 404/240/78
f 402/240/79 405/240/79 406/240/79
f 402/240/80 404/240/80 407/240/80
f 405/240/81 408/240/81 409/240/81
f 405/240/82 407/240/82 410/240/82
f 408/240/83 411/240/83 412/240/83
f 408/240/84 410/240/84 413/240/84
f 411/240/85 414/240/85 415/240/85
f 413/240/86 416/240/86 414/240/86
f 414/240/87 417/240/87 418/240/87
f 416/240/160 419/240/160 417/240/160
f 417/240/89 420/240/89 421/240/89
f 417/240/90 419/240/90 422/240/90
f 420/240/91 423/240/91 424/240/91
f 420/240/255 422/240/255 425/240/255
f 423/240/93 426/240/93 427/240/93
f 425/240/94 428/240/94 426/240/94
f 427/240/95 426/240/95 429/240/95
f 426/240/96 428/240/96 431/240/96
f 430/240/97 429/240/97 432/240/97
f 429/240/98 431/240/98 434/240/98
f 433/240/99 432/240/99 435/240/99
f 434/240/100 437/240/100 435/240/100
f 435/240/101 438/240/101 439/240/101
f 437/240/102 440/240/102 438/240/102
f 438/240/103 441/240/103 442/240/103
f 438/240/249 440/240/249 443/240/249
f 441/240/105 444/240/105 445/240/105
f 441/240/106 443/240/106 446/240/106
f 444/240/107 447/240/107 448/240/107
f 446/240/251 449/240/251 447/240/251
f 447/240/109 450/240/109 451/240/109
f 447/240/256 449/240/256 452/240/256
f 450/240/111 453/240/111 454/240/111
f 452/240/112 455/240/112 453/240/112
f 453/240/113 456/240/113 457/240/113
f 455/240/114 458/240/114 456/240/114
f 456/240/115 459/240/115 460/240/115
f 458/240/116 461/240/116 459/240/116
f 459/240/117 462/240/117 463/240/117
f 461/240/118 464/240/118 462/240/118
f 462/240/119 465/240/119 466/240/119
f 464/240/252 467/240/252 465/240/252
f 465/240/121 468/240/121 469/240/121
f 467/240/253 470/240/253 468/240/253
f 468/240/123 471/240/123 472/240/123
f 470/240/257 473/240/257 471/240/257
f 471/240/125 474/240/125 475/240/125
f 471/240/258 473/240/258 476/240/258
f 475/240/127 474/240/127 387/240/127
f 474/240/128 476/240/128 477/240/128
f 392/241/5 389/241/5 386/241/5
f 386/241/5 477/241/5 476/241/5
f 476/241/5 473/241/5 470/241/5
f 470/241/5 467/241/5 476/241/5
f 467/241/5 464/241/5 476/241/5
f 464/241/5 461/241/5 458/241/5
f 458/241/5 455/241/5 452/241/5
f 452/241/5 449/241/5 446/241/5
f 446/241/5 443/241/5 440/241/5
f 440/241/5 437/241/5 434/241/5
f 434/241/5 431/241/5 428/241/5
f 428/241/5 425/241/5 422/241/5
f 422/241/5 419/241/5 428/241/5
f 419/241/5 416/241/5 428/241/5
f 416/241/5 413/241/5 410/241/5
f 410/241/5 407/241/5 404/241/5
f 404/241/5 401/241/5 392/241/5
f 401/241/5 398/241/5 392/241/5
f 398/241/5 395/241/5 392/241/5
f 392/241/5 386/241/5 476/241/5
f 464/241/5 458/241/5 440/241/5
f 458/241/5 452/241/5 440/241/5
f 452/241/5 446/241/5 440/241/5
f 440/241/5 434/241/5 428/241/5
f 416/241/5 410/241/5 392/241/5
f 410/241/5 404/241/5 392/241/5
f 392/241/5 476/241/5 440/241/5
f 476/241/5 464/241/5 440/241/5
f 440/241/5 428/241/5 416/241/5
f 472/240/129 475/240/129 478/240/129
f 475/240/130 383/240/130 381/240/130
f 469/240/131 472/240/131 479/240/131
f 466/240/132 469/240/132 480/240/132
f 482/240/133 463/240/133 466/240/133
f 483/240/134 460/240/134 463/240/134
f 484/240/135 457/240/135 460/240/135
f 485/240/136 454/240/136 457/240/136
f 486/240/137 451/240/137 454/240/137
f 448/240/138 451/240/138 486/240/138
f 488/240/139 445/240/139 448/240/139
f 489/240/140 442/240/140 445/240/140
f 439/240/141 442/240/141 489/240/141
f 491/240/142 436/240/142 439/240/142
f 433/240/143 436/240/143 491/240/143
f 430/240/144 433/240/144 492/240/144
f 427/240/145 430/240/145 493/240/145
f 495/240/146 424/240/146 427/240/146
f 496/240/147 421/240/147 424/240/147
f 418/240/148 421/240/148 496/240/148
f 498/240/149 415/240/149 418/240/149
f 499/240/150 412/240/150 415/240/150
f 409/240/151 412/240/151 499/240/151
f 406/240/152 409/240/152 500/240/152
f 403/240/153 406/240/153 501/240/153
f 400/240/154 403/240/154 502/240/154
f 504/240/155 397/240/155 400/240/155
f 394/240/156 397/240/156 504/240/156
f 506/240/157 391/240/157 394/240/157
f 380/240/158 384/240/158 391/240/158
f 510/240/161 512/240/161 508/240/161
f 509/241/5 507/241/5 633/241/5
f 507/241/5 508/241/5 633/241/5
f 508/241/5 634/241/5 633/241/5
f 633/241/5 632/241/5 631/241/5
f 631/241/5 630/241/5 629/241/5
f 629/241/5 628/241/5 627/241/5
f 627/241/5 626/241/5 625/241/5
f 625/241/5 624/241/5 623/241/5
f 623/241/5 622/241/5 625/241/5
f 622/241/5 621/241/5 625/241/5
f 621/241/5 620/241/5 619/241/5
f 619/241/5 618/241/5 621/241/5
f 618/241/5 617/241/5 621/241/5
f 617/241/5 616/241/5 615/241/5
f 615/241/5 614/241/5 613/241/5
f 613/241/5 612/241/5 609/241/5
f 612/241/5 611/241/5 609/241/5
f 611/241/5 610/241/5 609/241/5
f 609/241/5 608/241/5 607/241/5
f 607/241/5 606/241/5 609/241/5
f 606/241/5 509/241/5 609/241/5
f 633/241/5 631/241/5 629/241/5
f 629/241/5 627/241/5 625/241/5
f 617/241/5 615/241/5 621/241/5
f 615/241/5 613/241/5 621/241/5
f 509/241/5 633/241/5 621/241/5
f 633/241/5 629/241/5 621/241/5
f 629/241/5 625/241/5 621/241/5
f 613/241/5 609/241/5 621/241/5
f 509/240/162 511/240/162 510/240/162
f 511/240/99 515/240/99 513/240/99
f 510/240/97 513/240/97 516/240/97
f 605/240/163 514/240/163 513/240/163
f 513/240/164 514/240/164 517/240/164
f 512/240/95 516/240/95 518/240/95
f 517/240/165 520/240/165 518/240/165
f 518/240/93 521/240/93 522/240/93
f 520/240/225 523/240/225 521/240/225
f 521/240/91 524/240/91 525/240/91
f 521/240/259 523/240/259 526/240/259
f 524/240/89 527/240/89 528/240/89
f 524/240/260 526/240/260 529/240/260
f 527/240/87 530/240/87 531/240/87
f 527/240/169 529/240/169 532/240/169
f 530/240/85 533/240/85 534/240/85
f 530/240/170 532/240/170 535/240/170
f 533/240/83 536/240/83 537/240/83
f 533/240/171 535/240/171 538/240/171
f 536/240/81 539/240/81 540/240/81
f 538/240/172 541/240/172 539/240/172
f 539/240/79 542/240/79 543/240/79
f 539/240/173 541/240/173 544/240/173
f 542/240/77 545/240/77 546/240/77
f 544/240/174 547/240/174 545/240/174
f 545/240/75 548/240/75 549/240/75
f 547/240/261 550/240/261 548/240/261
f 549/240/73 548/240/73 551/240/73
f 550/240/262 553/240/262 551/240/262
f 551/240/71 554/240/71 555/240/71
f 553/240/263 556/240/263 554/240/263
f 554/240/69 557/240/69 558/240/69
f 554/240/178 556/240/178 559/240/178
f 557/240/66 560/240/66 561/240/66
f 557/240/179 559/240/179 562/240/179
f 560/240/65 563/240/65 564/240/65
f 562/240/180 565/240/180 563/240/180
f 563/240/127 566/240/127 567/240/127
f 565/240/181 568/240/181 566/240/181
f 566/240/125 569/240/125 570/240/125
f 566/240/264 568/240/264 571/240/264
f 570/240/123 569/240/123 572/240/123
f 571/240/265 574/240/265 572/240/265
f 572/240/121 575/240/121 576/240/121
f 574/240/266 577/240/266 575/240/266
f 575/240/119 578/240/119 579/240/119
f 575/240/185 577/240/185 580/240/185
f 578/240/117 581/240/117 582/240/117
f 578/240/186 580/240/186 583/240/186
f 581/240/115 584/240/115 585/240/115
f 581/240/187 583/240/187 586/240/187
f 584/240/113 587/240/113 588/240/113
f 586/240/188 589/240/188 587/240/188
f 587/240/111 590/240/111 591/240/111
f 589/240/189 592/240/189 590/240/189
f 590/240/109 593/240/109 594/240/109
f 592/240/228 595/240/228 593/240/228
f 593/240/107 596/240/107 597/240/107
f 593/240/267 595/240/267 598/240/267
f 596/240/105 599/240/105 600/240/105
f 596/240/268 598/240/268 601/240/268
f 599/240/103 602/240/103 603/240/103
f 599/240/269 601/240/269 604/240/269
f 603/240/101 602/240/101 515/240/101
f 602/240/194 604/240/194 605/240/194
f 520/240/3 517/240/3 514/240/3
f 514/240/3 605/240/3 604/240/3
f 604/240/3 601/240/3 598/240/3
f 598/240/3 595/240/3 604/240/3
f 595/240/3 592/240/3 604/240/3
f 592/240/3 589/240/3 586/240/3
f 586/240/3 583/240/3 592/240/3
f 583/240/3 580/240/3 592/240/3
f 580/240/3 577/240/3 568/240/3
f 577/240/3 574/240/3 568/240/3
f 574/240/3 571/240/3 568/240/3
f 568/240/3 565/240/3 562/240/3
f 562/240/3 559/240/3 556/240/3
f 556/240/3 553/240/3 550/240/3
f 550/240/3 547/240/3 544/240/3
f 544/240/3 541/240/3 532/240/3
f 541/240/3 538/240/3 532/240/3
f 538/240/3 535/240/3 532/240/3
f 532/240/3 529/240/3 520/240/3
f 529/240/3 526/240/3 520/240/3
f 526/240/3 523/240/3 520/240/3
f 520/240/3 514/240/3 604/240/3
f 568/240/3 562/240/3 556/240/3
f 556/240/3 550/240/3 568/240/3
f 550/240/3 544/240/3 568/240/3
f 520/240/3 604/240/3 568/240/3
f 604/240/3 592/240/3 568/240/3
f 592/240/3 580/240/3 568/240/3
f 544/240/3 532/240/3 568/240/3
f 600/240/195 603/240/195 606/240/195
f 603/240/196 511/240/196 509/240/196
f 597/240/197 600/240/197 607/240/197
f 594/240/198 597/240/198 608/240/198
f 610/240/199 591/240/199 594/240/199
f 611/240/200 588/240/200 591/240/200
f 612/240/201 585/240/201 588/240/201
f 613/240/202 582/240/202 585/240/202
f 579/240/203 582/240/203 613/240/203
f 576/240/204 579/240/204 614/240/204
f 616/240/205 573/240/205 576/240/205
f 617/240/206 570/240/206 573/240/206
f 567/240/207 570/240/207 617/240/207
f 619/240/208 564/240/208 567/240/208
f 620/240/209 561/240/209 564/240/209
f 558/240/210 561/240/210 620/240/210
f 555/240/211 558/240/211 621/240/211
f 623/240/212 552/240/212 555/240/212
f 549/240/213 552/240/213 623/240/213
f 546/240/214 549/240/214 624/240/214
f 626/240/215 543/240/215 546/240/215
f 540/240/216 543/240/216 626/240/216
f 537/240/217 540/240/217 627/240/217
f 534/240/218 537/240/218 628/240/218
f 531/240/219 534/240/219 629/240/219
f 528/240/220 531/240/220 630/240/220
f 632/240/221 525/240/221 528/240/221
f 633/240/222 522/240/222 525/240/222
f 634/240/223 519/240/223 522/240/223
f 508/240/224 512/240/224 519/240/224
f 638/240/161 640/240/161 636/240/161
f 637/241/5 635/241/5 761/241/5
f 635/241/5 636/241/5 761/241/5
f 636/241/5 762/241/5 761/241/5
f 761/241/5 760/241/5 759/241/5
f 759/241/5 758/241/5 761/241/5
f 758/241/5 757/241/5 761/241/5
f 757/241/5 756/241/5 755/241/5
f 755/241/5 754/241/5 753/241/5
f 753/241/5 752/241/5 751/241/5
f 751/241/5 750/241/5 749/241/5
f 749/241/5 748/241/5 747/241/5
f 747/241/5 746/241/5 745/241/5
f 745/241/5 744/241/5 743/241/5
f 743/241/5 742/241/5 741/241/5
f 741/241/5 740/241/5 737/241/5
f 740/241/5 739/241/5 737/241/5
f 739/241/5 738/241/5 737/241/5
f 737/241/5 736/241/5 735/241/5
f 735/241/5 734/241/5 637/241/5
f 757/241/5 755/241/5 749/241/5
f 755/241/5 753/241/5 749/241/5
f 753/241/5 751/241/5 749/241/5
f 749/241/5 747/241/5 745/241/5
f 745/241/5 743/241/5 749/241/5
f 743/241/5 741/241/5 749/241/5
f 737/241/5 735/241/5 741/241/5
f 735/241/5 637/241/5 741/241/5
f 637/241/5 761/241/5 749/241/5
f 761/241/5 757/241/5 749/241/5
f 637/240/162 639/240/162 638/240/162
f 639/240/99 643/240/99 641/240/99
f 638/240/97 641/240/97 644/240/97
f 733/240/163 642/240/163 641/240/163
f 641/240/164 642/240/164 645/240/164
f 640/240/95 644/240/95 646/240/95
f 645/240/165 648/240/165 646/240/165
f 646/240/93 649/240/93 650/240/93
f 646/240/225 648/240/225 651/240/225
f 649/240/91 652/240/91 653/240/91
f 649/240/259 651/240/259 654/240/259
f 652/240/89 655/240/89 656/240/89
f 652/240/260 654/240/260 657/240/260
f 655/240/87 658/240/87 659/240/87
f 655/240/270 657/240/270 660/240/270
f 658/240/85 661/240/85 662/240/85
f 660/240/170 663/240/170 661/240/170
f 661/240/83 664/240/83 665/240/83
f 661/240/171 663/240/171 666/240/171
f 664/240/81 667/240/81 668/240/81
f 666/240/172 669/240/172 667/240/172
f 667/240/79 670/240/79 671/240/79
f 669/240/173 672/240/173 670/240/173
f 670/240/77 673/240/77 674/240/77
f 672/240/226 675/240/226 673/240/226
f 673/240/75 676/240/75 677/240/75
f 675/240/261 678/240/261 676/240/261
f 677/240/73 676/240/73 679/240/73
f 678/240/262 681/240/262 679/240/262
f 679/240/71 682/240/71 683/240/71
f 681/240/263 684/240/263 682/240/263
f 682/240/69 685/240/69 686/240/69
f 682/240/178 684/240/178 687/240/178
f 685/240/66 688/240/66 689/240/66
f 685/240/179 687/240/179 690/240/179
f 688/240/65 691/240/65 692/240/65
f 690/240/180 693/240/180 691/240/180
f 691/240/127 694/240/127 695/240/127
f 693/240/181 696/240/181 694/240/181
f 694/240/125 697/240/125 698/240/125
f 694/240/264 696/240/264 699/240/264
f 698/240/123 697/240/123 700/240/123
f 697/240/183 699/240/183 702/240/183
f 700/240/121 703/240/121 704/240/121
f 702/240/266 705/240/266 703/240/266
f 703/240/119 706/240/119 707/240/119
f 703/240/227 705/240/227 708/240/227
f 706/240/117 709/240/117 710/240/117
f 706/240/186 708/240/186 711/240/186
f 709/240/115 712/240/115 713/240/115
f 709/240/187 711/240/187 714/240/187
f 712/240/113 715/240/113 716/240/113
f 714/240/188 717/240/188 715/240/188
f 715/240/111 718/240/111 719/240/111
f 717/240/189 720/240/189 718/240/189
f 718/240/109 721/240/109 722/240/109
f 720/240/190 723/240/190 721/240/190
f 721/240/107 724/240/107 725/240/107
f 723/240/267 726/240/267 724/240/267
f 724/240/105 727/240/105 728/240/105
f 724/240/192 726/240/192 729/240/192
f 727/240/103 730/240/103 731/240/103
f 727/240/269 729/240/269 732/240/269
f 731/240/101 730/240/101 643/240/101
f 730/240/194 732/240/194 733/240/194
f 648/240/3 645/240/3 642/240/3
f 642/240/3 733/240/3 732/240/3
f 732/240/3 729/240/3 726/240/3
f 726/240/3 723/240/3 732/240/3
f 723/240/3 720/240/3 732/240/3
f 720/240/3 717/240/3 708/240/3
f 717/240/3 714/240/3 708/240/3
f 714/240/3 711/240/3 708/240/3
f 708/240/3 705/240/3 696/240/3
f 705/240/3 702/240/3 696/240/3
f 702/240/3 699/240/3 696/240/3
f 696/240/3 693/240/3 690/240/3
f 690/240/3 687/240/3 696/240/3
f 687/240/3 684/240/3 696/240/3
f 684/240/3 681/240/3 678/240/3
f 678/240/3 675/240/3 684/240/3
f 675/240/3 672/240/3 684/240/3
f 672/240/3 669/240/3 660/240/3
f 669/240/3 666/240/3 660/240/3
f 666/240/3 663/240/3 660/240/3
f 660/240/3 657/240/3 654/240/3
f 654/240/3 651/240/3 660/240/3
f 651/240/3 648/240/3 660/240/3
f 648/240/3 642/240/3 720/240/3
f 642/240/3 732/240/3 720/240/3
f 720/240/3 708/240/3 648/240/3
f 708/240/3 696/240/3 648/240/3
f 696/240/3 684/240/3 672/240/3
f 672/240/3 660/240/3 696/240/3
f 728/240/195 731/240/195 734/240/195
f 731/240/196 639/240/196 637/240/196
f 725/240/197 728/240/197 735/240/197
f 737/240/198 722/240/198 725/240/198
f 738/240/199 719/240/199 722/240/199
f 739/240/200 716/240/200 719/240/200
f 713/240/201 716/240/201 739/240/201
f 741/240/202 710/240/202 713/240/202
f 707/240/203 710/240/203 741/240/203
f 704/240/204 707/240/204 742/240/204
f 744/240/205 701/240/205 704/240/205
f 698/240/206 701/240/206 744/240/206
f 695/240/207 698/240/207 745/240/207
f 747/240/208 692/240/208 695/240/208
f 748/240/209 689/240/209 692/240/209
f 686/240/210 689/240/210 748/240/210
f 683/240/211 686/240/211 749/240/211
f 751/240/212 680/240/212 683/240/212
f 752/240/213 677/240/213 680/240/213
f 674/240/214 677/240/214 752/240/214
f 754/240/215 671/240/215 674/240/215
f 668/240/216 671/240/216 754/240/216
f 756/240/217 665/240/217 668/240/217
f 662/240/218 665/240/218 756/240/218
f 758/240/219 659/240/219 662/240/219
f 656/240/220 659/240/220 758/240/220
f 653/240/221 656/240/221 759/240/221
f 761/240/222 650/240/222 653/240/222
f 762/240/223 647/240/223 650/240/223
f 636/240/224 640/240/224 647/240/224
