# Made in Blockbench 5.1.4
mtllib wooden_log.mtl

o cylinder
v -0.0625 0.18301250000000022 -0.1875
v 0.9125 0.25 -0.0625
v -1.03125 0.25000000000000044 0
v 0.9375 0.325360625 0.21875
v -1.0625 0.32536062500000046 0.28125
v 0.9375 0.45588937500000004 0.143389375
v -1.0625 0.4558893750000005 0.205889375
v 0.9375000000000001 0.53125 0.012860625
v -1.0625 0.5312500000000004 0.075360625
v 0.9375000000000001 0.53125 -0.137860625
v -1.0625 0.5312500000000004 -0.075360625
v 0.9375 0.45588937500000004 -0.268389375
v -1.0625 0.4558893750000005 -0.205889375
v 0.9375 0.325360625 -0.34375
v -1.0625 0.32536062500000046 -0.28125
v 0.9375 0.17463937499999999 -0.34375
v -1.0625 0.17463937500000043 -0.28125
v 0.9375 0.04411062499999999 -0.268389375
v -1.0625 0.04411062500000043 -0.205889375
v 0.9374999999999999 -0.03125 -0.137860625
v -1.0625 -0.031249999999999556 -0.075360625
v 0.9374999999999999 -0.03125 0.012860625
v -1.0625 -0.031249999999999556 0.075360625
v 0.9375 0.04411062499999999 0.143389375
v -1.0625 0.04411062500000043 0.205889375
v 0.9375 0.17463937499999999 0.21875
v -1.0625 0.17463937500000043 0.28125
v -0.0625 0.43301250000000024 0.2455125
v -0.0625 0.3169875000000002 0.3125
v -0.0625 0.18301250000000022 0.3125
v -0.0625 0.06698750000000023 0.2455125
v -0.0625 2.220446049250313e-16 0.1294875
v -0.0625 2.220446049250313e-16 -0.0044875
v -0.0625 0.06698750000000023 -0.1205125
v -0.0625 0.3169875000000002 -0.1875
v -0.0625 0.43301250000000024 -0.1205125
v -0.0625 0.5000000000000002 -0.0044875
v -0.0625 0.5000000000000002 0.1294875
v -0.5625 0.3169875000000003 0.25
v -0.5625 0.43301250000000036 0.1830125
v -0.5625 0.5000000000000003 0.0669875
v -0.5625 0.5000000000000003 -0.0669875
v -0.5625 0.43301250000000036 -0.1830125
v -0.5625 0.3169875000000003 -0.25
v -0.5625 0.18301250000000033 -0.25
v -0.5625 0.06698750000000034 -0.1830125
v -0.5625 3.3306690738754696e-16 -0.0669875
v -0.5625 3.3306690738754696e-16 0.0669875
v -0.5625 0.06698750000000034 0.1830125
v -0.5625 0.18301250000000033 0.25
v 0.43750000000000006 0.43301250000000013 0.1517625
v 0.4375 0.3169875000000001 0.21875
v 0.4375 0.1830125000000001 0.21875
v 0.4375 0.06698750000000012 0.1517625
v 0.4375 1.1102230246251565e-16 0.0357375
v 0.4375 1.1102230246251565e-16 -0.0982375
v 0.4375 0.06698750000000012 -0.2142625
v 0.4375 0.1830125000000001 -0.28125
v 0.4375 0.3169875000000001 -0.28125
v 0.43750000000000006 0.43301250000000013 -0.2142625
v 0.43750000000000006 0.5000000000000001 -0.0982375
v 0.43750000000000006 0.5000000000000001 0.0357375
vt 0.0541265625 0.9916265625
vt 0.0396234375 1
vt 0.03125 0.96875
vt 0.234375 0.875
vt 0.234375 0.9375
vt 0.21875 0.9375
vt 0.21875 0.875
vt 0.0943109375 0.875
vt 0.1088140625 0.8833734375
vt 0.0859375 0.90625
vt 0.0625 0.9771234375
vt 0.0541265625 0.9916265625
vt 0.03125 0.96875
vt 0.1640625 0.875
vt 0.1640625 0.9375
vt 0.1484375 0.9375
vt 0.1484375 0.875
vt 0.1088140625 0.8833734375
vt 0.1171875 0.8978765625
vt 0.0859375 0.90625
vt 0.0625 0.9603765625
vt 0.0625 0.9771234375
vt 0.03125 0.96875
vt 0.015625 0.8046875
vt 0.015625 0.8671875
vt 0 0.8671875
vt 0 0.8046875
vt 0.1171875 0.8978765625
vt 0.1171875 0.9146234375
vt 0.0859375 0.90625
vt 0.0541265625 0.9458734375
vt 0.0625 0.9603765625
vt 0.03125 0.96875
vt 0.1875 0.875
vt 0.1875 0.9375
vt 0.171875 0.9375
vt 0.171875 0.875
vt 0.1171875 0.9146234375
vt 0.1088140625 0.9291265625
vt 0.0859375 0.90625
vt 0.0396234375 0.9375
vt 0.0541265625 0.9458734375
vt 0.03125 0.96875
vt 0.1328125 0.6171875
vt 0.1328125 0.6796875
vt 0.1171875 0.6796875
vt 0.1171875 0.6171875
vt 0.1088140625 0.9291265625
vt 0.0943109375 0.9375
vt 0.0859375 0.90625
vt 0.0228765625 0.9375
vt 0.0396234375 0.9375
vt 0.03125 0.96875
vt 0.0625 0.7421875
vt 0.0625 0.8046875
vt 0.046875 0.8046875
vt 0.046875 0.7421875
vt 0.0943109375 0.9375
vt 0.0775640625 0.9375
vt 0.0859375 0.90625
vt 0.0083734375 0.9458734375
vt 0.0228765625 0.9375
vt 0.03125 0.96875
vt 0.2109375 0.875
vt 0.2109375 0.9375
vt 0.1953125 0.9375
vt 0.1953125 0.875
vt 0.0775640625 0.9375
vt 0.0630609375 0.9291265625
vt 0.0859375 0.90625
vt 0 0.9603765625
vt 0.0083734375 0.9458734375
vt 0.03125 0.96875
vt 0.109375 0.7421875
vt 0.109375 0.8046875
vt 0.09375 0.8046875
vt 0.09375 0.7421875
vt 0.0630609375 0.9291265625
vt 0.0546875 0.9146234375
vt 0.0859375 0.90625
vt 0 0.9771234375
vt 0 0.9603765625
vt 0.03125 0.96875
vt 0.140625 0.875
vt 0.140625 0.9375
vt 0.125 0.9375
vt 0.125 0.875
vt 0.0546875 0.9146234375
vt 0.0546875 0.8978765625
vt 0.0859375 0.90625
vt 0.0083734375 0.9916265625
vt 0 0.9771234375
vt 0.03125 0.96875
vt 0.0859375 0.7421875
vt 0.0859375 0.8046875
vt 0.0703125 0.8046875
vt 0.0703125 0.7421875
vt 0.0546875 0.8978765625
vt 0.0630609375 0.8833734375
vt 0.0859375 0.90625
vt 0.0228765625 1
vt 0.0083734375 0.9916265625
vt 0.03125 0.96875
vt 0.2578125 0.875
vt 0.2578125 0.9375
vt 0.2421875 0.9375
vt 0.2421875 0.875
vt 0.0630609375 0.8833734375
vt 0.0775640625 0.875
vt 0.0859375 0.90625
vt 0.0396234375 1
vt 0.0228765625 1
vt 0.03125 0.96875
vt 0.0390625 0.8046875
vt 0.0390625 0.8671875
vt 0.0234375 0.8671875
vt 0.0234375 0.8046875
vt 0.0775640625 0.875
vt 0.0943109375 0.875
vt 0.0859375 0.90625
vt 0.21875 0.875
vt 0.21875 0.8125
vt 0.234375 0.8125
vt 0.234375 0.875
vt 0.0234375 0.8046875
vt 0.0234375 0.7421875
vt 0.0390625 0.7421875
vt 0.0390625 0.8046875
vt 0.2421875 0.875
vt 0.2421875 0.8125
vt 0.2578125 0.8125
vt 0.2578125 0.875
vt 0.0703125 0.7421875
vt 0.0703125 0.6796875
vt 0.0859375 0.6796875
vt 0.0859375 0.7421875
vt 0.125 0.875
vt 0.125 0.8125
vt 0.140625 0.8125
vt 0.140625 0.875
vt 0.09375 0.7421875
vt 0.09375 0.6796875
vt 0.109375 0.6796875
vt 0.109375 0.7421875
vt 0.1953125 0.875
vt 0.1953125 0.8125
vt 0.2109375 0.8125
vt 0.2109375 0.875
vt 0.046875 0.7421875
vt 0.046875 0.6796875
vt 0.0625 0.6796875
vt 0.0625 0.7421875
vt 0.1171875 0.6171875
vt 0.1171875 0.5546875
vt 0.1328125 0.5546875
vt 0.1328125 0.6171875
vt 0.171875 0.875
vt 0.171875 0.8125
vt 0.1875 0.8125
vt 0.1875 0.875
vt 0 0.8046875
vt 0 0.7421875
vt 0.015625 0.7421875
vt 0.015625 0.8046875
vt 0.1484375 0.875
vt 0.1484375 0.8125
vt 0.1640625 0.8125
vt 0.1640625 0.875
vt 0.21875 1
vt 0.21875 0.9375
vt 0.234375 0.9375
vt 0.234375 1
vt 0.1484375 1
vt 0.1484375 0.9375
vt 0.1640625 0.9375
vt 0.1640625 1
vt 0 0.9296875
vt 0 0.8671875
vt 0.015625 0.8671875
vt 0.015625 0.9296875
vt 0.171875 1
vt 0.171875 0.9375
vt 0.1875 0.9375
vt 0.1875 1
vt 0.1171875 0.7421875
vt 0.1171875 0.6796875
vt 0.1328125 0.6796875
vt 0.1328125 0.7421875
vt 0.046875 0.8671875
vt 0.046875 0.8046875
vt 0.0625 0.8046875
vt 0.0625 0.8671875
vt 0.1953125 1
vt 0.1953125 0.9375
vt 0.2109375 0.9375
vt 0.2109375 1
vt 0.09375 0.8671875
vt 0.09375 0.8046875
vt 0.109375 0.8046875
vt 0.109375 0.8671875
vt 0.125 1
vt 0.125 0.9375
vt 0.140625 0.9375
vt 0.140625 1
vt 0.0703125 0.8671875
vt 0.0703125 0.8046875
vt 0.0859375 0.8046875
vt 0.0859375 0.8671875
vt 0.2421875 1
vt 0.2421875 0.9375
vt 0.2578125 0.9375
vt 0.2578125 1
vt 0.0234375 0.9296875
vt 0.0234375 0.8671875
vt 0.0390625 0.8671875
vt 0.0390625 0.9296875
vt 0.234375 0.75
vt 0.234375 0.8125
vt 0.21875 0.8125
vt 0.21875 0.75
vt 0.0390625 0.6796875
vt 0.0390625 0.7421875
vt 0.0234375 0.7421875
vt 0.0234375 0.6796875
vt 0.2578125 0.75
vt 0.2578125 0.8125
vt 0.2421875 0.8125
vt 0.2421875 0.75
vt 0.0859375 0.6171875
vt 0.0859375 0.6796875
vt 0.0703125 0.6796875
vt 0.0703125 0.6171875
vt 0.140625 0.75
vt 0.140625 0.8125
vt 0.125 0.8125
vt 0.125 0.75
vt 0.109375 0.6171875
vt 0.109375 0.6796875
vt 0.09375 0.6796875
vt 0.09375 0.6171875
vt 0.2109375 0.75
vt 0.2109375 0.8125
vt 0.1953125 0.8125
vt 0.1953125 0.75
vt 0.0625 0.6171875
vt 0.0625 0.6796875
vt 0.046875 0.6796875
vt 0.046875 0.6171875
vt 0.1328125 0.4921875
vt 0.1328125 0.5546875
vt 0.1171875 0.5546875
vt 0.1171875 0.4921875
vt 0.1875 0.75
vt 0.1875 0.8125
vt 0.171875 0.8125
vt 0.171875 0.75
vt 0.015625 0.6796875
vt 0.015625 0.7421875
vt 0 0.7421875
vt 0 0.6796875
vt 0.1640625 0.75
vt 0.1640625 0.8125
vt 0.1484375 0.8125
vt 0.1484375 0.75
vn 0.9960726417190143 -0.04426980832438239 -0.07667774442318122
vn -0.10762422779434615 0.4970982432664527 0.8609938223547701
vn -0.9938837362667073 -0.05521565478562204 -0.09563655290277642
vn 0.9960726417190143 -0.07667774442318143 -0.04426980832438216
vn -0.06237858878800144 0.8643374676323659 0.4990287103040131
vn -0.9938837362667073 -0.09563655290277621 -0.05521565478562228
vn 0.9960726406926866 -0.08853979028379459 0
vn 2.220446049250313e-16 1 0
vn -0.9938837346736191 -0.11043152607484635 0
vn 0.9960726417190143 -0.07667774442318144 0.044269808324382175
vn 0.06237858878800183 0.8643374676323659 -0.4990287103040131
vn -0.9938837362667073 -0.0956365529027762 0.055215654785622265
vn 0.9960726417190143 -0.0442698083243824 0.0766777444231812
vn 0.10762422779434637 0.4970982432664527 -0.8609938223547701
vn -0.9938837362667073 -0.055215654785622056 0.09563655290277644
vn 0.9960726406926865 -2.2117255597924024e-16 0.08853979028379437
vn 0.12403473458920848 -2.7541243638841913e-17 -0.9922778767136679
vn -0.9938837346736189 2.2068652120701835e-16 0.11043152607484655
vn 0.9960726417190143 0.04426980832438195 0.0766777444231812
vn 0.10762422779434615 -0.4970982432664527 -0.8609938223547701
vn -0.9938837362667071 0.05521565478562247 0.0956365529027764
vn 0.9960726417190143 0.07667774442318098 0.04426980832438217
vn 0.06237858878800144 -0.8643374676323659 -0.4990287103040131
vn -0.9938837362667071 0.09563655290277663 0.055215654785622265
vn 0.9960726406926866 0.08853979028379415 0
vn -2.220446049250313e-16 -1 0
vn -0.9938837346736189 0.11043152607484677 0
vn 0.9960726417190143 0.076677744423181 -0.04426980832438217
vn -0.06237858878800183 -0.8643374676323659 0.4990287103040131
vn -0.9938837362667073 0.09563655290277664 -0.055215654785622265
vn 0.9960726417190143 0.04426980832438194 -0.0766777444231812
vn -0.10762422779434637 -0.4970982432664527 0.8609938223547701
vn -0.9938837362667071 0.05521565478562249 -0.09563655290277641
vn 0.9960726406926865 -2.2117255597924024e-16 -0.08853979028379437
vn -0.12403473458920848 2.7541243638841913e-17 0.9922778767136679
vn -0.9938837346736189 2.2068652120701835e-16 -0.11043152607484655
vn 0.16028018575994213 0.4935381831430176 0.8548276573863574
vn 0.18428853505018533 -4.0920274957431187e-17 0.9828721869343219
vn 0.1602801857599419 -0.49353818314301773 0.8548276573863574
vn 0.09334115935040928 -0.8622430961900859 0.4978195165355172
vn -2.220446049250313e-16 -1 0
vn -0.09334115935040967 -0.8622430961900859 -0.4978195165355172
vn -0.16028018575994213 -0.4935381831430176 -0.8548276573863574
vn -0.18428853505018533 4.0920274957431187e-17 -0.9828721869343219
vn -0.1602801857599419 0.49353818314301773 -0.8548276573863574
vn -0.09334115935040928 0.8622430961900859 -0.4978195165355172
vn 2.220446049250313e-16 1 0
vn 0.09334115935040967 0.8622430961900859 0.4978195165355172
vn 0.06237795374756439 0.4990287301491186 0.8643375020048737
vn 0.06237911321516733 0.8643374392467009 0.4990286939154353
vn 0.06237828615518077 0.9980525784828888 0
vn 0.062377953747564475 0.8643375020048737 -0.4990287301491186
vn 0.062379113215167245 0.4990286939154353 -0.8643374392467009
vn 0.06237828615518055 -1.3850761905227615e-17 -0.9980525784828888
vn 0.06237795374756417 -0.4990287301491186 -0.8643375020048737
vn 0.06237911321516694 -0.8643374392467009 -0.4990286939154353
vn 0.062378286155180325 -0.9980525784828888 0
vn 0.06237795374756409 -0.8643375020048737 0.4990287301491186
vn 0.06237911321516702 -0.4990286939154353 0.8643374392467009
vn 0.06237828615518055 -1.3850761905227615e-17 0.9980525784828888
vn -0.008374038421402323 0.49998490373978655 0.8659936324897739
vn 0 0 1
vn -0.008372872276016541 -0.4999849086223146 0.8659936409465055
vn -0.031235431090184864 -0.8656014255944281 0.4997584615126633
vn -0.06237828615518077 -0.9980525784828888 0
vn -0.09334052891506624 -0.8622431473750486 -0.4978195460873611
vn -0.1158421540413769 -0.49663623652049277 -0.8601936083939565
vn -0.12403473458920848 2.7541243638841913e-17 -0.9922778767136679
vn -0.1158410111701028 0.49663630316549773 -0.8601937238257417
vn -0.09334167997458213 0.8622430539204147 -0.4978194921309527
vn -0.062378286155180325 0.9980525784828888 0
vn -0.031234266528469657 0.8656014571113503 0.4997584797090849
usemtl m_ad11b007-e695-5234-8516-c5a14c68ebee
f 6/1/1 4/2/1 2/3/1
f 28/4/2 40/5/2 39/6/2 29/7/2
f 5/8/3 7/9/3 3/10/3
f 8/11/4 6/12/4 2/13/4
f 38/14/5 41/15/5 40/16/5 28/17/5
f 7/18/6 9/19/6 3/20/6
f 10/21/7 8/22/7 2/23/7
f 37/24/8 42/25/8 41/26/8 38/27/8
f 9/28/9 11/29/9 3/30/9
f 12/31/10 10/32/10 2/33/10
f 36/34/11 43/35/11 42/36/11 37/37/11
f 11/38/12 13/39/12 3/40/12
f 14/41/13 12/42/13 2/43/13
f 35/44/14 44/45/14 43/46/14 36/47/14
f 13/48/15 15/49/15 3/50/15
f 16/51/16 14/52/16 2/53/16
f 1/54/17 45/55/17 44/56/17 35/57/17
f 15/58/18 17/59/18 3/60/18
f 18/61/19 16/62/19 2/63/19
f 34/64/20 46/65/20 45/66/20 1/67/20
f 17/68/21 19/69/21 3/70/21
f 20/71/22 18/72/22 2/73/22
f 33/74/23 47/75/23 46/76/23 34/77/23
f 19/78/24 21/79/24 3/80/24
f 22/81/25 20/82/25 2/83/25
f 32/84/26 48/85/26 47/86/26 33/87/26
f 21/88/27 23/89/27 3/90/27
f 24/91/28 22/92/28 2/93/28
f 31/94/29 49/95/29 48/96/29 32/97/29
f 23/98/30 25/99/30 3/100/30
f 26/101/31 24/102/31 2/103/31
f 30/104/32 50/105/32 49/106/32 31/107/32
f 25/108/33 27/109/33 3/110/33
f 4/111/34 26/112/34 2/113/34
f 29/114/35 39/115/35 50/116/35 30/117/35
f 27/118/36 5/119/36 3/120/36
f 29/121/37 52/122/37 51/123/37 28/124/37
f 30/125/38 53/126/38 52/127/38 29/128/38
f 31/129/39 54/130/39 53/131/39 30/132/39
f 32/133/40 55/134/40 54/135/40 31/136/40
f 33/137/41 56/138/41 55/139/41 32/140/41
f 34/141/42 57/142/42 56/143/42 33/144/42
f 1/145/43 58/146/43 57/147/43 34/148/43
f 35/149/44 59/150/44 58/151/44 1/152/44
f 36/153/45 60/154/45 59/155/45 35/156/45
f 37/157/46 61/158/46 60/159/46 36/160/46
f 38/161/47 62/162/47 61/163/47 37/164/47
f 28/165/48 51/166/48 62/167/48 38/168/48
f 5/169/49 39/170/49 40/171/49 7/172/49
f 7/173/50 40/174/50 41/175/50 9/176/50
f 9/177/51 41/178/51 42/179/51 11/180/51
f 11/181/52 42/182/52 43/183/52 13/184/52
f 13/185/53 43/186/53 44/187/53 15/188/53
f 15/189/54 44/190/54 45/191/54 17/192/54
f 17/193/55 45/194/55 46/195/55 19/196/55
f 19/197/56 46/198/56 47/199/56 21/200/56
f 21/201/57 47/202/57 48/203/57 23/204/57
f 23/205/58 48/206/58 49/207/58 25/208/58
f 25/209/59 49/210/59 50/211/59 27/212/59
f 27/213/60 50/214/60 39/215/60 5/216/60
f 6/217/61 51/218/61 52/219/61 4/220/61
f 4/221/62 52/222/62 53/223/62 26/224/62
f 26/225/63 53/226/63 54/227/63 24/228/63
f 24/229/64 54/230/64 55/231/64 22/232/64
f 22/233/65 55/234/65 56/235/65 20/236/65
f 20/237/66 56/238/66 57/239/66 18/240/66
f 18/241/67 57/242/67 58/243/67 16/244/67
f 16/245/68 58/246/68 59/247/68 14/248/68
f 14/249/69 59/250/69 60/251/69 12/252/69
f 12/253/70 60/254/70 61/255/70 10/256/70
f 10/257/71 61/258/71 62/259/71 8/260/71
f 8/261/72 62/262/72 51/263/72 6/264/72