# Blender 4.5.4 LTS
# www.blender.org
mtllib fan.mtl
o Fan.001
v -9.700027 0.000299 0.173189
v -5.000016 0.000299 -8.313860
v 4.699981 0.000300 -8.487063
v 9.699990 0.000301 -0.173221
v 4.999966 0.000300 8.313832
v -4.700003 0.000299 8.487038
v -9.523483 10.847598 -0.137599
v -4.660309 10.803856 -8.333393
v 4.880846 10.847605 -8.178786
v 9.547052 10.803851 0.130736
v 4.642558 10.847602 8.316326
v -4.886780 10.803852 8.202604
v -7.147418 2.852903 -1.622550
v -6.157554 5.741238 -2.218149
v 0.975184 8.848851 -6.342799
v 2.257110 6.485057 -7.051899
v 4.978840 2.852907 -5.378578
v 4.999710 5.741204 -4.223576
v 5.005389 8.848851 4.015930
v 4.978521 6.485040 5.480619
v 2.168521 2.852903 7.001085
v 1.157806 5.741215 6.441646
v -5.980628 8.848850 2.326821
v -7.235663 6.485043 1.571202
v -27.396719 4.189124 -34.290665
v -26.355061 6.158920 -35.583176
v -10.138404 9.399885 -42.576263
v 43.993416 6.158951 -5.032590
v 43.394905 4.189171 -6.580915
v 41.941254 9.399904 12.508097
v -17.638405 6.158947 40.615700
v -15.998255 4.189163 40.871536
v -31.802977 9.399890 30.068165
v -22.816883 2.392862 -19.311642
v -2.786987 7.339892 -21.196480
v -15.521956 2.023254 -12.029248
v -16.963154 7.339884 13.011742
v -5.315932 2.392892 29.415775
v -2.656658 2.023255 19.456968
v 18.178484 2.023257 -7.427780
v 19.750179 7.339898 8.184645
v 28.132816 2.392870 -10.104195
v -6.128243 10.347852 -42.052040
v -4.997429 9.452390 -43.701813
v -27.336119 2.521640 -28.574183
v 38.413910 2.521656 -9.386758
v 39.482216 10.347863 15.718793
v 40.345551 9.452430 17.523005
v -34.315910 9.083525 27.054401
v -33.354038 10.347850 26.333189
v -11.077877 2.521661 37.960819
v -2.479596 5.447909 -4.341516
v -19.378569 6.458911 -36.408512
v -22.734795 7.780307 -38.000111
v -2.520076 5.447908 4.318106
v -21.541698 7.780328 38.688911
v -21.841373 6.458892 34.986588
v 4.999614 5.447909 0.023351
v 44.276409 7.780332 -0.688855
v 41.219936 6.458897 1.421845
v -1.680770 8.593871 -22.231384
v -18.412477 8.593860 12.571164
v 20.093222 8.593867 9.660067
v -35.129761 9.713363 25.150879
v -27.744335 9.967394 30.453512
v -12.501280 9.967404 -39.254154
v 40.245518 9.967447 8.800613
vn -0.4109 -0.6071 -0.6802
vn 0.7945 -0.6071 -0.0157
vn -0.3836 -0.6071 0.6959
vn -0.7851 0.6193 -0.0127
vn 0.3815 0.6193 0.6863
vn 0.4036 0.6193 -0.6735
vn -0.7948 -0.6066 0.0151
vn -0.4049 0.6141 0.6775
vn -0.3843 0.6141 -0.6894
vn 0.3844 -0.6066 -0.6959
vn 0.7892 0.6141 0.0119
vn 0.4105 -0.6066 0.6808
vn 0.2798 -0.9229 0.2647
vn 0.7180 -0.4610 -0.5215
vn 0.9343 0.3566 0.0012
vn -0.8406 -0.4067 0.3576
vn -0.6396 0.2530 0.7258
vn -0.9379 0.0574 -0.3422
vn -0.0331 0.4837 0.8746
vn 0.0926 -0.4610 0.8826
vn 0.5652 -0.4873 0.6657
vn -0.3626 -0.9254 0.1101
vn -0.4640 0.3561 0.8111
vn -0.7409 0.4837 -0.4660
vn -0.8106 -0.4610 -0.3611
vn -0.8591 -0.4873 0.1566
vn 0.7740 0.4837 -0.4086
vn 0.2939 -0.4873 -0.8223
vn 0.0894 -0.9229 -0.3746
vn -0.4661 0.3566 -0.8097
vn 0.8344 -0.5001 -0.2316
vn 0.3922 -0.9045 -0.1675
vn 0.9679 -0.1393 -0.2091
vn 0.1638 0.9602 -0.2262
vn 0.2804 0.9592 0.0374
vn 0.1538 -0.9881 0.0024
vn -0.2817 -0.9486 -0.1444
vn -0.6178 -0.5001 -0.6068
vn -0.3456 -0.9031 -0.2547
vn -0.6734 -0.1483 -0.7243
vn -0.2808 0.9534 0.1100
vn -0.1078 0.9592 -0.2615
vn -0.2166 -0.5001 0.8384
vn -0.0511 -0.9045 0.4234
vn -0.3029 -0.1393 0.9428
vn 0.1140 0.9602 0.2549
vn -0.1726 0.9592 0.2241
vn -0.0748 -0.9881 -0.1344
vn 0.0158 -0.9486 0.3161
vn -0.0790 -0.9881 0.1320
vn 0.2659 -0.9486 -0.1717
vn -0.8313 -0.2545 0.4941
vn -0.0122 -0.2545 -0.9670
vn 0.8435 -0.2545 0.4729
vn 0.5815 -0.0574 -0.8115
vn -0.5241 0.7465 0.4100
vn 0.6171 0.7465 0.2488
vn 0.4121 -0.0574 0.9093
vn -0.0930 0.7465 -0.6588
vn -0.1723 0.9799 -0.1001
vn -0.3110 0.1768 -0.9338
vn 0.9642 0.1768 0.1975
vn 0.1728 0.9799 -0.0992
vn -0.0005 0.9799 0.1993
vn -0.4195 -0.7612 0.4946
vn 0.6380 -0.7612 0.1160
vn -0.2186 -0.7612 -0.6106
vt 19.997200 7.316463
vt 18.557198 6.519720
vt 19.967199 5.671015
vt -20.436329 6.445849
vt -19.046074 5.695765
vt -19.029808 7.303269
vt -79.822998 6.519680
vt -80.873001 7.281823
vt -80.873001 6.485079
vt -79.822998 5.722977
vt -80.873001 5.722977
vt 79.822998 19.991007
vt 80.873001 19.047199
vt 80.873001 19.997200
vt 79.822998 7.281823
vt 80.873001 6.519720
vt 80.873001 7.281823
vt 79.806946 6.489452
vt 80.873001 5.722977
vt -79.802124 19.077816
vt -80.873001 19.967199
vt -80.873001 19.017202
vt 15.390449 6.351258
vt 15.179736 7.146244
vt 15.137580 6.335135
vt 22.718853 3.738409
vt 22.778471 3.602109
vt 22.953167 3.953784
vt -21.278811 2.534425
vt -21.029568 2.411869
vt -20.706120 2.636369
vt 21.696468 3.012758
vt 21.113348 2.432784
vt 21.858147 2.787097
vt -80.325432 9.977148
vt -80.456909 9.866076
vt -80.555931 9.473713
vt 80.352654 15.243237
vt 80.456909 15.203512
vt 80.555923 15.559669
vt 21.434685 10.143185
vt 22.228519 9.928166
vt 21.547155 10.370234
vt 80.208160 7.192760
vt 80.179672 8.143300
vt 80.066849 8.195201
vt -19.653391 8.730165
vt -20.193956 10.663930
vt -19.400024 7.139846
vt 19.836096 4.545876
vt 19.757204 6.069380
vt -80.208160 6.326734
vt -80.179672 5.565114
vt -80.066849 5.618755
vt -21.363396 5.261919
vt -22.767813 3.826892
vt -20.112831 6.276492
vt -80.208160 19.007200
vt -80.179672 18.018684
vt -80.066849 18.019690
vt -17.504810 5.515125
vt -15.559837 5.016380
vt -19.008743 6.090860
vt 17.648357 7.195828
vt 19.007193 6.502399
vt 21.037151 7.765498
vt 19.757204 6.935419
vt 21.824360 8.565519
vt 22.193527 9.474447
vt 16.561890 7.477560
vt 15.590186 7.342805
vt 20.135334 3.464119
vt 20.737896 2.689972
vt 21.363396 5.261919
vt -21.155445 7.837353
vt -22.057755 10.020655
vt -21.924578 8.971068
vt 19.828392 8.641088
vt 20.117416 10.721475
vt 19.347527 7.171938
vt -20.110107 6.731027
vt -21.523668 10.376513
vt 80.262711 22.059139
vt 80.082787 21.545282
vt 80.432594 22.226372
vt 21.198757 5.154902
vt -19.839207 4.407435
vt 20.166872 6.305911
vt -19.403742 5.865953
vt -21.854050 2.819032
vt -80.203690 2.545897
vt -80.089386 2.787097
vt -80.258492 2.548119
vt 17.494442 5.711215
vt 15.548274 4.921323
vt -17.526997 7.262341
vt -15.185029 6.952128
vt -16.160582 7.361576
vt 19.007200 6.029351
vt -19.007750 6.910221
vt -15.143891 6.311656
vt 80.296310 7.001880
vt 80.082787 6.321467
vt 80.432587 7.144303
vt 20.457199 6.485079
vt 19.047199 7.333784
vt 19.017202 5.688335
vt -20.007004 7.277632
vt -19.984283 5.700439
vt -18.573250 6.489452
vt -79.822998 7.281823
vt 79.805267 19.047804
vt 79.822998 5.722977
vt -79.806061 19.967083
vt -79.870392 3.751445
vt -79.917336 3.893936
vt -79.949120 3.513778
vt -20.756723 10.416038
vt -20.538229 10.727255
vt 79.949638 5.248155
vt 79.997520 5.218996
vt 22.350800 3.193769
vt 79.870392 20.233908
vt 79.950668 20.168152
vt 79.949638 20.508766
vt -15.493153 5.627700
vt -15.332855 5.282866
vt 79.870392 5.010137
vt 79.917336 4.796831
vt -22.271744 3.463466
vt -22.650520 3.497077
vt -80.554054 6.669070
vt -80.373962 6.701644
vt -80.617729 8.473590
vt 20.203453 6.680278
vt 80.040741 7.167626
vt 19.313122 5.810490
vt 80.554054 5.797215
vt 80.373962 5.835619
vt 80.617737 3.583221
vt 80.170509 20.222834
vt 80.066849 20.951706
vt 80.040749 20.160984
vt 80.554047 19.003834
vt 80.373962 19.007200
vt 80.617737 16.683739
vt 19.005028 7.016432
vt -80.040749 19.008778
vt -19.991383 10.761000
vt 19.653391 8.730165
vt -15.577053 4.792416
vt 17.504810 5.515125
vt -22.953167 3.953784
s 1
usemtl Floor
f 2/1/1 4/2/2 6/3/3
f 7/4/4 11/5/5 9/6/6
f 7/7/4 2/8/1 1/9/7
f 12/10/8 1/9/7 6/11/3
f 8/12/9 3/13/10 2/14/1
f 9/15/6 4/16/2 3/17/10
f 10/18/11 5/19/12 4/16/2
f 11/20/5 6/21/3 5/22/12
f 60/23/13 29/24/14 59/25/15
f 49/26/16 33/27/17 64/28/18
f 31/29/19 32/30/20 51/31/21
f 57/32/22 32/33/20 56/34/23
f 26/35/24 25/36/25 45/37/26
f 28/38/27 29/39/14 46/40/28
f 53/41/29 25/42/25 54/43/30
f 16/44/31 35/45/32 61/46/33
f 61/47/33 43/48/34 15/49/35
f 39/50/36 57/32/22 55/51/37
f 24/52/38 37/53/39 62/54/40
f 62/55/40 50/56/41 23/57/42
f 20/58/43 41/59/44 63/60/45
f 63/61/45 47/62/46 19/63/47
f 40/64/48 60/23/13 58/65/49
f 36/66/50 53/41/29 52/67/51
f 34/68/52 45/69/26 36/66/50
f 42/70/53 46/71/28 40/64/48
f 38/72/54 51/73/21 39/50/36
f 62/74/40 49/26/16 64/28/18
f 34/75/52 26/76/24 45/77/26
f 35/78/32 53/41/29 44/79/55
f 16/80/31 52/67/51 35/78/32
f 14/81/56 54/82/30 26/76/24
f 26/83/24 54/84/30 25/85/25
f 37/86/39 57/32/22 49/26/16
f 38/87/54 31/29/19 51/31/21
f 24/88/38 55/51/37 37/86/39
f 22/89/57 56/90/23 31/29/19
f 31/91/19 56/92/23 32/93/20
f 41/94/44 60/23/13 48/95/58
f 42/96/53 28/97/27 46/98/28
f 20/99/43 58/65/49 41/94/44
f 18/100/59 59/101/15 28/97/27
f 28/102/27 59/103/15 29/104/14
f 6/3/3 1/105/7 2/1/1
f 2/1/1 3/106/10 4/2/2
f 4/2/2 5/107/12 6/3/3
f 9/6/6 8/108/9 7/4/4
f 7/4/4 12/109/8 11/5/5
f 11/5/5 10/110/11 9/6/6
f 7/7/4 8/111/9 2/8/1
f 12/10/8 7/7/4 1/9/7
f 8/12/9 9/112/6 3/13/10
f 9/15/6 10/18/11 4/16/2
f 10/18/11 11/113/5 5/19/12
f 11/20/5 12/114/8 6/21/3
f 50/115/41 64/116/18 33/117/17
f 66/118/60 43/48/34 27/119/61
f 54/82/30 66/118/60 27/119/61
f 59/103/15 30/120/62 48/121/58
f 56/34/23 33/122/17 49/26/16
f 43/123/34 44/124/55 27/125/61
f 67/126/63 47/62/46 30/127/62
f 59/101/15 67/126/63 30/127/62
f 47/128/46 48/129/58 30/120/62
f 65/130/64 50/56/41 33/131/17
f 56/90/23 65/130/64 33/131/17
f 13/132/65 14/133/56 34/134/52
f 13/135/65 34/68/52 36/66/50
f 16/44/31 61/46/33 15/136/35
f 54/84/30 27/125/61 44/124/55
f 23/57/42 50/56/41 65/130/64
f 23/57/42 65/130/64 56/90/23
f 21/137/66 39/50/36 55/51/37
f 39/50/36 51/73/21 57/32/22
f 21/138/66 22/139/57 38/140/54
f 21/137/66 38/72/54 39/50/36
f 24/141/38 62/142/40 23/143/42
f 17/144/67 18/145/59 42/146/53
f 17/147/67 42/70/53 40/64/48
f 20/58/43 63/60/45 19/148/47
f 19/63/47 47/62/46 67/126/63
f 19/63/47 67/126/63 59/101/15
f 17/147/67 40/64/48 58/65/49
f 40/64/48 46/71/28 60/23/13
f 13/135/65 36/66/50 52/67/51
f 36/66/50 45/69/26 53/41/29
f 61/47/33 44/149/55 43/48/34
f 61/150/33 35/78/32 44/79/55
f 15/49/35 43/48/34 66/118/60
f 15/49/35 66/118/60 54/82/30
f 63/61/45 48/151/58 47/62/46
f 63/152/45 41/94/44 48/95/58
f 60/23/13 46/71/28 29/24/14
f 57/32/22 51/73/21 32/33/20
f 62/55/40 64/153/18 50/56/41
f 62/74/40 37/86/39 49/26/16
f 53/41/29 45/69/26 25/42/25
f 35/78/32 52/67/51 53/41/29
f 14/81/56 15/49/35 54/82/30
f 34/75/52 14/81/56 26/76/24
f 53/41/29 54/43/30 44/79/55
f 37/86/39 55/51/37 57/32/22
f 22/89/57 23/57/42 56/90/23
f 38/87/54 22/89/57 31/29/19
f 57/32/22 56/34/23 49/26/16
f 41/94/44 58/65/49 60/23/13
f 18/100/59 19/63/47 59/101/15
f 42/96/53 18/100/59 28/97/27
f 60/23/13 59/25/15 48/95/58
